<svg width="74" height="59" viewBox="0 0 74 59" fill="none" xmlns="http://www.w3.org/2000/svg">
<path d="M7.84078 16.7311V13.8812C7.84078 11.5062 8.31544 9.28954 9.42298 7.38955C10.3723 5.48957 11.9545 3.90625 13.8531 2.6396C15.7518 1.53128 17.9669 0.897949 20.8148 0.897949C23.6628 0.897949 26.0361 1.53128 27.9347 2.6396C29.8334 3.74792 31.4156 5.33124 32.3649 7.38955C33.3142 9.28954 33.7889 11.5062 33.7889 13.8812V16.7311C33.7889 19.1061 33.3142 21.1644 32.3649 23.2227C31.4156 25.1227 29.8334 26.706 27.9347 27.8144C26.0361 28.9227 23.6628 29.556 20.8148 29.556C17.9669 29.556 15.5936 28.9227 13.6949 27.8144C11.7963 26.706 10.3723 25.1227 9.26476 23.0644C8.31544 21.1644 7.84078 19.1061 7.84078 16.7311ZM12.5874 55.9974L47.3958 5.33124C48.1869 4.22292 49.2944 3.58959 50.7184 3.58959H57.6801C58.9459 3.58959 59.737 5.01458 58.9459 6.1229L24.1374 56.7891C23.3463 57.8974 22.2388 58.5307 20.8148 58.5307H13.8531C12.5874 58.3724 11.7963 56.9474 12.5874 55.9974ZM17.1758 13.8812V16.7311C17.1758 17.8395 17.4922 18.7894 17.9669 19.7394C18.4415 20.6894 19.3908 21.1644 20.6566 21.1644C22.0806 21.1644 23.1881 20.6894 23.6628 19.7394C24.1374 18.7894 24.4539 17.6811 24.2957 16.7311V13.8812C24.2957 12.7728 24.1374 11.8228 23.6628 10.7145C23.1881 9.76453 22.2388 9.28954 20.6566 9.28954C19.2326 9.28954 18.2833 9.76453 17.8086 10.8729C17.4922 11.8228 17.334 12.7728 17.1758 13.8812ZM41.067 45.0725V42.0642C41.067 39.6893 41.5417 37.6309 42.6492 35.5726C43.5985 33.6726 45.1807 32.0893 47.0794 30.8227C48.978 29.556 51.3513 29.081 54.041 29.081C56.889 29.081 59.2623 29.7143 61.1609 30.8227C63.0596 31.931 64.6418 33.5143 65.5911 35.5726C66.5404 37.4726 67.0151 39.6893 67.0151 42.0642V44.9142C67.0151 47.2892 66.5404 49.3475 65.5911 51.4058C64.6418 53.3058 63.0596 54.8891 61.1609 56.1558C59.2623 57.4224 56.889 57.8974 54.041 57.8974C51.1931 57.8974 48.8198 57.2641 46.9211 56.1558C45.0225 54.8891 43.5985 53.3058 42.491 51.4058C41.6999 49.5058 41.2252 47.2892 41.067 45.0725ZM50.402 42.0642V44.9142C50.402 45.8642 50.7184 46.9725 51.1931 47.9225C51.6677 48.8725 52.6171 49.3475 54.041 49.3475C55.465 49.3475 56.5726 48.8725 57.0472 47.9225C57.5219 46.9725 57.8383 45.8642 57.6801 44.9142V42.0642C57.6801 40.9559 57.5219 40.0059 57.0472 38.8976C56.5726 37.9476 55.6232 37.4726 54.041 37.4726C52.6171 37.4726 51.6677 37.9476 51.1931 38.8976C50.7184 40.0059 50.5602 41.1142 50.402 42.0642ZM72.711 19.1061C73.9768 22.7477 71.9199 26.5477 68.4391 27.8144C64.8 29.081 61.0027 27.0227 59.737 23.5394C58.4712 19.8978 60.3698 15.9395 64.0089 14.6728C67.648 13.5645 71.4452 15.4645 72.711 19.1061ZM9.10654 44.7559C9.89764 46.9725 8.63188 49.5058 6.4168 50.2975C4.20172 51.0891 1.6702 49.8225 0.879097 47.6058C0.0879964 45.3892 1.35376 42.8559 3.56884 42.0642C5.78392 41.2726 8.31544 42.5392 9.10654 44.7559ZM12.1127 35.256C12.5874 36.5226 11.7963 37.9476 10.5305 38.4226C9.26476 38.8976 7.84078 38.1059 7.36612 36.8393C6.89146 35.5726 7.68256 34.1476 8.94832 33.6726C10.3723 33.356 11.6381 33.9893 12.1127 35.256Z" fill="url(#paint0_linear)"/>
<defs>
<linearGradient id="paint0_linear" x1="0.393678" y1="-3.68528" x2="72.3745" y2="68.9137" gradientUnits="userSpaceOnUse">
<stop stop-color="#24BDE3"/>
<stop offset="1" stop-color="#FC28D3"/>
</linearGradient>
</defs>
</svg>
