<svg width="71" height="68" viewBox="0 0 71 68" fill="none" xmlns="http://www.w3.org/2000/svg">
<path d="M47.1557 27.2604V10.6441C47.1557 9.47121 46.3769 8.68927 45.2087 8.68927H31.1902C30.022 8.68927 29.2432 9.47121 29.2432 10.6441V27.2604C29.2432 28.4333 28.4644 29.2153 27.2962 29.2153H10.7466C9.57843 29.2153 8.79963 29.9972 8.79963 31.1701V45.2451C8.79963 46.418 9.57843 47.2 10.7466 47.2H27.2962C28.4644 47.2 29.2432 47.9819 29.2432 49.1548V65.7711C29.2432 66.9441 30.022 67.726 31.1902 67.726H45.2087C46.3769 67.726 47.1557 66.9441 47.1557 65.7711V49.1548C47.1557 47.9819 47.9345 47.2 49.1027 47.2H65.6522C66.8204 47.2 67.5992 46.418 67.5992 45.2451V31.1701C67.5992 29.9972 66.8204 29.2153 65.6522 29.2153H49.1027C47.9345 29.2153 47.1557 28.4333 47.1557 27.2604ZM17.5612 6.14795C19.1188 10.6441 16.5877 15.3358 12.3042 16.8997C8.02083 18.4636 2.95861 15.9222 1.40101 11.4261C-0.156601 6.9299 2.37451 2.23824 6.85262 0.674349C11.3307 -0.889538 16.0036 1.65178 17.5612 6.14795ZM66.6257 17.6816C67.5992 20.4184 66.0416 23.5462 63.3158 24.5236C60.59 25.5011 57.4748 23.9372 56.5013 21.2004C55.5278 18.4636 57.0854 15.3358 59.8112 14.3584C62.537 13.3809 65.8469 14.7493 66.6257 17.6816ZM70.3251 5.75698C70.9092 7.32087 69.9356 9.08024 68.378 9.6667C66.8204 10.2532 65.0681 9.27573 64.484 7.71184C63.8999 6.14795 64.8734 4.38858 66.431 3.80212C68.1833 3.41115 69.741 4.19309 70.3251 5.75698Z" fill="url(#paint0_linear)"/>
<defs>
<linearGradient id="paint0_linear" x1="9.62516" y1="47.4995" x2="63.6271" y2="3.64242" gradientUnits="userSpaceOnUse">
<stop stop-color="#24BDE3"/>
<stop offset="1" stop-color="#FC28D3"/>
</linearGradient>
</defs>
</svg>
