<svg width="47" height="47" viewBox="0 0 47 47" fill="none" xmlns="http://www.w3.org/2000/svg">
<path d="M24.1693 11.1412L7.62676 14.6119C7.08967 14.7203 6.76741 15.1542 6.76741 15.6965C7.73418 35.3277 18.691 43.5707 24.0619 46.4991C24.7064 46.8245 25.4584 46.8245 25.9955 46.4991C31.3664 43.5707 42.3232 35.3277 43.29 15.6965C43.29 15.1542 42.9677 14.7203 42.4306 14.6119L25.9955 11.1412C25.351 11.0327 24.8139 11.0327 24.1693 11.1412ZM46.5126 3.87436C47.3719 6.36893 45.9755 8.97197 43.6123 9.83965C41.1416 10.7073 38.5635 9.29735 37.7042 6.91123C36.8448 4.52512 38.2413 1.81362 40.6045 0.945939C42.9677 0.0782601 45.7606 1.37978 46.5126 3.87436ZM5.69322 38.0392C6.23031 39.6661 5.37096 41.293 3.86708 41.8353C2.36321 42.3776 0.644504 41.5099 0.107407 39.9915C-0.42969 38.4731 0.429665 36.7377 1.93354 36.1954C3.43741 35.6531 5.15612 36.5208 5.69322 38.0392ZM12.9977 41.4015C13.32 42.2691 12.7829 43.2453 11.9235 43.5707C11.0642 43.896 10.0974 43.3537 9.77515 42.4861C9.45289 41.6184 9.98999 40.6423 10.8493 40.3169C11.7087 39.9915 12.6755 40.5338 12.9977 41.4015Z" fill="url(#paint0_linear_4486_3578)"/>
<defs>
<linearGradient id="paint0_linear_4486_3578" x1="-10.4009" y1="54.7068" x2="65.2389" y2="-9.78453" gradientUnits="userSpaceOnUse">
<stop stop-color="#24BDE3"/>
<stop offset="1" stop-color="#FC28D3"/>
</linearGradient>
</defs>
</svg>
