<svg width="80" height="80" viewBox="0 0 80 80" fill="none" xmlns="http://www.w3.org/2000/svg">
<path d="M41.2254 18.3028L13.0088 24.2228C12.0927 24.4078 11.543 25.1478 11.543 26.0728C13.1921 59.5577 31.881 73.6176 41.0422 78.6126C42.1415 79.1676 43.4241 79.1676 44.3402 78.6126C53.5015 73.6176 72.1904 59.5577 73.8394 26.0728C73.8394 25.1478 73.2897 24.4078 72.3736 24.2228L44.3402 18.3028C43.2409 18.1178 42.3248 18.1178 41.2254 18.3028ZM79.3361 5.90788C80.8019 10.1629 78.42 14.6028 74.389 16.0828C70.1749 17.5628 65.7775 15.1578 64.3117 11.0879C62.8459 7.01787 65.2278 2.39289 69.2588 0.912898C73.2897 -0.567097 78.0535 1.65289 79.3361 5.90788ZM9.71079 64.1827C10.6269 66.9576 9.16112 69.7326 6.59597 70.6576C4.03083 71.5826 1.09924 70.1026 0.183115 67.5126C-0.733007 64.9227 0.732789 61.9627 3.29793 61.0377C5.86308 60.1127 8.79467 61.5927 9.71079 64.1827ZM22.1701 69.9176C22.7197 71.3976 21.8036 73.0626 20.3378 73.6176C18.872 74.1726 17.223 73.2476 16.6733 71.7676C16.1236 70.2876 17.0398 68.6226 18.5056 68.0676C19.9714 67.5126 21.6204 68.4376 22.1701 69.9176Z" fill="url(#paint0_linear)"/>
<defs>
<linearGradient id="paint0_linear" x1="-17.7408" y1="92.6124" x2="111.277" y2="-17.39" gradientUnits="userSpaceOnUse">
<stop stop-color="#24BDE3"/>
<stop offset="1" stop-color="#FC28D3"/>
</linearGradient>
</defs>
</svg>
