<svg width="76" height="76" viewBox="0 0 76 76" fill="none" xmlns="http://www.w3.org/2000/svg">
<path d="M37.0993 74.885C36.6606 75.2704 36.1202 75.5212 35.5427 75.6075C34.9652 75.6937 34.375 75.6117 33.8429 75.3713C33.3108 75.1309 32.8592 74.7422 32.5422 74.2518C32.2252 73.7614 32.0562 73.1901 32.0555 72.6062V43.1333L31.7061 43.27H10.437C9.82017 43.2691 9.21824 43.0805 8.7112 42.7293C8.20416 42.3781 7.816 41.8809 7.59835 41.3038C7.38069 40.7266 7.34383 40.0969 7.49266 39.4984C7.6415 38.8998 7.96898 38.3607 8.43158 37.9527L46.1083 0.762122C46.547 0.376735 47.0874 0.125909 47.665 0.0396705C48.2425 -0.0465684 48.8326 0.0354242 49.3647 0.275844C49.8969 0.516263 50.3484 0.904917 50.6654 1.3953C50.9824 1.88569 51.1514 2.45704 51.1521 3.04096V32.4835L51.5168 32.3619H72.7859C73.4027 32.3628 74.0046 32.5514 74.5117 32.9026C75.0187 33.2538 75.4069 33.7511 75.6245 34.3282C75.8422 34.9053 75.879 35.535 75.7302 36.1336C75.5814 36.7322 75.2539 37.2713 74.7913 37.6792L37.0993 74.885ZM61.4069 8.64687C60.0565 9.09809 58.8701 9.93953 57.9978 11.0648C57.1255 12.1901 56.6063 13.5487 56.5058 14.9689C56.4054 16.3892 56.7283 17.8073 57.4336 19.0441C58.1389 20.281 59.1951 21.281 60.4686 21.9177C61.7421 22.5545 63.1757 22.7994 64.5884 22.6215C66.0011 22.4437 67.3293 21.8511 68.4053 20.9186C69.4812 19.9861 70.2566 18.7556 70.6334 17.3826C71.0102 16.0095 70.9715 14.5556 70.5222 13.2045C70.2284 12.3025 69.7588 11.4675 69.1406 10.7478C68.5224 10.0282 67.7679 9.43804 66.9204 9.01149C66.073 8.58495 65.1495 8.33043 64.2032 8.26264C63.2569 8.19484 62.3065 8.31512 61.4069 8.6165V8.64687ZM16.5746 53.6159C16.1448 53.7722 15.7703 54.0511 15.4973 54.418C15.2243 54.7849 15.0648 55.2238 15.0385 55.6803C15.0123 56.1369 15.1205 56.5912 15.3496 56.987C15.5788 57.3827 15.9189 57.7027 16.328 57.9072C16.737 58.1117 17.1971 58.1919 17.6512 58.1377C18.1053 58.0836 18.5336 57.8976 18.8832 57.6026C19.2327 57.3077 19.4881 56.9168 19.6178 56.4783C19.7475 56.0397 19.7459 55.5727 19.6131 55.1351C19.5207 54.8309 19.3674 54.5487 19.1624 54.3058C18.9573 54.0628 18.705 53.8641 18.4206 53.722C18.1363 53.5798 17.8259 53.4971 17.5085 53.4788C17.1911 53.4606 16.8734 53.5072 16.5746 53.6159Z" fill="url(#paint0_linear)"/>
<path d="M4.14748 32.8477C6.43807 32.8477 8.29496 30.9909 8.29496 28.7003C8.29496 26.4097 6.43807 24.5528 4.14748 24.5528C1.85689 24.5528 0 26.4097 0 28.7003C0 30.9909 1.85689 32.8477 4.14748 32.8477Z" fill="url(#paint1_linear)"/>
<defs>
<linearGradient id="paint0_linear" x1="0.121538" y1="24.6439" x2="72.9227" y2="62.2945" gradientUnits="userSpaceOnUse">
<stop stop-color="#24BDE3"/>
<stop offset="1" stop-color="#FC28D3"/>
</linearGradient>
<linearGradient id="paint1_linear" x1="0.121538" y1="24.6439" x2="72.9227" y2="62.2945" gradientUnits="userSpaceOnUse">
<stop stop-color="#24BDE3"/>
<stop offset="1" stop-color="#FC28D3"/>
</linearGradient>
</defs>
</svg>
