<svg width="38" height="34" viewBox="0 0 38 34" fill="none" xmlns="http://www.w3.org/2000/svg">
<path d="M17.6371 7.84908L5.58705 10.367C5.40776 10.4036 5.24697 10.5018 5.13267 10.6447C5.01837 10.7876 4.95779 10.966 4.96148 11.149C5.65742 25.3181 13.6178 31.2611 17.5667 33.3489C17.788 33.4628 18.0333 33.5222 18.2822 33.5222C18.5311 33.5222 18.7764 33.4628 18.9977 33.3489C22.9075 31.2611 30.907 25.3181 31.603 11.149C31.6067 10.966 31.5461 10.7876 31.4318 10.6447C31.3175 10.5018 31.1567 10.4036 30.9774 10.367L18.8804 7.84908C18.47 7.76734 18.0475 7.76734 17.6371 7.84908ZM33.8863 2.56301C34.0977 3.19828 34.116 3.88195 33.9389 4.52762C33.7618 5.17329 33.3973 5.75195 32.8914 6.19049C32.3855 6.62902 31.7609 6.90772 31.0966 6.99137C30.4324 7.07502 29.7582 6.95986 29.1594 6.66044C28.5605 6.36103 28.0639 5.8908 27.7323 5.3092C27.4006 4.7276 27.2489 4.06072 27.2961 3.39288C27.3434 2.72504 27.5876 2.08621 27.9979 1.55713C28.4082 1.02806 28.9661 0.632483 29.6012 0.420424C30.0232 0.279493 30.4689 0.223125 30.9127 0.254548C31.3565 0.285971 31.7898 0.404566 32.1878 0.603554C32.5858 0.802541 32.9406 1.07802 33.2321 1.41424C33.5235 1.75045 33.7458 2.14082 33.8863 2.56301ZM4.17169 27.234C4.30793 27.6358 4.32181 28.069 4.21157 28.4787C4.10132 28.8884 3.87192 29.2562 3.55244 29.5353C3.23295 29.8145 2.83777 29.9926 2.41699 30.0469C1.9962 30.1012 1.56875 30.0294 1.18883 29.8406C0.808901 29.6517 0.493603 29.3543 0.282895 28.986C0.0721867 28.6178 -0.0244413 28.1952 0.00525618 27.772C0.0349537 27.3488 0.189641 26.9439 0.44971 26.6086C0.70978 26.2734 1.06352 26.0229 1.4661 25.889C1.73205 25.7994 2.01306 25.7631 2.29304 25.7823C2.57302 25.8014 2.84647 25.8756 3.09777 26.0005C3.34906 26.1254 3.57326 26.2986 3.75754 26.5103C3.94181 26.722 4.08255 26.9679 4.17169 27.234ZM9.49687 29.6502C9.56826 29.8768 9.57106 30.1194 9.50492 30.3475C9.43878 30.5757 9.30664 30.7791 9.12514 30.9324C8.94364 31.0856 8.72087 31.1817 8.48487 31.2086C8.24887 31.2356 8.01018 31.1921 7.79882 31.0837C7.58746 30.9753 7.41288 30.8069 7.29703 30.5995C7.18118 30.3921 7.12925 30.1551 7.14777 29.9183C7.16628 29.6815 7.25442 29.4555 7.40108 29.2686C7.54775 29.0818 7.7464 28.9425 7.97204 28.8683C8.12346 28.8185 8.28327 28.7992 8.44219 28.8116C8.60112 28.8241 8.75599 28.8679 8.89783 28.9406C9.03968 29.0134 9.16567 29.1136 9.2685 29.2354C9.37133 29.3572 9.44895 29.4982 9.49687 29.6502Z" fill="url(#paint0_linear_6878_71547)"/>
<g filter="url(#filter0_b_6878_71547)">
<path d="M32.2751 32.9747H25.0473C21.8985 32.9747 19.3223 30.3985 19.3223 27.2497V20.0219C19.3223 16.8731 21.8985 14.2969 25.0473 14.2969H32.2751C35.4238 14.2969 38.0001 16.8731 38.0001 20.0219V27.2497C38.0001 30.3985 35.4238 32.9747 32.2751 32.9747Z" fill="url(#paint1_linear_6878_71547)"/>
</g>
<defs>
<filter id="filter0_b_6878_71547" x="16.1689" y="11.1435" width="24.9845" height="24.9865" filterUnits="userSpaceOnUse" color-interpolation-filters="sRGB">
<feFlood flood-opacity="0" result="BackgroundImageFix"/>
<feGaussianBlur in="BackgroundImage" stdDeviation="1.5767"/>
<feComposite in2="SourceAlpha" operator="in" result="effect1_backgroundBlur_6878_71547"/>
<feBlend mode="normal" in="SourceGraphic" in2="effect1_backgroundBlur_6878_71547" result="shape"/>
</filter>
<linearGradient id="paint0_linear_6878_71547" x1="-7.56558" y1="39.2371" x2="47.0468" y2="-7.77454" gradientUnits="userSpaceOnUse">
<stop stop-color="#24BDE3"/>
<stop offset="1" stop-color="#FC28D3"/>
</linearGradient>
<linearGradient id="paint1_linear_6878_71547" x1="19.8739" y1="13.0709" x2="37.5388" y2="34.2885" gradientUnits="userSpaceOnUse">
<stop stop-color="#24BDE3" stop-opacity="0.2"/>
<stop offset="1" stop-color="#FC28D3" stop-opacity="0.8"/>
</linearGradient>
</defs>
</svg>
