<svg width="29" height="33" viewBox="0 0 29 33" fill="none" xmlns="http://www.w3.org/2000/svg">
<path d="M26.7177 21.7966C26.7177 24.5609 25.6196 27.212 23.6649 29.1667C21.7102 31.1213 19.0591 32.2195 16.2948 32.2195C14.9258 32.2199 13.5701 31.9506 12.3052 31.4271C11.0402 30.9035 9.8908 30.1358 8.92259 29.1679C7.95439 28.2 7.18634 27.0509 6.66233 25.7861C6.13832 24.5213 5.86862 23.1657 5.86862 21.7966C5.86862 16.8523 13.5522 5.065 15.7368 1.82893C15.7988 1.73486 15.8831 1.65765 15.9823 1.60422C16.0815 1.5508 16.1924 1.52285 16.3051 1.52285C16.4177 1.52285 16.5286 1.5508 16.6278 1.60422C16.727 1.65765 16.8113 1.73486 16.8733 1.82893C19.0341 5.065 26.7177 16.8523 26.7177 21.7966ZM3.65338 0.192173C2.77454 0.487349 2.04809 1.11808 1.63246 1.94679C1.21684 2.7755 1.14574 3.73493 1.43474 4.61583C1.72847 5.49585 2.35884 6.22369 3.18786 6.64011C4.01689 7.05654 4.97708 7.12764 5.8584 6.83786C6.73779 6.54344 7.46486 5.91284 7.88061 5.08388C8.29636 4.25493 8.36698 3.29508 8.07704 2.4142C7.78335 1.53339 7.1525 0.804926 6.32267 0.388421C5.49285 -0.0280848 4.53174 -0.0986526 3.64998 0.192173H3.65338ZM22.1034 1.32872C21.5214 1.52284 21.0403 1.94017 20.7659 2.48895C20.4915 3.03773 20.4463 3.67303 20.6402 4.25513C20.8344 4.83717 21.2517 5.31829 21.8005 5.59269C22.3493 5.86708 22.9846 5.91227 23.5667 5.71834C24.1488 5.52415 24.6301 5.107 24.9051 4.55838C25.18 4.00977 25.2261 3.3745 25.0333 2.79193C24.9372 2.50295 24.785 2.23578 24.5855 2.00573C24.3859 1.77569 24.1429 1.5873 23.8704 1.45136C23.5979 1.31543 23.3013 1.23463 22.9975 1.21358C22.6937 1.19253 22.3887 1.23166 22.1001 1.32872H22.1034ZM27.2757 5.99737C26.9464 6.10759 26.6743 6.34406 26.5193 6.6548C26.3642 6.96554 26.3389 7.32513 26.4488 7.65454C26.5591 7.98307 26.795 8.25452 27.105 8.4095C27.4149 8.56447 27.7736 8.59034 28.1026 8.48142C28.2658 8.42756 28.4169 8.34201 28.547 8.22968C28.6771 8.11735 28.7838 7.98047 28.8609 7.82684C28.938 7.67322 28.9841 7.50588 28.9965 7.33443C29.0088 7.16297 28.9872 6.99075 28.9329 6.82766C28.8787 6.66429 28.7928 6.51321 28.6801 6.38306C28.5675 6.2529 28.4303 6.1462 28.2764 6.06909C28.1225 5.99198 27.9549 5.94596 27.7832 5.93365C27.6115 5.92135 27.4391 5.943 27.2757 5.99737V5.99737Z" fill="url(#paint0_linear_6878_71543)"/>
<g filter="url(#filter0_b_6878_71543)">
<path d="M5.51397 28.2472H12.4754C15.5081 28.2472 17.9893 25.7659 17.9893 22.7332V15.7718C17.9893 12.7391 15.5081 10.2578 12.4754 10.2578H5.51397C2.48129 10.2578 0 12.7391 0 15.7718V22.7332C0 25.7659 2.48129 28.2472 5.51397 28.2472Z" fill="url(#paint1_linear_6878_71543)"/>
</g>
<defs>
<filter id="filter0_b_6878_71543" x="-1.36113" y="8.89669" width="20.7115" height="20.7105" filterUnits="userSpaceOnUse" color-interpolation-filters="sRGB">
<feFlood flood-opacity="0" result="BackgroundImageFix"/>
<feGaussianBlur in="BackgroundImage" stdDeviation="0.680563"/>
<feComposite in2="SourceAlpha" operator="in" result="effect1_backgroundBlur_6878_71543"/>
<feBlend mode="normal" in="SourceGraphic" in2="effect1_backgroundBlur_6878_71543" result="shape"/>
</filter>
<linearGradient id="paint0_linear_6878_71543" x1="1.251" y1="16.1173" x2="29.0009" y2="16.1173" gradientUnits="userSpaceOnUse">
<stop stop-color="#24BDE3"/>
<stop offset="1" stop-color="#FC28D3"/>
</linearGradient>
<linearGradient id="paint1_linear_6878_71543" x1="17.4608" y1="9.08871" x2="0.447114" y2="29.5242" gradientUnits="userSpaceOnUse">
<stop stop-color="#24BDE3" stop-opacity="0.2"/>
<stop offset="1" stop-color="#FC28D3" stop-opacity="0.8"/>
</linearGradient>
</defs>
</svg>
