<svg width="91" height="73" viewBox="0 0 91 73" fill="none" xmlns="http://www.w3.org/2000/svg">
<g clip-path="url(#clip0)">
<path d="M35.2326 21.8566C35.2326 24.6269 34.4108 27.335 32.8713 29.6382C31.3318 31.9414 29.1436 33.7362 26.5838 34.7955C24.0239 35.8547 21.2074 36.1309 18.4906 35.589C15.7738 35.0471 13.2787 33.7115 11.3212 31.7512C9.3636 29.7909 8.03146 27.294 7.49337 24.5764C6.95528 21.8588 7.2354 19.0427 8.29825 16.4843C9.36111 13.9259 11.1589 11.7404 13.4643 10.2041C15.7696 8.66775 18.4789 7.84978 21.2492 7.85365C23.0872 7.85365 24.9071 8.216 26.6049 8.91996C28.3028 9.62391 29.8451 10.6556 31.1438 11.9562C32.4426 13.2567 33.4722 14.8006 34.1737 16.4994C34.8753 18.1982 35.2351 20.0186 35.2326 21.8566ZM68.8004 7.85365C66.03 7.84978 63.3208 8.66775 61.0155 10.2041C58.7101 11.7404 56.9123 13.9259 55.8494 16.4843C54.7866 19.0427 54.5065 21.8588 55.0446 24.5764C55.5827 27.294 56.9148 29.7909 58.8723 31.7512C60.8299 33.7115 63.3249 35.0471 66.0418 35.589C68.7586 36.1309 71.5751 35.8547 74.135 34.7955C76.6948 33.7362 78.8829 31.9414 80.4225 29.6382C81.962 27.335 82.7838 24.6269 82.7838 21.8566C82.7838 18.1462 81.3111 14.5874 78.6893 11.9619C76.0675 9.33643 72.5108 7.85884 68.8004 7.85365ZM0.567968 44.1242H89.4621C89.6127 44.1242 89.7572 44.0643 89.8637 43.9578C89.9702 43.8513 90.03 43.7068 90.03 43.5562V40.0506C90.03 39.9 89.9702 39.7555 89.8637 39.649C89.7572 39.5425 89.6127 39.4827 89.4621 39.4827H0.567968C0.417338 39.4827 0.272903 39.5425 0.166392 39.649C0.0598804 39.7555 0 39.9 0 40.0506V43.6541C0.0232815 43.7872 0.0932552 43.9077 0.197351 43.9938C0.301447 44.08 0.432862 44.1262 0.567968 44.1242ZM44.5156 48.0411L30.6693 72.0125C30.6178 72.1019 30.5906 72.2032 30.5906 72.3064C30.5907 72.4095 30.6179 72.5109 30.6695 72.6002C30.7211 72.6895 30.7953 72.7637 30.8846 72.8152C30.974 72.8668 31.0754 72.8939 31.1786 72.8938H58.8515C58.9547 72.8939 59.056 72.8668 59.1454 72.8152C59.2347 72.7637 59.309 72.6895 59.3606 72.6002C59.4122 72.5109 59.4393 72.4095 59.4394 72.3064C59.4394 72.2032 59.4122 72.1019 59.3606 72.0125L45.534 48.0411C45.4744 47.9558 45.3932 47.8878 45.2987 47.8442C45.2042 47.8006 45.0998 47.7829 44.9963 47.7929C44.8927 47.8028 44.7936 47.8401 44.7091 47.9009C44.6247 47.9617 44.5579 48.0439 44.5156 48.139V48.0411ZM32.1578 -0.0976562C31.8161 -0.0976342 31.4821 0.00396296 31.1983 0.194217C30.9145 0.384471 30.6936 0.654802 30.5637 0.970861C30.4339 1.28692 30.4009 1.63443 30.469 1.96927C30.5371 2.30411 30.7033 2.61115 30.9463 2.85138C31.1892 3.0916 31.4981 3.25419 31.8337 3.31846C32.1693 3.38273 32.5165 3.34579 32.831 3.21234C33.1456 3.07889 33.4133 2.85496 33.6003 2.56898C33.7873 2.28299 33.8851 1.94786 33.8812 1.60619C33.8561 1.16808 33.6628 0.756596 33.3417 0.457431C33.0207 0.158267 32.5966 -0.00549493 32.1578 0.000272281V-0.0976562ZM66.8419 54.9152C66.2756 54.9113 65.7209 55.0757 65.2481 55.3876C64.7753 55.6994 64.4058 56.1446 64.1864 56.6667C63.9669 57.1888 63.9075 57.7644 64.0156 58.3203C64.1237 58.8763 64.3944 59.3875 64.7935 59.7894C65.1926 60.1912 65.7021 60.4655 66.2573 60.5774C66.8125 60.6894 67.3884 60.6339 67.912 60.4181C68.4356 60.2023 68.8834 59.8358 69.1984 59.3652C69.5135 58.8945 69.6817 58.3409 69.6817 57.7746C69.6564 57.0367 69.3467 56.3372 68.8174 55.8225C68.2881 55.3078 67.5802 55.0178 66.8419 55.0132V54.9152Z" fill="url(#paint0_linear)"/>
</g>
<defs>
<linearGradient id="paint0_linear" x1="-6.11037" y1="68.1935" x2="107.597" y2="-3.192" gradientUnits="userSpaceOnUse">
<stop stop-color="#24BDE3"/>
<stop offset="1" stop-color="#FC28D3"/>
</linearGradient>
<clipPath id="clip0">
<rect width="90.03" height="72.9915" fill="white"/>
</clipPath>
</defs>
</svg>
