<svg width="125" height="109" viewBox="0 0 125 109" fill="none" xmlns="http://www.w3.org/2000/svg">
<circle opacity="0.3" cx="50.5285" cy="58.1623" r="50.2492" fill="#100728"/>
<circle opacity="0.3" cx="474.249" cy="58.1623" r="50.2492" fill="#100728"/>
<g clip-path="url(#clip0)">
<path d="M38.2065 18.1025V24.6817C38.2037 24.7605 38.2172 24.8391 38.2462 24.9124C38.2752 24.9858 38.319 25.0525 38.3749 25.1082C38.4307 25.164 38.4975 25.2077 38.571 25.2366C38.6446 25.2655 38.7233 25.279 38.8023 25.2762H43.4889C43.6469 25.2762 43.7985 25.3388 43.9102 25.4503C44.0219 25.5618 44.0847 25.713 44.0847 25.8707V77.7713C44.0874 77.8501 44.0739 77.9286 44.045 78.002C44.016 78.0754 43.9723 78.142 43.9164 78.1978C43.8605 78.2536 43.7937 78.2973 43.7201 78.3262C43.6466 78.3551 43.5679 78.3685 43.4889 78.3658H38.9016C38.7436 78.3658 38.592 78.4284 38.4803 78.5399C38.3686 78.6514 38.3058 78.8026 38.3058 78.9603V86.5501C38.3058 86.7078 38.243 86.8591 38.1313 86.9706C38.0196 87.082 37.868 87.1447 37.71 87.1447H33.8773C33.7193 87.1447 33.5678 87.082 33.4561 86.9706C33.3443 86.8591 33.2816 86.7078 33.2816 86.5501V78.9603C33.2816 78.8026 33.2188 78.6514 33.107 78.5399C32.9953 78.4284 32.8438 78.3658 32.6858 78.3658H27.7807C27.7017 78.3685 27.623 78.3551 27.5495 78.3262C27.4759 78.2973 27.4091 78.2536 27.3532 78.1978C27.2973 78.142 27.2536 78.0754 27.2246 78.002C27.1957 77.9286 27.1822 77.8501 27.1849 77.7713V25.7716C27.1849 25.614 27.2477 25.4627 27.3594 25.3512C27.4711 25.2397 27.6227 25.1771 27.7807 25.1771H32.5865C32.6655 25.1799 32.7442 25.1664 32.8177 25.1375C32.8912 25.1086 32.9581 25.0649 33.0139 25.0091C33.0698 24.9534 33.1136 24.8867 33.1425 24.8133C33.1715 24.74 33.185 24.6614 33.1822 24.5826V18.1025C33.1872 17.9464 33.2516 17.798 33.3622 17.6876C33.4729 17.5771 33.6216 17.5129 33.778 17.508H37.6108C37.7672 17.5129 37.9158 17.5771 38.0265 17.6876C38.1372 17.798 38.2015 17.9464 38.2065 18.1025ZM59.7731 17.508H55.9602C55.8022 17.508 55.6507 17.5706 55.539 17.6821C55.4272 17.7936 55.3645 17.9448 55.3645 18.1025V24.6817C55.3645 24.8394 55.3017 24.9906 55.1899 25.1021C55.0782 25.2136 54.9267 25.2762 54.7687 25.2762H50.0026C49.8462 25.2812 49.6975 25.3454 49.5868 25.4558C49.4762 25.5663 49.4118 25.7146 49.4069 25.8707V47.6693C49.4118 47.8254 49.4762 47.9738 49.5868 48.0842C49.6975 48.1947 49.8462 48.2589 50.0026 48.2638H54.7886C54.9466 48.2638 55.0981 48.3265 55.2098 48.438C55.3215 48.5494 55.3843 48.7007 55.3843 48.8584V86.5105C55.3815 86.5893 55.395 86.6679 55.424 86.7413C55.4529 86.8147 55.4968 86.8813 55.5526 86.9371C55.6085 86.9928 55.6753 87.0365 55.7488 87.0654C55.8224 87.0943 55.9011 87.1078 55.9801 87.105H59.7929C59.8719 87.1078 59.9507 87.0943 60.0242 87.0654C60.0977 87.0365 60.1645 86.9928 60.2204 86.9371C60.2763 86.8813 60.3201 86.8147 60.349 86.7413C60.378 86.6679 60.3915 86.5893 60.3887 86.5105V48.8584C60.3887 48.7007 60.4515 48.5494 60.5632 48.438C60.6749 48.3265 60.8265 48.2638 60.9845 48.2638H65.7506C65.907 48.2589 66.0557 48.1947 66.1664 48.0842C66.277 47.9738 66.3414 47.8254 66.3464 47.6693V25.8707C66.3414 25.7146 66.277 25.5663 66.1664 25.4558C66.0557 25.3454 65.907 25.2812 65.7506 25.2762H60.9845C60.8265 25.2762 60.6749 25.2136 60.5632 25.1021C60.4515 24.9906 60.3887 24.8394 60.3887 24.6817V18.1025C60.4037 18.0148 60.3987 17.925 60.3742 17.8395C60.3498 17.754 60.3065 17.6751 60.2474 17.6085C60.1883 17.542 60.1151 17.4895 60.033 17.4549C59.9509 17.4204 59.8621 17.4047 59.7731 17.4089V17.508ZM87.9527 48.2242H83.1468C82.9888 48.2242 82.8373 48.1616 82.7256 48.0501C82.6138 47.9386 82.5511 47.7874 82.5511 47.6297V18.1025C82.5461 17.9464 82.4818 17.798 82.3711 17.6876C82.2604 17.5771 82.1117 17.5129 81.9553 17.508H78.1226C77.9661 17.5129 77.8175 17.5771 77.7068 17.6876C77.5962 17.798 77.5318 17.9464 77.5268 18.1025V47.8279C77.5268 47.9059 77.5114 47.9832 77.4814 48.0554C77.4515 48.1275 77.4076 48.193 77.3523 48.2482C77.297 48.3034 77.2313 48.3472 77.159 48.3771C77.0867 48.407 77.0093 48.4224 76.931 48.4224H72.2444C72.1654 48.4196 72.0867 48.4331 72.0131 48.462C71.9396 48.4909 71.8728 48.5346 71.817 48.5904C71.7611 48.6461 71.7173 48.7128 71.6883 48.7861C71.6593 48.8595 71.6458 48.9381 71.6486 49.0169V77.8703C71.6458 77.9492 71.6593 78.0277 71.6883 78.1011C71.7173 78.1745 71.7611 78.2411 71.817 78.2969C71.8728 78.3527 71.9396 78.3964 72.0131 78.4253C72.0867 78.4541 72.1654 78.4676 72.2444 78.4649H76.931C77.089 78.4649 77.2406 78.5275 77.3523 78.639C77.464 78.7505 77.5268 78.9017 77.5268 79.0593V86.6492C77.5268 86.7273 77.5422 86.8046 77.5722 86.8767C77.6021 86.9489 77.646 87.0144 77.7013 87.0696C77.7566 87.1248 77.8223 87.1686 77.8946 87.1985C77.9669 87.2284 78.0443 87.2438 78.1226 87.2438H81.9553C82.0335 87.2438 82.111 87.2284 82.1833 87.1985C82.2556 87.1686 82.3212 87.1248 82.3765 87.0696C82.4319 87.0144 82.4758 86.9489 82.5057 86.8767C82.5356 86.8046 82.5511 86.7273 82.5511 86.6492V79.0593C82.5511 78.9017 82.6138 78.7505 82.7256 78.639C82.8373 78.5275 82.9888 78.4649 83.1468 78.4649H87.9527C88.0317 78.4676 88.1103 78.4541 88.1839 78.4253C88.2574 78.3964 88.3242 78.3527 88.3801 78.2969C88.436 78.2411 88.4798 78.1745 88.5087 78.1011C88.5377 78.0277 88.5512 77.9492 88.5484 77.8703V48.8187C88.5512 48.7399 88.5377 48.6613 88.5087 48.588C88.4798 48.5146 88.436 48.4479 88.3801 48.3922C88.3242 48.3364 88.2574 48.2927 88.1839 48.2638C88.1103 48.2349 88.0317 48.2214 87.9527 48.2242ZM100.702 22.7C101.05 23.737 101.082 24.8538 100.794 25.909C100.506 26.9642 99.9108 27.9105 99.0838 28.6281C98.2568 29.3458 97.235 29.8025 96.1479 29.9406C95.0607 30.0787 93.9568 29.892 92.976 29.404C91.9952 28.916 91.1814 28.1487 90.6377 27.1991C90.0939 26.2496 89.8446 25.1604 89.9212 24.0694C89.9978 22.9784 90.397 21.9346 91.0681 21.07C91.7393 20.2055 92.6524 19.5589 93.6918 19.2122C95.0849 18.7475 96.6059 18.8539 97.9205 19.508C99.235 20.162 100.235 21.3101 100.702 22.7ZM95.0621 36.5718C95.2241 37.063 95.2366 37.591 95.098 38.0892C94.9594 38.5875 94.676 39.0335 94.2835 39.3711C93.891 39.7086 93.4071 39.9226 92.8929 39.9858C92.3786 40.0491 91.8571 39.9589 91.3942 39.7265C90.9313 39.4942 90.5478 39.1302 90.2922 38.6805C90.0365 38.2307 89.9201 37.7155 89.9577 37.1998C89.9953 36.6841 90.1852 36.1911 90.5034 35.7831C90.8217 35.375 91.2539 35.0702 91.7456 34.9072C92.4014 34.6863 93.1182 34.7331 93.7395 35.0376C94.3608 35.342 94.8363 35.8793 95.0621 36.5322V36.5718Z" fill="url(#paint0_linear)"/>
</g>
<g filter="url(#filter0_b)">
<path d="M39.2057 49.2848H20.1338C11.8252 49.2848 5.02734 42.4869 5.02734 34.1783V15.1064C5.02734 6.7979 11.8252 0 20.1338 0H39.2057C47.5142 0 54.3121 6.7979 54.3121 15.1064V34.1783C54.3121 42.4869 47.5142 49.2848 39.2057 49.2848Z" fill="url(#paint1_linear)"/>
</g>
<defs>
<filter id="filter0_b" x="-3.29347" y="-8.32081" width="65.9264" height="65.9264" filterUnits="userSpaceOnUse" color-interpolation-filters="sRGB">
<feFlood flood-opacity="0" result="BackgroundImageFix"/>
<feGaussianBlur in="BackgroundImage" stdDeviation="4.1604"/>
<feComposite in2="SourceAlpha" operator="in" result="effect1_backgroundBlur"/>
<feBlend mode="normal" in="SourceGraphic" in2="effect1_backgroundBlur" result="shape"/>
</filter>
<linearGradient id="paint0_linear" x1="10.5235" y1="92.2971" x2="104.686" y2="12.2787" gradientUnits="userSpaceOnUse">
<stop stop-color="#24BDE3"/>
<stop offset="1" stop-color="#FC28D3"/>
</linearGradient>
<linearGradient id="paint1_linear" x1="6.48285" y1="-3.23504" x2="53.0949" y2="52.7513" gradientUnits="userSpaceOnUse">
<stop stop-color="#24BDE3" stop-opacity="0.2"/>
<stop offset="1" stop-color="#FC28D3" stop-opacity="0.8"/>
</linearGradient>
<clipPath id="clip0">
<rect width="73.8149" height="69.6367" fill="white" transform="translate(27.1846 17.4092)"/>
</clipPath>
</defs>
</svg>
