<svg width="101" height="101" viewBox="0 0 101 101" fill="none" xmlns="http://www.w3.org/2000/svg">
<circle opacity="0.3" cx="50.2492" cy="50.2492" r="50.2492" fill="#100728"/>
<g clip-path="url(#clip0)">
<path d="M61.9938 21.6279H26.8235C26.1164 21.6279 25.4162 21.7672 24.7629 22.0378C24.1096 22.3084 23.5161 22.705 23.016 23.205C22.516 23.7051 22.1194 24.2987 21.8488 24.952C21.5782 25.6052 21.4389 26.3054 21.4389 27.0125V70.6156C21.4389 72.0436 22.0062 73.4133 23.016 74.4231C24.0259 75.4329 25.3954 76.0002 26.8235 76.0002H61.9938C63.4218 76.0002 64.7914 75.4329 65.8012 74.4231C66.811 73.4133 67.3783 72.0436 67.3783 70.6156V27.0125C67.3783 26.3054 67.2391 25.6052 66.9685 24.952C66.6979 24.2987 66.3012 23.7051 65.8012 23.205C65.3012 22.705 64.7076 22.3084 64.0543 22.0378C63.401 21.7672 62.7009 21.6279 61.9938 21.6279ZM56.2532 46.3848L50.8222 50.3304C50.6123 50.4838 50.456 50.6993 50.3754 50.9465C50.2949 51.1937 50.2942 51.4599 50.3735 51.7075L52.4469 58.0824C52.532 58.3296 52.5357 58.5975 52.4574 58.8469C52.379 59.0963 52.2227 59.314 52.0115 59.4681C51.8004 59.6221 51.5453 59.7044 51.2839 59.7029C51.0225 59.7013 50.7685 59.6161 50.5592 59.4595L45.1281 55.5139C44.9182 55.3639 44.6666 55.2833 44.4086 55.2833C44.1506 55.2833 43.8991 55.3639 43.6891 55.5139L38.2581 59.4595C38.047 59.6113 37.7936 59.6927 37.5336 59.6923C37.2737 59.6919 37.0205 59.6097 36.8099 59.4573C36.5993 59.3049 36.442 59.0901 36.3604 58.8433C36.2787 58.5965 36.2768 58.3303 36.3549 58.0824L38.4283 51.7075C38.5092 51.4615 38.5109 51.1963 38.4332 50.9493C38.3555 50.7022 38.2023 50.4858 37.9951 50.3304L32.564 46.3848C32.3483 46.2358 32.1862 46.0215 32.1016 45.7734C32.017 45.5254 32.0144 45.2566 32.0942 45.007C32.1739 44.7573 32.3319 44.5398 32.5446 44.3867C32.7574 44.2336 33.0137 44.153 33.2758 44.1567H39.9911C40.2517 44.1567 40.5057 44.0744 40.7169 43.9216C40.928 43.7688 41.0856 43.5533 41.167 43.3057L43.2404 36.9153C43.3173 36.6655 43.4723 36.447 43.6826 36.2917C43.8928 36.1365 44.1473 36.0527 44.4086 36.0527C44.67 36.0527 44.9245 36.1365 45.1347 36.2917C45.345 36.447 45.4999 36.6655 45.5768 36.9153L47.6502 43.3057C47.7317 43.5533 47.8892 43.7688 48.1004 43.9216C48.3115 44.0744 48.5655 44.1567 48.8262 44.1567H55.5879C55.8648 44.1399 56.1392 44.2177 56.366 44.3775C56.5928 44.5372 56.7585 44.7694 56.8359 45.0358C56.9133 45.3021 56.8977 45.5869 56.7919 45.8433C56.686 46.0997 56.496 46.3125 56.2532 46.4467V46.3848ZM82.8204 13.8141C82.8358 15.3627 82.3906 16.881 81.5413 18.1761C80.6921 19.4712 79.4772 20.4848 78.0508 21.0881C76.6244 21.6914 75.0509 21.8572 73.5301 21.5645C72.0093 21.2718 70.6098 20.5337 69.5092 19.4441C68.4087 18.3544 67.6568 16.9623 67.349 15.4445C67.0411 13.9267 67.1913 12.3516 67.7804 10.9193C68.3694 9.487 69.3709 8.26205 70.6575 7.39998C71.9441 6.53791 73.4578 6.07761 75.0065 6.07754C76.029 6.06731 77.0434 6.25988 77.991 6.64409C78.9386 7.02831 79.8005 7.59655 80.5272 8.31597C81.2538 9.0354 81.8306 9.89173 82.2242 10.8354C82.6178 11.7792 82.8205 12.7915 82.8204 13.8141ZM15.8996 46.0753C15.9026 47.2548 15.5555 48.4087 14.9021 49.3907C14.2487 50.3727 13.3185 51.1387 12.2293 51.5915C11.1402 52.0443 9.9411 52.1635 8.7841 51.9342C7.62709 51.7048 6.56419 51.1371 5.73015 50.3031C4.8961 49.469 4.32844 48.4062 4.09907 47.2492C3.86971 46.0922 3.98895 44.8931 4.44175 43.804C4.89455 42.7148 5.66052 41.7846 6.64253 41.1312C7.62454 40.4778 8.77842 40.1306 9.95794 40.1337C10.7382 40.1337 11.5108 40.2874 12.2317 40.586C12.9525 40.8846 13.6076 41.3222 14.1593 41.874C14.711 42.4257 15.1487 43.0807 15.4473 43.8016C15.7459 44.5224 15.8996 45.2951 15.8996 46.0753Z" fill="url(#paint0_linear)"/>
</g>
<g filter="url(#filter0_b)">
<path d="M76.1783 94.2848H57.1064C48.7979 94.2848 42 87.4869 42 79.1783V60.1064C42 51.7979 48.7979 45 57.1064 45H76.1783C84.4869 45 91.2848 51.7979 91.2848 60.1064V79.1783C91.2848 87.4869 84.4869 94.2848 76.1783 94.2848Z" fill="url(#paint1_linear)"/>
</g>
<defs>
<filter id="filter0_b" x="33.6792" y="36.6792" width="65.9264" height="65.9264" filterUnits="userSpaceOnUse" color-interpolation-filters="sRGB">
<feFlood flood-opacity="0" result="BackgroundImageFix"/>
<feGaussianBlur in="BackgroundImage" stdDeviation="4.1604"/>
<feComposite in2="SourceAlpha" operator="in" result="effect1_backgroundBlur"/>
<feBlend mode="normal" in="SourceGraphic" in2="effect1_backgroundBlur" result="shape"/>
</filter>
<linearGradient id="paint0_linear" x1="7.40487" y1="13.0249" x2="92.1816" y2="67.0877" gradientUnits="userSpaceOnUse">
<stop stop-color="#24BDE3"/>
<stop offset="1" stop-color="#FC28D3"/>
</linearGradient>
<linearGradient id="paint1_linear" x1="43.4555" y1="41.765" x2="90.0676" y2="97.7513" gradientUnits="userSpaceOnUse">
<stop stop-color="#24BDE3" stop-opacity="0.2"/>
<stop offset="1" stop-color="#FC28D3" stop-opacity="0.8"/>
</linearGradient>
<clipPath id="clip0">
<rect width="78.8196" height="70" fill="white" transform="translate(4 6)"/>
</clipPath>
</defs>
</svg>
