<svg width="94" height="94" viewBox="0 0 94 94" fill="none" xmlns="http://www.w3.org/2000/svg">
<circle opacity="0.3" cx="47" cy="47" r="47" fill="#100728"/>
<path d="M81.3753 19.829V56.3083C81.3344 56.9548 81.1662 57.5868 80.8804 58.1681C80.5946 58.7494 80.1968 59.2685 79.7099 59.6957C79.2229 60.1229 78.6564 60.4496 78.0428 60.6573C77.4292 60.8649 76.7807 60.9493 76.1344 60.9056H72.4106C72.6044 60.4151 72.7057 59.8929 72.7094 59.3655V16.8408C72.7034 16.3211 72.6021 15.8069 72.4106 15.3237H76.1344C77.4263 15.2286 78.7032 15.6493 79.6855 16.4938C80.6678 17.3382 81.2754 18.5375 81.3753 19.829ZM63.6298 8.1979H58.0211C58.2653 8.83709 58.3976 9.5136 58.4119 10.1977V65.9167C58.3997 66.6085 58.2675 67.2929 58.0211 67.9394H63.6298C65.3267 68.0664 67.0048 67.5161 68.2971 66.4091C69.5894 65.302 70.3907 63.7282 70.5257 62.032V14.1054C70.3907 12.4091 69.5894 10.8353 68.2971 9.72829C67.0048 8.62123 65.3267 8.07098 63.6298 8.1979ZM56.1133 10.1517V65.9167C55.9546 67.887 55.0261 69.7156 53.5289 71.0062C52.0317 72.2969 50.0862 72.9459 48.114 72.8126H14.2551C12.2829 72.9459 10.3375 72.2969 8.84028 71.0062C7.34308 69.7156 6.41458 67.887 6.25586 65.9167V10.1977C6.41458 8.22735 7.34308 6.39882 8.84028 5.10812C10.3375 3.81743 12.2829 3.16847 14.2551 3.3018H48.114C50.0862 3.16847 52.0317 3.81743 53.5289 5.10812C55.0261 6.39882 55.9546 8.22735 56.1133 10.1977V10.1517ZM46.6889 34.5633H34.621V22.5644H27.7251V34.6092H15.6803V41.5051H27.7251V53.573H34.621V41.5051H46.6889V34.5633Z" fill="url(#paint0_linear)"/>
<g filter="url(#filter0_b)">
<path d="M77.3521 90.9998H58.823C50.7509 90.9998 44.1465 84.3953 44.1465 76.3233V57.7942C44.1465 49.7221 50.7509 43.1177 58.823 43.1177H77.3521C85.4242 43.1177 92.0286 49.7221 92.0286 57.7942V76.3233C92.0286 84.3953 85.4242 90.9998 77.3521 90.9998Z" fill="url(#paint1_linear)"/>
</g>
<defs>
<filter id="filter0_b" x="36.0625" y="35.0337" width="64.0501" height="64.0501" filterUnits="userSpaceOnUse" color-interpolation-filters="sRGB">
<feFlood flood-opacity="0" result="BackgroundImageFix"/>
<feGaussianBlur in="BackgroundImage" stdDeviation="4.042"/>
<feComposite in2="SourceAlpha" operator="in" result="effect1_backgroundBlur"/>
<feBlend mode="normal" in="SourceGraphic" in2="effect1_backgroundBlur" result="shape"/>
</filter>
<linearGradient id="paint0_linear" x1="-14.225" y1="6.45093" x2="96.96" y2="77.3638" gradientUnits="userSpaceOnUse">
<stop stop-color="#24BDE3"/>
<stop offset="1" stop-color="#FC28D3"/>
</linearGradient>
<linearGradient id="paint1_linear" x1="45.5606" y1="39.9747" x2="90.846" y2="94.3677" gradientUnits="userSpaceOnUse">
<stop stop-color="#24BDE3" stop-opacity="0.2"/>
<stop offset="1" stop-color="#FC28D3" stop-opacity="0.8"/>
</linearGradient>
</defs>
</svg>
