<svg width="107" height="109" viewBox="0 0 107 109" fill="none" xmlns="http://www.w3.org/2000/svg">
<circle opacity="0.3" cx="53.4998" cy="56.4642" r="52.536" fill="#100728"/>
<g clip-path="url(#clip0)">
<path d="M7.48955 1.19739C8.44304 2.08025 9.30825 3.1132 10.1999 4.09317C18.44 13.1336 26.68 22.18 34.92 31.2323C35.6086 31.9915 36.2708 32.7684 36.9594 33.5277C37.0279 33.6041 37.0803 33.6935 37.1137 33.7905C37.1471 33.8876 37.1606 33.9903 37.1536 34.0927C37.083 36.9885 35.5733 38.7719 32.4833 39.5223C31.6799 39.7254 30.85 39.8313 30.0378 39.9902C29.5048 40.0762 29.013 40.3296 28.6337 40.7137C28.2543 41.0978 28.0071 41.5927 27.9277 42.1267C27.753 43.1168 27.6351 44.1161 27.5746 45.1196C27.3686 46.8166 26.8792 48.4669 26.1267 50.0018C25.4516 51.2488 24.9242 52.5702 24.5552 53.9394C24.3894 54.6921 24.3987 55.4728 24.5824 56.2213C24.7661 56.9698 25.1192 57.6662 25.6146 58.2566C26.3628 59.1096 27.2278 59.8526 28.1838 60.4637C28.9427 60.9625 29.6496 61.5363 30.2938 62.1765C30.9996 62.9498 31.4075 63.9489 31.4447 64.9952C31.4818 66.0415 31.1459 67.067 30.4969 67.8886C29.1697 69.3928 27.4888 70.5427 25.6058 71.2346C24.0426 71.8735 22.4186 72.3527 20.7589 72.6648C20.3881 72.7443 20.0968 72.7972 19.9997 72.2234C19.8029 71.4646 19.4611 70.7511 18.9932 70.1222C18.0866 68.7911 17.3063 67.3783 16.6625 65.9021C15.8097 63.7492 15.6281 61.3886 16.1416 59.1306C16.5785 57.6724 17.3356 56.3301 18.3575 55.2019C19.7018 53.5797 20.9602 51.8882 22.1274 50.1343C23.3734 48.1562 24.1468 45.9176 24.3875 43.5923C24.4814 42.718 24.6468 41.8528 24.8819 41.0055C25.2028 39.844 25.8099 38.7816 26.6476 37.9155C26.9474 37.6514 27.1412 37.2876 27.1931 36.8914C27.2451 36.4953 27.1517 36.0938 26.9301 35.7613C24.7053 31.5589 22.3392 27.4359 20.0438 23.2777L18.5518 20.6291C18.4723 20.4967 18.4105 20.3554 18.3046 20.1435C18.5871 20.2583 18.6401 20.4437 18.7372 20.5938C21.783 25.2376 24.7406 29.9344 27.8395 34.543C28.122 34.9667 28.4045 35.4258 28.7223 35.7878C29.0569 36.2311 29.5121 36.5685 30.0336 36.7595C30.555 36.9506 31.1205 36.9871 31.6622 36.8649C32.3547 36.7519 33.0196 36.5093 33.6222 36.1498C33.8425 36.0643 34.0369 35.9232 34.1865 35.7402C34.3361 35.5572 34.4357 35.3386 34.4757 35.1057C34.5157 34.8728 34.4947 34.6335 34.4148 34.4111C34.3348 34.1887 34.1986 33.9908 34.0195 33.8367C32.2185 31.5942 30.4115 29.3606 28.5987 27.1358C21.6594 18.6427 14.7143 10.1525 7.76324 1.66531C7.65529 1.52981 7.55508 1.38831 7.46307 1.24153L7.48955 1.19739ZM19.7701 60.296C19.53 60.2803 19.2905 60.3355 19.0815 60.4549C18.9901 60.487 18.9109 60.5468 18.8549 60.6258C18.7989 60.7049 18.7688 60.7994 18.7688 60.8963C18.7688 60.9932 18.7989 61.0877 18.8549 61.1668C18.9109 61.2459 18.9901 61.3056 19.0815 61.3377C19.5936 61.735 19.5936 61.735 19.2581 62.3354C19.142 62.4808 19.0788 62.6614 19.0788 62.8474C19.0788 63.0335 19.142 63.2141 19.2581 63.3595C19.4008 63.522 19.5912 63.6351 19.8022 63.6827C20.0131 63.7302 20.2337 63.7098 20.4323 63.6244C20.7872 63.4605 21.0777 63.1835 21.2582 62.8368C21.4387 62.4901 21.4991 62.0933 21.4299 61.7086C21.372 61.3117 21.1717 60.9494 20.8662 60.6895C20.5608 60.4295 20.1712 60.2896 19.7701 60.296ZM54.9962 43.6982C56.558 45.3745 58.4364 46.7247 60.5229 47.6711C63.0214 48.9424 65.6788 49.8782 68.2391 51.0083C70.2876 51.8171 72.2226 52.8885 73.9953 54.1954C74.7553 54.7702 75.3911 55.4927 75.8645 56.3196C76.3379 57.1465 76.639 58.0606 76.7499 59.007C76.7499 59.2542 76.6969 59.5279 76.9088 59.7574C77.1032 59.5687 77.2539 59.3397 77.3502 59.0865C78.1544 57.4833 78.5974 55.7234 78.648 53.9305C78.777 52.2698 78.5429 50.601 77.962 49.0398C77.3811 47.4786 76.4674 46.0626 75.2843 44.8901C73.2477 42.931 70.7083 41.5742 67.9478 40.9702C65.4934 40.3257 62.9684 40.0873 60.4699 39.6371C57.9714 39.1868 55.2876 38.6306 53.2217 36.8119H53.1069C52.9298 38.028 53.0062 39.2676 53.3314 40.4527C53.6565 41.6378 54.2233 42.7428 54.9962 43.6982ZM34.7522 19.0223C35.8588 19.1871 36.9449 19.4682 37.9924 19.861C40.8001 21.0398 43.2568 22.9219 45.1258 25.3259C46.8298 27.3388 48.3394 29.5018 50.061 31.5059C51.6171 33.5056 53.6639 35.0689 56.0027 36.0438C58.3086 36.8427 60.7164 37.3094 63.1538 37.4299C65.0167 37.5712 66.8883 37.6153 68.7335 37.9067C69.7902 38.0376 70.8037 38.4058 71.6981 38.9837C72.5925 39.5616 73.3446 40.3343 73.8982 41.2439L74.1278 41.5882L74.2337 41.5264C73.7128 37.995 71.9206 35.1698 69.6517 32.5389C69.5567 32.6681 69.4987 32.8207 69.4839 32.9803C69.3121 33.8994 69.0151 34.7906 68.6011 35.6289C68.3509 36.2031 67.9553 36.7021 67.4534 37.0768C67.2239 37.2405 66.945 37.3203 66.6636 37.3026C66.3822 37.2849 66.1155 37.1709 65.9084 36.9797C65.704 36.8006 65.5634 36.56 65.5077 36.2941C65.452 36.0282 65.4841 35.7513 65.5993 35.5053C65.8159 35.0809 65.9932 34.6376 66.1291 34.181C66.4205 32.7864 66.4205 31.3467 66.1291 29.9521C66.0906 29.7343 66.0031 29.528 65.873 29.349C65.743 29.1701 65.5739 29.0231 65.3786 28.9192C60.572 25.931 54.8285 24.8301 49.2576 25.8292C48.8799 25.9293 48.4809 25.9148 48.1114 25.7875C47.7419 25.6601 47.4187 25.4257 47.1829 25.114C45.4125 22.9386 43.1811 21.1836 40.6497 19.9758C38.6335 19.0684 36.4127 18.712 34.2137 18.9429L34.7522 19.0223ZM70.0666 76.4082C71.7888 75.3514 73.2285 73.8922 74.262 72.1559C75.2954 70.4197 75.8917 68.4583 75.9994 66.4407C76.2667 63.9843 75.7342 61.5073 74.4809 59.3778C73.2965 57.5721 71.7139 56.062 69.8547 54.9635C67.4004 53.3567 64.7165 52.1295 62.2357 50.5492C61.9267 50.355 61.8119 50.4962 61.7324 50.7788C61.4491 51.7436 61.3355 52.7503 61.3969 53.754C61.5416 55.5567 62.0973 57.3023 63.0214 58.8569C63.9042 60.3666 64.8489 61.7792 65.7936 63.2182C66.9062 64.8157 67.9119 66.485 68.8041 68.2152C69.4783 69.455 69.8431 70.8392 69.8677 72.2502C69.8923 73.6612 69.5759 75.0573 68.9454 76.3199C68.8306 76.5494 68.7335 76.8054 68.6011 77.1233C69.1223 76.9509 69.616 76.7041 70.0666 76.3905V76.4082ZM42.698 74.8455C42.5871 74.6838 42.5096 74.5016 42.47 74.3096C42.4303 74.1176 42.4294 73.9196 42.4672 73.7273C42.5051 73.5349 42.5808 73.352 42.6902 73.1893C42.7995 73.0266 42.9403 72.8873 43.1041 72.7796C43.4009 72.6104 43.7298 72.505 44.0696 72.4702C44.4095 72.4354 44.7529 72.472 45.0778 72.5775C45.4027 72.6831 45.7021 72.8553 45.9566 73.0831C46.2112 73.311 46.4153 73.5895 46.5561 73.9008C46.6729 74.2617 46.711 74.6434 46.6675 75.0201C46.6241 75.3969 46.5003 75.76 46.3044 76.0848C46.1085 76.4095 45.8452 76.6885 45.5322 76.9027C45.2192 77.1169 44.8638 77.2613 44.4902 77.3263C43.5934 77.4386 42.6887 77.191 41.974 76.6377C41.5381 76.3599 41.1769 75.9794 40.9222 75.5296C40.6675 75.0797 40.5271 74.5743 40.5131 74.0575C40.4992 73.5408 40.6122 73.0285 40.8423 72.5656C41.0723 72.1027 41.4124 71.7033 41.8328 71.4023C42.3709 71.0086 42.9932 70.7454 43.6505 70.6335C44.3078 70.5217 44.9822 70.5643 45.6202 70.7579C46.5622 71.0048 47.4418 71.4467 48.2022 72.055C48.9626 72.6633 49.5869 73.4245 50.0345 74.2893C50.9704 75.9226 51.5972 77.7148 52.4977 79.3657C53.2495 80.9576 54.5781 82.2041 56.2146 82.853C57.1566 83.1732 58.1609 83.2666 59.1458 83.1255C60.1307 82.9843 61.0683 82.6127 61.8825 82.0408C62.2788 81.8341 62.6418 81.5693 62.9596 81.2551C62.7367 81.2547 62.5176 81.3125 62.3239 81.4228C61.1323 81.8949 59.8509 82.0969 58.5718 82.0143C57.9054 81.9945 57.2558 81.8007 56.6874 81.4523C56.119 81.1038 55.6517 80.6128 55.3317 80.0279C54.8946 79.2306 54.5961 78.3648 54.4488 77.4676C54.184 76.0285 54.0074 74.563 53.6807 73.1327C53.3255 71.1514 52.3037 69.3509 50.785 68.0298C48.0393 65.7962 44.8257 65.3812 41.4708 65.7874C38.3346 66.2565 35.351 67.4506 32.757 69.2746C31.6523 70.0094 30.6074 70.83 29.6317 71.729L31.521 72.0468C33.8546 72.2981 36.0337 73.3347 37.701 74.9867C38.4426 75.7372 39.2019 76.47 39.9523 77.2116C40.6746 77.9534 41.5933 78.474 42.6009 78.7124C43.3537 78.9457 44.1577 78.9574 44.917 78.7461C45.6763 78.5347 46.3587 78.1093 46.8827 77.5205C47.2809 77.1089 47.5672 76.6022 47.7141 76.0487C47.8611 75.4952 47.8639 74.9132 47.7223 74.3583C47.5807 73.8034 47.2994 73.294 46.9051 72.8785C46.5109 72.4631 46.0169 72.1555 45.4702 71.985C44.9306 71.7946 44.3423 71.7931 43.8018 71.9808C43.2612 72.1684 42.8004 72.5342 42.4949 73.018C42.3008 73.3124 42.2165 73.6657 42.2569 74.016C42.2972 74.3663 42.4596 74.6912 42.7156 74.9338L42.698 74.8455ZM35.3173 28.7426C36.2102 30.7902 37.7152 32.5112 39.6256 33.6689C40.2419 34.0693 40.9377 34.3314 41.665 34.437C42.0623 34.49 42.5479 34.5871 42.7863 34.2252C43.0246 33.8632 42.6627 33.5453 42.4773 33.2452C41.4955 31.8253 40.8108 30.2218 40.4643 28.5307C40.2451 27.2583 39.9112 26.0084 39.4667 24.7962C39.0536 23.5753 38.2217 22.5401 37.1183 21.8739C36.2132 21.3703 35.2368 21.0071 34.2225 20.7969C34.0018 20.7969 33.9047 20.7969 33.8959 21.0352C33.8959 21.4943 33.8253 21.9622 33.7988 22.2889C33.8519 24.5205 34.3817 26.7149 35.3526 28.7249L35.3173 28.7426ZM41.771 62.9269C44.028 62.3448 46.3446 62.0249 48.6749 61.9734C50.2844 61.9326 51.8865 61.7405 53.46 61.3996C57.8743 60.296 60.2139 57.2236 59.9667 52.721C59.8425 51.3273 59.2765 50.0096 58.3511 48.9601C58.2805 48.863 58.2275 48.7217 58.0332 48.757C58.1215 49.0748 58.2187 49.4015 58.2981 49.7193C58.8393 51.4496 58.8021 53.3092 58.1921 55.0165C57.1151 57.6651 54.9609 59.0688 52.2505 59.6868C50.0787 60.19 47.8362 60.4372 45.682 60.9493C43.8044 61.3748 42.0382 62.1932 40.4997 63.3507L41.771 62.9269ZM38.5132 45.9672C38.1586 45.9781 37.8038 45.9545 37.4538 45.8966C37.1109 45.8495 36.7936 45.6893 36.5521 45.4414C36.3106 45.1935 36.1587 44.8721 36.1207 44.5281C35.9734 43.8024 36.0528 43.049 36.3481 42.3699C36.6434 41.6908 37.1404 41.119 37.7716 40.7318C39.6698 39.4075 42.901 40.979 43.0688 43.2833C43.0852 43.5393 43.04 43.7955 42.9371 44.0305C42.8342 44.2655 42.6765 44.4725 42.4773 44.634C41.6895 45.316 40.7139 45.7438 39.6786 45.8612C39.3061 45.931 38.9273 45.9606 38.5485 45.9495L38.5132 45.9672ZM39.6963 40.7671C39.4261 40.7507 39.1553 40.7892 38.9004 40.8802C38.6455 40.9712 38.4117 41.113 38.2131 41.2968C38.1086 41.3839 38.0256 41.4939 37.9706 41.6183C37.9156 41.7427 37.8901 41.8781 37.8961 42.014C37.9021 42.1499 37.9394 42.2826 38.0051 42.4017C38.0708 42.5208 38.1631 42.6231 38.2748 42.7006C38.6665 43.0077 39.1499 43.1747 39.6477 43.1747C40.1455 43.1747 40.6289 43.0077 41.0205 42.7006C41.1345 42.624 41.229 42.5219 41.2966 42.4023C41.3641 42.2828 41.4029 42.1491 41.4097 42.012C41.4166 41.8749 41.3914 41.738 41.3361 41.6123C41.2808 41.4867 41.1969 41.3756 41.0912 41.288C40.7254 40.9382 40.2376 40.745 39.7316 40.7495L39.6963 40.7671ZM72.6799 31.8326C72.5563 31.6648 72.4415 31.4971 72.3091 31.3294C71.2673 30.0581 70.0843 28.9103 68.9719 27.7008C68.4283 27.2005 68.0237 26.5678 67.7977 25.8645C67.3336 24.265 67.2729 22.5755 67.6211 20.9469C67.6211 20.8675 67.6829 20.7704 67.5593 20.6821C67.2736 21.238 67.0713 21.833 66.959 22.4478C66.7925 23.4709 66.6834 24.5025 66.6323 25.5378C66.6323 25.9704 66.3674 26.041 66.0143 25.9174L64.7076 25.4407C63.5187 24.9885 62.2968 24.6284 61.0526 24.3636C61.3384 24.5273 61.6331 24.6746 61.9355 24.805C63.093 25.3382 64.2164 25.9427 65.2992 26.6149C65.8969 26.9577 66.4036 27.4389 66.7769 28.018C67.1502 28.5971 67.3791 29.2574 67.4445 29.9433C67.4445 30.3759 67.524 30.8261 67.5328 31.2323C67.6752 32.6453 67.5585 34.0724 67.1885 35.4435C67.4115 35.1887 67.5745 34.8869 67.6652 34.5606C68.1753 33.1285 68.409 31.6126 68.3539 30.0934C68.3539 29.7226 68.2832 29.2547 68.6805 29.0604C69.0778 28.8662 69.3427 29.2635 69.634 29.4665C70.6935 30.2081 71.6469 31.0822 72.6446 31.8944L72.6799 31.8326ZM7.34829 1.11794C7.34438 1.07901 7.32883 1.04215 7.30362 1.01222C7.27842 0.982286 7.24473 0.960672 7.20703 0.950195C7.20703 0.950195 7.20703 1.00317 7.20703 1.012C7.20703 1.02083 7.26883 1.17091 7.37478 1.11794H7.34829ZM18.2163 19.9581C18.2163 19.8875 18.1368 19.7728 18.0662 19.8257C17.9956 19.8787 18.1103 19.9581 18.1633 20.0111L18.2163 19.9581ZM42.8216 74.9956L42.6891 74.8455L42.6009 74.9249L42.7421 75.0662L42.8216 74.9956ZM42.7421 75.0574L42.8657 75.1722C42.9187 75.0927 42.8657 75.0309 42.8216 74.9956L42.7421 75.0574ZM7.42775 1.21504C7.42775 1.15324 7.42776 1.11794 7.33064 1.11794C7.2865 1.18857 7.33065 1.22389 7.39245 1.2592L7.42775 1.21504ZM18.1457 20.0111L18.2251 20.0994C18.2958 20.0464 18.2251 20.0023 18.2251 19.9581L18.1457 20.0111ZM72.5828 31.8944L72.6887 31.9738C72.7505 31.912 72.6887 31.8767 72.6887 31.8326L72.5828 31.8944ZM72.7328 31.9562L72.7858 32.0268L72.7328 31.9562ZM67.1355 35.4347C67.0825 35.4347 67.0561 35.4347 67.0914 35.4876V35.4258L67.1355 35.4347Z" fill="url(#paint0_linear)"/>
<circle cx="74.3215" cy="14.1755" r="4.4143" fill="url(#paint1_linear)"/>
</g>
<circle cx="76.9708" cy="24.7697" r="2.64858" fill="url(#paint2_linear)"/>
<g filter="url(#filter0_b)">
<path d="M82.1226 102.016H60.8154C51.5331 102.016 43.9385 94.4215 43.9385 85.1392V63.832C43.9385 54.5497 51.5331 46.9551 60.8154 46.9551H82.1226C91.4049 46.9551 98.9995 54.5497 98.9995 63.832V85.1392C98.9995 94.4215 91.4049 102.016 82.1226 102.016Z" fill="url(#paint3_linear)"/>
</g>
<defs>
<filter id="filter0_b" x="34.6425" y="37.6591" width="73.6531" height="73.6531" filterUnits="userSpaceOnUse" color-interpolation-filters="sRGB">
<feFlood flood-opacity="0" result="BackgroundImageFix"/>
<feGaussianBlur in="BackgroundImage" stdDeviation="4.64801"/>
<feComposite in2="SourceAlpha" operator="in" result="effect1_backgroundBlur"/>
<feBlend mode="normal" in="SourceGraphic" in2="effect1_backgroundBlur" result="shape"/>
</filter>
<linearGradient id="paint0_linear" x1="-0.756358" y1="72.1793" x2="69.7664" y2="12.3655" gradientUnits="userSpaceOnUse">
<stop stop-color="#24BDE3"/>
<stop offset="1" stop-color="#FC28D3"/>
</linearGradient>
<linearGradient id="paint1_linear" x1="69.9072" y1="14.1755" x2="78.7358" y2="13.7341" gradientUnits="userSpaceOnUse">
<stop stop-color="#C532F9"/>
<stop offset="1" stop-color="#32B2E5"/>
</linearGradient>
<linearGradient id="paint2_linear" x1="74.3223" y1="24.7697" x2="79.6194" y2="24.5048" gradientUnits="userSpaceOnUse">
<stop stop-color="#C532F9"/>
<stop offset="1" stop-color="#32B2E5"/>
</linearGradient>
<linearGradient id="paint3_linear" x1="45.5646" y1="43.3409" x2="97.6397" y2="105.889" gradientUnits="userSpaceOnUse">
<stop stop-color="#24BDE3" stop-opacity="0.2"/>
<stop offset="1" stop-color="#FC28D3" stop-opacity="0.8"/>
</linearGradient>
<clipPath id="clip0">
<rect width="71.441" height="82.2471" fill="white" transform="translate(7.22461 0.932617)"/>
</clipPath>
</defs>
</svg>
