<svg width="233" height="53" viewBox="0 0 233 53" fill="none" xmlns="http://www.w3.org/2000/svg">
<path d="M114.258 48.7696L96.4151 5.49439C96.275 5.10003 96.201 4.68525 96.1959 4.26678C96.1959 3.25833 96.5028 2.46905 97.0727 1.85532C97.6427 1.24159 98.4318 0.93457 99.4401 0.93457C100.103 0.943472 100.746 1.15799 101.281 1.54846C101.851 1.94302 102.246 2.51298 102.553 3.17079L119.519 45.5251L136.485 3.17063C136.792 2.51298 137.186 1.94302 137.757 1.5483C138.292 1.15789 138.936 0.943437 139.598 0.93457C140.606 0.93457 141.396 1.24149 141.966 1.85532C142.536 2.46921 142.843 3.25833 142.843 4.26678C142.838 4.68526 142.763 5.10004 142.623 5.49439L124.78 48.7696C123.771 51.0057 122.281 52.1019 120.308 52.1019H118.73C116.757 52.1019 115.267 51.0057 114.258 48.7696Z" fill="white"/>
<path d="M150.427 50.7869C150.124 50.4821 149.886 50.119 149.728 49.7195C149.57 49.3201 149.494 48.8927 149.506 48.4632V4.61798C149.49 3.73846 149.821 2.88794 150.427 2.25029C150.723 1.93329 151.083 1.68325 151.484 1.51691C151.885 1.35056 152.316 1.27176 152.75 1.28577H181.729C182.139 1.27433 182.546 1.35055 182.924 1.50934C183.302 1.66813 183.642 1.90583 183.921 2.20652C184.218 2.48794 184.454 2.82823 184.612 3.20568C184.771 3.58314 184.849 3.98948 184.842 4.39881C184.853 4.80222 184.776 5.20327 184.617 5.57421C184.458 5.94515 184.221 6.27713 183.921 6.54717C183.631 6.83029 183.288 7.05348 182.912 7.20397C182.536 7.35445 182.134 7.42927 181.729 7.42415H156.082V23.3838H179.142C179.552 23.3723 179.96 23.4485 180.338 23.6073C180.716 23.7661 181.056 24.0038 181.335 24.3045C181.628 24.5886 181.862 24.9293 182.02 25.3062C182.178 25.683 182.258 26.0881 182.255 26.4968C182.266 26.9002 182.19 27.3012 182.031 27.6722C181.872 28.0431 181.634 28.3751 181.335 28.6452C181.045 28.9283 180.702 29.1515 180.326 29.302C179.95 29.4525 179.547 29.5273 179.142 29.5222H156.082V45.5695H181.729C182.139 45.558 182.546 45.6342 182.924 45.7929C183.302 45.9516 183.642 46.1893 183.921 46.4899C184.218 46.7713 184.454 47.1116 184.612 47.4891C184.771 47.8665 184.849 48.2729 184.842 48.6822C184.853 49.0856 184.776 49.4867 184.617 49.8576C184.458 50.2285 184.221 50.5605 183.921 50.8306C183.631 51.1137 183.288 51.3369 182.912 51.4874C182.536 51.6378 182.134 51.7127 181.729 51.7075H152.75C152.318 51.7396 151.885 51.6735 151.483 51.514C151.08 51.3546 150.719 51.106 150.427 50.7869Z" fill="white"/>
<path d="M100.449 47.542L82.6054 4.26678C81.5971 2.03072 80.1065 0.93457 78.1337 0.93457H76.5555C74.5826 0.93457 73.0921 2.03072 72.0838 4.26678L64.3239 23.1203H58.4494C57.602 23.125 56.7906 23.4638 56.1914 24.063C55.5923 24.6622 55.2536 25.4736 55.2489 26.321V26.3648C55.2538 27.2121 55.5925 28.0233 56.1917 28.6224C56.7908 29.2215 57.6021 29.5602 58.4494 29.5649H61.6059L54.1967 47.542C54.0566 47.9364 53.9826 48.3512 53.9775 48.7696C53.9775 49.7781 54.2844 50.5674 54.8544 51.1811C55.4243 51.7948 56.2134 52.1019 57.222 52.1019C57.8846 52.093 58.528 51.8784 59.0634 51.488C59.6334 51.0934 60.0279 50.5234 60.3348 49.8656L68.4888 29.5649H74.1004C74.9478 29.5601 75.7591 29.2213 76.3582 28.6221C76.9573 28.0229 77.296 27.2115 77.3007 26.3642V26.2765C77.296 25.4291 76.9573 24.6177 76.3582 24.0185C75.7591 23.4193 74.9478 23.0805 74.1004 23.0757H71.0754L77.3446 7.51067L94.3108 49.8658C94.6176 50.5235 95.0117 51.0934 95.5822 51.4881C96.1175 51.8786 96.761 52.0931 97.4235 52.102C98.4319 52.102 99.2211 51.7951 99.7912 51.1813C100.361 50.5674 100.668 49.7783 100.668 48.7698C100.685 48.3495 100.61 47.9306 100.449 47.542Z" fill="white"/>
<path d="M47.1382 47.542L29.2951 4.26678C28.2868 2.03072 26.7962 0.93457 24.8234 0.93457H23.2452C21.2724 0.93457 19.7816 2.03072 18.7733 4.26678L11.0136 23.1203H5.13889C4.2915 23.125 3.48016 23.4638 2.88098 24.063C2.2818 24.6622 1.94313 25.4736 1.93847 26.321V26.3648C1.94329 27.2121 2.28204 28.0233 2.8812 28.6224C3.48036 29.2215 4.2916 29.5602 5.13889 29.5649H8.29555L0.886403 47.542C0.746319 47.9364 0.672269 48.3512 0.667236 48.7696C0.667236 49.7781 0.974101 50.5674 1.54406 51.1811C2.11402 51.7948 2.90314 52.1019 3.91175 52.1019C4.57431 52.093 5.21774 51.8784 5.75309 51.488C6.32305 51.0934 6.71761 50.5234 7.02448 49.8656L15.1785 29.5649H20.834C21.6814 29.5602 22.4927 29.2214 23.0919 28.6222C23.6911 28.0229 24.0298 27.2116 24.0344 26.3642V26.2765C24.0298 25.4291 23.6911 24.6177 23.0919 24.0185C22.4927 23.4192 21.6814 23.0805 20.834 23.0757H17.809L24.0343 7.51067L41.0005 49.8658C41.3073 50.5235 41.7014 51.0934 42.2719 51.4881C42.8072 51.8786 43.4506 52.0931 44.1132 52.102C45.1216 52.102 45.9108 51.7951 46.4809 51.1813C47.0509 50.5674 47.3577 49.7783 47.3577 48.7698C47.3742 48.3495 47.2993 47.9306 47.1382 47.542Z" fill="white"/>
<path d="M230.761 52.1359C230.245 52.1353 229.75 51.9299 229.385 51.5649C229.02 51.1999 228.815 50.705 228.814 50.1888V44.5196C228.814 44.0038 228.609 43.5091 228.245 43.1444C227.88 42.7797 227.385 42.5747 226.869 42.5747C226.354 42.5747 225.859 42.7797 225.494 43.1444C225.129 43.5091 224.924 44.0038 224.924 44.5196V47.2099C224.924 47.7257 224.72 48.2204 224.355 48.5851C223.99 48.9498 223.495 49.1547 222.98 49.1547C222.464 49.1547 221.969 48.9498 221.604 48.5851C221.24 48.2204 221.035 47.7257 221.035 47.2099V44.5196C221.037 44.2627 220.988 44.0078 220.892 43.7698C220.795 43.5318 220.652 43.3153 220.471 43.1328C220.29 42.9503 220.075 42.8054 219.838 42.7066C219.601 42.6077 219.346 42.5568 219.089 42.5568C218.833 42.5568 218.578 42.6077 218.341 42.7066C218.104 42.8054 217.889 42.9503 217.708 43.1328C217.527 43.3153 217.384 43.5318 217.287 43.7698C217.19 44.0078 217.142 44.2627 217.144 44.5196V45.2517C217.144 45.7681 216.939 46.2634 216.574 46.6285C216.209 46.9937 215.713 47.1988 215.197 47.1988C214.681 47.1988 214.185 46.9937 213.82 46.6285C213.455 46.2634 213.25 45.7681 213.25 45.2517V44.5196C213.252 44.2627 213.204 44.0078 213.107 43.7698C213.01 43.5318 212.867 43.3153 212.686 43.1328C212.505 42.9503 212.29 42.8054 212.053 42.7066C211.816 42.6077 211.562 42.5568 211.305 42.5568C211.048 42.5568 210.793 42.6077 210.556 42.7066C210.319 42.8054 210.104 42.9503 209.923 43.1328C209.742 43.3153 209.599 43.5318 209.502 43.7698C209.406 44.0078 209.357 44.2627 209.359 44.5196V47.2099C209.359 47.7257 209.154 48.2204 208.79 48.5851C208.425 48.9498 207.93 49.1547 207.414 49.1547C206.899 49.1547 206.404 48.9498 206.039 48.5851C205.674 48.2204 205.47 47.7257 205.47 47.2099V44.5196C205.47 44.2642 205.419 44.0113 205.322 43.7753C205.224 43.5394 205.081 43.325 204.9 43.1444C204.719 42.9638 204.505 42.8205 204.269 42.7228C204.033 42.6251 203.78 42.5747 203.525 42.5747C203.269 42.5747 203.016 42.6251 202.78 42.7228C202.544 42.8205 202.33 42.9638 202.149 43.1444C201.969 43.325 201.826 43.5394 201.728 43.7753C201.63 44.0113 201.58 44.2642 201.58 44.5196V50.1888C201.586 50.4483 201.541 50.7064 201.446 50.948C201.351 51.1896 201.209 51.4099 201.028 51.5957C200.847 51.7815 200.63 51.9292 200.391 52.03C200.152 52.1309 199.895 52.1828 199.636 52.1828C199.376 52.1828 199.119 52.1309 198.88 52.03C198.641 51.9292 198.424 51.7815 198.243 51.5957C198.062 51.4099 197.92 51.1896 197.825 50.948C197.73 50.7064 197.685 50.4483 197.692 50.1888V18.07C197.786 14.0842 199.235 10.2494 201.8 7.19734C204.366 4.14526 207.894 2.05796 211.804 1.27929C215.714 0.50061 219.773 1.07701 223.312 2.91352C226.85 4.75004 229.658 7.73713 231.272 11.3827C232.206 13.4914 232.713 15.7643 232.763 18.07C232.766 18.094 232.763 18.1183 232.752 18.1403C232.742 18.1622 232.726 18.1807 232.706 18.1937V50.1888C232.705 50.7047 232.501 51.1994 232.136 51.5644C231.772 51.9294 231.277 52.1349 230.761 52.1359ZM213.23 23.1744C212.736 23.1744 212.536 23.3657 212.536 23.838C212.536 24.9863 213.806 25.9199 215.366 25.9199C216.926 25.9199 218.192 24.9863 218.192 23.838C218.192 23.3667 217.992 23.1754 217.499 23.1754C217.235 23.1846 216.973 23.2113 216.712 23.2551L216.688 23.2592C216.251 23.331 215.809 23.3713 215.366 23.3799C214.922 23.3713 214.479 23.331 214.041 23.2592C213.773 23.2124 213.502 23.1841 213.23 23.1744ZM221.698 13.7222C219.976 13.7222 218.577 15.3255 218.577 17.297C218.577 19.2684 219.976 20.8686 221.698 20.8686C223.417 20.8686 224.815 19.2663 224.815 17.297C224.815 15.3276 223.417 13.7224 221.698 13.7224V13.7222ZM208.755 13.7222C207.038 13.7222 205.639 15.3255 205.639 17.297C205.639 19.2684 207.038 20.8687 208.755 20.8687C210.473 20.8687 211.873 19.2665 211.873 17.2971C211.873 15.3277 210.474 13.7224 208.755 13.7224L208.755 13.7222Z" fill="white"/>
</svg>
