<svg width="324" height="43" viewBox="0 0 324 43" fill="none" xmlns="http://www.w3.org/2000/svg">
<path d="M27.7541 8.53237C26.4731 8.53237 25.6191 7.67918 25.6191 6.3994V4.26643H23.4842C22.2033 4.26643 21.3493 3.41324 21.3493 2.13346V0.000488281H0V42.6599H21.3493V40.5269C21.3493 39.2471 22.2033 38.3939 23.4842 38.3939H25.6191V36.261C25.6191 34.9812 26.4731 34.128 27.7541 34.128H29.889V8.53237H27.7541ZM25.6191 10.6653V31.995C25.6191 33.2748 24.7652 34.128 23.4842 34.128H21.3493V36.261C21.3493 37.5407 20.4953 38.3939 19.2144 38.3939H6.40481C5.12383 38.3939 4.26986 37.5407 4.26986 36.261V6.3994C4.26986 5.11961 5.12383 4.26643 6.40481 4.26643H19.2144C20.4953 4.26643 21.3493 5.11961 21.3493 6.3994V8.53237H23.4842C24.7652 8.53237 25.6191 9.38555 25.6191 10.6653Z" fill="white"/>
<path d="M36.3792 0V42.6594H40.649V0H36.3792Z" fill="white"/>
<path d="M72.7579 0V6.39891C72.7579 7.67869 71.9041 8.53188 70.6232 8.53188H68.4885V19.1967C68.4885 20.4765 67.6341 21.3297 66.3532 21.3297H64.2184V31.9945C64.2184 33.2743 63.3647 34.1275 62.0831 34.1275C60.8022 34.1275 59.9484 33.2743 59.9484 31.9945V21.3297H57.8136C56.5326 21.3297 55.6786 20.4765 55.6786 19.1967V8.53188H53.5437C52.2628 8.53188 51.4088 7.67869 51.4088 6.39891V0H47.1389V8.53188H49.2739C50.5548 8.53188 51.4088 9.38507 51.4088 10.6648V21.3297H53.5437C54.8247 21.3297 55.6786 22.1829 55.6786 23.4627V34.1275H57.8136C59.0946 34.1275 59.9484 34.9807 59.9484 36.2605V42.6594H64.2184V36.2605C64.2184 34.9807 65.0722 34.1275 66.3532 34.1275H68.4885V23.4627C68.4885 22.1829 69.3422 21.3297 70.6232 21.3297H72.7579V10.6648C72.7579 9.38507 73.6123 8.53188 74.8932 8.53188H77.028V0H72.7579Z" fill="white"/>
<path d="M87.7881 14.9308V6.39891C87.7881 5.11913 88.6419 4.26594 89.9228 4.26594H109.137V0H83.5181V42.6594H109.137V38.3934H89.9228C88.6419 38.3934 87.7881 37.5403 87.7881 36.2605V23.4627C87.7881 22.1829 88.6419 21.3297 89.9228 21.3297H104.868V17.0638H89.9228C88.6419 17.0638 87.7881 16.2106 87.7881 14.9308Z" fill="white"/>
<path d="M139.129 4.26594C137.848 4.26594 136.994 3.41275 136.994 2.13297V0H115.644V42.6594H119.914V27.7286C119.914 26.4488 120.768 25.5956 122.049 25.5956H126.319C127.6 25.5956 128.454 26.4488 128.454 27.7286V29.8616H130.589C131.87 29.8616 132.724 30.7148 132.724 31.9945V38.3934H134.859C136.139 38.3934 136.994 39.2466 136.994 40.5264V42.6594H141.263V38.3934H139.129C137.848 38.3934 136.994 37.5403 136.994 36.2605V29.8616H134.859C133.578 29.8616 132.724 29.0084 132.724 27.7286C132.724 26.4488 133.578 25.5956 134.859 25.5956H136.994V23.4627C136.994 22.1829 137.848 21.3297 139.129 21.3297H141.263V4.26594H139.129ZM136.994 6.39891V19.1967C136.994 20.4765 136.139 21.3297 134.859 21.3297H122.049C120.768 21.3297 119.914 20.4765 119.914 19.1967V6.39891C119.914 5.11913 120.768 4.26594 122.049 4.26594H134.859C136.139 4.26594 136.994 5.11913 136.994 6.39891Z" fill="white"/>
<path d="M181.929 12.7978V8.53188H179.794C178.513 8.53188 177.659 7.67869 177.659 6.39891V4.26594H175.524C174.243 4.26594 173.389 3.41275 173.389 2.13297V0H156.309V2.13297C156.309 3.41275 155.456 4.26594 154.175 4.26594H152.04V6.39891C152.04 7.67869 151.186 8.53188 149.905 8.53188H147.77V34.1275H149.905C151.186 34.1275 152.04 34.9807 152.04 36.2605V38.3934H154.175C155.456 38.3934 156.309 39.2466 156.309 40.5264V42.6594H173.389V40.5264C173.389 39.2466 174.243 38.3934 175.524 38.3934C176.805 38.3934 177.659 39.2466 177.659 40.5264V42.6594H181.929V21.3297H164.85V25.5956H175.524C176.805 25.5956 177.659 26.4488 177.659 27.7286V31.9945C177.659 33.2743 176.805 34.1275 175.524 34.1275H173.389V36.2605C173.389 37.5403 172.535 38.3934 171.254 38.3934H158.445C157.164 38.3934 156.309 37.5403 156.309 36.2605V34.1275H154.175C152.894 34.1275 152.04 33.2743 152.04 31.9945V10.6648C152.04 9.38507 152.894 8.53188 154.175 8.53188H156.309V6.39891C156.309 5.11913 157.164 4.26594 158.445 4.26594H171.254C172.535 4.26594 173.389 5.11913 173.389 6.39891V8.53188H175.524C176.805 8.53188 177.659 9.38507 177.659 10.6648V12.7978H181.929Z" fill="white"/>
<path d="M192.673 14.9308V6.39891C192.673 5.11913 193.526 4.26594 194.807 4.26594H214.022V0H188.403V42.6594H214.022V38.3934H194.807C193.526 38.3934 192.673 37.5403 192.673 36.2605V23.4627C192.673 22.1829 193.526 21.3297 194.807 21.3297H209.752V17.0638H194.807C193.526 17.0638 192.673 16.2106 192.673 14.9308Z" fill="white"/>
<path d="M246.148 0V27.7286C246.148 29.0084 245.294 29.8616 244.013 29.8616C242.732 29.8616 241.878 29.0084 241.878 27.7286V25.5956H239.743C238.462 25.5956 237.608 24.7424 237.608 23.4627V17.0638H235.473C234.192 17.0638 233.338 16.2106 233.338 14.9308V12.7978H231.203C229.922 12.7978 229.069 11.9446 229.069 10.6648V4.26594H226.933C225.652 4.26594 224.799 3.41275 224.799 2.13297V0H220.529V42.6594H224.799V14.9308C224.799 13.651 225.652 12.7978 226.933 12.7978C228.214 12.7978 229.069 13.651 229.069 14.9308V17.0638H231.203C232.484 17.0638 233.338 17.9169 233.338 19.1967V25.5956H235.473C236.754 25.5956 237.608 26.4488 237.608 27.7286V29.8616H239.743C241.024 29.8616 241.878 30.7148 241.878 31.9945V38.3934H244.013C245.294 38.3934 246.148 39.2466 246.148 40.5264V42.6594H250.418V0H246.148Z" fill="white"/>
<path d="M291.067 12.7978V8.53188H288.932C287.651 8.53188 286.797 7.67869 286.797 6.39891V4.26594H284.662C283.381 4.26594 282.527 3.41275 282.527 2.13297V0H265.448V2.13297C265.448 3.41275 264.594 4.26594 263.313 4.26594H261.178V6.39891C261.178 7.67869 260.324 8.53188 259.043 8.53188H256.907V34.1275H259.043C260.324 34.1275 261.178 34.9807 261.178 36.2605V38.3934H263.313C264.594 38.3934 265.448 39.2466 265.448 40.5264V42.6594H282.527V40.5264C282.527 39.2466 283.381 38.3934 284.662 38.3934H286.797V36.2605C286.797 34.9807 287.651 34.1275 288.932 34.1275H291.067V29.8616H286.797V31.9945C286.797 33.2743 285.943 34.1275 284.662 34.1275H282.527V36.2605C282.527 37.5403 281.673 38.3934 280.392 38.3934H267.582C266.301 38.3934 265.448 37.5403 265.448 36.2605V34.1275H263.313C262.032 34.1275 261.178 33.2743 261.178 31.9945V10.6648C261.178 9.38507 262.032 8.53188 263.313 8.53188H265.448V6.39891C265.448 5.11913 266.301 4.26594 267.582 4.26594H280.392C281.673 4.26594 282.527 5.11913 282.527 6.39891V8.53188H284.662C285.943 8.53188 286.797 9.38507 286.797 10.6648V12.7978H291.067Z" fill="white"/>
<path d="M301.809 14.9308V6.39891C301.809 5.11913 302.664 4.26594 303.945 4.26594H323.159V0H297.54V42.6594H323.159V38.3934H303.945C302.664 38.3934 301.809 37.5403 301.809 36.2605V23.4627C301.809 22.1829 302.664 21.3297 303.945 21.3297H318.889V17.0638H303.945C302.664 17.0638 301.809 16.2106 301.809 14.9308Z" fill="white"/>
</svg>
