<svg width="14" height="14" viewBox="0 0 14 14" fill="none" xmlns="http://www.w3.org/2000/svg">
<path d="M6.7746 13.5499C5.37876 13.5523 4.01653 13.1217 2.87577 12.3173C4.15949 12.1244 5.42169 11.8085 6.64496 11.374C8.71979 10.6314 10.6096 9.57542 12.2006 8.0281C12.6707 7.5695 13.0991 7.06992 13.4806 6.53527C13.5017 6.50615 13.5182 6.46951 13.5388 6.43709C13.5445 6.54889 13.5473 6.66147 13.5473 6.77484C13.5473 8.57128 12.8338 10.2942 11.5638 11.5647C10.2937 12.8352 8.57105 13.5493 6.7746 13.5499ZM1.65445 10.6417C1.83342 10.6314 2.01239 10.6098 2.19042 10.5872C2.616 10.5332 2.73719 10.3928 2.73766 9.96014C2.73766 8.81836 2.73766 7.67627 2.73766 6.53386C2.73766 6.0707 2.96878 5.84334 3.43335 5.84569C3.7072 5.84569 3.98106 5.84569 4.25445 5.86026C4.66454 5.87952 4.88155 6.10593 4.88672 6.51789C4.89236 6.96367 4.88672 7.41039 4.88672 7.85571C4.88672 8.55186 4.88672 9.24801 4.88672 9.94416C4.88672 10.0038 4.83129 10.1114 4.98302 10.0959C5.47718 10.0447 5.65756 9.85069 5.65756 9.35511C5.65756 7.93118 5.65756 6.5074 5.65756 5.08378C5.65756 4.6178 5.88586 4.39091 6.34808 4.38715C6.59798 4.3848 6.84835 4.38715 7.09966 4.38715C7.58114 4.38997 7.80427 4.61122 7.80427 5.08941C7.80427 6.12284 7.80427 7.15626 7.80427 8.18969V9.19681C8.55585 8.94879 8.59766 8.89148 8.5939 8.21365C8.58591 6.66351 8.59014 5.11337 8.5939 3.56652C8.5939 3.15785 8.82454 2.93143 9.23462 2.92674C9.48452 2.92392 9.73489 2.92674 9.98621 2.92674C10.5325 2.92674 10.7317 3.12684 10.7322 3.67832C10.7322 4.91404 10.7322 6.14993 10.7322 7.38597C10.7322 7.46629 10.6979 7.55601 10.7646 7.62929C11.402 7.25585 12.7351 6.00493 13.1349 5.40883C13.2215 5.28414 13.2802 5.14216 13.3068 4.99265C13.0482 4.04522 12.5867 3.16534 11.9542 2.41396C11.3218 1.66258 10.5336 1.05766 9.64425 0.641113C8.75487 0.224562 7.78557 0.00633364 6.80348 0.00154538C5.8214 -0.00324287 4.85001 0.205523 3.95661 0.613383C3.06321 1.02124 2.26916 1.61844 1.62945 2.36362C0.989744 3.1088 0.519679 3.98413 0.251818 4.929C-0.0160435 5.87386 -0.0752976 6.86566 0.0781599 7.83569C0.231618 8.80572 0.594118 9.7308 1.14055 10.5468C1.3004 10.6245 1.47835 10.6573 1.65539 10.6417H1.65445Z" fill="#C532F9"/>
</svg>
