<svg width="20" height="20" viewBox="0 0 20 20" fill="none" xmlns="http://www.w3.org/2000/svg">
<path d="M9.99166 1.66699C5.39166 1.66699 1.66666 5.40033 1.66666 10.0003C1.66666 14.6003 5.39166 18.3337 9.99166 18.3337C14.6 18.3337 18.3333 14.6003 18.3333 10.0003C18.3333 5.40033 14.6 1.66699 9.99166 1.66699ZM15.7667 6.66699H13.3083C13.0417 5.62533 12.6583 4.62533 12.1583 3.70033C13.6917 4.22533 14.9667 5.29199 15.7667 6.66699ZM9.99999 3.36699C10.6917 4.36699 11.2333 5.47533 11.5917 6.66699H8.40832C8.76666 5.47533 9.30832 4.36699 9.99999 3.36699ZM3.54999 11.667C3.41666 11.1337 3.33332 10.5753 3.33332 10.0003C3.33332 9.42533 3.41666 8.86699 3.54999 8.33366H6.36666C6.29999 8.88366 6.24999 9.43366 6.24999 10.0003C6.24999 10.567 6.29999 11.117 6.36666 11.667H3.54999ZM4.23332 13.3337H6.69166C6.95832 14.3753 7.34166 15.3753 7.84166 16.3003C6.30832 15.7753 5.03332 14.717 4.23332 13.3337ZM6.69166 6.66699H4.23332C5.03332 5.28366 6.30832 4.22533 7.84166 3.70033C7.34166 4.62533 6.95832 5.62533 6.69166 6.66699ZM9.99999 16.6337C9.30832 15.6337 8.76666 14.5253 8.40832 13.3337H11.5917C11.2333 14.5253 10.6917 15.6337 9.99999 16.6337ZM11.95 11.667H8.04999C7.97499 11.117 7.91666 10.567 7.91666 10.0003C7.91666 9.43366 7.97499 8.87533 8.04999 8.33366H11.95C12.025 8.87533 12.0833 9.43366 12.0833 10.0003C12.0833 10.567 12.025 11.117 11.95 11.667ZM12.1583 16.3003C12.6583 15.3753 13.0417 14.3753 13.3083 13.3337H15.7667C14.9667 14.7087 13.6917 15.7753 12.1583 16.3003ZM13.6333 11.667C13.7 11.117 13.75 10.567 13.75 10.0003C13.75 9.43366 13.7 8.88366 13.6333 8.33366H16.45C16.5833 8.86699 16.6667 9.42533 16.6667 10.0003C16.6667 10.5753 16.5833 11.1337 16.45 11.667H13.6333Z" fill="white"/>
</svg>
