<svg width="12" height="12" viewBox="0 0 12 12" fill="none" xmlns="http://www.w3.org/2000/svg">
<path fill-rule="evenodd" clip-rule="evenodd" d="M6 1.2C3.34903 1.2 1.2 3.34903 1.2 6C1.2 8.65097 3.34903 10.8 6 10.8C8.65097 10.8 10.8 8.65097 10.8 6C10.8 3.34903 8.65097 1.2 6 1.2ZM0 6C0 2.68629 2.68629 0 6 0C9.31371 0 12 2.68629 12 6C12 9.31371 9.31371 12 6 12C2.68629 12 0 9.31371 0 6Z" fill="#919191"/>
<path fill-rule="evenodd" clip-rule="evenodd" d="M6.60039 5.39966V8.99966H5.40039V5.39966H6.60039Z" fill="#919191"/>
<path fill-rule="evenodd" clip-rule="evenodd" d="M6.60039 3V4.34962H5.40039V3H6.60039Z" fill="#919191"/>
</svg>
