<svg width="17" height="15" viewBox="0 0 17 15" fill="none" xmlns="http://www.w3.org/2000/svg">
<path d="M16.4898 12.7312L13.0378 6.89223L9.58615 1.053C9.03344 0.117751 7.65095 0.117751 7.09795 1.053L3.64629 6.89223L0.194628 12.7312C-0.358368 13.6667 0.332877 14.836 1.43887 14.836H15.2455C16.3515 14.836 17.0425 13.6667 16.4898 12.7312ZM9.21558 3.97361L9.0665 10.5012H7.61275L7.46823 3.97361H9.21558ZM9.19734 12.8244C9.10857 12.9721 8.98458 13.0955 8.83647 13.1836C8.68701 13.2724 8.51603 13.3184 8.34219 13.3167C8.21169 13.3171 8.08241 13.2916 7.96177 13.2419C7.84112 13.1921 7.73151 13.119 7.63922 13.0267C7.54693 12.9345 7.47378 12.8249 7.42399 12.7043C7.3742 12.5836 7.34874 12.4543 7.34908 12.3238C7.34717 12.1943 7.37194 12.0657 7.42186 11.9461C7.47179 11.8264 7.54579 11.7184 7.63926 11.6286C7.8251 11.4437 8.0766 11.3399 8.33877 11.3399C8.60094 11.3399 8.85245 11.4437 9.03828 11.6286C9.19588 11.781 9.29727 11.9823 9.32594 12.1997C9.35461 12.4171 9.30889 12.6377 9.1962 12.8258L9.19734 12.8244Z" fill="#36B0E6"/>
</svg>
