<svg width="1403" height="254" viewBox="0 0 1403 254" fill="none" xmlns="http://www.w3.org/2000/svg">
<mask id="mask0_6985_30822" style="mask-type:alpha" maskUnits="userSpaceOnUse" x="12" y="12" width="1379" height="230">
<rect x="12.5" y="12.5" width="1378" height="229" rx="13.5" fill="url(#paint0_linear_6985_30822)" stroke="url(#paint1_linear_6985_30822)"/>
</mask>
<g mask="url(#mask0_6985_30822)">
<path opacity="0.6" d="M850.804 155.192L850.281 27.7651C850.275 25.8917 849.776 24.0529 848.834 22.4332C847.893 20.8135 846.542 19.4697 844.918 18.5367C843.293 17.6037 841.452 17.1141 839.579 17.1172C837.705 17.1203 835.865 17.6158 834.244 18.5542L723.657 82.4797C720.409 84.3623 717.714 87.0673 715.843 90.3225C713.972 93.5777 712.991 97.2683 713 101.023V228.767C713 230.644 713.495 232.488 714.434 234.113C715.373 235.738 716.723 237.088 718.349 238.026C719.975 238.964 721.819 239.457 723.696 239.456C725.573 239.455 727.417 238.959 729.042 238.019L840.123 173.786C843.383 171.901 846.087 169.189 847.962 165.924C849.837 162.659 850.818 158.957 850.804 155.192V155.192Z" fill="url(#paint2_linear_6985_30822)"/>
<path opacity="0.6" d="M1194.77 182.319L1194.25 54.8972C1194.24 53.0236 1193.74 51.185 1192.8 49.5654C1191.86 47.9459 1190.51 46.6024 1188.88 45.6695C1187.26 44.7366 1185.42 44.2471 1183.54 44.25C1181.67 44.253 1179.83 44.7483 1178.21 45.6863L1067.65 109.612C1064.4 111.49 1061.7 114.189 1059.83 117.438C1057.95 120.686 1056.97 124.371 1056.97 128.122V255.889C1056.97 257.766 1057.46 259.61 1058.4 261.236C1059.34 262.861 1060.69 264.211 1062.31 265.148C1063.94 266.086 1065.79 266.58 1067.66 266.578C1069.54 266.577 1071.38 266.082 1073.01 265.142L1184.09 200.909C1187.35 199.024 1190.05 196.312 1191.93 193.048C1193.8 189.784 1194.78 186.083 1194.77 182.319Z" fill="url(#paint3_linear_6985_30822)"/>
<path opacity="0.6" d="M1230.43 116.293C1230.47 127.025 1238.06 131.369 1247.41 125.97C1253.94 122.195 1259.61 114.655 1262.41 106.783C1262.74 105.802 1263.4 104.964 1264.28 104.408C1265.03 103.974 1265.79 103.974 1266.18 104.613C1269.02 109.219 1274.7 110.213 1281.24 106.433C1281.61 106.214 1281.99 105.967 1282.37 105.738C1291.35 99.8819 1298.13 86.9102 1298.1 76.5561L1298.02 50.0014C1298.02 43.5575 1293.44 40.9585 1287.84 44.1921L1240.47 71.5447C1234.87 74.783 1230.33 82.6267 1230.35 89.0753L1230.42 116.293M1227.94 71.876C1243.85 61.06 1255.13 49.4788 1261.48 37.3936L1261.74 36.8756C1262.32 35.9068 1263.13 35.0935 1264.09 34.5053C1265.03 33.9593 1265.92 33.866 1266.73 34.3559C1273.12 39.078 1284.43 37.6222 1300.33 30.0725C1303.68 28.4767 1306.33 30.3011 1306.34 34.23L1306.48 83.3266C1306.48 84.2599 1305.74 107.124 1265.27 130.487L1263.49 131.513C1242.13 143.846 1232 143.291 1227.25 140.622C1222.24 137.822 1222.09 132.111 1222.09 132.05L1221.95 82.9487C1221.96 79.0198 1224.59 74.1578 1227.94 71.876Z" stroke="url(#paint4_linear_6985_30822)" stroke-width="2.49317" stroke-linecap="round" stroke-linejoin="round"/>
<path opacity="0.6" d="M1280.02 65.1918C1276.34 67.3102 1273.37 72.0369 1273.38 75.7465L1273.42 89.1942C1273.42 92.9271 1276.41 94.1962 1280.08 92.0825C1283.74 89.9688 1286.72 85.2373 1286.71 81.5231L1286.67 68.0708C1286.66 64.3612 1283.68 63.0734 1280.02 65.1918Z" stroke="url(#paint5_linear_6985_30822)" stroke-width="2.49317" stroke-linecap="round" stroke-linejoin="round"/>
<path opacity="0.6" d="M1248.42 83.4307C1244.74 85.5538 1241.77 90.2806 1241.78 93.9855L1241.82 107.438C1241.82 111.171 1244.82 112.44 1248.48 110.326C1252.13 108.212 1255.12 103.481 1255.11 99.7621L1255.07 86.3144C1255.05 82.6048 1252.08 81.317 1248.42 83.4307Z" stroke="url(#paint6_linear_6985_30822)" stroke-width="2.49317" stroke-linecap="round" stroke-linejoin="round"/>
<path opacity="0.6" d="M1287.85 44.191C1293.45 40.9574 1298.01 43.5564 1298.03 50.0003L1298.11 76.555C1298.14 86.9091 1291.36 99.8855 1282.38 105.737C1282 105.984 1281.62 106.203 1281.25 106.432C1274.72 110.202 1269.03 109.232 1266.19 104.612C1265.8 103.973 1265.04 103.973 1264.29 104.407C1263.41 104.963 1262.75 105.801 1262.42 106.782C1259.62 114.654 1253.96 122.18 1247.42 125.969C1238.09 131.368 1230.48 127.028 1230.44 116.292L1230.37 89.0742C1230.37 82.6256 1234.88 74.7819 1240.48 71.5436L1287.85 44.191ZM1241.82 107.44C1241.82 111.173 1244.82 112.442 1248.49 110.319C1252.16 108.196 1255.12 103.483 1255.11 99.7642L1255.07 86.3165C1255.07 82.5836 1252.08 81.3191 1248.4 83.4422C1244.73 85.5653 1241.77 90.2827 1241.78 93.9876L1241.82 107.44ZM1273.42 89.1955C1273.42 92.9284 1276.41 94.1975 1280.09 92.0791C1283.77 89.9607 1286.72 85.2386 1286.71 81.5244L1286.67 68.0721C1286.67 64.3625 1283.68 63.0747 1280 65.1977C1276.32 67.3208 1273.37 72.0382 1273.38 75.7478L1273.42 89.1955Z" stroke="url(#paint7_linear_6985_30822)" stroke-width="2.49317" stroke-linecap="round" stroke-linejoin="round"/>
<path opacity="0.6" d="M1195.32 182.319L1194.8 54.8972C1194.8 53.0236 1194.3 51.185 1193.35 49.5654C1192.41 47.9459 1191.06 46.6023 1189.44 45.6695C1187.81 44.7366 1185.97 44.2471 1184.1 44.25C1182.22 44.253 1180.38 44.7483 1178.76 45.6863L1068.2 109.612C1064.95 111.49 1062.26 114.189 1060.38 117.438C1058.51 120.687 1057.52 124.372 1057.52 128.122V255.889C1057.52 257.766 1058.01 259.61 1058.95 261.236C1059.89 262.861 1061.24 264.211 1062.87 265.149C1064.49 266.087 1066.34 266.58 1068.21 266.579C1070.09 266.578 1071.93 266.082 1073.56 265.142L1184.64 200.909C1187.9 199.025 1190.61 196.314 1192.48 193.05C1194.36 189.785 1195.34 186.083 1195.32 182.319V182.319Z" stroke="url(#paint8_linear_6985_30822)" stroke-width="2.49317" stroke-linecap="round" stroke-linejoin="round"/>
<path opacity="0.6" d="M1332.92 106.596L1332.41 -20.8255C1332.4 -22.699 1331.9 -24.5377 1330.96 -26.1572C1330.01 -27.7768 1328.66 -29.1203 1327.04 -30.0532C1325.41 -30.9861 1323.57 -31.4756 1321.7 -31.4726C1319.83 -31.4697 1317.99 -30.9744 1316.36 -30.0364L1205.78 33.8892C1202.53 35.7662 1199.84 38.4643 1197.96 41.7126C1196.09 44.9608 1195.1 48.6449 1195.1 52.3949V180.171C1195.1 182.055 1195.59 183.907 1196.53 185.539C1197.47 187.171 1198.83 188.526 1200.46 189.465C1202.09 190.404 1203.94 190.895 1205.83 190.888C1207.71 190.881 1209.56 190.376 1211.19 189.424L1322.24 125.191C1325.5 123.307 1328.2 120.595 1330.08 117.33C1331.96 114.065 1332.94 110.362 1332.92 106.596V106.596Z" stroke="url(#paint9_linear_6985_30822)" stroke-width="2.49317" stroke-linecap="round" stroke-linejoin="round"/>
<path opacity="0.6" d="M850.804 155.192L850.281 27.7651C850.275 25.8917 849.776 24.0529 848.834 22.4332C847.893 20.8135 846.542 19.4697 844.918 18.5367C843.293 17.6037 841.452 17.1141 839.579 17.1172C837.705 17.1203 835.865 17.6158 834.244 18.5542L723.657 82.4797C720.409 84.3623 717.714 87.0673 715.843 90.3225C713.972 93.5777 712.991 97.2683 713 101.023V228.767C713 230.644 713.495 232.488 714.434 234.113C715.373 235.738 716.723 237.088 718.349 238.026C719.975 238.964 721.819 239.457 723.696 239.456C725.573 239.455 727.417 238.959 729.042 238.019L840.123 173.786C843.383 171.901 846.087 169.189 847.962 165.924C849.837 162.659 850.818 158.957 850.804 155.192V155.192Z" stroke="url(#paint10_linear_6985_30822)" stroke-width="2.49317" stroke-linecap="round" stroke-linejoin="round"/>
<path opacity="0.6" d="M1195.32 -96.7398L1194.8 30.682C1194.79 32.5539 1194.29 34.3908 1193.35 36.009C1192.41 37.6273 1191.06 38.9701 1189.44 39.9031C1187.82 40.8362 1185.98 41.3267 1184.11 41.3257C1182.24 41.3248 1180.4 40.8323 1178.77 39.8975L1068.21 -24.028C1064.96 -25.9047 1062.27 -28.6027 1060.39 -31.851C1058.52 -35.0994 1057.53 -38.7836 1057.54 -42.5337V-170.31C1057.53 -172.187 1058.03 -174.031 1058.97 -175.657C1059.9 -177.282 1061.25 -178.632 1062.88 -179.57C1064.51 -180.508 1066.35 -181.001 1068.23 -181C1070.1 -180.999 1071.95 -180.503 1073.57 -179.563L1184.66 -115.334C1187.91 -113.448 1190.62 -110.735 1192.49 -107.47C1194.36 -104.205 1195.34 -100.503 1195.32 -96.7398V-96.7398Z" stroke="url(#paint11_linear_6985_30822)" stroke-width="2.49317" stroke-linecap="round" stroke-linejoin="round"/>
<path opacity="0.6" d="M1195.32 27.738V-90.6969C1195.32 -92.5739 1195.81 -94.4179 1196.75 -96.0435C1197.69 -97.669 1199.04 -99.0187 1200.67 -99.9567C1202.29 -100.895 1204.14 -101.388 1206.01 -101.387C1207.89 -101.385 1209.73 -100.89 1211.36 -99.9498L1322.46 -35.6929C1325.72 -33.8087 1328.42 -31.0967 1330.3 -27.8315C1332.17 -24.5663 1333.15 -20.8637 1333.13 -17.0985L1332.62 110.323" stroke="url(#paint12_linear_6985_30822)" stroke-width="2.49317" stroke-linecap="round" stroke-linejoin="round"/>
<path opacity="0.6" d="M1526.92 -151.789L1206.84 33.2964" stroke="url(#paint13_linear_6985_30822)" stroke-width="2.49317" stroke-linecap="round" stroke-linejoin="round"/>
<path opacity="0.6" d="M302.117 161.192L302.64 33.7651C302.647 31.8917 303.146 30.0529 304.087 28.4332C305.028 26.8135 306.379 25.4697 308.004 24.5367C309.628 23.6037 311.469 23.1141 313.343 23.1172C315.216 23.1203 317.056 23.6158 318.677 24.5542L429.264 88.4797C432.512 90.3623 435.208 93.0673 437.079 96.3225C438.949 99.5777 439.93 103.268 439.921 107.023V234.767C439.921 236.644 439.427 238.488 438.488 240.113C437.549 241.738 436.198 243.088 434.572 244.026C432.946 244.964 431.102 245.457 429.225 245.456C427.348 245.455 425.504 244.959 423.879 244.019L312.798 179.786C309.539 177.901 306.835 175.189 304.959 171.924C303.084 168.659 302.104 164.957 302.117 161.192V161.192Z" stroke="url(#paint14_linear_6985_30822)" stroke-width="2.49317" stroke-linecap="round" stroke-linejoin="round"/>
<path opacity="0.6" d="M-42.399 -90.7398L-41.881 36.682C-41.8729 38.5539 -41.3735 40.3908 -40.4326 42.009C-39.4917 43.6273 -38.1423 44.9701 -36.5195 45.9031C-34.8967 46.8362 -33.0574 47.3267 -31.1855 47.3257C-29.3136 47.3248 -27.4748 46.8323 -25.853 45.8975L84.7102 -18.028C87.9569 -19.9047 90.6527 -22.6027 92.5267 -25.851C94.4006 -29.0994 95.3869 -32.7836 95.3862 -36.5337V-164.31C95.387 -166.187 94.8934 -168.031 93.955 -169.657C93.0166 -171.282 91.6666 -172.632 90.0408 -173.57C88.4151 -174.508 86.5709 -175.001 84.6939 -175C82.8169 -174.999 80.9734 -174.503 79.3489 -173.563L-31.7369 -109.334C-34.9935 -107.448 -37.6943 -104.735 -39.5664 -101.47C-41.4386 -98.2047 -42.4156 -94.5034 -42.399 -90.7398V-90.7398Z" stroke="url(#paint15_linear_6985_30822)" stroke-width="2.49317" stroke-linecap="round" stroke-linejoin="round"/>
<path opacity="0.6" d="M157.601 79.2602L158.119 206.682C158.127 208.554 158.627 210.391 159.567 212.009C160.508 213.627 161.858 214.97 163.48 215.903C165.103 216.836 166.943 217.327 168.814 217.326C170.686 217.325 172.525 216.832 174.147 215.898L284.71 151.972C287.957 150.095 290.653 147.397 292.527 144.149C294.401 140.901 295.387 137.216 295.386 133.466V5.68983C295.387 3.81287 294.893 1.96881 293.955 0.343252C293.017 -1.28231 291.667 -2.63201 290.041 -3.57001C288.415 -4.50801 286.571 -5.00122 284.694 -5C282.817 -4.99877 280.973 -4.50316 279.349 -3.56304L168.263 60.6658C165.007 62.5525 162.306 65.2654 160.434 68.5304C158.561 71.7953 157.584 75.4966 157.601 79.2602V79.2602Z" stroke="url(#paint16_linear_6985_30822)" stroke-width="2.49317" stroke-linecap="round" stroke-linejoin="round"/>
</g>
<defs>
<linearGradient id="paint0_linear_6985_30822" x1="12" y1="127" x2="1280.45" y2="-253.26" gradientUnits="userSpaceOnUse">
<stop stop-color="#C532F9"/>
<stop offset="1" stop-color="#32B2E5"/>
</linearGradient>
<linearGradient id="paint1_linear_6985_30822" x1="12" y1="127" x2="1280.45" y2="-253.26" gradientUnits="userSpaceOnUse">
<stop stop-color="#C532F9"/>
<stop offset="1" stop-color="#32B2E5"/>
</linearGradient>
<linearGradient id="paint2_linear_6985_30822" x1="850.804" y1="128.287" x2="713" y2="128.287" gradientUnits="userSpaceOnUse">
<stop stop-color="#20BCE2" stop-opacity="0"/>
<stop offset="1" stop-color="#E512F3" stop-opacity="0.2"/>
</linearGradient>
<linearGradient id="paint3_linear_6985_30822" x1="1194.77" y1="155.414" x2="1056.97" y2="155.414" gradientUnits="userSpaceOnUse">
<stop stop-color="#E512F3" stop-opacity="0.1"/>
<stop offset="1" stop-color="#20BCE2" stop-opacity="0.2"/>
</linearGradient>
<linearGradient id="paint4_linear_6985_30822" x1="1221.51" y1="85.8417" x2="1306.96" y2="85.8417" gradientUnits="userSpaceOnUse">
<stop stop-color="#E512F3"/>
<stop offset="0.58" stop-color="#20BCE2" stop-opacity="0.4"/>
<stop offset="1" stop-color="#20BCE2" stop-opacity="0"/>
</linearGradient>
<linearGradient id="paint5_linear_6985_30822" x1="1272.91" y1="78.6348" x2="1287.18" y2="78.6348" gradientUnits="userSpaceOnUse">
<stop stop-color="#E512F3"/>
<stop offset="0.58" stop-color="#20BCE2" stop-opacity="0.4"/>
<stop offset="1" stop-color="#20BCE2" stop-opacity="0"/>
</linearGradient>
<linearGradient id="paint6_linear_6985_30822" x1="1241.31" y1="96.8784" x2="1255.58" y2="96.8784" gradientUnits="userSpaceOnUse">
<stop stop-color="#E512F3"/>
<stop offset="0.58" stop-color="#20BCE2" stop-opacity="0.4"/>
<stop offset="1" stop-color="#20BCE2" stop-opacity="0"/>
</linearGradient>
<linearGradient id="paint7_linear_6985_30822" x1="1229.89" y1="85.5466" x2="1298.57" y2="85.5466" gradientUnits="userSpaceOnUse">
<stop stop-color="#E512F3"/>
<stop offset="0.58" stop-color="#20BCE2" stop-opacity="0.4"/>
<stop offset="1" stop-color="#20BCE2" stop-opacity="0"/>
</linearGradient>
<linearGradient id="paint8_linear_6985_30822" x1="1195.8" y1="155.414" x2="1057.07" y2="155.414" gradientUnits="userSpaceOnUse">
<stop stop-color="#E512F3" stop-opacity="0.5"/>
<stop offset="0.59" stop-color="#20BCE2" stop-opacity="0.5"/>
<stop offset="1" stop-color="#20BCE2" stop-opacity="0"/>
</linearGradient>
<linearGradient id="paint9_linear_6985_30822" x1="1333.39" y1="79.6916" x2="1194.66" y2="79.6916" gradientUnits="userSpaceOnUse">
<stop stop-color="#20BCE2" stop-opacity="0"/>
<stop offset="0.42" stop-color="#20BCE2" stop-opacity="0.4"/>
<stop offset="0.99" stop-color="#E512F3" stop-opacity="0.4"/>
</linearGradient>
<linearGradient id="paint10_linear_6985_30822" x1="851.271" y1="128.287" x2="712.533" y2="128.287" gradientUnits="userSpaceOnUse">
<stop stop-color="#8069EA" stop-opacity="0"/>
<stop offset="1" stop-color="#E512F3" stop-opacity="0.6"/>
</linearGradient>
<linearGradient id="paint11_linear_6985_30822" x1="1091.58" y1="-9.91306" x2="1160.77" y2="-129.757" gradientUnits="userSpaceOnUse">
<stop stop-color="#20BCE2" stop-opacity="0"/>
<stop offset="0.47" stop-color="#20BCE2" stop-opacity="0.16"/>
<stop offset="0.99" stop-color="#E512F3" stop-opacity="0.3"/>
</linearGradient>
<linearGradient id="paint12_linear_6985_30822" x1="1333.6" y1="4.44951" x2="1194.87" y2="4.44951" gradientUnits="userSpaceOnUse">
<stop offset="0.01" stop-color="#E512F3" stop-opacity="0"/>
<stop offset="0.58" stop-color="#20BCE2" stop-opacity="0.4"/>
<stop offset="1" stop-color="#20BCE2" stop-opacity="0"/>
</linearGradient>
<linearGradient id="paint13_linear_6985_30822" x1="1527.39" y1="-59.251" x2="1206.37" y2="-59.251" gradientUnits="userSpaceOnUse">
<stop offset="0.01" stop-color="#E512F3" stop-opacity="0.3"/>
<stop offset="0.58" stop-color="#20BCE2" stop-opacity="0.4"/>
<stop offset="1" stop-color="#20BCE2" stop-opacity="0"/>
</linearGradient>
<linearGradient id="paint14_linear_6985_30822" x1="301.651" y1="134.287" x2="440.388" y2="134.287" gradientUnits="userSpaceOnUse">
<stop stop-color="#8069EA" stop-opacity="0"/>
<stop offset="1" stop-color="#E512F3" stop-opacity="0.6"/>
</linearGradient>
<linearGradient id="paint15_linear_6985_30822" x1="61.3424" y1="-3.91306" x2="-7.85117" y2="-123.757" gradientUnits="userSpaceOnUse">
<stop stop-color="#20BCE2" stop-opacity="0"/>
<stop offset="0.47" stop-color="#20BCE2" stop-opacity="0.16"/>
<stop offset="0.99" stop-color="#E512F3" stop-opacity="0.3"/>
</linearGradient>
<linearGradient id="paint16_linear_6985_30822" x1="261.342" y1="166.087" x2="192.149" y2="46.2429" gradientUnits="userSpaceOnUse">
<stop stop-color="#20BCE2" stop-opacity="0"/>
<stop offset="0.47" stop-color="#20BCE2" stop-opacity="0.16"/>
<stop offset="0.99" stop-color="#E512F3" stop-opacity="0.3"/>
</linearGradient>
</defs>
</svg>
