<svg width="1403" height="254" viewBox="0 0 1403 254" fill="none" xmlns="http://www.w3.org/2000/svg">
<mask id="mask0_6985_30822" style="mask-type:alpha" maskUnits="userSpaceOnUse" x="12" y="12" width="1379" height="230">
<rect x="12.5" y="12.5" width="1378" height="229" rx="13.5" fill="url(#paint0_linear_6985_30822)" stroke="url(#paint1_linear_6985_30822)"/>
</mask>
<g mask="url(#mask0_6985_30822)">
<path d="M801.45 173.189L800.93 45.7594C800.93 43.8894 800.42 42.0494 799.48 40.4294C798.54 38.8094 797.19 37.4694 795.56 36.5294C793.94 35.5994 792.09 35.1094 790.22 35.1094C788.35 35.1094 786.51 35.6094 784.88 36.5494L674.29 100.479C671.04 102.359 668.35 105.069 666.47 108.319C664.6 111.579 663.62 115.269 663.63 119.019V246.759C663.63 248.639 664.12 250.479 665.06 252.109C666 253.729 667.35 255.089 668.97 256.019C670.6 256.959 672.44 257.449 674.32 257.449C676.2 257.449 678.04 256.949 679.67 256.009L790.75 191.779C794.01 189.899 796.71 187.179 798.59 183.919C800.47 180.659 801.45 176.949 801.43 173.189H801.45Z" fill="url(#paint2_linear_6985_30822)"/>
<path d="M1145.42 200.32L1144.9 72.9C1144.89 71.03 1144.39 69.19 1143.45 67.57C1142.51 65.95 1141.16 64.61 1139.53 63.67C1137.91 62.74 1136.07 62.25 1134.19 62.25C1132.32 62.25 1130.48 62.75 1128.86 63.69L1018.3 127.62C1015.05 129.5 1012.35 132.2 1010.48 135.45C1008.6 138.7 1007.62 142.38 1007.62 146.13V273.9C1007.62 275.78 1008.11 277.62 1009.05 279.25C1009.99 280.87 1011.34 282.23 1012.96 283.16C1014.59 284.1 1016.43 284.59 1018.31 284.59C1020.19 284.59 1022.03 284.09 1023.66 283.15L1134.74 218.92C1138 217.03 1140.7 214.32 1142.58 211.06C1144.45 207.8 1145.43 204.1 1145.42 200.33V200.32Z" fill="url(#paint3_linear_6985_30822)"/>
<path d="M1145.97 200.32L1145.45 72.9C1145.44 71.03 1144.94 69.19 1144 67.57C1143.06 65.95 1141.71 64.61 1140.08 63.67C1138.46 62.74 1136.62 62.25 1134.75 62.25C1132.87 62.25 1131.03 62.75 1129.41 63.69L1018.85 127.62C1015.6 129.5 1012.9 132.2 1011.03 135.45C1009.16 138.7 1008.17 142.38 1008.17 146.13V273.9C1008.17 275.78 1008.66 277.62 1009.6 279.25C1010.54 280.87 1011.89 282.23 1013.52 283.16C1015.14 284.1 1016.99 284.59 1018.86 284.59C1020.74 284.59 1022.58 284.09 1024.21 283.15L1135.29 218.92C1138.55 217.04 1141.26 214.32 1143.13 211.06C1145.01 207.8 1145.99 204.09 1145.97 200.33V200.32Z" stroke="url(#paint4_linear_6985_30822)" stroke-width="2.49" stroke-linecap="round" stroke-linejoin="round"/>
<path d="M1283.57 124.59L1283.06 -2.83047C1283.05 -4.70047 1282.55 -6.54048 1281.61 -8.16048C1280.66 -9.78048 1279.31 -11.1205 1277.69 -12.0605C1276.06 -12.9905 1274.22 -13.4805 1272.35 -13.4805C1270.47 -13.4805 1268.63 -12.9805 1267.01 -12.0405L1156.43 51.8895C1153.18 53.7695 1150.48 56.4595 1148.61 59.7095C1146.74 62.9595 1145.75 66.6395 1145.75 70.3895V198.17C1145.74 200.05 1146.24 201.91 1147.18 203.54C1148.12 205.17 1149.47 206.53 1151.11 207.47C1152.74 208.41 1154.59 208.9 1156.48 208.89C1158.36 208.89 1160.21 208.38 1161.83 207.43L1272.89 143.2C1276.15 141.32 1278.85 138.6 1280.73 135.34C1282.61 132.08 1283.59 128.37 1283.57 124.61V124.59Z" stroke="url(#paint5_linear_6985_30822)" stroke-width="2.49" stroke-linecap="round" stroke-linejoin="round"/>
<path d="M801.45 173.189L800.93 45.7594C800.93 43.8894 800.42 42.0494 799.48 40.4294C798.54 38.8094 797.19 37.4694 795.56 36.5294C793.94 35.5994 792.09 35.1094 790.22 35.1094C788.35 35.1094 786.51 35.6094 784.88 36.5494L674.29 100.479C671.04 102.359 668.35 105.069 666.47 108.319C664.6 111.579 663.62 115.269 663.63 119.019V246.759C663.63 248.639 664.12 250.479 665.06 252.109C666 253.729 667.35 255.089 668.97 256.019C670.6 256.959 672.44 257.449 674.32 257.449C676.2 257.449 678.04 256.949 679.67 256.009L790.75 191.779C794.01 189.899 796.71 187.179 798.59 183.919C800.47 180.659 801.45 176.949 801.43 173.189H801.45Z" stroke="url(#paint6_linear_6985_30822)" stroke-width="2.49" stroke-linecap="round" stroke-linejoin="round"/>
<path d="M1145.97 -78.74L1145.45 48.68C1145.44 50.55 1144.94 52.39 1144 54.01C1143.06 55.63 1141.71 56.97 1140.09 57.9C1138.47 58.83 1136.63 59.32 1134.76 59.32C1132.88 59.32 1131.05 58.83 1129.42 57.89L1018.86 -6.03999C1015.61 -7.91999 1012.92 -10.61 1011.04 -13.86C1009.17 -17.11 1008.18 -20.79 1008.18 -24.54V-152.31C1008.18 -154.19 1008.68 -156.03 1009.62 -157.66C1010.55 -159.28 1011.9 -160.64 1013.53 -161.57C1015.16 -162.51 1017 -163 1018.88 -163C1020.75 -163 1022.6 -162.5 1024.22 -161.56L1135.31 -97.33C1138.56 -95.44 1141.27 -92.73 1143.14 -89.47C1145.01 -86.21 1145.99 -82.5 1145.97 -78.74Z" stroke="url(#paint7_linear_6985_30822)" stroke-width="2.49" stroke-linecap="round" stroke-linejoin="round"/>
<path d="M1145.97 45.7294V-72.7006C1145.97 -74.5806 1146.46 -76.4206 1147.4 -78.0506C1148.34 -79.6806 1149.69 -81.0306 1151.32 -81.9606C1152.94 -82.9006 1154.79 -83.3906 1156.66 -83.3906C1158.54 -83.3906 1160.38 -82.8906 1162.01 -81.9506L1273.11 -17.6906C1276.37 -15.8106 1279.07 -13.0906 1280.95 -9.83063C1282.82 -6.56063 1283.8 -2.86063 1283.78 0.899368L1283.27 128.319" stroke="url(#paint8_linear_6985_30822)" stroke-width="2.49" stroke-linecap="round" stroke-linejoin="round"/>
<path d="M1477.57 -133.789L1157.49 51.3009" stroke="url(#paint9_linear_6985_30822)" stroke-width="2.49" stroke-linecap="round" stroke-linejoin="round"/>
<path d="M252.76 179.189L253.28 51.7594C253.28 49.8894 253.79 48.0494 254.73 46.4294C255.67 44.8094 257.02 43.4694 258.65 42.5294C260.27 41.5994 262.12 41.1094 263.99 41.1094C265.86 41.1094 267.7 41.6094 269.32 42.5494L379.91 106.479C383.16 108.359 385.85 111.069 387.73 114.319C389.6 117.579 390.58 121.269 390.57 125.019V252.759C390.57 254.639 390.07 256.479 389.14 258.109C388.21 259.739 386.85 261.089 385.22 262.019C383.59 262.959 381.75 263.449 379.87 263.449C377.99 263.449 376.15 262.949 374.52 262.009L263.44 197.779C260.18 195.899 257.48 193.179 255.6 189.919C253.72 186.659 252.74 182.949 252.76 179.189V179.189Z" stroke="url(#paint10_linear_6985_30822)" stroke-width="2.49" stroke-linecap="round" stroke-linejoin="round"/>
<path d="M-91.7502 -72.74L-91.2302 54.68C-91.2302 56.55 -90.7202 58.39 -89.7802 60.01C-88.8402 61.63 -87.4902 62.97 -85.8702 63.9C-84.2502 64.83 -82.4102 65.32 -80.5402 65.32C-78.6702 65.32 -76.8302 64.83 -75.2102 63.89L35.3498 -0.0399933C38.5998 -1.91999 41.2898 -4.61 43.1698 -7.86C45.0398 -11.11 46.0298 -14.79 46.0298 -18.54V-146.31C46.0298 -148.19 45.5398 -150.03 44.5998 -151.66C43.6598 -153.29 42.3098 -154.64 40.6898 -155.57C39.0598 -156.51 37.2198 -157 35.3398 -157C33.4598 -157 31.6198 -156.5 29.9898 -155.56L-81.0902 -91.34C-84.3502 -89.45 -87.0502 -86.74 -88.9202 -83.48C-90.7902 -80.22 -91.7702 -76.51 -91.7502 -72.75V-72.74Z" stroke="url(#paint11_linear_6985_30822)" stroke-width="2.49" stroke-linecap="round" stroke-linejoin="round"/>
<path d="M108.25 97.2583L108.77 224.678C108.77 226.548 109.28 228.388 110.22 230.008C111.16 231.628 112.51 232.968 114.13 233.898C115.75 234.828 117.59 235.318 119.46 235.318C121.33 235.318 123.17 234.828 124.79 233.888L235.35 169.958C238.6 168.078 241.29 165.388 243.17 162.138C245.05 158.888 246.03 155.208 246.03 151.458V23.6783C246.03 21.7983 245.54 19.9583 244.6 18.3283C243.66 16.6983 242.31 15.3483 240.69 14.4183C239.06 13.4783 237.22 12.9883 235.34 12.9883C233.46 12.9883 231.62 13.4883 229.99 14.4283L118.9 78.6583C115.64 80.5483 112.94 83.2583 111.07 86.5183C109.2 89.7783 108.22 93.4883 108.24 97.2483L108.25 97.2583Z" stroke="url(#paint12_linear_6985_30822)" stroke-width="2.49" stroke-linecap="round" stroke-linejoin="round"/>
<path d="M1199.73 161.179H1199.26L1198.4 161.169L1196.99 161.139L1195.33 161.089L1193.48 161.029L1191.5 160.959L1188.4 160.829L1184.82 160.659L1182.44 160.539L1180.73 160.439L1179.6 160.369L1178.93 160.319L1178.07 160.249L1177.83 160.229L1177.61 160.209L1177.24 160.169L1177.09 160.149L1176.97 160.129L1176.87 160.109L1176.2 159.939L1175.56 159.719L1174.95 159.449L1174.37 159.139L1173.81 158.779L1173.29 158.369L1172.8 157.919L1172.34 157.419L1171.91 156.879L1171.51 156.289L1171.14 155.659L1170.81 154.989L1170.51 154.269L1170.24 153.509L1170.01 152.709L1169.81 151.869L1169.66 151.009L1169.55 150.119L1169.49 149.189L1169.47 148.239V140.399L1169.46 132.659V127.689L1169.53 123.069V118.679V115.619V111.559L1169.56 107.479L1169.6 106.389L1169.69 105.289L1169.84 104.189L1170.04 103.089L1170.29 101.989L1170.59 100.889L1170.95 99.7992L1171.36 98.7092L1171.82 97.6292L1172.33 96.5592L1172.88 95.4992L1173.48 94.4492L1174.13 93.4092L1174.83 92.3892L1175.57 91.3892L1176.36 90.4092L1176.61 90.1192L1176.89 89.8092L1177.19 89.4892L1177.51 89.1592L1177.84 88.8292L1178.18 88.4992L1178.52 88.1792L1178.85 87.8692L1179.16 87.5792L1179.72 87.0692L1181.3 85.6692L1182.16 84.8892L1183 84.1192L1183.82 83.3592L1184.62 82.5992L1185.4 81.8492L1186.16 81.0992L1186.9 80.3592L1187.62 79.6192L1188.33 78.8892L1189.02 78.1592L1189.69 77.4292L1190.35 76.6992L1191 75.9692L1191.63 75.2392L1192.25 74.5092L1193.4 73.1092L1194.49 71.7192L1195.53 70.3392L1196.51 68.9692L1197.43 67.5992L1198.3 66.2392L1199.12 64.8792L1199.89 63.5092L1200.06 63.1892L1200.4 62.5192L1201.4 60.4992L1201.86 59.6092L1202.33 58.7792L1202.8 58.0092L1203.27 57.2892L1203.75 56.6192L1204.23 55.9992L1204.7 55.4292L1205.17 54.8992L1205.63 54.4192L1206.09 53.9792L1206.54 53.5792L1206.97 53.2192L1207.39 52.8992L1207.8 52.6092L1208.19 52.3492L1208.56 52.1292L1208.94 51.9192L1209.32 51.7192L1209.7 51.5392L1210.08 51.3892L1210.73 51.1792L1211.37 51.0392L1211.98 50.9792H1212.57L1213.98 51.0592L1216.41 51.1692L1218.84 51.2892L1221.26 51.4192L1223.68 51.5692H1223.83L1224.01 51.5392L1224.21 51.4892L1224.43 51.4292L1224.67 51.3492L1224.93 51.2592L1225.5 51.0392L1227.23 50.3092L1228.96 49.4992L1230.7 48.6092L1232.44 47.6392L1233.21 47.1892L1234.26 46.5592L1236.26 45.3492L1236.89 45.0092L1237.52 44.7192L1238.14 44.4692L1238.75 44.2692L1239.35 44.1192L1239.94 44.0192L1240.52 43.9692H1241.08L1245.49 44.1992L1254.93 44.6892L1258.05 44.8692L1258.51 44.8992H1258.65L1258.74 44.9292L1259.05 45.0092L1259.9 45.2392L1260.3 45.3492L1260.57 45.4392L1260.83 45.5592L1261.2 45.7892L1261.55 46.0592L1261.87 46.3592L1262.17 46.6892L1262.45 47.0492L1262.71 47.4392L1262.94 47.8592L1263.15 48.3092L1263.34 48.7792L1263.5 49.2792L1263.64 49.8092L1263.75 50.3592L1263.84 50.9392L1263.9 51.5392L1263.94 52.1592V52.8292L1263.88 94.0492V94.2592L1263.87 94.4992V94.7692L1263.84 95.0592L1263.82 95.3792L1263.79 95.7292L1263.75 96.0992L1263.7 96.4992L1263.65 96.9192L1263.59 97.3692L1263.52 97.8392L1263.43 98.3392L1263.33 98.8592L1263.22 99.3992L1263.1 99.9692L1262.96 100.559L1262.81 101.169L1262.64 101.799L1262.46 102.449L1262.26 103.129L1262.04 103.829L1261.8 104.549L1261.54 105.289L1261.26 106.049L1260.96 106.829L1260.64 107.629L1260.3 108.449L1259.94 109.279L1259.55 110.129L1259.14 110.999L1258.7 111.889L1258.1 113.049L1257.48 114.209L1256.83 115.359L1256.15 116.509L1255.45 117.659L1254.72 118.809L1253.96 119.949L1253.18 121.089L1252.37 122.229L1251.53 123.359L1250.67 124.489L1249.78 125.619L1248.87 126.739L1247.93 127.859L1246.96 128.979L1245.97 130.089L1244.95 131.199L1243.91 132.309L1242.84 133.409L1241.74 134.509L1240.62 135.599L1239.47 136.689L1238.3 137.779L1237.1 138.859L1235.88 139.939L1234.63 141.009L1233.35 142.079L1232.05 143.149L1230.72 144.209L1229.37 145.269L1227.99 146.319L1226.59 147.369L1225.26 148.349L1223.89 149.359L1222.52 150.339L1221.15 151.299L1219.78 152.229L1218.4 153.129L1217.02 154.009L1215.64 154.859L1214.26 155.679L1212.78 156.509L1211.34 157.279L1209.94 157.979L1208.58 158.619L1207.25 159.189L1205.96 159.699L1204.71 160.139L1203.5 160.519L1203.32 160.589L1203.14 160.649L1202.65 160.779L1202.17 160.879L1201.48 161.049L1200.8 161.189L1200.41 161.239H1200.31L1200.19 161.249H1200.04H1199.67L1199.73 161.179ZM1212 50.9592L1211.39 51.0192L1210.76 51.1592L1210.11 51.3692L1209.73 51.5192L1209.35 51.6992L1208.97 51.8992L1208.59 52.1092L1208.22 52.3292L1207.83 52.5892L1207.42 52.8792L1207 53.1992L1206.57 53.5592L1206.12 53.9592L1205.67 54.3992L1205.21 54.8792L1204.74 55.4092L1204.27 55.9792L1203.79 56.5992L1203.31 57.2692L1202.84 57.9892L1202.37 58.7592L1201.9 59.5892L1201.44 60.4792L1200.57 62.2492L1200.1 63.1692L1199.93 63.4892L1199.16 64.8592L1198.34 66.2192L1197.47 67.5792L1196.55 68.9492L1195.57 70.3192L1194.53 71.6992L1193.44 73.0892L1192.29 74.4892L1191.67 75.2192L1191.04 75.9492L1190.39 76.6792L1189.73 77.4092L1189.06 78.1392L1188.37 78.8692L1187.66 79.5992L1186.94 80.3392L1186.2 81.0792L1185.44 81.8292L1184.66 82.5792L1183.86 83.3392L1183.04 84.0992L1182.2 84.8692L1181.34 85.6492L1179.76 87.0492L1179.49 87.2892L1179.2 87.5592L1178.89 87.8492L1178.56 88.1592L1178.22 88.4792L1177.88 88.8092L1177.55 89.1392L1177.23 89.4692L1176.93 89.7892L1176.65 90.0992L1176.4 90.3892L1175.61 91.3692L1174.87 92.3692L1174.17 93.3892L1173.52 94.4292L1172.92 95.4792L1172.37 96.5392L1171.86 97.6092L1171.4 98.6892L1170.99 99.7792L1170.63 100.869L1170.33 101.969L1170.08 103.069L1169.88 104.169L1169.73 105.269L1169.64 106.369L1169.6 107.459L1169.57 111.539V115.599V118.659V121.689V123.049L1169.5 127.669V140.379L1169.51 148.219L1169.53 149.169L1169.59 150.099L1169.7 150.989L1169.85 151.849L1170.05 152.689L1170.28 153.489L1170.55 154.249L1170.85 154.969L1171.18 155.639L1171.55 156.269L1171.95 156.859L1172.38 157.399L1172.84 157.899L1173.33 158.349L1173.85 158.759L1174.4 159.119L1174.98 159.429L1175.59 159.699L1176.23 159.919L1176.9 160.089L1177 160.109L1177.12 160.129L1177.27 160.149L1177.64 160.189L1177.86 160.209L1178.37 160.249L1178.96 160.299L1179.99 160.369L1180.76 160.419L1182.47 160.519L1184.85 160.639L1187.39 160.759L1189.99 160.869L1193.51 161.009L1196.21 161.099L1198.09 161.149L1199.01 161.169H1199.74H1200.11H1200.26H1200.38H1200.48L1200.55 161.149L1200.87 161.109L1201.55 160.969L1202.24 160.799L1202.72 160.699L1203.21 160.569L1203.39 160.509L1203.57 160.439L1204.78 160.059L1206.03 159.619L1207.32 159.109L1208.65 158.539L1210.01 157.899L1211.41 157.199L1212.85 156.429L1214.33 155.599L1215.71 154.779L1217.09 153.929L1218.47 153.049L1219.85 152.149L1221.22 151.219L1222.59 150.259L1223.96 149.279L1225.33 148.269L1226.66 147.289L1228.06 146.239L1229.44 145.189L1230.79 144.129L1232.12 143.069L1233.42 141.999L1234.7 140.929L1235.95 139.859L1237.17 138.779L1238.37 137.699L1239.54 136.609L1240.69 135.519L1241.81 134.429L1242.91 133.329L1243.98 132.229L1245.02 131.129L1246.04 130.019L1247.03 128.909L1248 127.789L1248.94 126.669L1249.85 125.549L1250.74 124.419L1251.6 123.289L1252.44 122.159L1253.25 121.019L1254.03 119.879L1254.79 118.739L1255.52 117.589L1256.22 116.439L1256.9 115.289L1257.55 114.139L1258.17 112.979L1258.77 111.819L1259.21 110.929L1259.62 110.059L1260.01 109.209L1260.37 108.379L1260.71 107.559L1261.03 106.759L1261.33 105.979L1261.61 105.219L1261.87 104.479L1262.11 103.759L1262.33 103.059L1262.53 102.389L1262.71 101.739L1262.88 101.109L1263.03 100.499L1263.17 99.9092L1263.29 99.3392L1263.4 98.7992L1263.5 98.2792L1263.59 97.7792L1263.66 97.3092L1263.72 96.8592L1263.77 96.4392L1263.82 96.0392L1263.86 95.6692L1263.89 95.3192L1263.91 94.9992L1263.93 94.7092V94.4392L1263.95 94.1992V93.9892V93.8092L1264.02 52.7792V52.1092L1263.97 51.4892L1263.91 50.8892L1263.82 50.3092L1263.71 49.7592L1263.57 49.2292L1263.41 48.7292L1263.22 48.2592L1263.01 47.8092L1262.78 47.3892L1262.52 46.9992L1262.24 46.6392L1261.94 46.3092L1261.62 46.0092L1261.27 45.7392L1260.9 45.5092L1260.64 45.3892L1260.28 45.2792L1259.69 45.1192L1259 44.9392L1258.81 44.8892L1258.72 44.8692H1258.58L1258.12 44.8292L1257.04 44.7692L1253.15 44.5592L1241.16 43.9492H1240.6L1240.02 43.9892L1239.43 44.0892L1238.83 44.2392L1238.22 44.4392L1237.6 44.6892L1236.97 44.9792L1236.34 45.3192L1236.27 45.3592L1233.54 47.0092L1233.07 47.2892L1232.52 47.6092L1230.78 48.5792L1229.04 49.4692L1227.31 50.2792L1225.58 51.0092L1225.01 51.2292L1224.75 51.3192L1224.51 51.3992L1224.29 51.4592L1224.09 51.5092L1223.91 51.5292H1223.76L1221.34 51.3792L1218.92 51.2492L1216.49 51.1292L1214.06 51.0192L1212.65 50.9492H1212.06L1212 50.9592Z" fill="url(#paint13_linear_6985_30822)" stroke="url(#paint14_linear_6985_30822)" stroke-width="1.83" stroke-linecap="round" stroke-linejoin="round"/>
<path d="M1199.3 155.88L1198.78 155.86L1198.28 155.82L1197.8 155.75L1197.35 155.66L1196.92 155.55L1196.51 155.42L1196.12 155.28L1195.75 155.12L1195.4 154.95L1195.07 154.76L1194.75 154.56L1194.45 154.35L1194.17 154.12L1193.91 153.88L1193.66 153.63L1193.43 153.37L1193.21 153.11L1193.01 152.84L1192.82 152.57L1192.65 152.29L1192.49 152.01L1192.34 151.72L1192.21 151.43L1192.09 151.14L1191.98 150.85L1191.88 150.57L1191.79 150.29L1191.71 150.01L1191.64 149.74L1191.58 149.47L1191.52 149.21L1191.47 148.96L1191.43 148.72L1191.39 148.49L1191.36 148.27L1191.34 148.06L1191.32 147.86L1191.3 147.68V147.51L1191.27 147.22V146.92L1191.33 105.83L1191.36 104.99L1191.45 104.13L1191.6 103.25L1191.8 102.36L1192.05 101.46L1192.35 100.56L1192.7 99.6602L1193.09 98.7701L1193.52 97.9001L1193.99 97.0501L1194.5 96.2302L1195.04 95.4502L1195.61 94.7101L1196.21 94.0102L1196.83 93.3601L1197.48 92.7701L1198.8 91.6402L1200.08 90.5202L1201.31 89.4102L1202.5 88.3102L1203.65 87.2202L1204.76 86.1402L1205.84 85.0702L1206.88 84.0101L1207.88 82.9602L1208.84 81.9202L1209.77 80.8902L1210.66 79.8802L1211.52 78.8802L1212.34 77.8902L1213.13 76.9202L1213.89 75.9602L1214.62 75.0101L1215.32 74.0802L1215.99 73.1602L1216.63 72.2601L1217.24 71.3701L1217.82 70.5002L1218.37 69.6402L1218.89 68.8002L1219.39 67.9702L1219.86 67.1602L1220.31 66.3701L1220.73 65.5901L1221.13 64.8302L1221.51 64.0901L1221.86 63.3701L1222.19 62.6602L1222.4 62.2202L1222.71 61.6302L1223.05 61.0602L1223.41 60.5101L1223.8 59.9902L1224.21 59.5002L1224.63 59.0502L1225.07 58.6402L1225.52 58.2802L1225.81 58.0802L1226.1 57.9001L1226.45 57.7202L1226.79 57.5802L1227.13 57.4801L1227.46 57.4202L1227.78 57.4001L1228.08 57.4202L1228.37 57.4902L1228.64 57.6002L1228.83 57.7402L1229.14 57.9402L1229.46 58.1302L1229.8 58.3102L1230.16 58.4702L1230.54 58.6201L1230.94 58.7502L1231.36 58.8602L1231.8 58.9602L1232.27 59.0401L1232.76 59.1002L1233.27 59.1402L1233.81 59.1602H1234.37L1234.95 59.1201L1235.56 59.0602L1236.2 58.9801L1236.86 58.8701L1237.55 58.7301L1238.27 58.5602L1239.01 58.3602L1239.78 58.1302L1240.58 57.8701L1241.41 57.5802L1242.27 57.2502L1243.16 56.8902L1244.08 56.4902L1245.04 56.0602L1246.03 55.5901L1247.05 55.0802L1248.1 54.5302L1249.19 53.9402L1250.31 53.3002L1251.87 52.3802L1253.49 51.3802L1253.76 51.2102L1254.38 50.8902L1254.98 50.6501L1255.55 50.5002L1256.1 50.4301H1256.62L1257.11 50.5202L1257.56 50.6801L1257.97 50.9202L1258.34 51.2301L1258.67 51.6102L1258.96 52.0602L1259.2 52.5802L1259.39 53.1602L1259.53 53.8102L1259.62 54.5202L1259.65 55.2901L1259.58 96.5002V96.7701L1259.56 96.9502V97.1501L1259.53 97.3802L1259.51 97.6302L1259.48 97.9102L1259.44 98.2202L1259.4 98.5501L1259.35 98.9102L1259.29 99.2902L1259.22 99.6902L1259.14 100.12L1259.05 100.57L1258.94 101.04L1258.82 101.54L1258.69 102.06L1258.54 102.6L1258.38 103.16L1258.2 103.74L1258 104.34L1257.79 104.96L1257.56 105.6L1257.31 106.26L1257.04 106.94L1256.75 107.64L1256.44 108.36L1256.11 109.1L1255.75 109.86L1255.37 110.64L1254.96 111.43L1254.53 112.24L1254.07 113.07L1253.59 113.91L1253.08 114.77L1252.54 115.64L1251.97 116.53L1251.37 117.44L1250.74 118.36L1250.08 119.29L1249.39 120.24L1248.66 121.2L1247.9 122.17L1247.1 123.16L1246.27 124.16L1245.4 125.17L1244.5 126.19L1243.56 127.23L1242.58 128.28L1241.56 129.34L1240.5 130.41L1239.4 131.49L1238.26 132.58L1237.08 133.68L1235.86 134.79L1234.59 135.91L1233.28 137.03L1231.92 138.16L1230.52 139.3L1229.07 140.45L1227.57 141.6L1226.02 142.76L1224.69 143.74L1223.25 144.79L1221.85 145.79L1220.49 146.73L1219.17 147.62L1217.89 148.45L1216.65 149.23L1215.45 149.96L1214.29 150.64L1213.23 151.24L1212.2 151.8L1211.2 152.32L1210.23 152.8L1209.3 153.24L1208.4 153.64L1207.53 154.01L1206.69 154.34L1205.88 154.64L1205.1 154.9L1204.34 155.13L1203.61 155.33L1202.91 155.5L1202.24 155.64L1201.59 155.75L1200.97 155.83L1200.37 155.88L1199.8 155.91H1199.25L1199.3 155.88ZM1227.8 57.4001L1227.48 57.4202L1227.15 57.4801L1226.81 57.5802L1226.47 57.7202L1226.12 57.9001L1225.83 58.0802L1225.54 58.2802L1225.09 58.6402L1224.65 59.0502L1224.23 59.5002L1223.82 59.9902L1223.43 60.5101L1223.07 61.0602L1222.73 61.6302L1222.42 62.2202L1222.21 62.6602L1221.88 63.3701L1221.53 64.0901L1221.15 64.8302L1220.75 65.5901L1220.33 66.3701L1219.88 67.1602L1219.41 67.9702L1218.91 68.8002L1218.39 69.6402L1217.84 70.5002L1217.26 71.3701L1216.65 72.2601L1216.01 73.1602L1215.34 74.0802L1214.64 75.0101L1213.91 75.9602L1213.15 76.9202L1212.36 77.8902L1211.54 78.8802L1210.68 79.8802L1209.79 80.8902L1208.86 81.9202L1207.9 82.9602L1206.9 84.0101L1205.86 85.0702L1204.78 86.1402L1203.67 87.2202L1202.52 88.3102L1201.33 89.4102L1200.1 90.5202L1198.82 91.6402L1197.5 92.7701L1196.85 93.3601L1196.23 94.0102L1195.63 94.7101L1195.06 95.4502L1194.52 96.2302L1194.01 97.0501L1193.54 97.9001L1193.11 98.7701L1192.72 99.6602L1192.37 100.56L1192.07 101.46L1191.82 102.36L1191.62 103.25L1191.47 104.13L1191.38 104.99L1191.35 105.83L1191.29 146.92V147.1L1191.3 147.36V147.51L1191.32 147.68L1191.34 147.86L1191.36 148.06L1191.38 148.27L1191.41 148.49L1191.45 148.72L1191.49 148.96L1191.54 149.21L1191.6 149.47L1191.66 149.74L1191.73 150.01L1191.81 150.29L1191.9 150.57L1192 150.85L1192.11 151.14L1192.23 151.43L1192.36 151.72L1192.51 152L1192.67 152.28L1192.84 152.56L1193.03 152.83L1193.23 153.1L1193.45 153.36L1193.68 153.61L1193.93 153.86L1194.19 154.1L1194.47 154.33L1194.77 154.54L1195.09 154.74L1195.42 154.93L1195.77 155.1L1196.14 155.26L1196.53 155.4L1196.94 155.53L1197.37 155.64L1197.82 155.73L1198.3 155.8L1198.8 155.84L1199.32 155.86H1199.87L1200.44 155.83L1201.04 155.78L1201.66 155.7L1202.31 155.59L1202.98 155.45L1203.68 155.28L1204.41 155.08L1205.17 154.85L1205.95 154.59L1206.76 154.29L1207.6 153.96L1208.47 153.59L1209.37 153.19L1210.3 152.75L1211.27 152.27L1212.27 151.75L1213.3 151.19L1214.36 150.59L1215.52 149.91L1216.72 149.18L1217.96 148.4L1219.24 147.57L1220.56 146.68L1221.92 145.74L1223.32 144.74L1224.76 143.69L1226.09 142.71L1227.64 141.55L1229.14 140.4L1230.59 139.25L1231.99 138.11L1233.35 136.98L1234.66 135.86L1235.93 134.74L1237.15 133.63L1238.33 132.53L1239.47 131.44L1240.57 130.36L1241.63 129.29L1242.65 128.23L1243.63 127.18L1244.57 126.15L1245.47 125.13L1246.34 124.12L1247.17 123.12L1247.97 122.13L1248.73 121.16L1249.46 120.2L1250.15 119.25L1250.81 118.32L1251.44 117.4L1252.04 116.49L1252.61 115.6L1253.15 114.73L1253.66 113.87L1254.14 113.03L1254.6 112.2L1255.03 111.39L1255.44 110.6L1255.82 109.82L1256.18 109.06L1256.51 108.32L1256.82 107.6L1257.11 106.9L1257.38 106.22L1257.63 105.56L1257.86 104.92L1258.07 104.3L1258.27 103.7L1258.45 103.12L1258.61 102.56L1258.76 102.02L1258.89 101.5L1259.01 101L1259.12 100.53L1259.21 100.08L1259.29 99.6501L1259.36 99.2502L1259.42 98.8701L1259.47 98.5102L1259.51 98.1801L1259.55 97.8701L1259.58 97.5901L1259.6 97.3401L1259.62 97.1101V96.9102L1259.64 96.5901V96.4702V96.3102L1259.71 55.2601L1259.68 54.4902L1259.59 53.7802L1259.45 53.1402L1259.26 52.5602L1259.02 52.0401L1258.73 51.5901L1258.4 51.2102L1258.03 50.9001L1257.62 50.6602L1257.17 50.5002L1256.69 50.4102H1256.17L1255.62 50.4702L1255.05 50.6201L1254.45 50.8602L1253.83 51.1801L1253.56 51.3401L1251.94 52.3401L1250.38 53.2601L1249.26 53.9001L1248.17 54.4902L1247.12 55.0401L1246.1 55.5502L1245.11 56.0202L1244.15 56.4501L1243.23 56.8502L1242.34 57.2102L1241.48 57.5401L1240.65 57.8302L1239.85 58.0901L1239.08 58.3202L1238.34 58.5202L1237.62 58.6902L1236.93 58.8302L1236.27 58.9402L1235.63 59.0202L1235.02 59.0802L1234.44 59.1102H1233.88H1233.34L1232.83 59.0702L1232.34 59.0101L1231.87 58.9301L1231.43 58.8302L1231.01 58.7202L1230.61 58.5901L1230.23 58.4402L1229.87 58.2802L1229.53 58.1002L1229.21 57.9102L1228.9 57.7102L1228.71 57.5702L1228.44 57.4602L1228.15 57.3902L1227.85 57.3701L1227.8 57.4001Z" fill="url(#paint15_linear_6985_30822)" stroke="url(#paint16_linear_6985_30822)" stroke-width="1.83" stroke-linecap="round" stroke-linejoin="round"/>
<path d="M1200.01 125.549H1199.93L1199.85 125.519L1199.78 125.489L1199.71 125.439L1199.65 125.389L1199.6 125.319L1199.56 125.239L1199.52 125.149L1199.49 125.049L1199.47 124.939V124.809L1199.48 110.719V110.289L1199.5 109.849L1199.53 109.409L1199.57 108.959L1199.62 108.509L1199.68 108.059L1199.75 107.599L1199.83 107.139L1199.92 106.669L1200.02 106.199L1200.13 105.729L1200.25 105.249L1200.38 104.769L1200.52 104.289L1200.67 103.809L1200.82 103.319L1200.98 102.829L1201.15 102.339L1201.33 101.849L1201.52 101.359L1201.72 100.869L1201.93 100.379L1202.14 99.8892L1202.36 99.3992L1202.59 98.9092L1202.83 98.4192L1203.07 97.9292L1203.32 97.4392L1203.58 96.9492L1203.85 96.4592L1204.12 95.9692L1204.4 95.4792L1204.69 94.9992L1204.98 94.5192L1205.28 94.0392L1205.59 93.5592L1205.9 93.0892L1206.22 92.6192L1206.54 92.1492L1206.87 91.6892L1207.2 91.2292L1207.54 90.7692L1207.89 90.3192L1208.24 89.8692L1208.6 89.4292L1208.96 88.9892L1209.33 88.5592L1209.7 88.1292L1210.08 87.7092L1210.46 87.2892L1210.84 86.8792L1211.23 86.4692L1211.62 86.0692L1212.02 85.6792L1212.42 85.2892L1212.82 84.9092L1213.23 84.5392L1213.64 84.1792L1214.05 83.8192L1214.47 83.4692L1214.89 83.1292L1215.31 82.7992L1215.74 82.4792L1216.19 82.1492L1216.79 81.7292L1217.38 81.3292L1217.97 80.9592L1218.55 80.6092L1219.06 80.3192L1219.57 80.0492L1220.07 79.7992L1220.57 79.5692L1221.06 79.3592L1221.54 79.1692L1222.02 78.9992L1222.49 78.8492L1223.13 78.6292L1223.78 78.3592L1224.43 78.0492L1225.08 77.6992L1225.43 77.4892L1225.78 77.2692L1226.13 77.0392L1226.48 76.7992L1226.83 76.5492L1227.17 76.2892L1227.51 76.0192L1227.85 75.7392L1228.19 75.4492L1228.53 75.1492L1228.86 74.8392L1229.19 74.5192L1229.52 74.1892L1229.85 73.8492L1230.17 73.4992L1230.95 72.6292L1231.42 72.1192L1231.89 71.6192L1232.37 71.1292L1232.86 70.6492L1233.35 70.1792L1233.85 69.7192L1234.35 69.2792L1234.96 68.7492L1235.58 68.2392L1236.21 67.7492L1236.85 67.2792L1237.45 66.8592L1238.04 66.4692L1238.63 66.0992L1239.21 65.7492L1239.96 65.3392L1240.7 64.9692L1241.42 64.6392L1242.13 64.3492L1242.83 64.0992L1243.51 63.8892L1244.18 63.7192L1244.83 63.5892L1245.46 63.4992L1246.08 63.4492H1246.68L1247.26 63.4692L1247.82 63.5392L1248.35 63.6492L1248.86 63.7892L1249.35 63.9692L1249.82 64.1892L1250.26 64.4492L1250.68 64.7492L1251.07 65.0792L1251.44 65.4492L1251.78 65.8592L1252.09 66.2992L1252.37 66.7792L1252.62 67.2992L1252.84 67.8492L1253.03 68.4392L1253.19 69.0592L1253.31 69.7192L1253.4 70.4092L1253.45 71.1392L1253.47 71.9392L1253.44 85.2692L1253.42 85.4892L1253.37 85.7192L1253.29 85.9492L1253.19 86.1692L1253.06 86.3792L1252.91 86.5792L1252.75 86.7592L1252.57 86.9092L1241.99 94.7392L1241.85 94.8292L1241.75 94.8792L1241.65 94.9192L1241.55 94.9492H1241.46L1241.37 94.9692H1241.29L1241.21 94.9392L1241.14 94.9092L1241.07 94.8692L1241.01 94.8192L1240.96 94.7492L1240.92 94.6692L1240.89 94.5792L1240.86 94.4792L1240.84 94.3692V94.2392V80.9792L1240.82 80.6192L1240.77 80.2892L1240.69 79.9992L1240.58 79.7392L1240.44 79.5192L1240.27 79.3292L1240.07 79.1792L1239.85 79.0592L1239.61 78.9792L1239.35 78.9392H1239.07L1238.77 78.9692L1238.45 79.0392L1238.12 79.1492L1237.77 79.2992L1237.41 79.4892L1237.13 79.6592L1236.84 79.8592L1236.63 80.0092L1236.43 80.1692L1236.23 80.3392L1236.03 80.5192L1235.84 80.7092L1235.65 80.8992L1235.46 81.0992L1235.28 81.2992L1235.1 81.5092L1234.93 81.7192L1234.76 81.9392L1234.6 82.1592L1234.44 82.3892L1234.29 82.6192L1234.14 82.8492L1234 83.0792L1233.87 83.3192L1233.74 83.5592L1233.62 83.7992L1233.51 84.0392L1233.4 84.2792L1233.3 84.5192L1233.21 84.7592L1233.13 84.9992L1233.06 85.2292L1233 85.4592L1232.95 85.6892L1232.9 85.9192L1232.86 86.1392L1232.83 86.3592L1232.81 86.5692V86.7792L1232.79 100.529L1232.77 100.749L1232.72 100.979L1232.64 101.209L1232.54 101.429L1232.41 101.639L1232.26 101.839L1232.1 102.019L1231.92 102.169L1221.33 109.999L1221.19 110.099L1221.09 110.149L1220.99 110.189L1220.9 110.219H1220.81L1220.72 110.239H1220.64L1220.56 110.209L1220.49 110.179L1220.42 110.129L1220.36 110.069L1220.31 109.999L1220.27 109.919L1220.24 109.829L1220.21 109.729L1220.19 109.619V109.499V108.419L1220.21 96.0992V95.9692L1220.2 95.8292L1220.18 95.4692L1220.13 95.1392L1220.05 94.8492L1219.94 94.5892L1219.8 94.3692L1219.63 94.1792L1219.43 94.0292L1219.21 93.9092L1218.97 93.8292L1218.71 93.7892H1218.43L1218.13 93.8192L1217.81 93.8892L1217.48 93.9992L1217.13 94.1492L1216.77 94.3392L1216.48 94.5192L1216.19 94.7192L1215.98 94.8792L1215.77 95.0392L1215.57 95.2092L1215.37 95.3892L1215.18 95.5792L1214.99 95.7692L1214.8 95.9692L1214.62 96.1692L1214.44 96.3792L1214.27 96.5892L1214.1 96.8092L1213.94 97.0292L1213.78 97.2592L1213.63 97.4892L1213.48 97.7192L1213.34 97.9492L1213.21 98.1892L1213.08 98.4292L1212.96 98.6692L1212.85 98.9092L1212.74 99.1492L1212.64 99.3892L1212.55 99.6292L1212.47 99.8692L1212.4 100.109L1212.34 100.339L1212.29 100.569L1212.24 100.799L1212.2 101.019L1212.17 101.239L1212.15 101.459V101.669L1212.12 115.839L1212.1 116.059L1212.05 116.289L1211.97 116.519L1211.87 116.739L1211.74 116.949L1211.59 117.149L1211.43 117.329L1211.25 117.479L1200.67 125.309L1200.53 125.409L1200.43 125.459L1200.33 125.499L1200.23 125.529H1200.14L1200.05 125.549H1200.01ZM1246.64 63.4792H1246.04L1245.42 63.5392L1244.79 63.6292L1244.14 63.7592L1243.47 63.9292L1242.79 64.1392L1242.09 64.3892L1241.38 64.6792L1240.66 65.0092L1239.92 65.3792L1239.17 65.7892L1238.59 66.1392L1238 66.5092L1237.41 66.8992L1236.81 67.3192L1236.17 67.7892L1235.54 68.2792L1234.92 68.7892L1234.31 69.3192L1233.81 69.7592L1233.31 70.2192L1232.82 70.6892L1232.33 71.1692L1231.85 71.6592L1231.38 72.1592L1230.91 72.6692L1230.13 73.5392L1229.81 73.8892L1229.48 74.2292L1229.15 74.5592L1228.82 74.8792L1228.48 75.1892L1228.14 75.4892L1227.8 75.7792L1227.46 76.0592L1227.12 76.3292L1226.78 76.5892L1226.43 76.8392L1226.08 77.0792L1225.73 77.3092L1225.38 77.5292L1225.03 77.7392L1224.38 78.0892L1223.73 78.3992L1223.08 78.6692L1222.44 78.8892L1221.97 79.0392L1221.49 79.2092L1221.01 79.3992L1220.52 79.6092L1220.02 79.8392L1219.52 80.0892L1219.01 80.3592L1218.5 80.6492L1217.92 80.9992L1217.33 81.3692L1216.74 81.7692L1216.14 82.1892L1215.69 82.5192L1215.26 82.8392L1214.84 83.1692L1214.42 83.5092L1214 83.8592L1213.59 84.2192L1213.18 84.5792L1212.77 84.9492L1212.37 85.3292L1211.97 85.7192L1211.57 86.1092L1211.18 86.5092L1210.79 86.9192L1210.41 87.3292L1210.03 87.7492L1209.65 88.1692L1209.28 88.5992L1208.91 89.0292L1208.55 89.4692L1208.19 89.9092L1207.84 90.3592L1207.49 90.8092L1207.15 91.2692L1206.82 91.7292L1206.49 92.1892L1206.17 92.6592L1205.85 93.1292L1205.54 93.5992L1205.23 94.0792L1204.93 94.5592L1204.64 95.0392L1204.35 95.5192L1204.07 96.0092L1203.8 96.4992L1203.53 96.9892L1203.27 97.4792L1203.02 97.9692L1202.78 98.4592L1202.54 98.9492L1202.31 99.4392L1202.09 99.9292L1201.88 100.419L1201.67 100.909L1201.47 101.399L1201.28 101.889L1201.1 102.379L1200.93 102.869L1200.77 103.359L1200.62 103.839L1200.47 104.319L1200.33 104.799L1200.2 105.279L1200.08 105.759L1199.97 106.229L1199.87 106.699L1199.78 107.169L1199.7 107.629L1199.63 108.089L1199.57 108.539L1199.52 108.989L1199.48 109.439L1199.45 109.879L1199.43 110.319V110.749L1199.4 124.839V124.969L1199.42 125.079L1199.45 125.179L1199.48 125.269L1199.52 125.349L1199.57 125.419L1199.63 125.469L1199.69 125.509L1199.76 125.539L1199.84 125.559H1199.92H1200.01H1200.1L1200.19 125.519L1200.29 125.479L1200.39 125.429L1200.53 125.339L1211.11 117.509L1211.29 117.359L1211.45 117.179L1211.6 116.979L1211.73 116.769L1211.83 116.549L1211.91 116.319L1211.96 116.089L1211.98 115.869L1212.01 101.699V101.489L1212.03 101.269L1212.06 101.049L1212.1 100.829L1212.15 100.599L1212.2 100.369L1212.26 100.139L1212.33 99.8992L1212.41 99.6592L1212.5 99.4192L1212.6 99.1792L1212.71 98.9392L1212.82 98.6992L1212.94 98.4592L1213.07 98.2192L1213.2 97.9792L1213.34 97.7492L1213.49 97.5192L1213.64 97.2892L1213.8 97.0592L1213.96 96.8392L1214.13 96.6192L1214.3 96.4092L1214.48 96.1992L1214.66 95.9992L1214.85 95.7992L1215.04 95.6092L1215.24 95.4192L1215.44 95.2392L1215.64 95.0692L1215.85 94.9092L1216.06 94.7492L1216.35 94.5492L1216.64 94.3692L1217 94.1792L1217.35 94.0292L1217.68 93.9192L1218 93.8492L1218.3 93.8192H1218.59L1218.86 93.8692L1219.1 93.9492L1219.32 94.0692L1219.52 94.2192L1219.69 94.4092L1219.83 94.6292L1219.94 94.8892L1220.02 95.1792L1220.07 95.5092L1220.09 95.8692V96.0092L1220.1 96.1392L1220.08 109.539V109.659L1220.1 109.769L1220.13 109.869L1220.16 109.959L1220.2 110.039L1220.25 110.109L1220.31 110.159L1220.37 110.199L1220.44 110.229L1220.52 110.249H1220.6H1220.69H1220.78L1220.87 110.209L1220.97 110.169L1221.07 110.119L1221.21 110.029L1231.8 102.199L1231.98 102.049L1232.14 101.869L1232.29 101.669L1232.42 101.459L1232.52 101.239L1232.6 101.009L1232.65 100.779L1232.67 100.559L1232.69 86.8092V86.5992L1232.71 86.3892L1232.74 86.1692L1232.78 85.9492L1232.83 85.7192L1232.88 85.4892L1232.94 85.2592L1233.01 85.0192L1233.09 84.7792L1233.18 84.5392L1233.28 84.2992L1233.39 84.0592L1233.5 83.8192L1233.62 83.5792L1233.75 83.3392L1233.89 83.0992L1234.03 82.8692L1234.18 82.6392L1234.33 82.4092L1234.49 82.1792L1234.65 81.9592L1234.82 81.7392L1234.99 81.5292L1235.17 81.3192L1235.35 81.1192L1235.54 80.9192L1235.73 80.7292L1235.93 80.5392L1236.13 80.3592L1236.33 80.1892L1236.53 80.0292L1236.74 79.8792L1237.03 79.6792L1237.31 79.5092L1237.67 79.3192L1238.02 79.1692L1238.35 79.0592L1238.67 78.9892L1238.97 78.9592H1239.26L1239.53 79.0092L1239.77 79.0892L1239.99 79.2092L1240.19 79.3592L1240.36 79.5492L1240.5 79.7692L1240.62 80.0292L1240.7 80.3192L1240.75 80.6492L1240.77 81.0092V94.2692V94.3992L1240.79 94.4992L1240.82 94.5992L1240.85 94.6792L1240.89 94.7592L1240.94 94.8292L1241 94.8792L1241.06 94.9192L1241.13 94.9492L1241.21 94.9692H1241.29H1241.38H1241.47L1241.56 94.9292L1241.66 94.8892L1241.76 94.8392L1241.9 94.7492L1252.48 86.9192L1252.66 86.7692L1252.82 86.5892L1252.97 86.3892L1253.1 86.1792L1253.2 85.9592L1253.28 85.7292L1253.33 85.4992L1253.35 85.2792L1253.37 80.1392V71.9492V71.1492L1253.32 70.4192L1253.23 69.7292L1253.11 69.0692L1252.95 68.4492L1252.76 67.8592L1252.54 67.3092L1252.29 66.7892L1252.01 66.3092L1251.7 65.8692L1251.36 65.4592L1251 65.0892L1250.61 64.7592L1250.19 64.4592L1249.75 64.1992L1249.28 63.9792L1248.79 63.7992L1248.28 63.6592L1247.75 63.5492L1247.19 63.4792L1246.61 63.4492L1246.64 63.4792Z" fill="url(#paint17_linear_6985_30822)" stroke="url(#paint18_linear_6985_30822)" stroke-width="1.83" stroke-linecap="round" stroke-linejoin="round"/>
<path d="M1206.26 146.152L1205.68 146.122L1205.12 146.052L1204.58 145.942L1204.07 145.802L1203.58 145.622L1203.11 145.402L1202.67 145.142L1202.25 144.852L1201.86 144.522L1201.49 144.152L1201.15 143.742L1200.84 143.302L1200.56 142.822L1200.31 142.302L1200.09 141.752L1199.9 141.162L1199.74 140.542L1199.62 139.882L1199.53 139.192L1199.48 138.462L1199.46 137.652L1199.48 131.742L1199.5 131.522L1199.55 131.292L1199.63 131.062L1199.73 130.842L1199.86 130.632L1200.01 130.432L1200.17 130.252L1200.35 130.102L1210.94 122.272L1211.08 122.182L1211.18 122.132L1211.28 122.092L1211.38 122.062H1211.47L1211.56 122.042H1211.64L1211.72 122.072L1211.79 122.102L1211.86 122.152L1211.92 122.212L1211.97 122.282L1212.01 122.362L1212.05 122.452L1212.08 122.552L1212.1 122.662V122.782L1212.09 128.632L1212.11 128.992L1212.16 129.322L1212.24 129.612L1212.35 129.872L1212.49 130.092L1212.66 130.282L1212.86 130.432L1213.08 130.552L1213.32 130.632L1213.59 130.672H1213.87L1214.17 130.642L1214.49 130.572L1214.82 130.462L1215.17 130.312L1215.53 130.122L1215.81 129.952L1216.1 129.752L1216.31 129.592L1216.52 129.432L1216.72 129.262L1216.92 129.082L1217.11 128.892L1217.3 128.702L1217.49 128.502L1217.67 128.302L1217.85 128.092L1218.02 127.882L1218.19 127.662L1218.35 127.442L1218.51 127.212L1218.66 126.982L1218.81 126.752L1218.95 126.512L1219.08 126.272L1219.21 126.032L1219.33 125.792L1219.44 125.552L1219.55 125.312L1219.65 125.072L1219.74 124.832L1219.82 124.592L1219.89 124.352L1219.95 124.122L1220.01 123.892L1220.06 123.662L1220.1 123.442L1220.13 123.222L1220.15 123.002V122.792L1220.17 116.472L1220.19 116.252L1220.24 116.022L1220.32 115.792L1220.42 115.572L1220.55 115.362L1220.7 115.162L1220.86 114.982L1221.04 114.832L1231.62 107.002L1231.76 106.912L1231.86 106.862L1231.96 106.822L1232.06 106.792L1232.15 106.772H1232.24H1232.32L1232.4 106.792L1232.47 106.822L1232.54 106.862L1232.6 106.922L1232.65 106.992L1232.69 107.072L1232.72 107.162L1232.75 107.262L1232.77 107.372V107.492V108.572L1232.75 113.482V113.612L1232.76 113.742L1232.78 114.112L1232.83 114.442L1232.91 114.742L1233.02 115.002L1233.16 115.222L1233.33 115.412L1233.53 115.562L1233.75 115.682L1233.99 115.762L1234.26 115.802H1234.54L1234.84 115.772L1235.16 115.702L1235.49 115.592L1235.84 115.442L1236.2 115.252L1236.48 115.082L1236.77 114.882L1236.98 114.732L1237.18 114.572L1237.38 114.402L1237.58 114.222L1237.77 114.032L1237.96 113.842L1238.15 113.642L1238.33 113.442L1238.51 113.232L1238.68 113.022L1238.85 112.802L1239.01 112.582L1239.17 112.352L1239.32 112.122L1239.47 111.892L1239.61 111.662L1239.74 111.422L1239.87 111.182L1239.99 110.942L1240.1 110.702L1240.21 110.462L1240.31 110.222L1240.4 109.982L1240.48 109.742L1240.55 109.512L1240.61 109.282L1240.67 109.052L1240.72 108.822L1240.76 108.602L1240.79 108.382L1240.81 108.172V107.962L1240.84 101.212L1240.86 100.992L1240.91 100.762L1240.99 100.532L1241.09 100.312L1241.22 100.102L1241.37 99.9017L1241.53 99.7217L1241.71 99.5717L1252.29 91.7417L1252.43 91.6517L1252.53 91.6017L1252.63 91.5617L1252.73 91.5317H1252.82L1252.91 91.5117H1252.99L1253.07 91.5417L1253.14 91.5717L1253.21 91.6217L1253.27 91.6817L1253.32 91.7517L1253.36 91.8317L1253.39 91.9217L1253.42 92.0217L1253.44 92.1317V92.2517L1253.42 98.9317V99.3617L1253.4 99.8017L1253.37 100.242L1253.33 100.692L1253.28 101.142L1253.22 101.592L1253.15 102.052L1253.07 102.512L1252.98 102.982L1252.88 103.452L1252.77 103.922L1252.65 104.402L1252.52 104.882L1252.38 105.362L1252.23 105.842L1252.08 106.332L1251.92 106.822L1251.75 107.312L1251.57 107.802L1251.38 108.292L1251.18 108.782L1250.97 109.272L1250.76 109.762L1250.54 110.252L1250.31 110.742L1250.07 111.232L1249.83 111.722L1249.58 112.212L1249.32 112.702L1249.05 113.192L1248.78 113.682L1248.5 114.172L1248.21 114.652L1247.92 115.132L1247.62 115.612L1247.31 116.092L1247 116.562L1246.68 117.032L1246.36 117.502L1246.03 117.962L1245.7 118.422L1245.36 118.882L1245.01 119.332L1244.66 119.782L1244.3 120.222L1243.94 120.662L1243.57 121.092L1243.2 121.522L1242.82 121.942L1242.44 122.362L1242.06 122.772L1241.67 123.182L1241.28 123.582L1240.88 123.972L1240.48 124.362L1240.08 124.742L1239.67 125.112L1239.26 125.472L1238.85 125.832L1238.43 126.182L1238.01 126.522L1237.59 126.852L1237.16 127.172L1236.71 127.492L1236.11 127.912L1235.51 128.312L1234.92 128.682L1234.34 129.032L1233.83 129.322L1233.33 129.592L1232.83 129.842L1232.34 130.072L1231.85 130.282L1231.37 130.472L1230.9 130.642L1230.43 130.792L1229.79 131.012L1229.14 131.282L1228.49 131.592L1227.84 131.942L1227.49 132.152L1227.14 132.372L1226.79 132.602L1226.44 132.842L1226.09 133.092L1225.75 133.352L1225.41 133.622L1225.07 133.902L1224.73 134.192L1224.39 134.492L1224.06 134.802L1223.73 135.122L1223.4 135.452L1223.07 135.792L1222.75 136.142L1222.43 136.492L1221.97 137.012L1221.5 137.522L1221.03 138.022L1220.55 138.512L1220.06 138.992L1219.57 139.462L1219.07 139.912L1218.57 140.352L1217.95 140.872L1217.33 141.372L1216.7 141.862L1216.07 142.332L1215.47 142.752L1214.88 143.142L1214.29 143.512L1213.71 143.852L1212.96 144.262L1212.22 144.632L1211.49 144.962L1210.78 145.252L1210.08 145.502L1209.4 145.712L1208.73 145.882L1208.08 146.012L1207.45 146.102L1206.83 146.152H1206.23H1206.26ZM1211.56 122.082H1211.47L1211.38 122.102L1211.28 122.132L1211.18 122.172L1211.08 122.222L1210.94 122.312L1200.35 130.142L1200.17 130.292L1200.01 130.472L1199.86 130.672L1199.73 130.882L1199.63 131.102L1199.55 131.332L1199.5 131.562L1199.48 131.782L1199.46 137.742L1199.48 138.502L1199.53 139.232L1199.62 139.922L1199.74 140.582L1199.9 141.202L1200.09 141.792L1200.31 142.342L1200.56 142.862L1200.84 143.342L1201.15 143.782L1201.49 144.192L1201.85 144.562L1202.24 144.892L1202.66 145.182L1203.1 145.442L1203.57 145.662L1204.06 145.842L1204.57 145.982L1205.11 146.092L1205.67 146.162L1206.25 146.192H1206.85L1207.46 146.132L1208.09 146.042L1208.74 145.912L1209.41 145.742L1210.09 145.532L1210.79 145.282L1211.5 144.992L1212.23 144.662L1212.97 144.292L1213.72 143.882L1214.3 143.542L1214.89 143.172L1215.48 142.782L1216.08 142.362L1216.71 141.892L1217.34 141.402L1217.96 140.902L1218.58 140.382L1219.08 139.942L1219.58 139.492L1220.07 139.022L1220.56 138.542L1221.04 138.052L1221.51 137.552L1221.98 137.042L1222.76 136.172L1223.08 135.822L1223.41 135.482L1223.74 135.152L1224.07 134.832L1224.4 134.522L1224.74 134.222L1225.08 133.932L1225.42 133.652L1225.76 133.382L1226.1 133.122L1226.45 132.872L1226.8 132.632L1227.15 132.402L1227.5 132.182L1227.85 131.972L1228.5 131.622L1229.15 131.312L1229.8 131.042L1230.44 130.822L1230.91 130.672L1231.38 130.502L1231.86 130.312L1232.35 130.102L1232.84 129.872L1233.34 129.622L1233.84 129.352L1234.35 129.062L1234.93 128.712L1235.52 128.342L1236.12 127.942L1236.72 127.522L1237.17 127.202L1237.6 126.882L1238.02 126.552L1238.44 126.212L1238.86 125.862L1239.27 125.502L1239.68 125.142L1240.09 124.772L1240.49 124.392L1240.89 124.002L1241.29 123.612L1241.68 123.212L1242.07 122.802L1242.45 122.392L1242.83 121.972L1243.21 121.552L1243.58 121.122L1243.95 120.692L1244.31 120.252L1244.67 119.812L1245.02 119.362L1245.37 118.912L1245.71 118.452L1246.04 117.992L1246.37 117.532L1246.69 117.062L1247.01 116.592L1247.32 116.122L1247.63 115.642L1247.93 115.162L1248.22 114.682L1248.51 114.202L1248.79 113.712L1249.06 113.222L1249.33 112.732L1249.59 112.242L1249.84 111.752L1250.08 111.262L1250.32 110.772L1250.55 110.282L1250.77 109.792L1250.98 109.302L1251.19 108.812L1251.39 108.322L1251.58 107.832L1251.76 107.342L1251.93 106.852L1252.09 106.362L1252.24 105.882L1252.39 105.402L1252.53 104.922L1252.66 104.442L1252.78 103.962L1252.89 103.492L1252.99 103.022L1253.08 102.552L1253.16 102.092L1253.23 101.632L1253.29 101.182L1253.34 100.732L1253.38 100.282L1253.41 99.8417L1253.43 99.4017V98.9717L1253.46 92.2917V92.1717L1253.44 92.0617L1253.41 91.9617L1253.38 91.8717L1253.34 91.7917L1253.29 91.7217L1253.23 91.6717L1253.17 91.6317L1253.1 91.6017L1253.02 91.5817H1252.94H1252.85H1252.76L1252.66 91.6217L1252.56 91.6617L1252.46 91.7117L1252.32 91.8017L1241.74 99.6317L1241.56 99.7817L1241.4 99.9617L1241.25 100.162L1241.12 100.372L1241.02 100.592L1240.94 100.822L1240.89 101.052L1240.87 101.272L1240.84 108.022V108.232L1240.82 108.452L1240.79 108.672L1240.75 108.892L1240.7 109.122L1240.64 109.352L1240.58 109.582L1240.51 109.822L1240.43 110.062L1240.34 110.302L1240.24 110.542L1240.13 110.782L1240.02 111.022L1239.9 111.262L1239.77 111.502L1239.63 111.742L1239.49 111.972L1239.34 112.202L1239.19 112.432L1239.03 112.662L1238.87 112.882L1238.7 113.102L1238.53 113.312L1238.35 113.522L1238.17 113.722L1237.98 113.922L1237.79 114.112L1237.59 114.302L1237.39 114.482L1237.19 114.652L1236.99 114.812L1236.78 114.962L1236.49 115.162L1236.21 115.332L1235.85 115.522L1235.5 115.672L1235.17 115.782L1234.85 115.852L1234.55 115.882H1234.26L1233.99 115.832L1233.74 115.752L1233.52 115.632L1233.32 115.482L1233.15 115.292L1233.01 115.062L1232.89 114.802L1232.81 114.502L1232.76 114.172L1232.74 113.802V113.672L1232.73 113.542L1232.75 108.632V107.442L1232.73 107.332L1232.7 107.232L1232.67 107.142L1232.63 107.062L1232.58 106.992L1232.52 106.942L1232.46 106.902L1232.39 106.872L1232.31 106.852H1232.23H1232.14L1232.05 106.872L1231.95 106.902L1231.85 106.942L1231.75 106.992L1231.61 107.082L1221.03 114.912L1220.85 115.062L1220.69 115.242L1220.54 115.442L1220.41 115.652L1220.31 115.872L1220.23 116.102L1220.18 116.332L1220.16 116.552V122.872L1220.14 123.082L1220.12 123.302L1220.09 123.522L1220.05 123.742L1220 123.972L1219.94 124.202L1219.88 124.432L1219.81 124.672L1219.73 124.912L1219.64 125.152L1219.54 125.392L1219.43 125.632L1219.32 125.872L1219.2 126.112L1219.07 126.352L1218.93 126.592L1218.79 126.832L1218.64 127.062L1218.49 127.292L1218.33 127.522L1218.17 127.742L1218 127.962L1217.83 128.172L1217.65 128.382L1217.47 128.582L1217.28 128.782L1217.09 128.972L1216.89 129.162L1216.69 129.342L1216.49 129.512L1216.28 129.672L1216.07 129.832L1215.78 130.032L1215.5 130.202L1215.14 130.392L1214.79 130.542L1214.46 130.652L1214.14 130.722L1213.84 130.752H1213.55L1213.28 130.702L1213.04 130.622L1212.82 130.502L1212.62 130.352L1212.45 130.162L1212.31 129.942L1212.19 129.682L1212.11 129.392L1212.06 129.062L1212.04 128.702L1212.06 122.852V122.732L1212.04 122.622L1212.01 122.522L1211.98 122.432L1211.94 122.352L1211.89 122.282L1211.83 122.232L1211.77 122.192L1211.7 122.162L1211.62 122.142H1211.54L1211.56 122.082Z" fill="url(#paint19_linear_6985_30822)" stroke="url(#paint20_linear_6985_30822)" stroke-width="1.83" stroke-linecap="round" stroke-linejoin="round"/>
</g>
<defs>
<linearGradient id="paint0_linear_6985_30822" x1="12" y1="127" x2="1280.45" y2="-253.26" gradientUnits="userSpaceOnUse">
<stop stop-color="#C532F9"/>
<stop offset="1" stop-color="#32B2E5"/>
</linearGradient>
<linearGradient id="paint1_linear_6985_30822" x1="12" y1="127" x2="1280.45" y2="-253.26" gradientUnits="userSpaceOnUse">
<stop stop-color="#C532F9"/>
<stop offset="1" stop-color="#32B2E5"/>
</linearGradient>
<linearGradient id="paint2_linear_6985_30822" x1="801.45" y1="146.279" x2="663.65" y2="146.279" gradientUnits="userSpaceOnUse">
<stop stop-color="#20BCE2" stop-opacity="0"/>
<stop offset="1" stop-color="#E512F3" stop-opacity="0.2"/>
</linearGradient>
<linearGradient id="paint3_linear_6985_30822" x1="1145.42" y1="173.41" x2="1007.62" y2="173.41" gradientUnits="userSpaceOnUse">
<stop stop-color="#E512F3" stop-opacity="0.1"/>
<stop offset="1" stop-color="#20BCE2" stop-opacity="0.2"/>
</linearGradient>
<linearGradient id="paint4_linear_6985_30822" x1="1146.45" y1="173.41" x2="1007.72" y2="173.41" gradientUnits="userSpaceOnUse">
<stop stop-color="#E512F3" stop-opacity="0.5"/>
<stop offset="0.59" stop-color="#20BCE2" stop-opacity="0.5"/>
<stop offset="1" stop-color="#20BCE2" stop-opacity="0"/>
</linearGradient>
<linearGradient id="paint5_linear_6985_30822" x1="1284.04" y1="97.7095" x2="1145.31" y2="97.7095" gradientUnits="userSpaceOnUse">
<stop stop-color="#20BCE2" stop-opacity="0"/>
<stop offset="0.42" stop-color="#20BCE2" stop-opacity="0.4"/>
<stop offset="0.99" stop-color="#E512F3" stop-opacity="0.4"/>
</linearGradient>
<linearGradient id="paint6_linear_6985_30822" x1="801.92" y1="146.279" x2="663.18" y2="146.279" gradientUnits="userSpaceOnUse">
<stop stop-color="#8069EA" stop-opacity="0"/>
<stop offset="1" stop-color="#E512F3" stop-opacity="0.6"/>
</linearGradient>
<linearGradient id="paint7_linear_6985_30822" x1="1042.22" y1="8.08001" x2="1111.41" y2="-111.76" gradientUnits="userSpaceOnUse">
<stop stop-color="#20BCE2" stop-opacity="0"/>
<stop offset="0.47" stop-color="#20BCE2" stop-opacity="0.16"/>
<stop offset="0.99" stop-color="#E512F3" stop-opacity="0.3"/>
</linearGradient>
<linearGradient id="paint8_linear_6985_30822" x1="1284.25" y1="22.4694" x2="1145.52" y2="22.4694" gradientUnits="userSpaceOnUse">
<stop stop-color="#E512F3" stop-opacity="0"/>
<stop offset="0.58" stop-color="#20BCE2" stop-opacity="0.4"/>
<stop offset="1" stop-color="#20BCE2" stop-opacity="0"/>
</linearGradient>
<linearGradient id="paint9_linear_6985_30822" x1="1478.04" y1="-41.2491" x2="1157.02" y2="-41.2491" gradientUnits="userSpaceOnUse">
<stop stop-color="#E512F3" stop-opacity="0.3"/>
<stop offset="0.58" stop-color="#20BCE2" stop-opacity="0.4"/>
<stop offset="1" stop-color="#20BCE2" stop-opacity="0"/>
</linearGradient>
<linearGradient id="paint10_linear_6985_30822" x1="252.3" y1="152.279" x2="391.03" y2="152.279" gradientUnits="userSpaceOnUse">
<stop stop-color="#8069EA" stop-opacity="0"/>
<stop offset="1" stop-color="#E512F3" stop-opacity="0.6"/>
</linearGradient>
<linearGradient id="paint11_linear_6985_30822" x1="11.9998" y1="14.08" x2="-57.2002" y2="-105.76" gradientUnits="userSpaceOnUse">
<stop stop-color="#20BCE2" stop-opacity="0"/>
<stop offset="0.47" stop-color="#20BCE2" stop-opacity="0.16"/>
<stop offset="0.99" stop-color="#E512F3" stop-opacity="0.3"/>
</linearGradient>
<linearGradient id="paint12_linear_6985_30822" x1="212" y1="184.078" x2="142.8" y2="64.2383" gradientUnits="userSpaceOnUse">
<stop stop-color="#20BCE2" stop-opacity="0"/>
<stop offset="0.47" stop-color="#20BCE2" stop-opacity="0.16"/>
<stop offset="0.99" stop-color="#E512F3" stop-opacity="0.3"/>
</linearGradient>
<linearGradient id="paint13_linear_6985_30822" x1="1169.45" y1="102.559" x2="1264" y2="102.559" gradientUnits="userSpaceOnUse">
<stop offset="0.02" stop-color="#E512F3"/>
<stop offset="0.34" stop-color="#B33DEF" stop-opacity="0.62"/>
<stop offset="0.51" stop-color="#E512F3"/>
<stop offset="0.65" stop-color="#AD43EE" stop-opacity="0.61"/>
<stop offset="1" stop-color="#20BCE2" stop-opacity="0"/>
</linearGradient>
<linearGradient id="paint14_linear_6985_30822" x1="1168.54" y1="102.559" x2="1264.91" y2="102.559" gradientUnits="userSpaceOnUse">
<stop stop-color="#E512F3"/>
<stop offset="0.58" stop-color="#20BCE2" stop-opacity="0.4"/>
<stop offset="1" stop-color="#20BCE2" stop-opacity="0"/>
</linearGradient>
<linearGradient id="paint15_linear_6985_30822" x1="1191.26" y1="103.14" x2="1259.7" y2="103.14" gradientUnits="userSpaceOnUse">
<stop stop-color="#E512F3"/>
<stop offset="0.58" stop-color="#20BCE2" stop-opacity="0.4"/>
<stop offset="1" stop-color="#20BCE2" stop-opacity="0"/>
</linearGradient>
<linearGradient id="paint16_linear_6985_30822" x1="1190.35" y1="103.14" x2="1260.61" y2="103.14" gradientUnits="userSpaceOnUse">
<stop stop-color="#E512F3"/>
<stop offset="0.58" stop-color="#20BCE2" stop-opacity="0.4"/>
<stop offset="1" stop-color="#20BCE2" stop-opacity="0"/>
</linearGradient>
<linearGradient id="paint17_linear_6985_30822" x1="1199.48" y1="94.5092" x2="1253.42" y2="94.5092" gradientUnits="userSpaceOnUse">
<stop offset="0.39" stop-color="#E512F3"/>
<stop offset="1" stop-color="#20BCE2" stop-opacity="0"/>
</linearGradient>
<linearGradient id="paint18_linear_6985_30822" x1="1198.57" y1="94.5092" x2="1254.33" y2="94.5092" gradientUnits="userSpaceOnUse">
<stop stop-color="#E512F3"/>
<stop offset="0.58" stop-color="#20BCE2" stop-opacity="0.4"/>
<stop offset="1" stop-color="#20BCE2" stop-opacity="0"/>
</linearGradient>
<linearGradient id="paint19_linear_6985_30822" x1="1199.48" y1="118.822" x2="1253.42" y2="118.822" gradientUnits="userSpaceOnUse">
<stop offset="0.23" stop-color="#E512F3"/>
<stop offset="1" stop-color="#20BCE2" stop-opacity="0"/>
</linearGradient>
<linearGradient id="paint20_linear_6985_30822" x1="1198.57" y1="118.822" x2="1254.33" y2="118.822" gradientUnits="userSpaceOnUse">
<stop stop-color="#E512F3"/>
<stop offset="0.58" stop-color="#20BCE2" stop-opacity="0.4"/>
<stop offset="1" stop-color="#20BCE2" stop-opacity="0"/>
</linearGradient>
</defs>
</svg>
