<svg width="1573" height="340" viewBox="0 0 1573 340" fill="none" xmlns="http://www.w3.org/2000/svg">
<g opacity="0.6">
<path opacity="0.6" d="M895.203 227.192L894.681 99.7651C894.674 97.8917 894.175 96.0529 893.234 94.4332C892.292 92.8135 890.942 91.4697 889.317 90.5367C887.693 89.6037 885.851 89.1141 883.978 89.1172C882.105 89.1203 880.265 89.6158 878.643 90.5542L768.057 154.48C764.808 156.362 762.113 159.067 760.242 162.323C758.371 165.578 757.391 169.268 757.399 173.023V300.767C757.4 302.644 757.894 304.488 758.833 306.113C759.772 307.738 761.122 309.088 762.748 310.026C764.374 310.964 766.219 311.457 768.096 311.456C769.973 311.455 771.817 310.959 773.442 310.019L884.523 245.786C887.782 243.901 890.486 241.189 892.361 237.924C894.237 234.659 895.217 230.957 895.203 227.192Z" fill="url(#paint0_linear_6985_30950)"/>
<path opacity="0.6" d="M1239.17 254.319L1238.65 126.897C1238.64 125.024 1238.14 123.185 1237.2 121.565C1236.26 119.946 1234.91 118.602 1233.28 117.669C1231.66 116.737 1229.82 116.247 1227.94 116.25C1226.07 116.253 1224.23 116.748 1222.61 117.686L1112.05 181.612C1108.8 183.49 1106.1 186.189 1104.23 189.438C1102.35 192.686 1101.37 196.371 1101.37 200.122V327.889C1101.37 329.766 1101.86 331.61 1102.8 333.236C1103.74 334.861 1105.09 336.211 1106.71 337.148C1108.34 338.086 1110.18 338.58 1112.06 338.578C1113.94 338.577 1115.78 338.082 1117.41 337.142L1228.49 272.909C1231.75 271.024 1234.45 268.312 1236.33 265.048C1238.2 261.784 1239.18 258.083 1239.17 254.319Z" fill="url(#paint1_linear_6985_30950)"/>
<path opacity="0.6" d="M1274.83 188.293C1274.87 199.025 1282.46 203.369 1291.81 197.97C1298.34 194.195 1304.01 186.655 1306.81 178.783C1307.14 177.802 1307.8 176.964 1308.68 176.408C1309.43 175.974 1310.19 175.974 1310.58 176.613C1313.42 181.219 1319.1 182.213 1325.64 178.433C1326.01 178.214 1326.39 177.967 1326.77 177.738C1335.75 171.882 1342.53 158.91 1342.5 148.556L1342.42 122.001C1342.42 115.557 1337.84 112.958 1332.24 116.192L1284.86 143.545C1279.27 146.783 1274.73 154.627 1274.75 161.075L1274.82 188.293M1272.34 143.876C1288.25 133.06 1299.53 121.479 1305.88 109.394L1306.14 108.876C1306.72 107.907 1307.53 107.093 1308.49 106.505C1309.43 105.959 1310.32 105.866 1311.13 106.356C1317.52 111.078 1328.83 109.622 1344.73 102.072C1348.08 100.477 1350.73 102.301 1350.74 106.23L1350.88 155.327C1350.88 156.26 1350.14 179.124 1309.66 202.487L1307.89 203.513C1286.53 215.846 1276.4 215.291 1271.65 212.622C1266.64 209.822 1266.48 204.111 1266.48 204.05L1266.35 154.949C1266.36 151.02 1268.99 146.158 1272.34 143.876Z" stroke="url(#paint2_linear_6985_30950)" stroke-width="2.49317" stroke-linecap="round" stroke-linejoin="round"/>
<path opacity="0.6" d="M1324.41 137.192C1320.74 139.31 1317.77 144.037 1317.78 147.746L1317.82 161.194C1317.82 164.927 1320.81 166.196 1324.47 164.083C1328.14 161.969 1331.12 157.237 1331.11 153.523L1331.07 140.071C1331.06 136.361 1328.08 135.073 1324.41 137.192Z" stroke="url(#paint3_linear_6985_30950)" stroke-width="2.49317" stroke-linecap="round" stroke-linejoin="round"/>
<path opacity="0.6" d="M1292.82 155.431C1289.14 157.554 1286.17 162.281 1286.18 165.985L1286.22 179.438C1286.22 183.171 1289.22 184.44 1292.88 182.326C1296.53 180.212 1299.52 175.481 1299.51 171.762L1299.47 158.314C1299.45 154.605 1296.48 153.317 1292.82 155.431Z" stroke="url(#paint4_linear_6985_30950)" stroke-width="2.49317" stroke-linecap="round" stroke-linejoin="round"/>
<path opacity="0.6" d="M1332.25 116.191C1337.85 112.957 1342.41 115.556 1342.43 122L1342.5 148.555C1342.54 158.909 1335.76 171.886 1326.78 177.737C1326.4 177.984 1326.02 178.203 1325.65 178.432C1319.12 182.202 1313.43 181.232 1310.59 176.612C1310.2 175.973 1309.44 175.973 1308.68 176.407C1307.81 176.963 1307.15 177.801 1306.82 178.782C1304.02 186.654 1298.36 194.18 1291.82 197.969C1282.48 203.368 1274.87 199.028 1274.84 188.292L1274.77 161.074C1274.77 154.626 1279.28 146.782 1284.88 143.544L1332.25 116.191ZM1286.22 179.44C1286.22 183.173 1289.22 184.442 1292.89 182.319C1296.56 180.196 1299.52 175.483 1299.51 171.764L1299.47 158.317C1299.47 154.584 1296.48 153.319 1292.8 155.442C1289.12 157.565 1286.17 162.283 1286.18 165.988L1286.22 179.44ZM1317.82 161.195C1317.82 164.928 1320.81 166.198 1324.49 164.079C1328.17 161.961 1331.12 157.239 1331.11 153.524L1331.07 140.072C1331.07 136.363 1328.08 135.075 1324.4 137.198C1320.72 139.321 1317.77 144.038 1317.78 147.748L1317.82 161.195Z" stroke="url(#paint5_linear_6985_30950)" stroke-width="2.49317" stroke-linecap="round" stroke-linejoin="round"/>
<path opacity="0.6" d="M1239.72 254.319L1239.2 126.897C1239.19 125.024 1238.69 123.185 1237.75 121.565C1236.81 119.946 1235.46 118.602 1233.83 117.669C1232.21 116.737 1230.37 116.247 1228.5 116.25C1226.62 116.253 1224.78 116.748 1223.16 117.686L1112.6 181.612C1109.35 183.49 1106.65 186.189 1104.78 189.438C1102.91 192.687 1101.92 196.372 1101.92 200.122V327.889C1101.92 329.766 1102.41 331.61 1103.35 333.236C1104.29 334.861 1105.64 336.211 1107.27 337.149C1108.89 338.087 1110.74 338.58 1112.61 338.579C1114.49 338.578 1116.33 338.082 1117.96 337.142L1229.04 272.909C1232.3 271.025 1235.01 268.314 1236.88 265.05C1238.76 261.785 1239.74 258.083 1239.72 254.319V254.319Z" stroke="url(#paint6_linear_6985_30950)" stroke-width="2.49317" stroke-linecap="round" stroke-linejoin="round"/>
<path opacity="0.6" d="M1377.32 178.596L1376.81 51.1745C1376.8 49.301 1376.3 47.4623 1375.36 45.8428C1374.41 44.2232 1373.06 42.8797 1371.44 41.9468C1369.81 41.0139 1367.97 40.5244 1366.1 40.5274C1364.22 40.5303 1362.38 41.0256 1360.76 41.9636L1250.18 105.889C1246.93 107.766 1244.23 110.464 1242.36 113.713C1240.49 116.961 1239.5 120.645 1239.5 124.395V252.171C1239.49 254.055 1239.99 255.907 1240.93 257.539C1241.87 259.171 1243.22 260.526 1244.86 261.465C1246.49 262.404 1248.34 262.895 1250.23 262.888C1252.11 262.881 1253.96 262.376 1255.58 261.424L1366.64 197.191C1369.9 195.307 1372.6 192.595 1374.48 189.33C1376.36 186.065 1377.34 182.362 1377.32 178.596V178.596Z" stroke="url(#paint7_linear_6985_30950)" stroke-width="2.49317" stroke-linecap="round" stroke-linejoin="round"/>
<path opacity="0.6" d="M895.203 227.192L894.681 99.7651C894.674 97.8917 894.175 96.0529 893.234 94.4332C892.292 92.8135 890.942 91.4697 889.317 90.5367C887.693 89.6037 885.851 89.1141 883.978 89.1172C882.105 89.1203 880.265 89.6158 878.643 90.5542L768.057 154.48C764.808 156.362 762.113 159.067 760.242 162.323C758.371 165.578 757.391 169.268 757.399 173.023V300.767C757.4 302.644 757.894 304.488 758.833 306.113C759.772 307.738 761.122 309.088 762.748 310.026C764.374 310.964 766.219 311.457 768.096 311.456C769.973 311.455 771.817 310.959 773.442 310.019L884.523 245.786C887.782 243.901 890.486 241.189 892.361 237.924C894.237 234.659 895.217 230.957 895.203 227.192V227.192Z" stroke="url(#paint8_linear_6985_30950)" stroke-width="2.49317" stroke-linecap="round" stroke-linejoin="round"/>
<path opacity="0.6" d="M1239.72 -24.7398L1239.2 102.682C1239.19 104.554 1238.69 106.391 1237.75 108.009C1236.81 109.627 1235.46 110.97 1233.84 111.903C1232.22 112.836 1230.38 113.327 1228.51 113.326C1226.63 113.325 1224.8 112.832 1223.17 111.898L1112.61 47.972C1109.36 46.0953 1106.67 43.3973 1104.79 40.149C1102.92 36.9006 1101.93 33.2164 1101.93 29.4663V-98.3102C1101.93 -100.187 1102.43 -102.031 1103.37 -103.657C1104.3 -105.282 1105.65 -106.632 1107.28 -107.57C1108.91 -108.508 1110.75 -109.001 1112.63 -109C1114.5 -108.999 1116.35 -108.503 1117.97 -107.563L1229.06 -43.3342C1232.31 -41.4475 1235.02 -38.7346 1236.89 -35.4696C1238.76 -32.2047 1239.74 -28.5034 1239.72 -24.7398V-24.7398Z" stroke="url(#paint9_linear_6985_30950)" stroke-width="2.49317" stroke-linecap="round" stroke-linejoin="round"/>
<path opacity="0.6" d="M1239.72 99.738V-18.6969C1239.72 -20.5739 1240.21 -22.4179 1241.15 -24.0435C1242.09 -25.669 1243.44 -27.0187 1245.07 -27.9567C1246.69 -28.8947 1248.54 -29.3879 1250.41 -29.3867C1252.29 -29.3855 1254.13 -28.8899 1255.76 -27.9498L1366.86 36.3071C1370.12 38.1913 1372.82 40.9033 1374.7 44.1685C1376.57 47.4337 1377.55 51.1363 1377.53 54.9015L1377.02 182.323" stroke="url(#paint10_linear_6985_30950)" stroke-width="2.49317" stroke-linecap="round" stroke-linejoin="round"/>
<path opacity="0.6" d="M1571.32 -79.7891L1251.24 105.296" stroke="url(#paint11_linear_6985_30950)" stroke-width="2.49317" stroke-linecap="round" stroke-linejoin="round"/>
<path opacity="0.6" d="M346.517 233.192L347.039 105.765C347.046 103.892 347.545 102.053 348.486 100.433C349.428 98.8135 350.779 97.4697 352.403 96.5367C354.028 95.6037 355.869 95.1141 357.742 95.1172C359.616 95.1203 361.455 95.6158 363.077 96.5542L473.663 160.48C476.912 162.362 479.607 165.067 481.478 168.323C483.349 171.578 484.329 175.268 484.321 179.023V306.767C484.321 308.644 483.826 310.488 482.887 312.113C481.948 313.738 480.598 315.088 478.972 316.026C477.346 316.964 475.502 317.457 473.624 317.456C471.747 317.455 469.904 316.959 468.279 316.019L357.198 251.786C353.938 249.901 351.234 247.189 349.359 243.924C347.483 240.659 346.503 236.957 346.517 233.192V233.192Z" stroke="url(#paint12_linear_6985_30950)" stroke-width="2.49317" stroke-linecap="round" stroke-linejoin="round"/>
<path opacity="0.6" d="M2.00021 -18.7398L2.51814 108.682C2.52624 110.554 3.02571 112.391 3.96661 114.009C4.90752 115.627 6.25687 116.97 7.87965 117.903C9.50243 118.836 11.3418 119.327 13.2137 119.326C15.0855 119.325 16.9244 118.832 18.5462 117.898L129.109 53.972C132.356 52.0953 135.052 49.3973 136.926 46.149C138.8 42.9006 139.786 39.2164 139.785 35.4663V-92.3102C139.786 -94.1871 139.293 -96.0312 138.354 -97.6567C137.416 -99.2823 136.066 -100.632 134.44 -101.57C132.814 -102.508 130.97 -103.001 129.093 -103C127.216 -102.999 125.373 -102.503 123.748 -101.563L12.6622 -37.3342C9.40567 -35.4475 6.70486 -32.7346 4.83273 -29.4696C2.96061 -26.2047 1.98352 -22.5034 2.00021 -18.7398V-18.7398Z" stroke="url(#paint13_linear_6985_30950)" stroke-width="2.49317" stroke-linecap="round" stroke-linejoin="round"/>
<path opacity="0.6" d="M202 151.26L202.518 278.682C202.526 280.554 203.026 282.391 203.967 284.009C204.908 285.627 206.257 286.97 207.88 287.903C209.502 288.836 211.342 289.327 213.214 289.326C215.086 289.325 216.924 288.832 218.546 287.898L329.109 223.972C332.356 222.095 335.052 219.397 336.926 216.149C338.8 212.901 339.786 209.216 339.785 205.466V77.6898C339.786 75.8129 339.293 73.9688 338.354 72.3433C337.416 70.7177 336.066 69.368 334.44 68.43C332.814 67.492 330.97 66.9988 329.093 67C327.216 67.0012 325.373 67.4968 323.748 68.437L212.662 132.666C209.406 134.552 206.705 137.265 204.833 140.53C202.961 143.795 201.984 147.497 202 151.26V151.26Z" stroke="url(#paint14_linear_6985_30950)" stroke-width="2.49317" stroke-linecap="round" stroke-linejoin="round"/>
</g>
<defs>
<linearGradient id="paint0_linear_6985_30950" x1="895.203" y1="200.287" x2="757.399" y2="200.287" gradientUnits="userSpaceOnUse">
<stop stop-color="#20BCE2" stop-opacity="0"/>
<stop offset="1" stop-color="#E512F3" stop-opacity="0.2"/>
</linearGradient>
<linearGradient id="paint1_linear_6985_30950" x1="1239.17" y1="227.414" x2="1101.37" y2="227.414" gradientUnits="userSpaceOnUse">
<stop stop-color="#E512F3" stop-opacity="0.1"/>
<stop offset="1" stop-color="#20BCE2" stop-opacity="0.2"/>
</linearGradient>
<linearGradient id="paint2_linear_6985_30950" x1="1265.91" y1="157.842" x2="1351.36" y2="157.842" gradientUnits="userSpaceOnUse">
<stop stop-color="#E512F3"/>
<stop offset="0.58" stop-color="#20BCE2" stop-opacity="0.4"/>
<stop offset="1" stop-color="#20BCE2" stop-opacity="0"/>
</linearGradient>
<linearGradient id="paint3_linear_6985_30950" x1="1317.31" y1="150.635" x2="1331.58" y2="150.635" gradientUnits="userSpaceOnUse">
<stop stop-color="#E512F3"/>
<stop offset="0.58" stop-color="#20BCE2" stop-opacity="0.4"/>
<stop offset="1" stop-color="#20BCE2" stop-opacity="0"/>
</linearGradient>
<linearGradient id="paint4_linear_6985_30950" x1="1285.71" y1="168.878" x2="1299.98" y2="168.878" gradientUnits="userSpaceOnUse">
<stop stop-color="#E512F3"/>
<stop offset="0.58" stop-color="#20BCE2" stop-opacity="0.4"/>
<stop offset="1" stop-color="#20BCE2" stop-opacity="0"/>
</linearGradient>
<linearGradient id="paint5_linear_6985_30950" x1="1274.29" y1="157.547" x2="1342.97" y2="157.547" gradientUnits="userSpaceOnUse">
<stop stop-color="#E512F3"/>
<stop offset="0.58" stop-color="#20BCE2" stop-opacity="0.4"/>
<stop offset="1" stop-color="#20BCE2" stop-opacity="0"/>
</linearGradient>
<linearGradient id="paint6_linear_6985_30950" x1="1240.2" y1="227.414" x2="1101.47" y2="227.414" gradientUnits="userSpaceOnUse">
<stop stop-color="#E512F3" stop-opacity="0.5"/>
<stop offset="0.59" stop-color="#20BCE2" stop-opacity="0.5"/>
<stop offset="1" stop-color="#20BCE2" stop-opacity="0"/>
</linearGradient>
<linearGradient id="paint7_linear_6985_30950" x1="1377.79" y1="151.692" x2="1239.06" y2="151.692" gradientUnits="userSpaceOnUse">
<stop stop-color="#20BCE2" stop-opacity="0"/>
<stop offset="0.42" stop-color="#20BCE2" stop-opacity="0.4"/>
<stop offset="0.99" stop-color="#E512F3" stop-opacity="0.4"/>
</linearGradient>
<linearGradient id="paint8_linear_6985_30950" x1="895.67" y1="200.287" x2="756.933" y2="200.287" gradientUnits="userSpaceOnUse">
<stop stop-color="#8069EA" stop-opacity="0"/>
<stop offset="1" stop-color="#E512F3" stop-opacity="0.6"/>
</linearGradient>
<linearGradient id="paint9_linear_6985_30950" x1="1135.98" y1="62.0869" x2="1205.17" y2="-57.7571" gradientUnits="userSpaceOnUse">
<stop stop-color="#20BCE2" stop-opacity="0"/>
<stop offset="0.47" stop-color="#20BCE2" stop-opacity="0.16"/>
<stop offset="0.99" stop-color="#E512F3" stop-opacity="0.3"/>
</linearGradient>
<linearGradient id="paint10_linear_6985_30950" x1="1378" y1="76.4495" x2="1239.27" y2="76.4495" gradientUnits="userSpaceOnUse">
<stop offset="0.01" stop-color="#E512F3" stop-opacity="0"/>
<stop offset="0.58" stop-color="#20BCE2" stop-opacity="0.4"/>
<stop offset="1" stop-color="#20BCE2" stop-opacity="0"/>
</linearGradient>
<linearGradient id="paint11_linear_6985_30950" x1="1571.79" y1="12.749" x2="1250.77" y2="12.749" gradientUnits="userSpaceOnUse">
<stop offset="0.01" stop-color="#E512F3" stop-opacity="0.3"/>
<stop offset="0.58" stop-color="#20BCE2" stop-opacity="0.4"/>
<stop offset="1" stop-color="#20BCE2" stop-opacity="0"/>
</linearGradient>
<linearGradient id="paint12_linear_6985_30950" x1="346.05" y1="206.287" x2="484.787" y2="206.287" gradientUnits="userSpaceOnUse">
<stop stop-color="#8069EA" stop-opacity="0"/>
<stop offset="1" stop-color="#E512F3" stop-opacity="0.6"/>
</linearGradient>
<linearGradient id="paint13_linear_6985_30950" x1="105.742" y1="68.0869" x2="36.548" y2="-51.7571" gradientUnits="userSpaceOnUse">
<stop stop-color="#20BCE2" stop-opacity="0"/>
<stop offset="0.47" stop-color="#20BCE2" stop-opacity="0.16"/>
<stop offset="0.99" stop-color="#E512F3" stop-opacity="0.3"/>
</linearGradient>
<linearGradient id="paint14_linear_6985_30950" x1="305.742" y1="238.087" x2="236.548" y2="118.243" gradientUnits="userSpaceOnUse">
<stop stop-color="#20BCE2" stop-opacity="0"/>
<stop offset="0.47" stop-color="#20BCE2" stop-opacity="0.16"/>
<stop offset="0.99" stop-color="#E512F3" stop-opacity="0.3"/>
</linearGradient>
</defs>
</svg>
