<?xml version="1.0" encoding="UTF-8"?><svg id="Layer_2" xmlns="http://www.w3.org/2000/svg" xmlns:xlink="http://www.w3.org/1999/xlink" viewBox="0 0 1571.81 450.07"><defs><style>.cls-1{fill:url(#linear-gradient-2);}.cls-1,.cls-2,.cls-3,.cls-4,.cls-5,.cls-6,.cls-7,.cls-8,.cls-9,.cls-10,.cls-11,.cls-12,.cls-13{opacity:.6;}.cls-1,.cls-2,.cls-3,.cls-4,.cls-6,.cls-7,.cls-8,.cls-9,.cls-10,.cls-11,.cls-12,.cls-13{isolation:isolate;}.cls-2{fill:url(#linear-gradient);}.cls-3{stroke:url(#linear-gradient-10);}.cls-3,.cls-4,.cls-14,.cls-15,.cls-16,.cls-17,.cls-7,.cls-8,.cls-9,.cls-10,.cls-11,.cls-12,.cls-13{stroke-linecap:round;stroke-linejoin:round;}.cls-3,.cls-4,.cls-7,.cls-8,.cls-9,.cls-10,.cls-11,.cls-12,.cls-13{fill:none;stroke-width:2.49px;}.cls-4{stroke:url(#linear-gradient-11);}.cls-14{fill:url(#linear-gradient-18);stroke:url(#linear-gradient-19);}.cls-14,.cls-15,.cls-16,.cls-17{stroke-width:1.83px;}.cls-15{fill:url(#linear-gradient-16);stroke:url(#linear-gradient-17);}.cls-16{fill:url(#linear-gradient-14);stroke:url(#linear-gradient-15);}.cls-17{fill:url(#linear-gradient-12);stroke:url(#linear-gradient-13);}.cls-7{stroke:url(#linear-gradient-4);}.cls-8{stroke:url(#linear-gradient-3);}.cls-9{stroke:url(#linear-gradient-6);}.cls-10{stroke:url(#linear-gradient-7);}.cls-11{stroke:url(#linear-gradient-9);}.cls-12{stroke:url(#linear-gradient-8);}.cls-13{stroke:url(#linear-gradient-5);}</style><linearGradient id="linear-gradient" x1="894.45" y1="122.87" x2="756.65" y2="122.87" gradientTransform="translate(0 433.41) scale(1 -1)" gradientUnits="userSpaceOnUse"><stop offset="0" stop-color="#20bce2" stop-opacity="0"/><stop offset="1" stop-color="#e512f3" stop-opacity=".2"/></linearGradient><linearGradient id="linear-gradient-2" x1="1238.42" y1="95.75" x2="1100.62" y2="95.75" gradientTransform="translate(0 433.41) scale(1 -1)" gradientUnits="userSpaceOnUse"><stop offset="0" stop-color="#e512f3" stop-opacity=".1"/><stop offset="1" stop-color="#20bce2" stop-opacity=".2"/></linearGradient><linearGradient id="linear-gradient-3" x1="1239.45" y1="95.75" x2="1100.72" y2="95.75" gradientTransform="translate(0 433.41) scale(1 -1)" gradientUnits="userSpaceOnUse"><stop offset="0" stop-color="#e512f3" stop-opacity=".5"/><stop offset=".59" stop-color="#20bce2" stop-opacity=".5"/><stop offset="1" stop-color="#20bce2" stop-opacity="0"/></linearGradient><linearGradient id="linear-gradient-4" x1="1377.04" y1="171.45" x2="1238.31" y2="171.45" gradientTransform="translate(0 433.41) scale(1 -1)" gradientUnits="userSpaceOnUse"><stop offset="0" stop-color="#20bce2" stop-opacity="0"/><stop offset=".42" stop-color="#20bce2" stop-opacity=".4"/><stop offset=".99" stop-color="#e512f3" stop-opacity=".4"/></linearGradient><linearGradient id="linear-gradient-5" x1="894.92" y1="122.87" x2="756.18" y2="122.87" gradientTransform="translate(0 433.41) scale(1 -1)" gradientUnits="userSpaceOnUse"><stop offset="0" stop-color="#8069ea" stop-opacity="0"/><stop offset="1" stop-color="#e512f3" stop-opacity=".6"/></linearGradient><linearGradient id="linear-gradient-6" x1="1135.22" y1="261.08" x2="1204.41" y2="380.92" gradientTransform="translate(0 433.41) scale(1 -1)" gradientUnits="userSpaceOnUse"><stop offset="0" stop-color="#20bce2" stop-opacity="0"/><stop offset=".47" stop-color="#20bce2" stop-opacity=".16"/><stop offset=".99" stop-color="#e512f3" stop-opacity=".3"/></linearGradient><linearGradient id="linear-gradient-7" x1="1377.25" y1="246.69" x2="1238.52" y2="246.69" gradientTransform="translate(0 433.41) scale(1 -1)" gradientUnits="userSpaceOnUse"><stop offset="0" stop-color="#e512f3" stop-opacity="0"/><stop offset=".58" stop-color="#20bce2" stop-opacity=".4"/><stop offset="1" stop-color="#20bce2" stop-opacity="0"/></linearGradient><linearGradient id="linear-gradient-8" x1="1571.04" y1="310.41" x2="1250.02" y2="310.41" gradientTransform="translate(0 433.41) scale(1 -1)" gradientUnits="userSpaceOnUse"><stop offset="0" stop-color="#e512f3" stop-opacity=".3"/><stop offset=".58" stop-color="#20bce2" stop-opacity=".4"/><stop offset="1" stop-color="#20bce2" stop-opacity="0"/></linearGradient><linearGradient id="linear-gradient-9" x1="345.3" y1="116.87" x2="484.03" y2="116.87" xlink:href="#linear-gradient-5"/><linearGradient id="linear-gradient-10" x1="105" y1="255.08" x2="35.8" y2="374.92" xlink:href="#linear-gradient-6"/><linearGradient id="linear-gradient-11" x1="305" y1="85.08" x2="235.8" y2="204.92" xlink:href="#linear-gradient-6"/><linearGradient id="linear-gradient-12" x1="1262.45" y1="266.81" x2="1357" y2="266.81" gradientTransform="matrix(1, 0, 0, 1, 0, 0)" gradientUnits="userSpaceOnUse"><stop offset=".02" stop-color="#e512f3"/><stop offset=".34" stop-color="#b33def" stop-opacity=".62"/><stop offset=".51" stop-color="#e512f3"/><stop offset=".65" stop-color="#ad43ee" stop-opacity=".61"/><stop offset="1" stop-color="#20bce2" stop-opacity=".4"/><stop offset="1" stop-color="#20bce2" stop-opacity="0"/></linearGradient><linearGradient id="linear-gradient-13" x1="1261.54" y1="266.81" x2="1357.91" y2="266.81" gradientTransform="matrix(1, 0, 0, 1, 0, 0)" gradientUnits="userSpaceOnUse"><stop offset="0" stop-color="#e512f3"/><stop offset=".58" stop-color="#20bce2" stop-opacity=".4"/><stop offset="1" stop-color="#20bce2" stop-opacity="0"/></linearGradient><linearGradient id="linear-gradient-14" x1="1284.26" y1="267.39" x2="1352.7" y2="267.39" xlink:href="#linear-gradient-13"/><linearGradient id="linear-gradient-15" x1="1283.35" y1="267.39" x2="1353.61" y2="267.39" xlink:href="#linear-gradient-13"/><linearGradient id="linear-gradient-16" x1="1292.48" y1="258.76" x2="1346.42" y2="258.76" gradientTransform="matrix(1, 0, 0, 1, 0, 0)" gradientUnits="userSpaceOnUse"><stop offset=".39" stop-color="#e512f3"/><stop offset="1" stop-color="#20bce2" stop-opacity="0"/></linearGradient><linearGradient id="linear-gradient-17" x1="1291.57" y1="258.76" x2="1347.33" y2="258.76" xlink:href="#linear-gradient-13"/><linearGradient id="linear-gradient-18" x1="1292.48" y1="283.07" x2="1346.42" y2="283.07" gradientTransform="matrix(1, 0, 0, 1, 0, 0)" gradientUnits="userSpaceOnUse"><stop offset=".23" stop-color="#e512f3"/><stop offset="1" stop-color="#20bce2" stop-opacity=".4"/><stop offset="1" stop-color="#20bce2" stop-opacity="0"/></linearGradient><linearGradient id="linear-gradient-19" x1="1291.57" y1="283.07" x2="1347.33" y2="283.07" xlink:href="#linear-gradient-13"/></defs><g id="Layer_1-2"><g class="cls-5"><path class="cls-2" d="M894.45,337.44l-.52-127.43c0-1.87-.51-3.71-1.45-5.33-.94-1.62-2.29-2.96-3.92-3.9-1.62-.93-3.47-1.42-5.34-1.42-1.87,0-3.71,.5-5.34,1.44l-110.59,63.93c-3.25,1.88-5.94,4.59-7.82,7.84-1.87,3.26-2.85,6.95-2.84,10.7v127.74c0,1.88,.49,3.72,1.43,5.35,.94,1.62,2.29,2.98,3.91,3.91,1.63,.94,3.47,1.43,5.35,1.43s3.72-.5,5.35-1.44l111.08-64.23c3.26-1.88,5.96-4.6,7.84-7.86,1.88-3.26,2.86-6.97,2.84-10.73Z"/><path class="cls-1" d="M1238.42,364.57l-.52-127.42c-.01-1.87-.51-3.71-1.45-5.33-.94-1.62-2.29-2.96-3.92-3.9-1.62-.93-3.46-1.42-5.34-1.42-1.87,0-3.71,.5-5.33,1.44l-110.56,63.93c-3.25,1.88-5.95,4.58-7.82,7.83-1.88,3.25-2.86,6.93-2.86,10.68v127.77c0,1.88,.49,3.72,1.43,5.35,.94,1.62,2.29,2.98,3.91,3.91,1.63,.94,3.47,1.43,5.35,1.43,1.88,0,3.72-.5,5.35-1.44l111.08-64.23c3.26-1.89,5.96-4.6,7.84-7.86,1.87-3.26,2.85-6.96,2.84-10.73Z"/><path class="cls-8" d="M1238.97,364.57l-.52-127.42c-.01-1.87-.51-3.71-1.45-5.33-.94-1.62-2.29-2.96-3.92-3.9-1.62-.93-3.46-1.42-5.33-1.42-1.88,0-3.72,.5-5.34,1.44l-110.56,63.93c-3.25,1.88-5.95,4.58-7.82,7.83-1.87,3.25-2.86,6.93-2.86,10.68v127.77c0,1.88,.49,3.72,1.43,5.35,.94,1.62,2.29,2.98,3.92,3.91,1.62,.94,3.47,1.43,5.34,1.43,1.88,0,3.72-.5,5.35-1.44l111.08-64.23c3.26-1.88,5.97-4.6,7.84-7.86,1.88-3.26,2.86-6.97,2.84-10.73h0Z"/><path class="cls-7" d="M1376.57,288.84l-.51-127.42c-.01-1.87-.51-3.71-1.45-5.33-.95-1.62-2.3-2.96-3.92-3.9-1.63-.93-3.47-1.42-5.34-1.42-1.88,0-3.72,.5-5.34,1.44l-110.58,63.93c-3.25,1.88-5.95,4.57-7.82,7.82-1.87,3.25-2.86,6.93-2.86,10.68v127.78c-.01,1.88,.49,3.74,1.43,5.37,.94,1.63,2.29,2.99,3.93,3.93,1.63,.94,3.48,1.43,5.37,1.42,1.88,0,3.73-.51,5.35-1.46l111.06-64.23c3.26-1.88,5.96-4.6,7.84-7.86s2.86-6.97,2.84-10.73h0Z"/><path class="cls-13" d="M894.45,337.44l-.52-127.43c0-1.87-.51-3.71-1.45-5.33-.94-1.62-2.29-2.96-3.92-3.9-1.62-.93-3.47-1.42-5.34-1.42-1.87,0-3.71,.5-5.34,1.44l-110.59,63.93c-3.25,1.88-5.94,4.59-7.82,7.84-1.87,3.26-2.85,6.95-2.84,10.7v127.74c0,1.88,.49,3.72,1.43,5.35,.94,1.62,2.29,2.98,3.91,3.91,1.63,.94,3.47,1.43,5.35,1.43s3.72-.5,5.35-1.44l111.08-64.23c3.26-1.88,5.96-4.6,7.84-7.86,1.88-3.26,2.86-6.97,2.84-10.73h0Z"/><path class="cls-9" d="M1238.97,85.51l-.52,127.42c-.01,1.87-.51,3.71-1.45,5.33-.94,1.62-2.29,2.96-3.91,3.89s-3.46,1.42-5.33,1.42c-1.88,0-3.71-.49-5.34-1.43l-110.56-63.93c-3.25-1.88-5.94-4.57-7.82-7.82-1.87-3.25-2.86-6.93-2.86-10.68V11.94c0-1.88,.5-3.72,1.44-5.35,.93-1.62,2.28-2.98,3.91-3.91,1.63-.94,3.47-1.43,5.35-1.43,1.87,0,3.72,.5,5.34,1.44l111.09,64.23c3.25,1.89,5.96,4.6,7.83,7.86,1.87,3.26,2.85,6.97,2.83,10.73h0Z"/><path class="cls-10" d="M1238.97,209.98V91.55c0-1.88,.49-3.72,1.43-5.35,.94-1.63,2.29-2.98,3.92-3.91,1.62-.94,3.47-1.43,5.34-1.43,1.88,0,3.72,.5,5.35,1.44l111.1,64.26c3.26,1.88,5.96,4.6,7.84,7.86,1.87,3.27,2.85,6.97,2.83,10.73l-.51,127.42"/><path class="cls-12" d="M1570.57,30.46l-320.08,185.09"/><path class="cls-11" d="M345.76,343.44l.52-127.43c0-1.87,.51-3.71,1.45-5.33,.94-1.62,2.29-2.96,3.92-3.9,1.62-.93,3.47-1.42,5.34-1.42,1.87,0,3.71,.5,5.33,1.44l110.59,63.93c3.25,1.88,5.94,4.59,7.82,7.84,1.87,3.26,2.85,6.95,2.84,10.7v127.74c0,1.88-.5,3.72-1.43,5.35s-2.29,2.98-3.92,3.91c-1.63,.94-3.47,1.43-5.35,1.43-1.88,0-3.72-.5-5.35-1.44l-111.08-64.23c-3.26-1.88-5.96-4.6-7.84-7.86-1.88-3.26-2.86-6.97-2.84-10.73h0Z"/><path class="cls-3" d="M1.25,91.51l.52,127.42c0,1.87,.51,3.71,1.45,5.33,.94,1.62,2.29,2.96,3.91,3.89,1.62,.93,3.46,1.42,5.33,1.42,1.87,0,3.71-.49,5.33-1.43l110.56-63.93c3.25-1.88,5.94-4.57,7.82-7.82,1.87-3.25,2.86-6.93,2.86-10.68V17.94c0-1.88-.49-3.72-1.43-5.35-.94-1.63-2.29-2.98-3.91-3.91-1.63-.94-3.47-1.43-5.35-1.43s-3.72,.5-5.35,1.44L11.91,72.91c-3.26,1.89-5.96,4.6-7.83,7.86-1.87,3.26-2.85,6.97-2.83,10.73h0Z"/><path class="cls-4" d="M201.25,261.51l.52,127.42c0,1.87,.51,3.71,1.45,5.33,.94,1.62,2.29,2.96,3.91,3.89,1.62,.93,3.46,1.42,5.33,1.42,1.87,0,3.71-.49,5.33-1.43l110.56-63.93c3.25-1.88,5.94-4.57,7.82-7.82s2.86-6.93,2.86-10.68v-127.78c0-1.88-.49-3.72-1.43-5.35-.94-1.63-2.29-2.98-3.91-3.91-1.63-.94-3.47-1.43-5.35-1.43-1.88,0-3.72,.5-5.35,1.44l-111.09,64.23c-3.26,1.89-5.96,4.6-7.83,7.86-1.87,3.26-2.85,6.97-2.83,10.73h0Z"/><g><g class="cls-6"><path class="cls-17" d="M1292.73,325.43h-1.33l-1.41-.05-1.66-.05-1.85-.06-1.98-.07-3.1-.13-3.58-.17-2.38-.12-1.71-.1-1.13-.07-.67-.05-.86-.07-.24-.02-.22-.02-.37-.04-.15-.02-.12-.02-.1-.02-.67-.17-.64-.22-.61-.27-.58-.31-.56-.36-.52-.41-.49-.45-.46-.5-.43-.54-.4-.59-.37-.63-.33-.67-.3-.72-.27-.76-.23-.8-.2-.84-.15-.86-.11-.89-.06-.93-.02-.95v-20.55l.06-4.62v-11.52l.03-4.08,.04-1.09,.09-1.1,.15-1.1,.2-1.1,.25-1.1,.3-1.1,.36-1.09,.41-1.09,.46-1.08,.51-1.07,.55-1.06,.6-1.05,.65-1.04,.7-1.02,.74-1,.79-.98,.25-.29,.28-.31,.3-.32,.32-.33,.33-.33,.34-.33,.34-.32,.33-.31,.31-.29,.56-.51,1.58-1.4,.86-.78,.84-.77,.82-.76,.8-.76,.78-.75,.76-.75,.74-.74,.72-.74,.71-.73,.69-.73,.67-.73,.66-.73,.65-.73,.63-.73,.62-.73,1.15-1.4,1.09-1.39,1.04-1.38,.98-1.37,.92-1.37,.87-1.36,.82-1.36,.77-1.37,.17-.32,.34-.67,1-2.02,.46-.89,.47-.83,.47-.77,.47-.72,.48-.67,.48-.62,.47-.57,.47-.53,.46-.48,.46-.44,.45-.4,.43-.36,.42-.32,.41-.29,.39-.26,.37-.22,.38-.21,.38-.2,.38-.18,.38-.15,.65-.21,.64-.14,.61-.06h.59l1.41,.08,2.43,.11,2.43,.12,2.42,.13,2.42,.15h.15l.18-.03,.2-.05,.22-.06,.24-.08,.26-.09,.57-.22,1.73-.73,1.73-.81,1.74-.89,1.74-.97,.77-.45,1.05-.63,2-1.21,.63-.34,.63-.29,.62-.25,.61-.2,.6-.15,.59-.1,.58-.05h.56l4.41,.23,9.44,.49,3.12,.18,.46,.03h.14l.09,.03,.31,.08,.85,.23,.4,.11,.27,.09,.26,.12,.37,.23,.35,.27,.32,.3,.3,.33,.28,.36,.26,.39,.23,.42,.21,.45,.19,.47,.16,.5,.14,.53,.11,.55,.09,.58,.06,.6,.04,.62v.67l-.06,41.22v.45l-.03,.27-.02,.29-.02,.32-.03,.35-.04,.37-.05,.4-.05,.42-.06,.45-.07,.47-.09,.5-.1,.52-.11,.54-.12,.57-.14,.59-.15,.61-.17,.63-.18,.65-.2,.68-.22,.7-.24,.72-.26,.74-.28,.76-.3,.78-.32,.8-.34,.82-.36,.83-.39,.85-.41,.87-.44,.89-.6,1.16-.62,1.16-.65,1.15-.68,1.15-.7,1.15-.73,1.15-.76,1.14-.78,1.14-.81,1.14-.84,1.13-.86,1.13-.89,1.13-.91,1.12-.94,1.12-.97,1.12-.99,1.11-1.02,1.11-1.04,1.11-1.07,1.1-1.1,1.1-1.12,1.09-1.15,1.09-1.17,1.09-1.2,1.08-1.22,1.08-1.25,1.07-1.28,1.07-1.3,1.07-1.33,1.06-1.35,1.06-1.38,1.05-1.4,1.05-1.33,.98-1.37,1.01-1.37,.98-1.37,.96-1.37,.93-1.38,.9-1.38,.88-1.38,.85-1.38,.82-1.48,.83-1.44,.77-1.4,.7-1.36,.64-1.33,.57-1.29,.51-1.25,.44-1.21,.38-.18,.07-.18,.06-.49,.13-.48,.1-.69,.17-.68,.14-.39,.05h-.22l-.15,.02h-.37Zm12.27-110.21l-.61,.06-.63,.14-.65,.21-.38,.15-.38,.18-.38,.2-.38,.21-.37,.22-.39,.26-.41,.29-.42,.32-.43,.36-.45,.4-.45,.44-.46,.48-.47,.53-.47,.57-.48,.62-.48,.67-.47,.72-.47,.77-.47,.83-.46,.89-.87,1.77-.47,.92-.17,.32-.77,1.37-.82,1.36-.87,1.36-.92,1.37-.98,1.37-1.04,1.38-1.09,1.39-1.15,1.4-.62,.73-.63,.73-.65,.73-.66,.73-.67,.73-.69,.73-.71,.73-.72,.74-.74,.74-.76,.75-.78,.75-.8,.76-.82,.76-.84,.77-.86,.78-1.58,1.4-.27,.24-.29,.27-.31,.29-.33,.31-.34,.32-.34,.33-.33,.33-.32,.33-.3,.32-.28,.31-.25,.29-.79,.98-.74,1-.7,1.02-.65,1.04-.6,1.05-.55,1.06-.51,1.07-.46,1.08-.41,1.09-.36,1.09-.3,1.1-.25,1.1-.2,1.1-.15,1.1-.09,1.1-.04,1.09-.03,4.08v11.52l-.07,4.62v20.55l.03,.95,.06,.93,.11,.89,.15,.86,.2,.84,.23,.8,.27,.76,.3,.72,.33,.67,.37,.63,.4,.59,.43,.54,.46,.5,.49,.45,.52,.41,.55,.36,.58,.31,.61,.27,.64,.22,.67,.17,.1,.02,.12,.02,.15,.02,.37,.04,.22,.02,.51,.04,.59,.05,1.03,.07,.77,.05,1.71,.1,2.38,.12,2.54,.12,2.6,.11,3.52,.14,2.7,.09,1.88,.05,.92,.02h1.48l.07-.02,.32-.04,.68-.14,.69-.17,.48-.1,.49-.13,.18-.06,.18-.07,1.21-.38,1.25-.44,1.29-.51,1.33-.57,1.36-.64,1.4-.7,1.44-.77,1.48-.83,1.38-.82,1.38-.85,1.38-.88,1.38-.9,1.37-.93,1.37-.96,1.37-.98,1.37-1.01,1.33-.98,1.4-1.05,1.38-1.05,1.35-1.06,1.33-1.06,1.3-1.07,1.28-1.07,1.25-1.07,1.22-1.08,1.2-1.08,1.17-1.09,1.15-1.09,1.12-1.09,1.1-1.1,1.07-1.1,1.04-1.1,1.02-1.11,.99-1.11,.97-1.12,.94-1.12,.91-1.12,.89-1.13,.86-1.13,.84-1.13,.81-1.14,.78-1.14,.76-1.14,.73-1.15,.7-1.15,.68-1.15,.65-1.15,.62-1.16,.6-1.16,.44-.89,.41-.87,.39-.85,.36-.83,.34-.82,.32-.8,.3-.78,.28-.76,.26-.74,.24-.72,.22-.7,.2-.67,.18-.65,.17-.63,.15-.61,.14-.59,.12-.57,.11-.54,.1-.52,.09-.5,.07-.47,.06-.45,.05-.42,.05-.4,.04-.37,.03-.35,.02-.32,.02-.29v-.27l.02-.24v-.4l.08-41.03v-.67l-.05-.62-.06-.6-.09-.58-.11-.55-.14-.53-.16-.5-.19-.47-.21-.45-.23-.42-.26-.39-.28-.36-.3-.33-.32-.3-.35-.27-.37-.23-.26-.12-.36-.11-.59-.16-.69-.18-.19-.05-.09-.02h-.14l-.46-.04-1.08-.06-3.89-.21-11.99-.61h-.56l-.58,.04-.59,.1-.6,.15-.61,.2-.62,.25-.63,.29-.63,.34-.07,.04-2.73,1.65-.47,.28-.55,.32-1.74,.97-1.74,.89-1.73,.81-1.73,.73-.57,.22-.26,.09-.24,.08-.22,.06-.2,.05-.18,.02h-.15l-2.42-.15-2.42-.13-2.43-.12-2.43-.11-1.41-.07h-.59Z"/></g><g class="cls-6"><path class="cls-16" d="M1292.3,320.13l-.52-.02-.5-.04-.48-.07-.45-.09-.43-.11-.41-.13-.39-.14-.37-.16-.35-.17-.33-.19-.32-.2-.3-.21-.28-.23-.26-.24-.25-.25-.23-.26-.22-.26-.2-.27-.19-.27-.17-.28-.16-.28-.15-.29-.13-.29-.12-.29-.11-.29-.1-.28-.09-.28-.08-.28-.07-.27-.06-.27-.06-.26-.05-.25-.04-.24-.04-.23-.03-.22-.02-.21-.02-.2-.02-.18v-.17l-.03-.29v-.3l.06-41.09,.03-.84,.09-.86,.15-.88,.2-.89,.25-.9,.3-.9,.35-.9,.39-.89,.43-.87,.47-.85,.51-.82,.54-.78,.57-.74,.6-.7,.62-.65,.65-.59,1.32-1.13,1.28-1.12,1.23-1.11,1.19-1.1,1.15-1.09,1.11-1.08,1.08-1.07,1.04-1.06,1-1.05,.96-1.04,.93-1.03,.89-1.01,.86-1,.82-.99,.79-.97,.76-.96,.73-.95,.7-.93,.67-.92,.64-.9,.61-.89,.58-.87,.55-.86,.52-.84,.5-.83,.47-.81,.45-.79,.42-.78,.4-.76,.38-.74,.35-.72,.33-.71,.21-.44,.31-.59,.34-.57,.36-.55,.39-.52,.41-.49,.42-.45,.44-.41,.45-.36,.29-.2,.29-.18,.35-.18,.34-.14,.34-.1,.33-.06,.32-.02,.3,.02,.29,.07,.27,.11,.19,.14,.31,.2,.32,.19,.34,.18,.36,.16,.38,.15,.4,.13,.42,.11,.44,.1,.47,.08,.49,.06,.51,.04,.54,.02h.56l.58-.04,.61-.06,.64-.08,.66-.11,.69-.14,.72-.17,.74-.2,.77-.23,.8-.26,.83-.29,.86-.33,.89-.36,.92-.4,.96-.43,.99-.47,1.02-.51,1.05-.55,1.09-.59,1.12-.64,1.56-.92,1.62-1,.27-.17,.62-.32,.6-.24,.57-.15,.55-.07h.52l.49,.09,.45,.16,.41,.24,.37,.31,.33,.38,.29,.45,.24,.52,.19,.58,.14,.65,.09,.71,.03,.77-.07,41.21v.27l-.02,.18v.2l-.03,.23-.02,.25-.03,.28-.04,.31-.04,.33-.05,.36-.06,.38-.07,.4-.08,.43-.09,.45-.11,.47-.12,.5-.13,.52-.15,.54-.16,.56-.18,.58-.2,.6-.21,.62-.23,.64-.25,.66-.27,.68-.29,.7-.31,.72-.33,.74-.36,.76-.38,.78-.41,.79-.43,.81-.46,.83-.48,.84-.51,.86-.54,.87-.57,.89-.6,.91-.63,.92-.66,.93-.69,.95-.73,.96-.76,.97-.8,.99-.83,1-.87,1.01-.9,1.02-.94,1.04-.98,1.05-1.02,1.06-1.06,1.07-1.1,1.08-1.14,1.09-1.18,1.1-1.22,1.11-1.27,1.12-1.31,1.12-1.36,1.13-1.4,1.14-1.45,1.15-1.5,1.15-1.55,1.16-1.33,.98-1.44,1.05-1.4,1-1.36,.94-1.32,.89-1.28,.83-1.24,.78-1.2,.73-1.16,.68-1.06,.6-1.03,.56-1,.52-.97,.48-.93,.44-.9,.4-.87,.37-.84,.33-.81,.3-.78,.26-.76,.23-.73,.2-.7,.17-.67,.14-.65,.11-.62,.08-.6,.05-.57,.03h-.55Zm28.5-98.48l-.32,.02-.33,.06-.34,.1-.34,.14-.35,.18-.29,.18-.29,.2-.45,.36-.44,.41-.42,.45-.41,.49-.39,.52-.36,.55-.34,.57-.31,.59-.21,.44-.33,.71-.35,.72-.38,.74-.4,.76-.42,.78-.45,.79-.47,.81-.5,.83-.52,.84-.55,.86-.58,.87-.61,.89-.64,.9-.67,.92-.7,.93-.73,.95-.76,.96-.79,.97-.82,.99-.86,1-.89,1.01-.93,1.03-.96,1.04-1,1.05-1.04,1.06-1.08,1.07-1.11,1.08-1.15,1.09-1.19,1.1-1.23,1.11-1.28,1.12-1.32,1.13-.65,.59-.62,.65-.6,.7-.57,.74-.54,.78-.51,.82-.47,.85-.43,.87-.39,.89-.35,.9-.3,.9-.25,.9-.2,.89-.15,.88-.09,.86-.03,.84-.06,41.09v.43l.02,.15v.17l.03,.18,.02,.2,.02,.21,.03,.22,.04,.23,.04,.24,.05,.25,.06,.26,.06,.27,.07,.27,.08,.28,.09,.28,.1,.28,.11,.29,.12,.29,.13,.29,.15,.28,.16,.28,.17,.28,.19,.27,.2,.27,.22,.26,.23,.25,.25,.25,.26,.24,.28,.23,.3,.21,.32,.2,.33,.19,.35,.17,.37,.16,.39,.14,.41,.13,.43,.11,.45,.09,.48,.07,.5,.04,.52,.02h.55l.57-.03,.6-.05,.62-.08,.65-.11,.67-.14,.7-.17,.73-.2,.76-.23,.78-.26,.81-.3,.84-.33,.87-.37,.9-.4,.93-.44,.97-.48,1-.52,1.03-.56,1.06-.6,1.16-.68,1.2-.73,1.24-.78,1.28-.83,1.32-.89,1.36-.94,1.4-1,1.44-1.05,1.33-.98,1.55-1.16,1.5-1.15,1.45-1.15,1.4-1.14,1.36-1.13,1.31-1.12,1.27-1.12,1.22-1.11,1.18-1.1,1.14-1.09,1.1-1.08,1.06-1.07,1.02-1.06,.98-1.05,.94-1.03,.9-1.02,.87-1.01,.83-1,.8-.99,.76-.97,.73-.96,.69-.95,.66-.93,.63-.92,.6-.91,.57-.89,.54-.87,.51-.86,.48-.84,.46-.83,.43-.81,.41-.79,.38-.78,.36-.76,.33-.74,.31-.72,.29-.7,.27-.68,.25-.66,.23-.64,.21-.62,.2-.6,.18-.58,.16-.56,.15-.54,.13-.52,.12-.5,.11-.47,.09-.45,.08-.43,.07-.4,.06-.38,.05-.36,.04-.33,.04-.31,.03-.28,.02-.25,.02-.23v-.2l.02-.32v-.28l.07-41.05-.03-.77-.09-.71-.14-.64-.19-.58-.24-.52-.29-.45-.33-.38-.37-.31-.41-.24-.45-.16-.48-.09h-.52l-.55,.06-.57,.15-.6,.24-.62,.32-.27,.16-1.62,1-1.56,.92-1.12,.64-1.09,.59-1.05,.55-1.02,.51-.99,.47-.96,.43-.92,.4-.89,.36-.86,.33-.83,.29-.8,.26-.77,.23-.74,.2-.72,.17-.69,.14-.66,.11-.64,.08-.61,.06-.58,.03h-1.1l-.51-.05-.49-.06-.47-.08-.44-.1-.42-.11-.4-.13-.38-.15-.36-.16-.34-.18-.32-.19-.31-.2-.19-.14-.27-.11-.29-.07-.3-.02Z"/></g><g class="cls-6"><path class="cls-15" d="M1293.01,289.8h-.08l-.08-.03-.07-.03-.07-.05-.06-.05-.05-.07-.04-.08-.04-.09-.03-.1-.02-.11v-14.21l.02-.43,.02-.44,.03-.44,.04-.45,.05-.45,.06-.45,.07-.46,.08-.46,.09-.47,.1-.47,.11-.47,.12-.48,.13-.48,.14-.48,.15-.48,.15-.49,.16-.49,.17-.49,.18-.49,.19-.49,.2-.49,.21-.49,.21-.49,.22-.49,.23-.49,.24-.49,.24-.49,.25-.49,.26-.49,.27-.49,.27-.49,.28-.49,.29-.48,.29-.48,.3-.48,.31-.48,.31-.47,.32-.47,.32-.47,.33-.46,.33-.46,.34-.46,.35-.45,.35-.45,.36-.44,.36-.44,.37-.43,.37-.43,.38-.42,.38-.42,.38-.41,.39-.41,.39-.4,.4-.39,.4-.39,.4-.38,.41-.37,.41-.36,.41-.36,.42-.35,.42-.34,.42-.33,.43-.32,.45-.33,.6-.42,.59-.4,.59-.37,.58-.35,.51-.29,.51-.27,.5-.25,.5-.23,.49-.21,.48-.19,.48-.17,.47-.15,.64-.22,.65-.27,.65-.31,.65-.35,.35-.21,.35-.22,.35-.23,.35-.24,.35-.25,.34-.26,.34-.27,.34-.28,.34-.29,.34-.3,.33-.31,.33-.32,.33-.33,.33-.34,.32-.35,.78-.87,.47-.51,.47-.5,.48-.49,.49-.48,.49-.47,.5-.46,.5-.44,.61-.53,.62-.51,.63-.49,.64-.47,.6-.42,.59-.39,.59-.37,.58-.35,.75-.41,.74-.37,.72-.33,.71-.29,.7-.25,.68-.21,.67-.17,.65-.13,.63-.09,.62-.05h.6l.58,.02,.56,.07,.53,.11,.51,.14,.49,.18,.47,.22,.44,.26,.42,.3,.39,.33,.37,.37,.34,.41,.31,.44,.28,.48,.25,.52,.22,.55,.19,.59,.16,.62,.12,.66,.09,.69,.05,.73,.02,.8-.03,13.33-.02,.22-.05,.23-.08,.23-.1,.22-.13,.21-.15,.2-.16,.18-.18,.15-10.58,7.83-.14,.09-.1,.05-.1,.04-.1,.03h-.09l-.09,.02h-.08l-.08-.03-.07-.03-.07-.04-.06-.05-.05-.07-.04-.08-.03-.09-.03-.1-.02-.11v-13.75l-.06-.33-.08-.29-.11-.26-.14-.22-.17-.19-.2-.15-.22-.12-.24-.08-.26-.04h-.28l-.3,.03-.32,.07-.33,.11-.35,.15-.36,.19-.28,.17-.29,.2-.21,.15-.2,.16-.2,.17-.2,.18-.19,.19-.19,.19-.19,.2-.18,.2-.18,.21-.17,.21-.17,.22-.16,.22-.16,.23-.15,.23-.15,.23-.14,.23-.13,.24-.13,.24-.12,.24-.11,.24-.11,.24-.1,.24-.09,.24-.08,.24-.07,.23-.06,.23-.05,.23-.05,.23-.04,.22-.03,.22-.02,.21v.21l-.02,13.75-.02,.22-.05,.23-.08,.23-.1,.22-.13,.21-.15,.2-.16,.18-.18,.15-10.59,7.83-.14,.1-.1,.05-.1,.04-.09,.03h-.09l-.09,.02h-.08l-.08-.03-.07-.03-.07-.05-.06-.06-.05-.07-.04-.08-.03-.09-.03-.1-.02-.11v-13.79l-.02-.36-.05-.33-.08-.29-.11-.26-.14-.22-.17-.19-.2-.15-.22-.12-.24-.08-.26-.04h-.28l-.3,.03-.32,.07-.33,.11-.35,.15-.36,.19-.29,.18-.29,.2-.21,.16-.21,.16-.2,.17-.2,.18-.19,.19-.19,.19-.19,.2-.18,.2-.18,.21-.17,.21-.17,.22-.16,.22-.16,.23-.15,.23-.15,.23-.14,.23-.13,.24-.13,.24-.12,.24-.11,.24-.11,.24-.1,.24-.09,.24-.08,.24-.07,.24-.06,.23-.05,.23-.05,.23-.04,.22-.03,.22-.02,.22v.21l-.03,14.17-.02,.22-.05,.23-.08,.23-.1,.22-.13,.21-.15,.2-.16,.18-.18,.15-10.58,7.83-.14,.1-.1,.05-.1,.04-.1,.03h-.09l-.09,.02Zm46.63-62.07h-.6l-.62,.06-.63,.09-.65,.13-.67,.17-.68,.21-.7,.25-.71,.29-.72,.33-.74,.37-.75,.41-.58,.35-.59,.37-.59,.39-.6,.42-.64,.47-.63,.49-.62,.51-.61,.53-.5,.44-.5,.46-.49,.47-.49,.48-.48,.49-.47,.5-.47,.51-.78,.87-.32,.35-.33,.34-.33,.33-.33,.32-.34,.31-.34,.3-.34,.29-.34,.28-.34,.27-.34,.26-.35,.25-.35,.24-.35,.23-.35,.22-.35,.21-.65,.35-.65,.31-.65,.27-.64,.22-.47,.15-.48,.17-.48,.19-.49,.21-.5,.23-.5,.25-.51,.27-.51,.29-.58,.35-.59,.37-.59,.4-.6,.42-.45,.33-.43,.32-.42,.33-.42,.34-.42,.35-.41,.36-.41,.36-.41,.37-.4,.38-.4,.39-.4,.39-.39,.4-.39,.41-.38,.41-.38,.42-.38,.42-.37,.43-.37,.43-.36,.44-.36,.44-.35,.45-.35,.45-.34,.46-.33,.46-.33,.46-.32,.47-.32,.47-.31,.47-.31,.48-.3,.48-.29,.48-.29,.48-.28,.49-.27,.49-.27,.49-.26,.49-.25,.49-.24,.49-.24,.49-.23,.49-.22,.49-.21,.49-.21,.49-.2,.49-.19,.49-.18,.49-.17,.49-.16,.49-.15,.48-.15,.48-.14,.48-.13,.48-.12,.48-.11,.47-.1,.47-.09,.47-.08,.46-.07,.46-.06,.45-.05,.45-.04,.45-.03,.44-.02,.44v.43l-.03,14.09v.13l.02,.11,.03,.1,.03,.09,.04,.08,.05,.07,.06,.05,.06,.04,.07,.03,.08,.02h.26l.09-.03,.1-.04,.1-.05,.14-.09,10.58-7.83,.18-.15,.16-.18,.15-.2,.13-.21,.1-.22,.08-.23,.05-.23,.02-.22,.03-14.17v-.21l.02-.22,.03-.22,.04-.22,.05-.23,.05-.23,.06-.23,.07-.24,.08-.24,.09-.24,.1-.24,.11-.24,.11-.24,.12-.24,.13-.24,.13-.24,.14-.23,.15-.23,.15-.23,.16-.23,.16-.22,.17-.22,.17-.21,.18-.21,.18-.2,.19-.2,.19-.19,.2-.19,.2-.18,.2-.17,.21-.16,.21-.16,.29-.2,.29-.18,.36-.19,.35-.15,.33-.11,.32-.07,.3-.03h.29l.27,.05,.24,.08,.22,.12,.2,.15,.17,.19,.14,.22,.11,.26,.08,.29,.05,.33,.02,.36v13.9l.04,.1,.03,.09,.04,.08,.05,.07,.06,.05,.06,.04,.07,.03,.08,.02h.26l.09-.03,.1-.04,.1-.05,.14-.09,10.59-7.83,.18-.15,.16-.18,.15-.2,.13-.21,.1-.22,.08-.23,.05-.23,.02-.22,.02-13.75v-.21l.02-.21,.03-.22,.04-.22,.05-.23,.05-.23,.06-.23,.07-.24,.08-.24,.09-.24,.1-.24,.11-.24,.11-.24,.12-.24,.13-.24,.14-.24,.14-.23,.15-.23,.15-.23,.16-.23,.16-.22,.17-.22,.17-.21,.18-.21,.18-.2,.19-.2,.19-.19,.2-.19,.2-.18,.2-.17,.2-.16,.21-.15,.29-.2,.28-.17,.36-.19,.35-.15,.33-.11,.32-.07,.3-.03h.29l.27,.05,.24,.08,.22,.12,.2,.15,.17,.19,.14,.22,.12,.26,.08,.29,.05,.33,.02,.36v13.49l.03,.1,.03,.08,.04,.08,.05,.07,.06,.05,.06,.04,.07,.03,.08,.02h.26l.09-.03,.1-.04,.1-.05,.14-.09,10.58-7.83,.18-.15,.16-.18,.15-.2,.13-.21,.1-.22,.08-.23,.05-.23,.02-.22,.02-5.14v-8.99l-.06-.73-.09-.69-.12-.66-.16-.62-.19-.59-.22-.55-.25-.52-.28-.48-.31-.44-.34-.41-.36-.37-.39-.33-.42-.3-.44-.26-.47-.22-.49-.18-.51-.14-.53-.11-.56-.07-.58-.03Z"/></g><g class="cls-6"><path class="cls-14" d="M1299.26,310.4l-.58-.03-.56-.07-.54-.11-.51-.14-.49-.18-.47-.22-.44-.26-.42-.29-.39-.33-.37-.37-.34-.41-.31-.44-.28-.48-.25-.52-.22-.55-.19-.59-.16-.62-.12-.66-.09-.69-.05-.73-.02-.81,.02-5.91,.02-.22,.05-.23,.08-.23,.1-.22,.13-.21,.15-.2,.16-.18,.18-.15,10.59-7.83,.14-.09,.1-.05,.1-.04,.1-.03h.09l.09-.02h.08l.08,.03,.07,.03,.07,.05,.06,.06,.05,.07,.04,.08,.04,.09,.03,.1,.02,.11v6.33l.06,.33,.08,.29,.11,.26,.14,.22,.17,.19,.2,.15,.22,.12,.24,.08,.27,.04h.28l.3-.03,.32-.07,.33-.11,.35-.15,.36-.19,.28-.17,.29-.2,.21-.16,.21-.16,.2-.17,.2-.18,.19-.19,.19-.19,.19-.2,.18-.2,.18-.21,.17-.21,.17-.22,.16-.22,.16-.23,.15-.23,.15-.23,.14-.24,.13-.24,.13-.24,.12-.24,.11-.24,.11-.24,.1-.24,.09-.24,.08-.24,.07-.24,.06-.23,.06-.23,.05-.23,.04-.22,.03-.22,.02-.22v-.21l.02-6.32,.02-.22,.05-.23,.08-.23,.1-.22,.13-.21,.15-.2,.16-.18,.18-.15,10.58-7.83,.14-.09,.1-.05,.1-.04,.1-.03,.09-.02h.17l.08,.03,.07,.03,.07,.04,.06,.06,.05,.07,.04,.08,.03,.09,.03,.1,.02,.11v6.36l.02,.37,.05,.33,.08,.3,.11,.26,.14,.22,.17,.19,.2,.15,.22,.12,.24,.08,.27,.04h.28l.3-.03,.32-.07,.33-.11,.35-.15,.36-.19,.28-.17,.29-.2,.21-.15,.2-.16,.2-.17,.2-.18,.19-.19,.19-.19,.19-.2,.18-.2,.18-.21,.17-.21,.17-.22,.16-.22,.16-.23,.15-.23,.15-.23,.14-.23,.13-.24,.13-.24,.12-.24,.11-.24,.11-.24,.1-.24,.09-.24,.08-.24,.07-.23,.06-.23,.06-.23,.05-.23,.04-.22,.03-.22,.02-.21v-.21l.03-6.75,.02-.22,.05-.23,.08-.23,.1-.22,.13-.21,.15-.2,.16-.18,.18-.15,10.58-7.83,.14-.09,.1-.05,.1-.04,.1-.03h.09l.09-.02h.08l.08,.03,.07,.03,.07,.05,.06,.06,.05,.07,.04,.08,.03,.09,.03,.1,.02,.11v.12l-.02,6.68v.43l-.02,.44-.03,.44-.04,.45-.05,.45-.06,.45-.07,.46-.08,.46-.09,.47-.1,.47-.11,.47-.12,.48-.13,.48-.14,.48-.15,.48-.15,.49-.16,.49-.17,.49-.18,.49-.19,.49-.2,.49-.21,.49-.21,.49-.22,.49-.23,.49-.24,.49-.24,.49-.25,.49-.26,.49-.27,.49-.27,.49-.28,.49-.29,.48-.29,.48-.3,.48-.31,.48-.31,.47-.32,.47-.32,.47-.33,.46-.33,.46-.34,.46-.35,.45-.35,.45-.36,.44-.36,.44-.37,.43-.37,.43-.38,.42-.38,.42-.38,.41-.39,.41-.39,.4-.4,.39-.4,.39-.4,.38-.41,.37-.41,.36-.41,.36-.42,.35-.42,.34-.42,.33-.43,.32-.45,.32-.6,.42-.6,.4-.59,.37-.58,.35-.51,.29-.5,.27-.5,.25-.49,.23-.49,.21-.48,.19-.47,.17-.47,.15-.64,.22-.65,.27-.65,.31-.65,.35-.35,.21-.35,.22-.35,.23-.35,.24-.35,.25-.34,.26-.34,.27-.34,.28-.34,.29-.34,.3-.33,.31-.33,.32-.33,.33-.33,.34-.32,.35-.32,.35-.46,.52-.47,.51-.47,.5-.48,.49-.49,.48-.49,.47-.5,.45-.5,.44-.62,.52-.62,.5-.63,.49-.63,.47-.6,.42-.59,.39-.59,.37-.58,.34-.75,.41-.74,.37-.73,.33-.71,.29-.7,.25-.68,.21-.67,.17-.65,.13-.63,.09-.62,.05h-.6Zm5.3-24.07h-.09l-.09,.02-.1,.03-.1,.04-.1,.05-.14,.09-10.59,7.83-.18,.15-.16,.18-.15,.2-.13,.21-.1,.22-.08,.23-.05,.23-.02,.22-.02,5.96,.02,.76,.05,.73,.09,.69,.12,.66,.16,.62,.19,.59,.22,.55,.25,.52,.28,.48,.31,.44,.34,.41,.36,.37,.39,.33,.42,.29,.44,.26,.47,.22,.49,.18,.51,.14,.54,.11,.56,.07,.58,.03h.6l.61-.06,.63-.09,.65-.13,.67-.17,.68-.21,.7-.25,.71-.29,.73-.33,.74-.37,.75-.41,.58-.34,.59-.37,.59-.39,.6-.42,.63-.47,.63-.49,.62-.5,.62-.52,.5-.44,.5-.45,.49-.47,.49-.48,.48-.49,.47-.5,.47-.51,.78-.87,.32-.35,.33-.34,.33-.33,.33-.32,.33-.31,.34-.3,.34-.29,.34-.28,.34-.27,.34-.26,.35-.25,.35-.24,.35-.23,.35-.22,.35-.21,.65-.35,.65-.31,.65-.27,.64-.22,.47-.15,.47-.17,.48-.19,.49-.21,.49-.23,.5-.25,.5-.27,.51-.29,.58-.35,.59-.37,.6-.4,.6-.42,.45-.32,.43-.32,.42-.33,.42-.34,.42-.35,.41-.36,.41-.36,.41-.37,.4-.38,.4-.39,.4-.39,.39-.4,.39-.41,.38-.41,.38-.42,.38-.42,.37-.43,.37-.43,.36-.44,.36-.44,.35-.45,.35-.45,.34-.46,.33-.46,.33-.46,.32-.47,.32-.47,.31-.47,.31-.48,.3-.48,.29-.48,.29-.48,.28-.49,.27-.49,.27-.49,.26-.49,.25-.49,.24-.49,.24-.49,.23-.49,.22-.49,.21-.49,.21-.49,.2-.49,.19-.49,.18-.49,.17-.49,.16-.49,.15-.48,.15-.48,.14-.48,.13-.48,.12-.48,.11-.47,.1-.47,.09-.47,.08-.46,.07-.46,.06-.45,.05-.45,.04-.45,.03-.44,.02-.44v-.43l.03-6.68v-.12l-.02-.11-.03-.1-.03-.09-.04-.08-.05-.07-.06-.05-.06-.04-.07-.03-.08-.02h-.26l-.1,.03-.1,.04-.1,.05-.14,.09-10.58,7.83-.18,.15-.16,.18-.15,.2-.13,.21-.1,.22-.08,.23-.05,.23-.02,.22-.03,6.75v.21l-.02,.22-.03,.22-.04,.22-.05,.23-.06,.23-.06,.23-.07,.24-.08,.24-.09,.24-.1,.24-.11,.24-.11,.24-.12,.24-.13,.24-.14,.24-.14,.23-.15,.23-.15,.23-.16,.23-.16,.22-.17,.22-.17,.21-.18,.21-.18,.2-.19,.2-.19,.19-.2,.19-.2,.18-.2,.17-.2,.16-.21,.15-.29,.2-.28,.17-.36,.19-.35,.15-.33,.11-.32,.07-.3,.03h-.29l-.27-.05-.25-.08-.22-.12-.2-.15-.17-.19-.14-.23-.12-.26-.08-.3-.05-.33-.02-.37v-6.36l-.02-.11-.03-.1-.03-.09-.04-.08-.05-.07-.06-.05-.06-.04-.07-.03-.08-.02h-.26l-.1,.03-.1,.04-.1,.05-.14,.09-10.58,7.83-.18,.15-.16,.18-.15,.2-.13,.21-.1,.22-.08,.23-.05,.23-.02,.22v6.32l-.02,.21-.02,.22-.03,.22-.04,.22-.05,.23-.06,.23-.06,.23-.07,.24-.08,.24-.09,.24-.1,.24-.11,.24-.11,.24-.12,.24-.13,.24-.14,.24-.14,.24-.15,.23-.15,.23-.16,.23-.16,.22-.17,.22-.17,.21-.18,.21-.18,.2-.19,.2-.19,.19-.2,.19-.2,.18-.2,.17-.21,.16-.21,.16-.29,.2-.28,.17-.36,.19-.35,.15-.33,.11-.32,.07-.3,.03h-.29l-.27-.05-.24-.08-.22-.12-.2-.15-.17-.19-.14-.22-.12-.26-.08-.29-.05-.33-.02-.36,.02-5.85v-.12l-.02-.11-.03-.1-.03-.09-.04-.08-.05-.07-.06-.05-.06-.04-.07-.03-.08-.02h-.08Z"/></g></g></g></g></svg>