<svg width="39" height="38" viewBox="0 0 39 38" fill="none" xmlns="http://www.w3.org/2000/svg">
<path d="M19.2537 0.69873C8.76058 0.69873 0.175293 9.28401 0.175293 19.7771C0.175293 27.5536 4.77924 34.2468 11.4878 37.2324C12.6128 37.7331 14.4841 38.1791 14.4841 36.9477C14.4841 35.1461 12.7669 33.9309 11.0137 33.5162C8.95381 33.029 8.2691 31.5845 8.14606 31.2806C8.13039 31.2419 8.11741 31.2037 8.10307 31.1645C7.75637 30.2163 7.32377 29.5625 6.94582 29.1266C6.432 28.5339 4.83637 27.6226 5.57127 27.3485C6.16397 27.1274 6.54964 27.2331 7.1385 27.4642C8.08319 27.8349 8.68287 28.5674 8.93755 28.9354C9.03748 29.0798 9.12316 29.2342 9.22129 29.3798C10.7389 31.632 12.8875 31.3553 14.1376 30.9394C14.4557 30.8336 14.6828 30.4144 14.7631 30.0889C14.9676 29.2587 14.3979 28.0065 13.5679 27.8009C10.1406 26.9518 7.17071 24.7967 7.17071 18.8232C7.17071 17.8289 7.3547 16.9081 7.66956 16.0787C8.27381 14.4869 8.81016 13.5667 8.73151 11.8659C8.66077 10.336 10.1808 8.50208 11.6133 9.0439C11.7701 9.10319 11.935 9.17021 12.1084 9.2459C13.6865 9.93513 15.4317 10.212 17.1438 10.0271C17.8471 9.95107 18.5504 9.91996 19.2537 9.91996C19.8461 9.91996 20.4385 9.94204 21.0309 9.99441C22.9504 10.1641 24.8935 9.79248 26.6757 9.05981C26.8584 8.98472 27.0308 8.92069 27.1931 8.86622C28.4773 8.43542 29.8641 10.1505 29.8522 11.505C29.8355 13.4039 30.4378 14.5581 30.9926 16.3743C31.222 17.1252 31.3367 17.9455 31.3367 18.8232C31.3367 23.9816 29.122 26.2926 26.3106 27.3739C24.8738 27.9266 23.8643 30.1618 23.8643 31.7011V36.9477C23.8643 38.1791 25.7356 37.7331 26.8606 37.2324C33.5692 34.2468 38.1731 27.5536 38.1731 19.7771C38.3321 9.28401 29.7468 0.69873 19.2537 0.69873Z" fill="#0D082B"/>
</svg>
