<svg width="34" height="29" viewBox="0 0 34 29" fill="none" xmlns="http://www.w3.org/2000/svg">
<path d="M12.8429 26.9174C13.0016 25.3295 13.0016 23.9005 13.1604 22.3126C13.1604 21.5187 13.3192 20.566 13.3192 19.7721C13.3192 19.2957 13.478 18.9781 13.7956 18.5018C18.4003 14.3734 23.0051 10.245 27.6098 6.11664C27.7686 5.95785 27.9274 5.95783 27.9274 5.79905C28.0862 5.48148 28.0862 5.32272 27.7686 5.32272C27.451 5.32272 26.9747 5.48149 26.8159 5.64028C25.228 6.59299 23.799 7.5457 22.2111 8.4984C17.924 11.1977 13.6368 13.8971 9.3496 16.5964C9.03203 16.7552 8.87325 16.7552 8.39689 16.7552C6.01513 15.9613 3.63336 15.3261 1.2516 14.5322C1.09281 14.5322 0.775243 14.3734 0.616459 14.2146C-0.177463 13.7383 -0.177463 13.1031 0.457674 12.6268C0.775243 12.3092 1.2516 12.1504 1.72795 11.9917C4.2685 11.0389 6.65027 10.0862 9.19081 9.13353C16.6537 6.27541 24.1165 3.4173 31.5794 0.559185C31.897 0.4004 32.3733 0.400391 32.6909 0.400391C33.8024 0.400391 34.12 1.35309 33.9612 2.3058C33.6436 3.89364 33.326 5.48148 33.0085 7.06933C32.0558 11.8329 30.9443 16.4376 29.9916 21.2012C29.5152 23.2653 29.1976 25.1707 28.7213 27.2349V27.3937C28.2449 29.1404 26.9747 29.1404 25.8632 28.3464C23.9578 26.9174 22.0523 25.4883 20.1469 24.0592C19.6706 23.5829 19.0354 23.2653 18.5591 22.789C18.4003 22.6302 18.2415 22.6302 18.0827 22.789C16.8125 24.0593 15.5422 25.1707 14.4307 26.441C13.7956 26.5998 13.3192 26.9174 12.8429 26.9174Z" fill="#0D082B"/>
</svg>
