<svg width="37" height="30" viewBox="0 0 37 30" fill="none" xmlns="http://www.w3.org/2000/svg">
<path fill-rule="evenodd" clip-rule="evenodd" d="M11.2579 23.13C7.46846 22.9577 5.05697 20.2017 4.36798 17.9625C5.40147 18.1348 6.43497 18.1348 7.46846 17.7903C7.46846 17.7903 7.46846 17.7903 7.64071 17.7903C5.57372 17.2735 3.85123 16.24 2.81774 14.3453C2.12874 13.1395 1.78425 11.9338 1.78425 10.3836C2.81774 10.9003 3.85123 11.2448 5.05698 11.2448C3.50674 10.2113 2.47324 8.66108 1.95649 6.76634C1.61199 4.87161 1.78424 3.14912 2.81774 1.42663C6.77946 6.07735 11.9469 8.83333 18.1479 9.17783C18.1479 8.83333 17.9756 8.66108 17.9756 8.31658C17.8034 6.5941 18.1479 4.87161 19.0091 3.49362C20.2149 1.59888 21.9374 0.565388 24.0043 0.22089C26.4158 -0.123608 28.6551 0.565388 30.5498 2.28788C30.722 2.46012 30.722 2.46012 30.8943 2.46012C32.4445 2.11563 33.8225 1.59888 35.2005 0.737636C35.2005 0.737636 35.2005 0.737636 35.3728 0.737636C34.856 2.46012 33.6503 3.83811 32.2723 4.69936C33.6503 4.52711 35.0283 4.18261 36.4062 3.66587C36.0618 4.01036 35.8895 4.35486 35.545 4.69936C34.6838 5.73285 33.8225 6.59409 32.789 7.28309L32.6168 7.45534C32.6168 8.48883 32.6168 9.69457 32.4445 10.7281C32.1 12.9673 31.5833 15.2065 30.5498 17.2735C29.5163 19.5128 28.1383 21.4075 26.5881 23.13C23.8321 26.0582 20.3871 27.9529 16.4254 28.8142C15.2197 29.3309 13.8417 29.3309 12.4637 29.5032C8.15745 29.6754 4.19573 28.6419 0.578509 26.2305C0.578509 26.2305 0.40625 26.2305 0.40625 26.0582C2.98998 26.4027 5.40147 26.0582 7.81295 25.0247C9.01869 24.6802 10.2244 23.9912 11.2579 23.13Z" fill="#0D082B"/>
</svg>
