<svg width="832" height="230" viewBox="0 0 832 230" fill="none" xmlns="http://www.w3.org/2000/svg">
<mask id="mask0" mask-type="alpha" maskUnits="userSpaceOnUse" x="0" y="0" width="832" height="230">
<rect width="832" height="230" rx="14" fill="#19152F"/>
</mask>
<g mask="url(#mask0)">
<g opacity="0.43">
<g opacity="0.8">
<g opacity="0.8">
<path opacity="0.8" d="M480.134 288.164L959.492 7.6709" stroke="white" stroke-miterlimit="50"/>
</g>
<g opacity="0.8">
<path opacity="0.8" d="M480.134 288.164L1142.49 390.709L1031.38 159.01L635.077 100.887L777.556 403.507L959.999 7.45361L733.128 42.6256L611.14 307.787L646.855 385.702L1331.09 278.92L1295.21 200.573L1167.35 181.121L777.556 403.828" stroke="white" stroke-miterlimit="50"/>
</g>
<g opacity="0.8">
<path opacity="0.8" d="M540.051 154.944L1330.32 279.218L1163.19 181.209L1235.96 335.13L732.875 42.2788L874.238 350.02" stroke="white" stroke-miterlimit="50"/>
</g>
<g opacity="0.8">
<path opacity="0.8" d="M538.447 155.329L443.008 212.737L477.771 287.464L539.385 155.329L609.266 307.051L443.008 211.348L1235.5 335.126L1005.85 370.301L828.416 -11.9121L959.471 6.95758L997.499 85.851L803.506 196.103L863.923 63.1173L948.624 113.131" stroke="white" stroke-miterlimit="50"/>
</g>
<g opacity="0.8">
<path opacity="0.8" d="M647.045 381.979L706.314 252.793L931.18 381.979L1030.43 158.658L799.022 195.143L634.655 100.47L862.253 64.413L733.393 42.6499" stroke="white" stroke-miterlimit="50"/>
</g>
<g opacity="0.8">
<path opacity="0.8" d="M493.122 184.292L827.654 376.939" stroke="white" stroke-miterlimit="50"/>
</g>
<g opacity="0.4">
<path opacity="0.4" d="M544.802 295.469L607.215 165.037" stroke="white" stroke-miterlimit="50"/>
</g>
<g opacity="0.4">
<path opacity="0.4" d="M461.861 248.848L689.921 215.845" stroke="white" stroke-miterlimit="50"/>
</g>
<g opacity="0.4">
<path opacity="0.4" d="M706.75 253.134L541.252 155.455" stroke="white" stroke-miterlimit="50"/>
</g>
<g opacity="0.8">
<path opacity="0.8" d="M1235.5 332.693L1296.5 202.045L609.562 308.789L706.21 252.376L478.565 287.399" stroke="white" stroke-miterlimit="50"/>
</g>
<g opacity="0.8">
<path opacity="0.8" d="M647.159 384.708L1032.28 159.747" stroke="white" stroke-miterlimit="50"/>
</g>
<g opacity="0.4">
<path opacity="0.4" d="M634.265 100.525L829.11 -13" stroke="white" stroke-miterlimit="50"/>
</g>
<g opacity="0.4">
<path opacity="0.4" d="M684.198 70.1694L1188.26 363.636" stroke="white" stroke-miterlimit="50"/>
</g>
<g opacity="0.8">
<path opacity="0.8" d="M1142.82 389.918L803.526 195.956" stroke="white" stroke-miterlimit="50"/>
</g>
<g opacity="0.4">
<path opacity="0.4" d="M443 211.928L899.571 140.47" stroke="white" stroke-miterlimit="50"/>
</g>
<g opacity="0.8">
<path opacity="0.8" d="M822.222 234.65C825.545 234.21 1051.04 199.915 1051.04 199.915" stroke="white" stroke-miterlimit="50"/>
</g>
<g opacity="0.8">
<path opacity="0.8" d="M769.949 120.159L997.375 85.4951L830.408 -11.8032" stroke="white" stroke-miterlimit="50"/>
</g>
<g opacity="0.4">
<path opacity="0.4" d="M997.375 84.4993L862.809 64.7254L781.554 16.0801" stroke="white" stroke-miterlimit="50"/>
</g>
</g>
<g opacity="0.8">
<g opacity="0.8">
<path opacity="0.8" d="M601.481 165.722C601.481 164.209 603.811 162.983 606.685 162.983C609.559 162.983 611.889 164.209 611.889 165.722C611.889 167.235 609.559 168.462 606.685 168.462C603.811 168.462 601.481 167.235 601.481 165.722Z" fill="white"/>
</g>
<g opacity="0.8">
<path opacity="0.8" d="M730.77 185.993C730.77 184.479 733.1 183.253 735.974 183.253C738.849 183.253 741.179 184.479 741.179 185.993C741.179 187.506 738.849 188.732 735.975 188.732C733.1 188.732 730.771 187.506 730.771 185.993H730.77Z" fill="white"/>
</g>
<g opacity="0.4">
<path opacity="0.4" d="M683.656 215.028C683.656 213.515 685.986 212.289 688.86 212.289C691.735 212.289 694.065 213.515 694.065 215.028C694.065 216.54 691.735 217.767 688.861 217.767C685.986 217.767 683.656 216.54 683.656 215.028Z" fill="white"/>
</g>
<g opacity="0.8">
<path opacity="0.8" d="M780.076 158.053C780.076 156.54 782.406 155.313 785.28 155.313C788.155 155.313 790.484 156.54 790.484 158.053C790.484 159.566 788.155 160.792 785.28 160.792C782.406 160.792 780.076 159.566 780.076 158.053H780.076Z" fill="white"/>
</g>
<g opacity="0.4">
<path opacity="0.4" d="M763.093 120.252C763.093 118.739 765.423 117.513 768.297 117.513C771.172 117.513 773.501 118.739 773.501 120.252C773.501 121.764 771.172 122.991 768.297 122.991C765.423 122.991 763.093 121.764 763.093 120.252Z" fill="white"/>
</g>
<g opacity="0.4">
<path opacity="0.4" d="M811.302 91.7642C811.302 90.2512 813.633 89.0249 816.506 89.0249C819.381 89.0249 821.711 90.2512 821.711 91.7642C821.711 93.2766 819.381 94.5036 816.507 94.5036C813.633 94.5036 811.302 93.2766 811.302 91.7642Z" fill="white"/>
</g>
<g opacity="0.8">
<path opacity="0.8" d="M798.154 196.401C798.154 194.888 800.484 193.662 803.359 193.662C806.233 193.662 808.563 194.888 808.563 196.401C808.563 197.914 806.233 199.141 803.359 199.141C800.484 199.141 798.155 197.914 798.155 196.401H798.154Z" fill="white"/>
</g>
</g>
</g>
</g>
</svg>
