<svg width="310" height="230" viewBox="0 0 310 230" fill="none" xmlns="http://www.w3.org/2000/svg">
<mask id="mask0" mask-type="alpha" maskUnits="userSpaceOnUse" x="0" y="0" width="310" height="230">
<rect width="310" height="230" rx="14" fill="#19152F"/>
</mask>
<g mask="url(#mask0)">
<g opacity="0.43">
<g opacity="0.8">
<g opacity="0.8">
<path opacity="0.8" d="M41.4917 264.411L331.832 94.52" stroke="white" stroke-width="0.605686" stroke-miterlimit="50"/>
</g>
<g opacity="0.8">
<path opacity="0.8" d="M41.4917 264.41L442.669 326.521L375.376 186.184L135.338 150.98L221.636 334.272L332.139 94.3882L194.726 115.691L120.84 276.296L142.472 323.488L556.906 258.811L535.169 211.358L457.73 199.576L221.636 334.467" stroke="white" stroke-width="0.605686" stroke-miterlimit="50"/>
</g>
<g opacity="0.8">
<path opacity="0.8" d="M77.7825 183.721L556.44 258.992L455.21 199.629L499.284 292.857L194.573 115.481L280.195 301.876" stroke="white" stroke-width="0.605686" stroke-miterlimit="50"/>
</g>
<g opacity="0.8">
<path opacity="0.8" d="M76.8111 183.954L19.0046 218.726L40.0604 263.987L77.3791 183.954L119.705 275.85L19.0046 217.884L499.009 292.855L359.91 314.16L252.441 82.6587L331.819 94.0878L354.852 141.872L237.353 208.651L273.947 128.103L325.249 158.395" stroke="white" stroke-width="0.605686" stroke-miterlimit="50"/>
</g>
<g opacity="0.8">
<path opacity="0.8" d="M142.587 321.233L178.486 242.987L314.684 321.233L374.8 185.97L234.638 208.069L135.083 150.727L272.936 128.888L194.887 115.706" stroke="white" stroke-width="0.605686" stroke-miterlimit="50"/>
</g>
<g opacity="0.8">
<path opacity="0.8" d="M49.3581 201.497L251.98 318.18" stroke="white" stroke-width="0.605686" stroke-miterlimit="50"/>
</g>
<g opacity="0.4">
<path opacity="0.4" d="M80.6603 268.835L118.463 189.834" stroke="white" stroke-width="0.605686" stroke-miterlimit="50"/>
</g>
<g opacity="0.4">
<path opacity="0.4" d="M30.4236 240.598L168.556 220.608" stroke="white" stroke-width="0.605686" stroke-miterlimit="50"/>
</g>
<g opacity="0.4">
<path opacity="0.4" d="M178.75 243.193L78.51 184.03" stroke="white" stroke-width="0.605686" stroke-miterlimit="50"/>
</g>
<g opacity="0.8">
<path opacity="0.8" d="M499.009 291.382L535.955 212.25L119.884 276.903L178.422 242.735L40.541 263.948" stroke="white" stroke-width="0.605686" stroke-miterlimit="50"/>
</g>
<g opacity="0.8">
<path opacity="0.8" d="M142.656 322.886L375.917 186.63" stroke="white" stroke-width="0.605686" stroke-miterlimit="50"/>
</g>
<g opacity="0.4">
<path opacity="0.4" d="M134.846 150.76L252.861 82" stroke="white" stroke-width="0.605686" stroke-miterlimit="50"/>
</g>
<g opacity="0.4">
<path opacity="0.4" d="M165.09 132.375L470.391 310.123" stroke="white" stroke-width="0.605686" stroke-miterlimit="50"/>
</g>
<g opacity="0.8">
<path opacity="0.8" d="M442.869 326.042L237.365 208.562" stroke="white" stroke-width="0.605686" stroke-miterlimit="50"/>
</g>
<g opacity="0.4">
<path opacity="0.4" d="M19 218.235L295.538 174.955" stroke="white" stroke-width="0.605686" stroke-miterlimit="50"/>
</g>
<g opacity="0.8">
<path opacity="0.8" d="M248.69 231.998C250.702 231.732 387.28 210.959 387.28 210.959" stroke="white" stroke-width="0.605686" stroke-miterlimit="50"/>
</g>
<g opacity="0.4">
<path opacity="0.4" d="M337.276 181.874L298.279 260.997" stroke="white" stroke-width="0.605686" stroke-miterlimit="50"/>
</g>
<g opacity="0.8">
<path opacity="0.8" d="M217.029 162.652L354.777 141.657L253.648 82.7246" stroke="white" stroke-width="0.605686" stroke-miterlimit="50"/>
</g>
<g opacity="0.4">
<path opacity="0.4" d="M354.777 141.054L273.272 129.077L224.057 99.6133" stroke="white" stroke-width="0.605686" stroke-miterlimit="50"/>
</g>
</g>
<g opacity="0.8">
<g opacity="0.8">
<path opacity="0.8" d="M114.99 190.25C114.99 189.334 116.401 188.591 118.142 188.591C119.883 188.591 121.294 189.334 121.294 190.25C121.294 191.166 119.883 191.909 118.142 191.909C116.401 191.909 114.99 191.166 114.99 190.25Z" fill="white"/>
</g>
<g opacity="0.8">
<path opacity="0.8" d="M193.298 202.527C193.298 201.611 194.71 200.868 196.45 200.868C198.192 200.868 199.603 201.611 199.603 202.527C199.603 203.444 198.192 204.186 196.451 204.186C194.71 204.186 193.299 203.444 193.299 202.527H193.298Z" fill="white"/>
</g>
<g opacity="0.4">
<path opacity="0.4" d="M164.762 220.114C164.762 219.197 166.174 218.455 167.914 218.455C169.655 218.455 171.067 219.197 171.067 220.114C171.067 221.03 169.655 221.773 167.915 221.773C166.174 221.773 164.762 221.03 164.762 220.114Z" fill="white"/>
</g>
<g opacity="0.8">
<path opacity="0.8" d="M280.235 200.868C280.235 199.952 281.646 199.209 283.387 199.209C285.128 199.209 286.539 199.952 286.539 200.868C286.539 201.785 285.128 202.527 283.387 202.527C281.646 202.527 280.235 201.785 280.235 200.868Z" fill="white"/>
</g>
<g opacity="0.8">
<path opacity="0.8" d="M223.162 185.604C223.162 184.688 224.573 183.945 226.314 183.945C228.055 183.945 229.466 184.688 229.466 185.604C229.466 186.521 228.055 187.264 226.314 187.264C224.573 187.264 223.162 186.521 223.162 185.604H223.162Z" fill="white"/>
</g>
<g opacity="0.4">
<path opacity="0.4" d="M281.562 151.759C281.562 150.843 282.973 150.1 284.714 150.1C286.455 150.1 287.866 150.843 287.866 151.759C287.866 152.675 286.455 153.418 284.714 153.418C282.973 153.418 281.562 152.675 281.562 151.759H281.562Z" fill="white"/>
</g>
<g opacity="0.8">
<path opacity="0.8" d="M292.512 174.987C292.512 174.07 293.923 173.328 295.664 173.328C297.405 173.328 298.816 174.07 298.816 174.987C298.816 175.903 297.405 176.646 295.665 176.646C293.923 176.646 292.512 175.903 292.512 174.987Z" fill="white"/>
</g>
<g opacity="0.4">
<path opacity="0.4" d="M212.876 162.709C212.876 161.793 214.287 161.05 216.028 161.05C217.769 161.05 219.18 161.793 219.18 162.709C219.18 163.625 217.769 164.368 216.028 164.368C214.287 164.368 212.876 163.625 212.876 162.709Z" fill="white"/>
</g>
<g opacity="0.4">
<path opacity="0.4" d="M242.076 145.455C242.076 144.538 243.487 143.795 245.228 143.795C246.969 143.795 248.38 144.538 248.38 145.455C248.38 146.371 246.969 147.114 245.228 147.114C243.487 147.114 242.076 146.371 242.076 145.455Z" fill="white"/>
</g>
<g opacity="0.8">
<path opacity="0.8" d="M234.112 208.832C234.112 207.915 235.523 207.172 237.264 207.172C239.005 207.172 240.416 207.915 240.416 208.832C240.416 209.748 239.005 210.491 237.264 210.491C235.523 210.491 234.112 209.748 234.112 208.832H234.112Z" fill="white"/>
</g>
<g opacity="0.8">
<path opacity="0.8" d="M263.644 191.909C263.644 190.993 265.055 190.25 266.796 190.25C268.537 190.25 269.948 190.993 269.948 191.909C269.948 192.825 268.537 193.568 266.796 193.568C265.055 193.568 263.644 192.825 263.644 191.909Z" fill="white"/>
</g>
<g opacity="0.4">
<path opacity="0.4" d="M270.871 128.769C270.871 127.852 272.282 127.109 274.023 127.109C275.764 127.109 277.176 127.852 277.176 128.769C277.176 129.685 275.764 130.428 274.024 130.428C272.282 130.428 270.871 129.685 270.871 128.769Z" fill="white"/>
</g>
</g>
</g>
</g>
</svg>
