<svg width="184" height="40" viewBox="0 0 184 40" fill="none" xmlns="http://www.w3.org/2000/svg">
<path d="M51.3329 15.7817C51.3466 15.3584 51.5179 14.9556 51.8132 14.6521C51.9648 14.5112 52.1381 14.3958 52.3264 14.3102C52.5231 14.2324 52.7309 14.1861 52.942 14.1733H58.9302C59.2456 14.1771 59.553 14.2731 59.8145 14.4495C60.0759 14.6259 60.2801 14.875 60.4016 15.166C60.4795 15.3627 60.5257 15.5705 60.5385 15.7817V17.2227H58.9646V15.7817H52.9765V23.6864H58.9646V22.2454H60.5393V23.6864C60.5356 24.0018 60.4396 24.3092 60.2632 24.5706C60.0868 24.8321 59.8377 25.0362 59.5466 25.1578C59.35 25.2357 59.1422 25.2819 58.931 25.2947H52.9428C52.6274 25.2909 52.32 25.1949 52.0586 25.0185C51.7971 24.8421 51.593 24.5931 51.4714 24.302C51.3935 24.1053 51.3473 23.8975 51.3345 23.6864V15.7817" fill="white"/>
<path d="M72.5488 14.2075V25.26H70.9749V20.5367H64.6441V25.26H63.0357V14.2075H64.6441V18.9636H70.9749V14.2075H72.5488Z" fill="white"/>
<path d="M80.2822 14.2075L84.5596 25.26H82.9857L81.993 22.7279H76.9967L76.004 25.26H74.4309L78.7083 14.2075H80.2822ZM77.6132 21.154H81.3758L79.4937 16.261L77.6132 21.154Z" fill="white"/>
<path d="M88.0155 14.2075H86.4416V25.26H88.0155V14.2075Z" fill="white"/>
<path d="M92.4644 25.26H90.8905V14.2075H92.4644L99.1026 22.7967V14.2075H100.676V25.26H99.1026L92.4644 16.6708V25.26Z" fill="white"/>
<path d="M105.125 20.5373C104.81 20.5335 104.502 20.4375 104.241 20.2611C103.979 20.0847 103.775 19.8356 103.654 19.5446C103.576 19.3479 103.53 19.1401 103.517 18.929V15.7812C103.531 15.3579 103.702 14.9551 103.997 14.6516C104.149 14.5108 104.322 14.3953 104.51 14.3098C104.707 14.2319 104.915 14.1857 105.126 14.1729H110.499C110.814 14.1766 111.121 14.2726 111.383 14.449C111.644 14.6254 111.848 14.8745 111.97 15.1655C112.048 15.3622 112.094 15.57 112.107 15.7812V17.2222H110.533V15.7812H105.16V18.929H110.532C110.848 18.9327 111.155 19.0287 111.416 19.2051C111.678 19.3815 111.882 19.6306 112.004 19.9217C112.081 20.1184 112.128 20.3261 112.14 20.5373V23.6851C112.137 24.0005 112.041 24.3079 111.864 24.5694C111.688 24.8308 111.439 25.0349 111.148 25.1565C110.951 25.2344 110.743 25.2806 110.532 25.2934H105.023C104.707 25.2897 104.4 25.1937 104.138 25.0173C103.877 24.8409 103.673 24.5918 103.551 24.3007C103.473 24.104 103.427 23.8963 103.414 23.6851V22.2441H104.988V23.6851H110.498V20.5373H105.125Z" fill="white"/>
<path d="M114.912 14.2075H122.988V15.7814H116.487V18.9636H122.03V20.5375H116.487V23.6861H122.988V25.26H114.912V14.2075Z" fill="white"/>
<path d="M125.349 15.7812C125.363 15.3579 125.534 14.9551 125.829 14.6516C125.981 14.5108 126.154 14.3953 126.342 14.3098C126.539 14.2319 126.747 14.1857 126.958 14.1729H132.946C133.262 14.1766 133.569 14.2726 133.83 14.449C134.092 14.6254 134.296 14.8745 134.418 15.1655C134.496 15.3622 134.542 15.57 134.555 15.7812V17.2222H132.981V15.7812H126.992V23.6859H132.981V22.2449H134.555V23.6859C134.552 24.0013 134.456 24.3087 134.279 24.5702C134.103 24.8316 133.854 25.0357 133.563 25.1573C133.366 25.2352 133.158 25.2814 132.947 25.2942H126.959C126.643 25.2905 126.336 25.1945 126.075 25.0181C125.813 24.8417 125.609 24.5926 125.487 24.3015C125.41 24.1048 125.363 23.8971 125.351 23.6859V15.7812" fill="white"/>
<path d="M137.052 14.2075H138.626V23.6861H144.957V14.2075H146.531V23.6861C146.527 24.0015 146.431 24.3089 146.254 24.5704C146.078 24.8319 145.829 25.036 145.538 25.1576C145.341 25.2354 145.133 25.2817 144.922 25.2945H138.591C138.276 25.2907 137.969 25.1947 137.707 25.0183C137.446 24.8419 137.242 24.5928 137.12 24.3018C137.042 24.1051 136.996 23.8973 136.983 23.6861V14.2075" fill="white"/>
<path d="M158.131 18.1431C158.131 19.6825 157.481 20.5728 156.146 20.7777L158.233 25.2608H156.488L154.435 20.8466H150.979V25.2608H149.405V14.2075H155.462C157.241 14.2075 158.131 15.0969 158.131 16.911V18.1431ZM150.945 19.2727H155.325C155.655 19.2922 155.982 19.1953 156.249 18.9989C156.456 18.7377 156.554 18.4068 156.523 18.075V16.9791C156.542 16.6486 156.445 16.3217 156.249 16.0552C155.988 15.8482 155.657 15.7502 155.325 15.7814H150.945V19.2727Z" fill="white"/>
<path d="M162.339 14.2075H160.765V25.26H162.339V14.2075Z" fill="white"/>
<path d="M164.222 14.2075H173.085V15.7814H169.458V25.26H167.884V15.7814H164.222V14.2075Z" fill="white"/>
<path d="M175.719 14.2075L178.936 19.3743L182.152 14.2075H184L179.723 20.8802V25.26H178.149V20.8802L173.871 14.2075H175.719Z" fill="white"/>
<path d="M33.1945 28.9754L17.6541 2.06299" stroke="white" stroke-width="0.387273" stroke-miterlimit="10"/>
<path d="M2.11383 11.0249L33.1947 28.9758" stroke="white" stroke-width="0.387273" stroke-miterlimit="10"/>
<path d="M33.1947 11.0249L2.11383 28.9758" stroke="white" stroke-width="0.387273" stroke-miterlimit="10"/>
<path d="M17.6541 37.9649V2.06299" stroke="white" stroke-width="0.387273" stroke-miterlimit="10"/>
<path d="M33.1947 28.9756H2.11383" stroke="white" stroke-width="0.387273" stroke-miterlimit="10"/>
<path d="M17.6549 2.06299L2.11445 28.9754" stroke="white" stroke-width="0.387273" stroke-miterlimit="10"/>
<path d="M33.1947 11.0249H2.11383" stroke="white" stroke-width="0.387273" stroke-miterlimit="10"/>
<path d="M17.6541 37.9653L33.1945 11.0249" stroke="white" stroke-width="0.387273" stroke-miterlimit="10"/>
<path d="M2.11383 11.0249L17.6543 37.9653" stroke="white" stroke-width="0.387273" stroke-miterlimit="10"/>
<path d="M33.1954 28.9754V11.0244L17.6549 2.06299L2.11445 11.0244V28.9754L17.6549 37.9649L33.1954 28.9754Z" stroke="white" stroke-width="0.387273" stroke-miterlimit="10"/>
<path d="M2.11383 20.0137H33.1947" stroke="white" stroke-width="0.387273" stroke-miterlimit="10"/>
<path d="M9.74218 33.3996L25.538 6.62891" stroke="white" stroke-width="0.387273" stroke-miterlimit="10"/>
<path d="M25.1691 33.6257L10.1106 6.40186" stroke="white" stroke-width="0.387273" stroke-miterlimit="10"/>
<path d="M25.3107 15.5337L22.7866 11.1378L12.5778 11.0249L9.77026 15.5337L25.3107 24.4951L22.5032 28.9782H12.3513L9.77026 24.4951" stroke="white" stroke-width="4.14936" stroke-miterlimit="10" stroke-linecap="round" stroke-linejoin="round"/>
<path d="M25.4244 6.62617L17.5405 2.06299L2 11.0244V28.9754L17.5405 37.9649L25.0841 33.6258" stroke="white" stroke-width="2.76624" stroke-miterlimit="10" stroke-linecap="round" stroke-linejoin="round"/>
</svg>
