<svg width="317" height="66" viewBox="0 0 317 66" fill="none" xmlns="http://www.w3.org/2000/svg">
<path d="M87.2319 25.3168C87.2557 24.5856 87.5516 23.8895 88.0618 23.3652C88.3236 23.1219 88.623 22.9225 88.9484 22.7746C89.2882 22.6401 89.6472 22.5602 90.012 22.5381H100.358C100.903 22.5446 101.434 22.7105 101.885 23.0152C102.337 23.32 102.69 23.7503 102.9 24.2532C103.034 24.593 103.114 24.952 103.136 25.3168V27.8064H100.417V25.3168H90.0715V38.9737H100.417V36.4841H103.138V38.9737C103.131 39.5186 102.965 40.0497 102.661 40.5014C102.356 40.9532 101.926 41.3058 101.423 41.5159C101.083 41.6504 100.724 41.7302 100.359 41.7524H90.0134C89.4685 41.7459 88.9374 41.58 88.4857 41.2753C88.0339 40.9705 87.6813 40.5401 87.4712 40.0373C87.3367 39.6975 87.2568 39.3385 87.2347 38.9737V25.3168" fill="white"/>
<path d="M123.887 22.5972V41.6925H121.167V33.5321H110.23V41.6925H107.451V22.5972H110.23V30.8143H121.167V22.5972H123.887Z" fill="white"/>
<path d="M137.247 22.5972L144.637 41.6925H141.918L140.203 37.3177H131.571L129.856 41.6925H127.138L134.528 22.5972H137.247ZM132.636 34.5985H139.137L135.885 26.1449L132.636 34.5985Z" fill="white"/>
<path d="M150.608 22.5972H147.889V41.6925H150.608V22.5972Z" fill="white"/>
<path d="M158.294 41.6925H155.575V22.5972H158.294L169.763 37.4367V22.5972H172.482V41.6925H169.763L158.294 26.853V41.6925Z" fill="white"/>
<path d="M180.168 33.5334C179.623 33.5269 179.092 33.361 178.641 33.0563C178.189 32.7515 177.836 32.3212 177.626 31.8183C177.492 31.4785 177.412 31.1195 177.39 30.7547V25.3163C177.413 24.5851 177.709 23.8891 178.22 23.3647C178.481 23.1214 178.781 22.922 179.106 22.7741C179.446 22.6396 179.805 22.5597 180.17 22.5376H189.452C189.997 22.5441 190.528 22.71 190.98 23.0147C191.431 23.3195 191.784 23.7498 191.994 24.2527C192.129 24.5925 192.208 24.9515 192.231 25.3163V27.8059H189.511V25.3163H180.228V30.7547H189.51C190.055 30.7612 190.586 30.9271 191.038 31.2318C191.489 31.5366 191.842 31.9669 192.052 32.4698C192.187 32.8096 192.267 33.1686 192.289 33.5334V38.9718C192.282 39.5167 192.116 40.0478 191.812 40.4995C191.507 40.9513 191.076 41.3039 190.574 41.514C190.234 41.6486 189.875 41.7284 189.51 41.7505H179.991C179.446 41.744 178.915 41.5781 178.464 41.2734C178.012 40.9686 177.659 40.5383 177.449 40.0354C177.315 39.6956 177.235 39.3366 177.213 38.9718V36.4822H179.932V38.9718H189.45V33.5334H180.168Z" fill="white"/>
<path d="M197.077 22.5972H211.03V25.3164H199.797V30.8143H209.375V33.5335H199.797V38.9733H211.03V41.6925H197.077V22.5972Z" fill="white"/>
<path d="M215.109 25.3163C215.132 24.5851 215.428 23.8891 215.939 23.3647C216.2 23.1214 216.5 22.922 216.825 22.7741C217.165 22.6396 217.524 22.5597 217.889 22.5376H228.234C228.779 22.5441 229.31 22.71 229.762 23.0147C230.214 23.3195 230.567 23.7498 230.777 24.2527C230.911 24.5925 230.991 24.9515 231.013 25.3163V27.8059H228.294V25.3163H217.948V38.9732H228.294V36.4836H231.015V38.9732C231.008 39.5181 230.842 40.0492 230.537 40.5009C230.233 40.9527 229.802 41.3053 229.299 41.5154C228.96 41.6499 228.601 41.7298 228.236 41.7519H217.89C217.345 41.7454 216.814 41.5795 216.362 41.2748C215.911 40.97 215.558 40.5397 215.348 40.0368C215.213 39.697 215.134 39.338 215.111 38.9732V25.3163" fill="white"/>
<path d="M235.328 22.5972H238.047V38.9733H248.985V22.5972H251.704V38.9733C251.698 39.5182 251.532 40.0493 251.227 40.501C250.922 40.9528 250.492 41.3054 249.989 41.5155C249.649 41.65 249.29 41.7299 248.925 41.752H237.988C237.443 41.7455 236.912 41.5796 236.46 41.2749C236.008 40.9701 235.656 40.5397 235.446 40.0369C235.311 39.6971 235.231 39.3381 235.209 38.9733V22.5972" fill="white"/>
<path d="M271.746 29.3966C271.746 32.0563 270.623 33.5944 268.317 33.9484L271.923 41.6939H268.908L265.36 34.0674H259.389V41.6939H256.67V22.5972H267.134C270.209 22.5972 271.746 24.1338 271.746 27.268V29.3966ZM259.331 31.3482H266.898C267.469 31.3819 268.034 31.2145 268.494 30.8751C268.852 30.424 269.021 29.8521 268.967 29.279V27.3855C269.001 26.8146 268.833 26.2498 268.494 25.7894C268.043 25.4318 267.471 25.2624 266.898 25.3164H259.331V31.3482Z" fill="white"/>
<path d="M279.017 22.5972H276.297V41.6925H279.017V22.5972Z" fill="white"/>
<path d="M282.27 22.5972H297.583V25.3164H291.316V41.6925H288.597V25.3164H282.27V22.5972Z" fill="white"/>
<path d="M302.133 22.5972L307.69 31.5238L313.248 22.5972H316.44L309.05 34.1255V41.6925H306.331V34.1255L298.941 22.5972H302.133Z" fill="white"/>
<path d="M55.8945 48.1116L29.0454 1.61523" stroke="white" stroke-width="0.387273" stroke-miterlimit="10"/>
<path d="M2.19653 17.0986L55.8948 48.1123" stroke="white" stroke-width="0.387273" stroke-miterlimit="10"/>
<path d="M55.8948 17.0986L2.19653 48.1123" stroke="white" stroke-width="0.387273" stroke-miterlimit="10"/>
<path d="M29.0454 63.6426V1.61523" stroke="white" stroke-width="0.387273" stroke-miterlimit="10"/>
<path d="M55.8948 48.1118H2.19653" stroke="white" stroke-width="0.387273" stroke-miterlimit="10"/>
<path d="M29.0456 1.61523L2.19653 48.1116" stroke="white" stroke-width="0.387273" stroke-miterlimit="10"/>
<path d="M55.8948 17.0986H2.19653" stroke="white" stroke-width="0.387273" stroke-miterlimit="10"/>
<path d="M29.0454 63.6434L55.8945 17.0986" stroke="white" stroke-width="0.387273" stroke-miterlimit="10"/>
<path d="M2.19653 17.0986L29.0456 63.6434" stroke="white" stroke-width="0.387273" stroke-miterlimit="10"/>
<path d="M55.8948 48.1116V17.0979L29.0456 1.61523L2.19653 17.0979V48.1116L29.0456 63.6426L55.8948 48.1116Z" stroke="white" stroke-width="0.387273" stroke-miterlimit="10"/>
<path d="M2.19653 32.6289H55.8948" stroke="white" stroke-width="0.387273" stroke-miterlimit="10"/>
<path d="M15.3762 55.7549L42.6665 9.50342" stroke="white" stroke-width="0.387273" stroke-miterlimit="10"/>
<path d="M42.0292 56.1462L16.0127 9.11182" stroke="white" stroke-width="0.387273" stroke-miterlimit="10"/>
<path d="M42.2737 24.8884L37.9127 17.2937L20.2752 17.0986L15.4246 24.8884L42.2737 40.371L37.4231 48.1165H19.8837L15.4246 40.371" stroke="white" stroke-width="4.14936" stroke-miterlimit="10" stroke-linecap="round" stroke-linejoin="round"/>
<path d="M42.4701 9.49902L28.8491 1.61523L2 17.0979V48.1116L28.8491 63.6426L41.8822 56.1461" stroke="white" stroke-width="2.76624" stroke-miterlimit="10" stroke-linecap="round" stroke-linejoin="round"/>
</svg>
