<?xml version="1.0" encoding="UTF-8"?><svg id="Layer_2" xmlns="http://www.w3.org/2000/svg" viewBox="0 0 416.85 148.53"><defs><style>.cls-1{fill:#fff;}</style></defs><g id="Layer_1-2"><g><path class="cls-1" d="M175.71,111.06l-.37-65.86c-.03-5.64,3.43-9.08,9.12-9.11,4.92-.03,7.75,2.06,9.88,7.35l22.23,44.58h.44l21.58-44.83c2.07-5.26,4.93-7.43,9.9-7.46,5.69-.03,9.08,3.32,9.11,9.01l.37,65.86c.02,4.2-2.34,6.7-6.37,6.72-4.03,.02-6.42-2.45-6.45-6.65l-.28-50.83h-.39l-20.88,42.39c-1.36,3.32-3.94,4.29-7.25,4.31-3.26,.02-4.88-.92-6.23-4.18l-21.45-42.21h-.39l.28,50.83c.02,4.2-2.39,6.7-6.43,6.72s-6.42-2.45-6.45-6.65Zm89.37-23.81c-.1-18.67,10.6-30.78,27.51-30.87,16.02-.09,27.03,11.23,27.12,27.14,.02,4.09-2.28,6.53-6.37,6.56l-34.53,.19v.44c.06,9.78,5.78,16.05,14.73,16,6.19-.03,10.21-2.21,14.6-7.87,1.43-1.61,2.7-2.22,4.63-2.24,3.09-.02,5.54,1.96,5.55,5.27,0,1.05-.32,2.27-.92,3.49-3.83,7.48-12.53,11.89-23.69,11.96-17.9,.1-28.52-11.06-28.62-30.06Zm41.13-6.2c-.32-8.51-5.77-14.06-13.5-14.01-7.74,.04-13.34,5.77-13.84,14.17l27.35-.15Zm20.89,28.78l-.26-46.63c-.02-4.31,2.61-6.98,6.54-7,3.81-.02,6.53,2.62,6.56,6.93l.03,4.48h.28c1.56-6.86,6.62-11.31,12.48-11.34,2.16-.01,3.82,.53,4.87,1.46,1.28,1.04,1.95,2.7,1.96,4.96,.01,2.15-.64,3.76-2.02,4.87-1.32,1.17-3.36,1.79-6.07,1.86-7.84,.1-10.8,5.03-10.76,12.16l.16,28.18c.03,4.53-2.72,7.25-6.87,7.28s-6.87-2.67-6.89-7.2Zm33.06-23.34c-.11-18.9,11.1-30.56,28.17-30.66,17.07-.1,28.41,11.39,28.51,30.34,.11,19.01-10.99,30.51-28.17,30.6-17.18,.1-28.41-11.28-28.51-30.29Zm42.71-.24c-.07-12.43-5.75-19.53-14.47-19.48-8.67,.05-14.32,7.21-14.25,19.64,.07,12.49,5.74,19.53,14.47,19.48s14.33-7.15,14.26-19.64Z"/><g><path class="cls-1" d="M134.52,91.26l-16.99,3.1c-.79,.14-1.38,.85-1.38,1.64l-.04,6.33c0,3.08-2.92,6.08-6.49,6.67-3.56,.59-6.49-1.44-6.48-4.55,0-.1,.01-5.63,.01-5.63,0-.97-.86-1.68-1.83-1.51l-16.99,3.09c-.79,.14-1.38,.85-1.39,1.64l-.02,5.74c0,3.09-2.92,6.08-6.5,6.68-3.56,.59-6.48-1.45-6.47-4.53l.03-5.07c0-.97-.86-1.68-1.83-1.51l-16.99,3.1c-.79,.14-1.37,.84-1.38,1.63,0,1.55-.03,2.4-.03,5.17-.04,12.7,11.91,21.07,26.63,18.65,1.37-.24,2.69-.54,4.01-.93,2.17-.63,4.24-1.47,6.21-2.51,3.98-2.08,8.52-2.9,12.83-2.07,3.11,.6,6.53,.64,10.1,.05h.03c14.71-2.43,26.7-14.74,26.72-27.43l.04-6.24c0-.98-.86-1.69-1.83-1.52Z"/><path class="cls-1" d="M146.75,32.83h0c-.26-.28-.57-.48-.85-.71-.11-.09-2.52-1.87-2.64-1.93-1.86-1.07-21.24-11.62-28.19-15.39-2.41-1.32-5.11-1.99-7.86-1.97-.22,0-3.86,.11-5.47,.11-3.91,.03-7.82-.26-11.7-.85-1.3-.21-2.34-.39-2.93-.73-5.17-2.88-10.37-5.69-15.58-8.49l-2.27-1.23c-1.24-.71-2.59-1.2-4-1.45-.81-.15-1.64-.2-2.45-.21-1.56,0-3.45,.25-5.45,1.12-2.01,.87-4.1,2.33-6.06,4.75,0,0-1.85,2.34-2.42,2.97-3.19,3.47-7.19,6.49-12.27,9.17-5.28,2.81-11.33,5.07-19.03,7.12,0,0-4.53,1.13-6.52,2.22C4.11,31.1,.24,37.59,.15,45.62c-.07,6.62-.05,13.3-.04,19.78v1.89l-.11,6.37v6.91c0,7.17,.01,14.36,.02,21.53-.01,1.84,.17,3.68,.55,5.47,1.56,7.18,5.48,13.11,11.37,17.15,2.81,1.95,36.11,19.79,37.98,20.46,.18,.06,.34,.14,.52,.2,.72,.25,1.46,.47,2.21,.67,.52,.16,1.02,.35,1.56,.47,.19,.06,.39,.07,.58,.11,5.11,1.26,10.86,1.92,17.29,1.92,5.91-.05,11.8-.5,17.65-1.36l2.14-.29c24.22-3.41,41.54-11.33,51.51-23.56,7.69-9.43,8.29-18.36,8.3-20.88l.11-57c.01-4.88-1.78-9.38-5.03-12.62Zm-1.98,69.61c0,1.5-.04,30.04-53.88,37.61l-2.14,.3c-53.81,7.54-53.75-20.99-53.75-22.48l.1-56.99c.01-6.09,4.29-11.85,9.92-13.18,22.93-5.41,34.16-14.5,39.68-22.06l.33-.45c1.29-1.57,3.06-2.68,5.02-2.95,1.82-.28,3.65,.28,5,1.54l.3,.34c5.5,6.05,16.71,11.98,39.64,10.95,5.64-.25,9.9,4.32,9.89,10.39l-.11,57Z"/><path class="cls-1" d="M109.72,42.95c-1.37,.23-2.7,.53-4.01,.93-2.17,.63-4.25,1.48-6.21,2.51-3.99,2.09-8.52,2.9-12.83,2.08-3.11-.62-6.53-.67-10.1-.07h-.04c-14.71,2.43-26.69,14.75-26.72,27.45l-.03,22.6c-.01,.98,.86,1.7,1.83,1.52l16.99-3.1c.79-.14,1.38-.84,1.38-1.63l.04-22.71c0-3.09,2.91-6.07,6.49-6.67,3.56-.6,6.48,1.45,6.47,4.53,0,.13-.01,20.53-.01,20.53v1.5c0,.98,.87,1.69,1.83,1.51l17-3.09c.79-.14,1.38-.85,1.38-1.64l.03-22.13c0-3.07,2.91-6.07,6.49-6.66,3.57-.59,6.48,1.45,6.47,4.53l-.02,21.44c-.01,.97,.86,1.69,1.82,1.51l16.99-3.1c.79-.14,1.38-.84,1.38-1.63,.01-1.54,.02-3.96,.02-5.1,.01-2.78,.02-13.68,.02-16.44,.03-12.7-11.91-21.07-26.63-18.65Z"/></g></g></g></svg>