<?xml version="1.0" encoding="UTF-8"?><svg id="Layer_2" xmlns="http://www.w3.org/2000/svg" xmlns:xlink="http://www.w3.org/1999/xlink" viewBox="0 0 416.85 148.53"><defs><style>.cls-1{fill:url(#linear-gradient);}.cls-2{fill:#fff;}</style><linearGradient id="linear-gradient" x1="15.93" y1="134.3" x2="139.67" y2="14.51" gradientTransform="matrix(1, 0, 0, 1, 0, 0)" gradientUnits="userSpaceOnUse"><stop offset="0" stop-color="#fc00ff"/><stop offset="1" stop-color="#00dbde"/></linearGradient></defs><g id="Layer_1-2"><g><path class="cls-2" d="M175.71,111.06l-.37-65.86c-.03-5.64,3.43-9.08,9.12-9.11,4.92-.03,7.75,2.06,9.88,7.35l22.23,44.58h.44l21.58-44.83c2.07-5.26,4.93-7.43,9.9-7.46,5.69-.03,9.08,3.32,9.11,9.01l.37,65.86c.02,4.2-2.34,6.7-6.37,6.72-4.03,.02-6.42-2.45-6.45-6.65l-.28-50.83h-.39l-20.87,42.39c-1.36,3.32-3.94,4.29-7.25,4.31-3.26,.02-4.88-.92-6.23-4.18l-21.45-42.21h-.39l.28,50.83c.02,4.2-2.39,6.7-6.43,6.72s-6.42-2.45-6.45-6.65Zm89.37-23.81c-.1-18.67,10.6-30.78,27.51-30.87,16.02-.09,27.03,11.23,27.12,27.14,.02,4.09-2.28,6.53-6.37,6.56l-34.53,.19v.44c.06,9.78,5.78,16.05,14.73,16,6.19-.03,10.21-2.21,14.6-7.87,1.43-1.61,2.7-2.22,4.63-2.24,3.09-.02,5.54,1.96,5.55,5.27,0,1.05-.32,2.27-.92,3.49-3.83,7.48-12.53,11.89-23.69,11.96-17.9,.1-28.52-11.06-28.62-30.06Zm41.13-6.2c-.32-8.51-5.77-14.06-13.5-14.01-7.74,.04-13.34,5.77-13.84,14.17l27.35-.15Zm20.89,28.78l-.26-46.63c-.02-4.31,2.61-6.98,6.54-7,3.81-.02,6.53,2.62,6.56,6.93l.03,4.48h.28c1.56-6.86,6.62-11.31,12.48-11.34,2.16-.01,3.82,.53,4.87,1.46,1.28,1.04,1.95,2.7,1.96,4.96,.01,2.15-.64,3.76-2.02,4.87-1.32,1.17-3.36,1.79-6.07,1.86-7.84,.1-10.8,5.03-10.76,12.16l.16,28.18c.03,4.53-2.72,7.25-6.87,7.28s-6.87-2.67-6.89-7.2Zm33.06-23.34c-.11-18.9,11.1-30.56,28.17-30.66,17.07-.1,28.41,11.39,28.51,30.34,.11,19.01-10.99,30.51-28.17,30.6-17.18,.1-28.41-11.28-28.51-30.29Zm42.71-.24c-.07-12.43-5.75-19.53-14.47-19.48-8.67,.05-14.32,7.21-14.25,19.64,.07,12.49,5.74,19.53,14.47,19.48s14.33-7.15,14.26-19.64Z"/><path class="cls-1" d="M136.35,92.78l-.04,6.24c-.02,12.69-12.01,25-26.72,27.43h-.03c-3.57,.59-6.99,.55-10.1-.05-4.31-.83-8.85-.01-12.83,2.07-1.97,1.04-4.04,1.88-6.21,2.51-1.32,.38-2.64,.69-4.01,.93-14.72,2.42-26.67-5.94-26.63-18.65,0-2.77,.03-3.63,.03-5.17,.01-.8,.59-1.49,1.38-1.63l16.99-3.1c.97-.17,1.83,.54,1.83,1.51l-.03,5.07c-.01,3.08,2.9,5.12,6.47,4.53,3.57-.6,6.5-3.58,6.5-6.68l.02-5.74c.01-.8,.6-1.5,1.39-1.64l16.99-3.09c.97-.17,1.83,.54,1.83,1.51,0,0-.01,5.53-.01,5.63-.01,3.11,2.91,5.14,6.48,4.55,3.56-.59,6.49-3.58,6.49-6.67l.04-6.33c0-.8,.59-1.5,1.38-1.64l16.99-3.1c.97-.17,1.83,.54,1.83,1.52Zm15.43-47.33l-.11,57c-.01,2.51-.61,11.45-8.3,20.88-9.97,12.23-27.29,20.15-51.51,23.56l-2.14,.29c-5.85,.86-11.75,1.31-17.65,1.36-6.44,0-12.18-.66-17.29-1.92-.19-.04-.39-.05-.58-.11-.54-.12-1.04-.31-1.56-.47-.75-.2-1.49-.42-2.21-.67-.18-.06-.34-.14-.52-.2-1.87-.67-35.17-18.51-37.98-20.46-5.89-4.04-9.81-9.97-11.37-17.15-.38-1.79-.56-3.63-.55-5.47-.01-7.17-.02-14.36-.02-21.53v-6.91l.11-6.37v-1.89c0-6.48-.03-13.16,.04-19.78,.09-8.03,3.96-14.52,10.92-18.27,1.99-1.09,6.52-2.22,6.52-2.22,7.7-2.06,13.75-4.31,19.03-7.12,5.08-2.68,9.08-5.7,12.27-9.17,.57-.63,2.42-2.97,2.42-2.97,1.96-2.42,4.05-3.88,6.06-4.75,2-.87,3.89-1.12,5.45-1.12,.82,.01,1.65,.06,2.45,.21,1.41,.25,2.76,.74,4,1.45l2.27,1.23c5.21,2.8,10.41,5.61,15.58,8.49,.59,.34,1.64,.52,2.93,.73,3.87,.59,7.78,.88,11.7,.85,1.61,0,5.25-.11,5.47-.11,2.75-.02,5.45,.65,7.86,1.97,6.95,3.77,26.33,14.32,28.19,15.39,.12,.06,2.53,1.84,2.64,1.93,.28,.23,.59,.43,.85,.7h0c3.25,3.25,5.04,7.75,5.03,12.63Zm-6.9,0c.01-6.07-4.25-10.64-9.89-10.39-22.92,1.04-34.14-4.9-39.64-10.95l-.3-.34c-1.35-1.26-3.18-1.82-5-1.54-1.96,.27-3.73,1.39-5.02,2.95l-.33,.45c-5.52,7.56-16.74,16.65-39.68,22.06-5.63,1.33-9.91,7.09-9.92,13.18l-.1,56.99c0,1.5-.06,30.03,53.75,22.48l2.14-.3c53.84-7.57,53.88-36.11,53.88-37.61l.11-57Zm-35.16-2.49c-1.37,.23-2.7,.53-4.01,.93-2.17,.63-4.25,1.48-6.21,2.51-3.99,2.09-8.52,2.9-12.83,2.08-3.11-.62-6.53-.67-10.1-.07h-.04c-14.71,2.43-26.69,14.75-26.72,27.45l-.03,22.6c-.01,.98,.86,1.7,1.83,1.52l16.99-3.1c.79-.14,1.38-.84,1.38-1.63l.04-22.71c0-3.09,2.91-6.07,6.49-6.67,3.56-.6,6.48,1.45,6.47,4.53,0,.13-.01,20.53-.01,20.53v1.5c0,.98,.87,1.69,1.83,1.51l17-3.09c.79-.14,1.38-.85,1.38-1.64l.03-22.13c0-3.07,2.91-6.07,6.49-6.66,3.57-.59,6.48,1.45,6.47,4.53l-.02,21.44c-.01,.97,.86,1.69,1.82,1.51l16.99-3.1c.79-.14,1.38-.84,1.38-1.63,.01-1.54,.02-3.96,.02-5.1,.01-2.78,.02-13.68,.02-16.44,.03-12.7-11.91-21.07-26.63-18.65Z"/></g></g></svg>