<svg width="42" height="41" viewBox="0 0 42 41" fill="none" xmlns="http://www.w3.org/2000/svg">
<path d="M40.4841 9.06023C40.4059 8.99067 40.3276 8.92981 40.2493 8.86894C40.2233 8.84286 39.5537 8.35593 39.519 8.33854C39.006 8.04291 33.6585 5.13007 31.7456 4.08667C31.0848 3.72148 30.337 3.53019 29.5718 3.53888C29.511 3.53888 28.511 3.56497 28.0589 3.56497C26.972 3.57366 25.8938 3.5041 24.8243 3.3389C24.5461 3.31281 24.2679 3.24325 24.0157 3.13891C22.5897 2.33897 21.155 1.56511 19.7204 0.791249L19.103 0.452142C18.7639 0.252156 18.39 0.121731 17.9987 0.0521702C17.7814 0.0173901 17.5553 0 17.3292 0C16.8162 0 16.3032 0.104341 15.825 0.313021C15.1642 0.608653 14.5903 1.0521 14.1555 1.62597C14.1555 1.62597 13.6425 2.26941 13.4947 2.452C12.5209 3.47802 11.3731 4.33013 10.1036 4.97356C8.43419 5.82568 6.67779 6.4865 4.86053 6.93864C4.24318 7.08646 3.64322 7.28644 3.06065 7.5473C1.17383 8.51244 0 10.4688 0.0434752 12.5817C0.0260851 14.4164 0.0434752 16.251 0.0434752 18.0422V18.5639L0 20.3203V28.1632C0 28.6675 0.0434752 29.1719 0.147816 29.6762C0.539093 31.5978 1.66075 33.2933 3.27803 34.4063C4.05189 34.9541 13.2425 39.8668 13.7642 40.0494L13.9034 40.1015C14.1034 40.1711 14.3033 40.232 14.512 40.2841C14.6511 40.3276 14.7903 40.3798 14.9381 40.4145C14.9903 40.4319 15.0424 40.4319 15.0946 40.4406C16.6597 40.8058 18.2596 40.9884 19.8682 40.971C21.4941 40.9536 23.1288 40.8319 24.7374 40.5971L25.3287 40.5189C32.0064 39.5711 36.7887 37.3974 39.5364 34.015C41.6579 31.4152 41.8231 28.9458 41.8318 28.2589L41.8579 12.5296C41.884 11.234 41.3797 9.97321 40.4667 9.05154L40.4841 9.06023Z" fill="white"/>
<path d="M39.9362 28.2589C39.9362 28.6763 39.9362 36.5366 25.0764 38.6321L24.4851 38.719C9.6601 40.8059 9.6601 32.9281 9.6601 32.5195L9.68618 16.7901C9.68618 15.112 10.8774 13.5121 12.4164 13.1556C18.7638 11.6601 21.8505 9.1559 23.3722 7.06909L23.4591 6.94736C23.7982 6.50391 24.2938 6.20828 24.8416 6.12133C25.3459 6.04308 25.8503 6.19959 26.2241 6.54739L26.3111 6.64303C27.8327 8.31248 30.9195 9.95585 37.2408 9.6776C38.7972 9.60804 39.971 10.8688 39.971 12.5383L39.9449 28.2589H39.9362Z" fill="#08041B"/>
<path d="M37.1888 17.5481V22.6608C37.1888 22.8782 37.0235 23.0608 36.8149 23.0955L32.1282 23.7564C31.8848 23.7911 31.6674 23.6259 31.6326 23.3825C31.6326 23.3651 31.6326 23.339 31.6326 23.3216V18.2437C31.6326 17.3916 30.8327 16.8003 29.8501 16.9221C28.8676 17.0438 28.059 17.835 28.059 18.6872V23.9563C28.059 24.1737 27.8938 24.365 27.6851 24.3911L22.9984 25.0519C22.755 25.0867 22.5376 24.9128 22.5028 24.678C22.5028 24.6606 22.5028 24.6346 22.5028 24.6172V19.3741C22.5028 18.5219 21.7029 17.922 20.7203 18.0524C19.7378 18.1828 18.9292 18.9654 18.9292 19.8175V25.2432C18.9292 25.4693 18.7466 25.6606 18.5118 25.6693L13.8252 26.3301C13.5817 26.3649 13.3643 26.191 13.3296 25.9562C13.3296 25.9388 13.3296 25.9127 13.3296 25.8953V20.4957C13.3296 16.9916 16.6424 13.731 20.703 13.2354C21.6333 13.1136 22.5724 13.1571 23.4854 13.3745C24.6766 13.644 25.9287 13.4875 27.0242 12.9484C27.9111 12.5224 28.8676 12.2441 29.8414 12.1224C33.9368 11.6181 37.2235 14.0701 37.2148 17.5742L37.1888 17.5481Z" fill="white"/>
<path d="M37.1888 25.3113V27.8676C37.1888 31.3717 33.876 34.6237 29.8154 35.128C28.885 35.2497 27.9459 35.2062 27.033 34.9975C25.8417 34.728 24.5897 34.8845 23.4941 35.4236C22.9463 35.6932 22.3724 35.8931 21.7812 36.041C21.416 36.1279 21.0508 36.2062 20.6769 36.2496C16.6163 36.7452 13.3209 34.3193 13.3296 30.7978V28.5371C13.3296 28.3198 13.4948 28.1285 13.7035 28.1024L18.3901 27.4416C18.6336 27.4068 18.8509 27.5807 18.8857 27.8154C18.8857 27.8328 18.8857 27.8589 18.8857 27.8763V30.1109C18.8857 30.963 19.6857 31.5543 20.6682 31.4326C21.6507 31.3109 22.4594 30.5196 22.4594 29.6675V27.2503C22.4594 27.0329 22.6246 26.8416 22.842 26.8155L27.5286 26.1547C27.772 26.1199 27.9894 26.2938 28.0242 26.5286C28.0242 26.546 28.0242 26.5721 28.0242 26.5894V28.9806C28.0242 29.8414 28.8328 30.4327 29.8154 30.3109C30.7979 30.1892 31.6066 29.3979 31.6066 28.5458V25.9634C31.6066 25.746 31.7631 25.5547 31.9804 25.5286L36.6671 24.8678C36.9105 24.8417 37.1279 25.0156 37.154 25.2591C37.154 25.2765 37.154 25.2939 37.154 25.3026L37.1888 25.3113Z" fill="white"/>
</svg>
