<svg width="49" height="48" viewBox="0 0 49 48" fill="none" xmlns="http://www.w3.org/2000/svg">
<path d="M23.8731 47.6544C21.9148 47.6544 20.0896 47.4536 18.4477 47.0602C18.3581 47.0455 18.2771 47.0295 18.1968 47.0094C18.0536 46.9733 17.9151 46.9304 17.7773 46.885L17.6388 46.8415C17.4026 46.7746 17.1665 46.7043 16.9403 46.6267C16.8734 46.6026 16.8219 46.5832 16.7724 46.5638C15.8243 46.2293 6.02938 40.9009 5.3135 40.4085C3.16516 38.9272 1.73204 36.7668 1.1687 34.1589C1.02898 33.4956 0.960122 32.8194 0.963301 32.1417C0.955718 30.0671 0.953711 27.992 0.957279 25.9161V23.929L0.987387 22.071V21.5472C0.982703 19.6818 0.97802 17.7476 0.998761 15.814C1.03154 12.7324 2.58643 10.1371 5.26465 8.69463C6.01199 8.29319 7.26513 7.95867 7.63177 7.86567C9.66904 7.32373 11.2708 6.72827 12.6497 5.99566C13.8948 5.33463 14.8663 4.61272 15.6196 3.78778C15.6946 3.70348 15.999 3.32747 16.2218 3.04513C17.5184 1.4307 19.284 0.546875 21.2029 0.546875C21.5566 0.54727 21.9097 0.576583 22.2586 0.634521C22.8962 0.745927 23.5105 0.963729 24.0758 1.27882L24.7991 1.66955C26.2108 2.43294 27.6693 3.22176 29.1031 4.01793C29.2021 4.03733 29.348 4.06075 29.4055 4.07012C30.4097 4.22314 31.4246 4.29496 32.4403 4.28488C32.7668 4.28488 33.3971 4.26883 33.7343 4.26013C33.8915 4.25612 34.0019 4.25411 34.0186 4.25411C35.1635 4.24875 36.2912 4.53275 37.297 5.07972C38.5194 5.74276 44.8573 9.18772 45.4842 9.54901C45.6408 9.63799 46.3888 10.1839 46.5821 10.3438L46.552 10.3178C46.6854 10.4168 46.8117 10.525 46.93 10.6416C48.2682 11.9797 49.0041 13.8116 49.0001 15.7933L48.9693 32.2407C48.9693 33.1419 48.7572 36.338 46.0964 39.6003C42.8722 43.5564 37.4174 46.0995 29.8832 47.1606L29.2677 47.2469C27.481 47.507 25.6785 47.6432 23.8731 47.6544Z" fill="url(#paint0_linear)"/>
<path d="M38.9199 16.2241L21.1693 18.5986C19.0644 18.8803 17.361 20.8613 17.3556 23.0144L17.3382 31.9074C17.3316 35.3772 19.872 38.0681 23.242 37.84C23.3852 37.8306 23.5277 37.8165 23.6682 37.7978C26.1136 37.472 28.2425 35.7605 29.3016 33.5312C29.3671 33.3903 29.4667 33.2679 29.5913 33.1751C29.716 33.0822 29.8617 33.0218 30.0155 32.9993C30.1528 32.975 30.2942 32.9942 30.42 33.0542C30.5458 33.1142 30.6498 33.2119 30.7173 33.3339C31.7691 35.2855 33.8933 36.4316 36.3421 36.1044C39.8473 35.6361 42.6921 32.3397 42.6981 28.7395L42.7162 19.6229C42.7209 17.4699 41.0168 15.9438 38.9199 16.2241ZM26.1939 30.7078C26.1927 31.3358 25.9421 31.9376 25.4973 32.3808C25.0524 32.8241 24.4497 33.0724 23.8217 33.0713C23.1937 33.0701 22.5919 32.8195 22.1487 32.3747C21.7055 31.9298 21.4571 31.3271 21.4583 30.6991L21.4683 25.0081C21.4636 24.6938 21.5215 24.3817 21.6386 24.09C21.7558 23.7983 21.9298 23.5328 22.1506 23.309C22.3714 23.0852 22.6346 22.9077 22.9247 22.7867C23.2148 22.6656 23.5262 22.6036 23.8405 22.6041C24.1549 22.6046 24.466 22.6678 24.7557 22.7898C25.0454 22.9118 25.308 23.0902 25.528 23.3147C25.7481 23.5392 25.9212 23.8053 26.0374 24.0974C26.1535 24.3896 26.2103 24.7019 26.2046 25.0162L26.1939 30.7078ZM38.8075 28.5669C38.8121 28.8683 38.7566 29.1676 38.6443 29.4474C38.532 29.7271 38.3651 29.9817 38.1533 30.1963C37.9415 30.4108 37.6892 30.5811 37.4109 30.6971C37.1327 30.8131 36.8341 30.8726 36.5327 30.872C36.2312 30.8714 35.9329 30.8108 35.6551 30.6937C35.3773 30.5767 35.1256 30.4054 34.9147 30.1901C34.7037 29.9747 34.5378 29.7195 34.4266 29.4393C34.3153 29.1591 34.261 28.8596 34.2667 28.5582L34.276 23.2532C34.2715 22.9518 34.327 22.6525 34.4393 22.3727C34.5516 22.093 34.7185 21.8384 34.9303 21.6238C35.142 21.4092 35.3944 21.239 35.6726 21.123C35.9509 21.0069 36.2494 20.9475 36.5509 20.9481C36.8524 20.9486 37.1507 21.0092 37.4285 21.1263C37.7063 21.2434 37.958 21.4146 38.1689 21.63C38.3798 21.8454 38.5458 22.1006 38.657 22.3808C38.7683 22.661 38.8226 22.9605 38.8169 23.2619L38.8075 28.5669ZM45.4312 12.1442C45.3556 12.0686 45.2666 12.0104 45.187 11.9435C45.1576 11.9167 44.4557 11.4083 44.4249 11.3895C43.8857 11.0784 38.2917 8.03556 36.2865 6.94701C35.5901 6.56988 34.8098 6.37451 34.0178 6.37898C33.9562 6.37898 32.9031 6.40909 32.4395 6.40909C31.3101 6.4191 30.1818 6.3381 29.0654 6.16689C28.6908 6.10601 28.391 6.05181 28.2177 5.95547C26.7264 5.12517 25.2244 4.31361 23.7224 3.50205L23.066 3.14745C22.7076 2.94481 22.3177 2.80369 21.9126 2.72996C21.6782 2.69079 21.441 2.67088 21.2034 2.67041C20.3109 2.67041 19.0102 2.96479 17.8862 4.3658C17.8862 4.3658 17.351 5.04355 17.1864 5.22152C16.2671 6.2251 15.109 7.09487 13.6451 7.87164C12.121 8.6812 10.3754 9.33353 8.15279 9.9243C8.15279 9.9243 6.84612 10.2548 6.27141 10.5646C4.26424 11.6458 3.14558 13.5191 3.12083 15.8387C3.10076 17.7462 3.10477 19.6798 3.10945 21.5491C3.10945 21.7276 3.10945 21.9073 3.10945 22.0884L3.07935 23.931V25.9174C3.07935 27.9901 3.08113 30.0626 3.0847 32.1349C3.08166 32.6642 3.13436 33.1923 3.24193 33.7105C3.68952 35.7806 4.82156 37.492 6.51695 38.6616C7.32985 39.2182 16.9422 44.3699 17.4781 44.5626C17.5289 44.5814 17.5778 44.6014 17.6293 44.6202C17.8347 44.6871 18.0494 44.754 18.2635 44.8142C18.4148 44.859 18.5586 44.9125 18.7145 44.952C18.7694 44.9654 18.8276 44.9701 18.8824 44.9821C20.3584 45.3427 22.0183 45.5327 23.8729 45.5327C25.5801 45.5219 27.2845 45.3927 28.9738 45.146L29.59 45.0597C36.5776 44.0776 41.5781 41.7907 44.4537 38.2628C46.6723 35.5397 46.8483 32.9625 46.8496 32.2373L46.8804 15.7899C46.883 14.3755 46.3685 13.0802 45.4319 12.1416L45.4312 12.1442ZM44.8578 32.2366C44.8578 32.6702 44.8444 40.9076 29.3116 43.0907L28.6961 43.177C13.166 45.3595 13.1814 37.1221 13.1821 36.6872L13.2129 20.2391C13.2162 18.4849 14.4519 16.8189 16.0771 16.4369C22.6927 14.8766 25.9329 12.2519 27.5259 10.0668L27.6189 9.93835C27.9903 9.48607 28.5041 9.16827 29.0674 9.08865C29.3261 9.04787 29.5907 9.06656 29.8411 9.14331C30.0916 9.22005 30.3212 9.35283 30.5126 9.53157L30.5962 9.62591C32.1819 11.3721 35.4215 13.0863 42.0371 12.7872C43.6622 12.7129 44.8926 14.0316 44.8893 15.7859L44.8578 32.2366Z" fill="white"/>
<defs>
<linearGradient id="paint0_linear" x1="-5.38335" y1="43.161" x2="55.5555" y2="6.9785" gradientUnits="userSpaceOnUse">
<stop offset="0.1" stop-color="#FC00FF"/>
<stop offset="1" stop-color="#00DBDE"/>
</linearGradient>
</defs>
</svg>
