<svg width="49" height="48" viewBox="0 0 49 48" fill="none" xmlns="http://www.w3.org/2000/svg">
<path d="M23.8726 47.6544C21.9143 47.6544 20.0891 47.4536 18.4472 47.0602C18.3576 47.0455 18.2766 47.0295 18.1963 47.0094C18.0532 46.9733 17.9147 46.9304 17.7768 46.885L17.6383 46.8415C17.4022 46.7746 17.166 46.7043 16.9398 46.6267C16.8729 46.6026 16.8214 46.5832 16.7719 46.5638C15.8239 46.2293 6.0289 40.9009 5.31301 40.4085C3.16467 38.9272 1.73156 36.7668 1.16821 34.1589C1.02849 33.4956 0.959634 32.8194 0.962812 32.1417C0.95523 30.0671 0.953223 27.992 0.956791 25.9161V23.929L0.986898 22.071V21.5472C0.982215 19.6818 0.977532 17.7476 0.998272 15.814C1.03106 12.7324 2.58594 10.1371 5.26417 8.69463C6.0115 8.29319 7.26464 7.95867 7.63128 7.86567C9.66856 7.32373 11.2703 6.72827 12.6492 5.99566C13.8943 5.33463 14.8658 4.61272 15.6191 3.78778C15.6941 3.70348 15.9985 3.32747 16.2213 3.04513C17.5179 1.4307 19.2835 0.546875 21.2024 0.546875C21.5561 0.54727 21.9092 0.576583 22.2582 0.634521C22.8957 0.745927 23.51 0.963729 24.0753 1.27882L24.7986 1.66955C26.2103 2.43294 27.6688 3.22176 29.1026 4.01793C29.2016 4.03733 29.3475 4.06075 29.405 4.07012C30.4092 4.22314 31.4241 4.29496 32.4398 4.28488C32.7663 4.28488 33.3966 4.26883 33.7338 4.26013C33.891 4.25612 34.0014 4.25411 34.0181 4.25411C35.163 4.24875 36.2907 4.53275 37.2965 5.07972C38.5189 5.74276 44.8568 9.18772 45.4837 9.54901C45.6403 9.63799 46.3883 10.1839 46.5816 10.3438L46.5515 10.3178C46.6849 10.4168 46.8112 10.525 46.9296 10.6416C48.2677 11.9797 49.0036 13.8116 48.9996 15.7933L48.9688 32.2407C48.9688 33.1419 48.7567 36.338 46.0959 39.6003C42.8717 43.5564 37.4169 46.0995 29.8827 47.1606L29.2672 47.2469C27.4805 47.507 25.678 47.6432 23.8726 47.6544Z" fill="url(#paint0_linear)"/>
<path d="M38.9187 16.2256L21.168 18.6001C19.0632 18.8817 17.3598 20.8628 17.3544 23.0158L17.337 31.9089C17.3303 35.3786 19.8707 38.0696 23.2408 37.8414C23.3839 37.8321 23.5265 37.818 23.667 37.7993C26.1123 37.4734 28.2413 35.762 29.3004 33.5327C29.3659 33.3918 29.4655 33.2694 29.5901 33.1765C29.7147 33.0837 29.8605 33.0233 30.0143 33.0008C30.1515 32.9765 30.2929 32.9957 30.4188 33.0557C30.5446 33.1156 30.6486 33.2134 30.7161 33.3353C31.7679 35.287 33.8921 36.4331 36.3409 36.1059C39.846 35.6376 42.6909 32.3411 42.6969 28.7409L42.715 19.6244C42.7196 17.4714 41.0155 15.9453 38.9187 16.2256ZM26.1926 30.7093C26.1915 31.3373 25.9409 31.9391 25.496 32.3823C25.0512 32.8255 24.4485 33.0739 23.8205 33.0727C23.1925 33.0716 22.5907 32.821 22.1475 32.3761C21.7043 31.9313 21.4559 31.3286 21.4571 30.7006L21.4671 25.0096C21.4624 24.6953 21.5203 24.3832 21.6374 24.0914C21.7546 23.7997 21.9286 23.5342 22.1494 23.3105C22.3702 23.0867 22.6333 22.9091 22.9235 22.7881C23.2136 22.6671 23.5249 22.605 23.8393 22.6056C24.1537 22.6061 24.4648 22.6692 24.7545 22.7912C25.0442 22.9132 25.3068 23.0917 25.5268 23.3162C25.7468 23.5407 25.92 23.8068 26.0361 24.0989C26.1523 24.391 26.2091 24.7033 26.2033 25.0176L26.1926 30.7093ZM38.8063 28.5683C38.8109 28.8697 38.7554 29.1691 38.6431 29.4488C38.5307 29.7286 38.3638 29.9832 38.1521 30.1977C37.9403 30.4123 37.688 30.5826 37.4097 30.6986C37.1315 30.8146 36.8329 30.874 36.5315 30.8735C36.23 30.8729 35.9317 30.8123 35.6539 30.6952C35.3761 30.5781 35.1244 30.4069 34.9135 30.1915C34.7025 29.9761 34.5366 29.7209 34.4253 29.4407C34.3141 29.1606 34.2597 28.861 34.2654 28.5596L34.2748 23.2547C34.2703 22.9533 34.3258 22.6539 34.4381 22.3742C34.5504 22.0944 34.7173 21.8398 34.9291 21.6253C35.1408 21.4107 35.3932 21.2404 35.6714 21.1244C35.9497 21.0084 36.2482 20.949 36.5497 20.9495C36.8511 20.9501 37.1495 21.0107 37.4273 21.1278C37.7051 21.2449 37.9568 21.4161 38.1677 21.6315C38.3786 21.8469 38.5446 22.1021 38.6558 22.3823C38.7671 22.6624 38.8214 22.962 38.8157 23.2634L38.8063 28.5683ZM45.43 12.1457C45.3544 12.0701 45.2654 12.0119 45.1858 11.945C45.1563 11.9182 44.4545 11.4097 44.4237 11.391C43.8845 11.0799 38.2905 8.03703 36.2853 6.94847C35.5889 6.57135 34.8086 6.37598 34.0166 6.38045C33.955 6.38045 32.9019 6.41055 32.4383 6.41055C31.3089 6.42056 30.1806 6.33957 29.0642 6.16836C28.6895 6.10747 28.3898 6.05328 28.2165 5.95693C26.7252 5.12664 25.2232 4.31507 23.7211 3.50351L23.0648 3.14891C22.7064 2.94627 22.3165 2.80515 21.9114 2.73142C21.677 2.69226 21.4398 2.67234 21.2022 2.67188C20.3096 2.67188 19.009 2.96626 17.885 4.36726C17.885 4.36726 17.3497 5.04501 17.1851 5.22298C16.2659 6.22656 15.1077 7.09634 13.6438 7.87311C12.1197 8.68267 10.3742 9.33499 8.15157 9.92577C8.15157 9.92577 6.8449 10.2563 6.27019 10.5661C4.26302 11.6472 3.14436 13.5206 3.11961 15.8402C3.09953 17.7477 3.10355 19.6813 3.10823 21.5506C3.10823 21.729 3.10823 21.9088 3.10823 22.0899L3.07812 23.9324V25.9189C3.07812 27.9916 3.07991 30.0641 3.08348 32.1364C3.08044 32.6657 3.13314 33.1938 3.24071 33.712C3.6883 35.7821 4.82034 37.4935 6.51573 38.663C7.32863 39.2197 16.9409 44.3714 17.4769 44.5641C17.5277 44.5828 17.5765 44.6029 17.6281 44.6216C17.8335 44.6885 18.0482 44.7554 18.2623 44.8157C18.4135 44.8605 18.5574 44.914 18.7133 44.9535C18.7681 44.9669 18.8263 44.9715 18.8812 44.9836C20.3571 45.3442 22.0171 45.5342 23.8717 45.5342C25.5789 45.5233 27.2832 45.3941 28.9726 45.1475L29.5888 45.0612C36.5764 44.079 41.5769 41.7922 44.4525 38.2643C46.6711 35.5412 46.847 32.964 46.8484 32.2388L46.8791 15.7914C46.8818 14.377 46.3673 13.0817 45.4306 12.143L45.43 12.1457ZM44.8566 32.2381C44.8566 32.6716 44.8432 40.909 29.3104 43.0922L28.6949 43.1785C13.1648 45.3609 13.1802 37.1235 13.1809 36.6886L13.2116 20.2406C13.215 18.4863 14.4507 16.8204 16.0759 16.4383C22.6915 14.8781 25.9317 12.2534 27.5247 10.0683L27.6177 9.93982C27.989 9.48754 28.5029 9.16974 29.0662 9.09012C29.3249 9.04934 29.5895 9.06803 29.8399 9.14477C30.0903 9.22152 30.32 9.3543 30.5114 9.53303L30.595 9.62737C32.1807 11.3736 35.4202 13.0877 42.0359 12.7887C43.661 12.7144 44.8914 14.0331 44.888 15.7874L44.8566 32.2381Z" fill="white"/>
<defs>
<linearGradient id="paint0_linear" x1="-5.38384" y1="43.161" x2="55.555" y2="6.9785" gradientUnits="userSpaceOnUse">
<stop offset="0.1" stop-color="#FC00FF"/>
<stop offset="1" stop-color="#00DBDE"/>
</linearGradient>
</defs>
</svg>
