<?xml version="1.0" encoding="UTF-8"?><svg id="Layer_2" xmlns="http://www.w3.org/2000/svg" viewBox="0 0 260.27 254.71"><defs><style>.cls-1{fill:#fff;}</style></defs><g id="Layer_1-2"><path class="cls-1" d="M233.81,159.11l-.07,10.7c-.03,21.77-20.6,42.87-45.83,47.03h-.05c-6.13,1.01-11.98,.95-17.32-.08-7.39-1.42-15.18-.02-22.01,3.55-3.37,1.78-6.93,3.23-10.64,4.31-2.26,.66-4.53,1.18-6.88,1.59-25.24,4.15-45.74-10.19-45.67-31.98,0-4.76,.05-6.22,.05-8.87,.02-1.37,1.01-2.56,2.36-2.8l29.14-5.32c1.66-.29,3.13,.93,3.13,2.59l-.05,8.7c-.02,5.29,4.98,8.78,11.09,7.77,6.13-1.03,11.14-6.15,11.14-11.45l.03-9.84c.02-1.37,1.03-2.58,2.38-2.82l29.14-5.3c1.66-.29,3.13,.93,3.13,2.59,0,0-.02,9.48-.02,9.65-.02,5.34,5,8.81,11.11,7.8,6.11-1.01,11.12-6.14,11.12-11.43l.07-10.85c0-1.37,1.01-2.57,2.36-2.82l29.14-5.32c1.66-.29,3.13,.93,3.13,2.61Zm26.45-81.16l-.19,97.74c-.02,4.31-1.04,19.63-14.24,35.8-17.09,20.98-46.8,34.55-88.33,40.4l-3.66,.5c-10.03,1.47-20.14,2.24-30.27,2.33-11.04,0-20.89-1.13-29.65-3.29-.33-.07-.67-.09-.99-.19-.92-.21-1.78-.53-2.67-.8-1.28-.34-2.55-.72-3.78-1.15-.31-.1-.58-.24-.89-.34-3.2-1.15-60.3-31.74-65.13-35.08-10.1-6.93-16.82-17.09-19.49-29.41-.65-3.06-.96-6.23-.94-9.38-.02-12.3-.03-24.62-.03-36.93v-11.84l.19-10.92v-3.23c-.02-11.11-.05-22.57,.07-33.91,.15-13.77,6.79-24.9,18.72-31.33,3.41-1.87,11.17-3.8,11.17-3.8,13.21-3.53,23.58-7.39,32.63-12.22,8.71-4.6,15.57-9.77,21.05-15.73,.98-1.08,4.14-5.1,4.14-5.1,3.35-4.16,6.95-6.66,10.39-8.15,3.42-1.49,6.67-1.92,9.34-1.92,1.4,.02,2.82,.1,4.21,.36,2.41,.43,4.74,1.27,6.86,2.48l3.88,2.1c8.93,4.81,17.85,9.62,26.71,14.56,1.01,.58,2.81,.89,5.03,1.25,6.64,1.01,13.35,1.51,20.06,1.45,2.75,0,9-.19,9.38-.19,4.72-.03,9.34,1.11,13.48,3.37,11.91,6.47,45.16,24.56,48.34,26.39,.21,.1,4.35,3.15,4.53,3.3,.48,.39,1.01,.74,1.45,1.2v.02c5.58,5.56,8.64,13.28,8.62,21.65Zm-11.82-.02c.02-10.4-7.29-18.24-16.96-17.81-39.31,1.78-58.54-8.4-67.97-18.77l-.51-.58c-2.31-2.16-5.46-3.11-8.57-2.63-3.35,.46-6.4,2.38-8.61,5.06l-.56,.77c-9.46,12.97-28.71,28.56-68.04,37.83-9.65,2.28-16.99,12.17-17.01,22.6l-.17,97.72c0,2.57-.1,51.49,92.16,38.55l3.66-.51c92.32-12.99,92.39-61.93,92.39-64.49l.19-97.74Zm-60.3-4.27c-2.34,.39-4.64,.91-6.88,1.59-3.71,1.08-7.29,2.55-10.64,4.31-6.84,3.59-14.61,4.97-22.01,3.57-5.34-1.06-11.19-1.14-17.32-.12h-.07c-25.22,4.17-45.77,25.29-45.83,47.07l-.05,38.76c-.02,1.68,1.47,2.92,3.13,2.61l29.14-5.32c1.35-.24,2.36-1.43,2.36-2.8l.07-38.95c0-5.3,5-10.41,11.12-11.43,6.11-1.02,11.11,2.48,11.09,7.77,0,.22-.02,35.2-.02,35.2v2.57c0,1.68,1.49,2.9,3.13,2.59l29.16-5.31c1.35-.24,2.36-1.45,2.36-2.82l.05-37.95c0-5.27,5-10.41,11.12-11.41,6.13-1.01,11.11,2.48,11.09,7.77l-.03,36.77c-.02,1.66,1.47,2.9,3.11,2.59l29.14-5.32c1.35-.24,2.36-1.43,2.36-2.8,.02-2.64,.03-6.79,.03-8.75,.02-4.77,.03-23.46,.03-28.2,.05-21.79-20.43-36.13-45.67-31.98Z"/></g></svg>