<svg width="22" height="23" viewBox="0 0 22 23" fill="none" xmlns="http://www.w3.org/2000/svg">
<path d="M17.9375 7.61147L9.05362 8.79985C8.00019 8.94082 7.14766 9.93231 7.14498 11.0098L7.13628 15.4606C7.13293 17.1972 8.40435 18.5439 10.091 18.4297C10.1626 18.4251 10.234 18.418 10.3043 18.4086C11.5281 18.2456 12.5936 17.389 13.1237 16.2733C13.1565 16.2028 13.2063 16.1415 13.2687 16.0951C13.3311 16.0486 13.404 16.0184 13.481 16.0071C13.5497 15.995 13.6204 16.0046 13.6834 16.0346C13.7464 16.0646 13.7984 16.1135 13.8322 16.1745C14.3586 17.1513 15.4218 17.7249 16.6473 17.5611C18.4016 17.3268 19.8253 15.677 19.8284 13.8751L19.8374 9.3125C19.8397 8.23496 18.9869 7.47117 17.9375 7.61147ZM11.5683 14.8603C11.5677 15.1746 11.4423 15.4757 11.2197 15.6976C10.9971 15.9194 10.6954 16.0437 10.3811 16.0431C10.0668 16.0425 9.76565 15.9171 9.54382 15.6945C9.32199 15.4718 9.19769 15.1702 9.19827 14.8559L9.20329 12.0077C9.20093 11.8504 9.22991 11.6942 9.28853 11.5482C9.34716 11.4022 9.43427 11.2693 9.54478 11.1573C9.65528 11.0453 9.78698 10.9565 9.93218 10.8959C10.0774 10.8353 10.2332 10.8043 10.3905 10.8045C10.5479 10.8048 10.7036 10.8364 10.8486 10.8974C10.9936 10.9585 11.125 11.0478 11.2351 11.1602C11.3452 11.2725 11.4319 11.4057 11.49 11.5519C11.5481 11.6981 11.5766 11.8544 11.5737 12.0117L11.5683 14.8603ZM17.8812 13.7887C17.8835 13.9396 17.8557 14.0894 17.7995 14.2294C17.7433 14.3694 17.6598 14.4968 17.5538 14.6042C17.4478 14.7116 17.3215 14.7968 17.1822 14.8549C17.043 14.913 16.8936 14.9427 16.7427 14.9424C16.5918 14.9421 16.4425 14.9118 16.3035 14.8532C16.1644 14.7946 16.0385 14.7089 15.9329 14.6011C15.8273 14.4933 15.7443 14.3656 15.6886 14.2254C15.6329 14.0852 15.6057 13.9352 15.6086 13.7844L15.6133 11.1294C15.611 10.9785 15.6388 10.8287 15.695 10.6887C15.7512 10.5487 15.8347 10.4213 15.9407 10.3139C16.0467 10.2065 16.173 10.1213 16.3123 10.0632C16.4515 10.0052 16.6009 9.97542 16.7518 9.97571C16.9027 9.976 17.052 10.0063 17.191 10.0649C17.3301 10.1235 17.456 10.2092 17.5616 10.317C17.6672 10.4248 17.7502 10.5525 17.8059 10.6928C17.8616 10.833 17.8888 10.9829 17.8859 11.1337L17.8812 13.7887ZM21.1962 5.56957C21.1584 5.53173 21.1138 5.5026 21.074 5.46912C21.0593 5.45572 20.708 5.20124 20.6926 5.19186C20.4227 5.03616 17.623 3.51327 16.6195 2.96847C16.2709 2.77973 15.8804 2.68195 15.484 2.68419C15.4532 2.68419 14.9262 2.69926 14.6941 2.69926C14.1289 2.70426 13.5642 2.66373 13.0055 2.57804C12.818 2.54757 12.668 2.52045 12.5812 2.47223C11.8349 2.05668 11.0831 1.65051 10.3314 1.24434L10.0029 1.06687C9.82351 0.965455 9.62838 0.894828 9.42563 0.857927C9.30833 0.838326 9.18962 0.828358 9.07069 0.828125C8.62401 0.828125 7.97306 0.975458 7.41052 1.67663C7.41052 1.67663 7.14264 2.01583 7.06027 2.1049C6.60019 2.60717 6.02056 3.04247 5.28792 3.43123C4.52513 3.8364 3.65152 4.16288 2.53915 4.45855C2.53915 4.45855 1.88519 4.62396 1.59756 4.779C0.593016 5.32011 0.03315 6.25768 0.0207606 7.4186C0.0107152 8.37325 0.0127242 9.34096 0.0150681 10.2765C0.0150681 10.3658 0.0150681 10.4558 0.0150681 10.5464L0 11.4686V12.4628C0 13.5001 0.000892925 14.5374 0.00267878 15.5745C0.00115955 15.8394 0.0275348 16.1037 0.0813681 16.3631C0.305381 17.3991 0.871944 18.2556 1.72045 18.8409C2.12729 19.1195 6.93805 21.6979 7.20626 21.7943C7.23171 21.8037 7.25615 21.8137 7.28194 21.8231C7.38474 21.8566 7.49222 21.8901 7.59937 21.9202C7.67505 21.9426 7.74704 21.9694 7.82506 21.9892C7.85252 21.9959 7.88165 21.9982 7.90911 22.0042C8.64778 22.1847 9.47854 22.2798 10.4067 22.2798C11.2611 22.2744 12.1142 22.2097 12.9596 22.0863L13.268 22.0431C16.7652 21.5515 19.2678 20.407 20.707 18.6414C21.8173 17.2785 21.9054 15.9887 21.9061 15.6257L21.9215 7.39416C21.9228 6.68629 21.6653 6.03802 21.1965 5.56823L21.1962 5.56957ZM20.9092 15.6254C20.9092 15.8424 20.9025 19.965 13.1287 21.0576L12.8207 21.1008C5.04817 22.1931 5.05587 18.0704 5.0562 17.8528L5.07161 9.6209C5.07328 8.74293 5.69174 7.90915 6.50509 7.71796C9.81606 6.93709 11.4377 5.62348 12.235 4.52987L12.2816 4.46558C12.4674 4.23922 12.7246 4.08017 13.0065 4.04032C13.136 4.01991 13.2684 4.02927 13.3937 4.06767C13.519 4.10608 13.634 4.17254 13.7298 4.26199L13.7716 4.3092C14.5652 5.18316 16.1865 6.04104 19.4975 5.89136C20.3109 5.85419 20.9267 6.51418 20.925 7.39215L20.9092 15.6254Z" fill="white"/>
</svg>
