<svg width="1680" height="1228" viewBox="0 0 1680 1228" fill="none" xmlns="http://www.w3.org/2000/svg">
<g opacity="0.3">
<path opacity="0.1" d="M1568.49 1154.42L1565.88 1155.77L1564.6 1154.22C1165.04 685.029 1366.81 375.495 1532.87 420.334C1538.21 421.634 1543.53 423.678 1548.74 425.822C1614.31 453.01 1639.12 510.357 1648.18 556.641C1668.95 517.627 1707.39 475.701 1775.87 481.686C1951.47 495.23 2081.36 895.942 1568.49 1154.42Z" fill="#D127FA"/>
<path opacity="0.1" d="M130.658 68.3143L-158.403 77.7877C-207.57 513.918 -38.1754 724.919 31.282 791.779C114.085 762.159 328.502 644.718 398.471 213.534L130.658 68.3143Z" fill="#D127FA"/>
<path opacity="0.1" d="M947.311 538.319L978.654 310.136L829.359 273.743L798.016 501.927L626.85 460.203L623.524 484.419L602.821 635.135L599.495 659.351L770.66 701.075L739.333 929.138L888.628 965.531L919.955 737.468L1091.12 779.192L1094.45 754.976L1115.15 604.259L1118.48 580.043L947.311 538.319Z" fill="#D127FA"/>
</g>
</svg>
