<svg width="1955" height="537" viewBox="0 0 1955 537" fill="none" xmlns="http://www.w3.org/2000/svg">
<path opacity="0.08" d="M1670.32 523.05L1668.03 524.426L1666.65 523.544C1232.11 262.398 1381.24 10.352 1542.53 13.4117C1547.73 13.4781 1552.92 13.8609 1558.08 14.5581C1623 22.4147 1653.57 58.4351 1668.03 89.403C1682.43 58.4351 1713.05 22.3882 1777.98 14.8402C1944.26 -5.6081 2117.42 253.642 1670.32 523.05ZM1009.32 196.671V30.9855H864.792V196.671H699.124V341.185H864.792V506.852H1009.32V341.185H1174.97V196.671H1009.32ZM211.319 531.595C197.387 543.869 175.483 533.967 175.483 515.405V306.328L172.97 307.21H21.6579C1.77389 307.21 -7.51998 282.591 7.40844 269.443L274.947 5.42288C288.888 -6.84258 310.783 3.05091 310.783 21.6211V230.681L313.296 229.799H464.617C484.501 229.799 493.803 254.427 478.875 267.565L211.319 531.595Z" fill="#FEFFFF"/>
</svg>
