<svg width="1735" height="447" viewBox="0 0 1735 447" fill="none" xmlns="http://www.w3.org/2000/svg">
<g opacity="0.1">
<path opacity="0.5" d="M1493.1 439.78L1491.17 440.971L1489.98 440.226C1120.44 217.955 1247.27 3.49874 1384.43 6.10407C1388.82 6.10407 1393.28 6.55069 1397.67 7.07176C1452.86 13.7712 1478.9 44.4396 1491.17 70.7907C1503.44 44.4396 1529.48 13.7712 1584.67 7.36951C1726 -10.1234 1873.28 210.511 1493.1 439.78Z" fill="white"/>
<path opacity="0.5" d="M229.176 0L0 47.7892C8.55413 315.691 166.545 417.15 229.176 447C291.882 417.225 449.798 315.766 458.352 47.7892L229.176 0Z" fill="white"/>
<path opacity="0.5" d="M930.987 161.977V20.9912H808.105V161.977H667.222V176.939V270.061V285.023H808.105V425.934H930.987V285.023H1071.87V270.061V176.939V161.977H930.987Z" fill="white"/>
</g>
</svg>
