<?xml version="1.0" standalone="no"?>
<!DOCTYPE svg PUBLIC "-//W3C//DTD SVG 20010904//EN"
 "http://www.w3.org/TR/2001/REC-SVG-20010904/DTD/svg10.dtd">
<svg version="1.0" xmlns="http://www.w3.org/2000/svg"
 width="2003.000000pt" height="2003.000000pt" viewBox="0 0 2003.000000 2003.000000"
 preserveAspectRatio="xMidYMid meet">
<metadata>
Created by potrace 1.11, written by Peter Selinger 2001-2013
</metadata>
<g transform="translate(0.000000,2003.000000) scale(0.100000,-0.100000)"
fill="#000000" stroke="none">
<path d="M6558 19255 c-2 -2 -50 -6 -108 -10 -58 -4 -121 -8 -140 -10 -19 -2
-69 -6 -110 -10 -41 -4 -82 -8 -90 -10 -8 -1 -46 -6 -83 -10 -37 -3 -78 -8
-90 -11 -12 -2 -40 -6 -62 -9 -22 -3 -51 -7 -65 -10 -14 -2 -41 -7 -60 -10
-73 -12 -99 -17 -244 -46 -82 -16 -152 -31 -155 -33 -3 -2 -22 -7 -41 -10 -57
-9 -425 -112 -560 -157 -795 -263 -1505 -645 -2149 -1157 -79 -63 -155 -125
-170 -137 -14 -13 -37 -33 -51 -45 -206 -176 -620 -592 -713 -715 -4 -5 -19
-23 -33 -40 -14 -16 -51 -61 -82 -100 -31 -38 -59 -72 -62 -75 -13 -12 -113
-144 -183 -241 -317 -441 -577 -906 -777 -1390 -28 -68 -55 -133 -60 -144 -46
-109 -142 -394 -205 -610 -56 -193 -149 -601 -170 -750 -4 -22 -8 -51 -11 -65
-6 -36 -52 -404 -58 -475 -32 -342 -28 -986 9 -1290 3 -22 7 -67 10 -100 3
-33 8 -71 10 -85 3 -14 10 -61 16 -105 18 -135 51 -323 75 -430 9 -38 18 -81
20 -95 3 -14 19 -79 35 -145 17 -66 32 -127 34 -135 24 -100 157 -522 184
-585 5 -11 32 -81 61 -155 162 -415 361 -802 623 -1214 58 -91 219 -323 277
-397 23 -30 59 -78 81 -106 150 -199 397 -473 629 -698 165 -161 174 -168 360
-329 14 -12 59 -48 100 -81 41 -33 77 -62 80 -66 31 -35 378 -279 555 -390 77
-49 145 -92 151 -96 30 -23 374 -213 385 -213 5 0 -1 -24 -12 -52 -31 -79
-108 -295 -114 -321 -2 -12 -18 -71 -35 -132 -17 -60 -32 -119 -34 -130 -2
-11 -9 -40 -15 -65 -5 -25 -12 -58 -15 -75 -25 -149 -35 -218 -41 -265 -11
-109 -15 -146 -20 -215 -7 -82 -7 -484 -1 -535 3 -19 8 -71 11 -115 3 -44 8
-87 10 -95 2 -8 7 -39 10 -68 5 -43 38 -231 59 -329 72 -340 278 -860 444
-1118 6 -11 15 -27 19 -35 8 -20 186 -288 211 -320 11 -14 49 -61 83 -105 97
-124 173 -209 309 -345 508 -511 1145 -870 1850 -1044 146 -35 175 -42 240
-51 19 -3 44 -8 56 -10 50 -11 237 -35 334 -43 109 -9 552 -8 650 1 76 8 214
25 260 32 14 3 43 7 65 10 22 4 92 18 155 31 63 14 126 27 139 30 45 9 176 45
196 54 11 4 58 20 105 35 237 76 587 238 790 365 52 32 109 67 126 77 27 16
219 153 284 203 21 16 31 18 65 10 79 -20 211 -49 244 -55 19 -3 37 -7 40 -9
3 -2 28 -7 55 -10 27 -4 52 -9 56 -11 3 -2 24 -6 46 -9 22 -4 49 -8 59 -10 11
-2 40 -7 65 -11 25 -4 54 -9 65 -11 11 -2 38 -7 60 -10 22 -3 49 -7 60 -8 11
-2 45 -6 75 -10 30 -4 66 -9 80 -11 24 -3 80 -10 164 -20 90 -10 231 -21 421
-32 249 -14 866 -7 1045 12 19 2 73 7 120 10 47 4 96 8 110 10 14 2 50 6 80
10 30 3 69 7 85 9 104 14 203 28 224 31 13 2 45 7 70 11 25 4 55 8 66 10 11 3
35 7 54 10 35 6 59 10 101 19 14 2 36 7 50 9 14 2 45 9 70 15 25 5 56 12 70
15 123 23 420 98 585 148 55 16 127 38 160 48 96 28 237 77 425 148 921 344
1781 859 2524 1511 276 242 576 544 791 796 33 39 63 72 66 75 3 3 54 65 113
139 172 213 347 454 496 681 245 373 509 870 680 1280 185 443 344 928 435
1330 12 57 74 351 79 377 36 212 51 306 66 428 7 50 13 101 15 115 2 14 6 52
9 85 3 33 8 89 12 124 22 226 28 393 29 731 0 290 -8 540 -20 655 -6 53 -14
138 -20 205 -3 30 -7 71 -10 90 -3 19 -7 53 -10 75 -7 69 -16 137 -30 225 -8
47 -16 99 -18 115 -11 69 -39 219 -42 225 -2 3 -6 22 -9 42 -16 104 -95 427
-155 638 -12 41 -23 82 -25 90 -34 132 -215 639 -277 777 -10 24 -19 45 -19
48 0 24 -290 627 -364 755 -14 25 -36 65 -50 90 -53 98 -207 352 -278 457 -26
40 -48 76 -48 82 0 5 -4 11 -8 13 -4 2 -39 48 -76 103 -166 242 -369 502 -571
731 -5 7 -37 43 -70 80 -83 95 -500 512 -615 615 -288 257 -548 460 -872 684
-101 69 -433 276 -563 350 -120 69 -519 273 -650 332 -336 153 -704 290 -1065
398 -199 59 -570 152 -720 179 -14 3 -74 14 -135 26 -125 23 -144 27 -200 35
-23 3 -50 7 -61 9 -12 2 -45 7 -75 11 -30 3 -65 8 -79 10 -14 2 -45 6 -70 9
-25 3 -67 8 -95 12 -27 3 -70 7 -95 9 -25 2 -74 6 -110 10 -350 34 -900 38
-1285 9 -38 -2 -76 -7 -82 -9 -7 -2 -65 35 -130 84 -144 108 -346 246 -473
325 -52 32 -111 69 -130 81 -190 121 -642 347 -910 455 -58 23 -114 46 -125
51 -150 65 -618 214 -835 265 -36 9 -72 17 -80 19 -44 11 -208 47 -230 51 -14
3 -49 9 -79 15 -30 6 -64 12 -75 14 -12 1 -48 7 -81 14 -33 6 -80 13 -105 16
-25 3 -74 10 -110 15 -74 10 -129 17 -215 25 -33 3 -80 8 -105 11 -25 3 -76 7
-115 10 -79 6 -792 14 -797 9z"/>
</g>
</svg>
