<svg width="44" height="41" viewBox="0 0 44 41" fill="none" xmlns="http://www.w3.org/2000/svg">
<path d="M13.2591 35.6828L3.97879 38.2361L1.34363 29.1849L13.2591 35.6828Z" fill="#E4761B" stroke="#E4761B" stroke-width="1.20278" stroke-linecap="round" stroke-linejoin="round"/>
<path d="M42.3935 29.1849L39.742 38.2361L30.4617 35.6828L42.3935 29.1849Z" fill="#E4761B" stroke="#E4761B" stroke-width="1.20278" stroke-linecap="round" stroke-linejoin="round"/>
<path d="M39.5287 20.3137L30.9685 17.8094L33.9637 17.0238L39.5287 20.3137Z" fill="#763D16" stroke="#763D16" stroke-width="1.20278" stroke-linecap="round" stroke-linejoin="round"/>
<path d="M4.19141 20.3137L9.7727 17.0238L12.7516 17.8094L4.19141 20.3137Z" fill="#763D16" stroke="#763D16" stroke-width="1.20278" stroke-linecap="round" stroke-linejoin="round"/>
<path d="M3.12751 17.5149L2.81653 15.5344L9.77269 17.0239L3.12751 17.5149Z" fill="#763D16" stroke="#763D16" stroke-width="1.20278" stroke-linecap="round" stroke-linejoin="round"/>
<path d="M40.5932 17.5149L33.9644 17.0239L40.9041 15.5344L40.5932 17.5149Z" fill="#763D16" stroke="#763D16" stroke-width="1.20278" stroke-linecap="round" stroke-linejoin="round"/>
<path d="M40.5932 17.5148L39.5293 20.3137L33.9644 17.0238L40.5932 17.5148Z" fill="#763D16" stroke="#763D16" stroke-width="1.20278" stroke-linecap="round" stroke-linejoin="round"/>
<path d="M3.12781 17.5148L9.77299 17.0238L4.19169 20.3137L3.12781 17.5148Z" fill="#763D16" stroke="#763D16" stroke-width="1.20278" stroke-linecap="round" stroke-linejoin="round"/>
<path d="M33.9644 17.0237L41.3461 13.8811L40.9041 15.5342L33.9644 17.0237Z" fill="#763D16" stroke="#763D16" stroke-width="1.20278" stroke-linecap="round" stroke-linejoin="round"/>
<path d="M9.77307 17.0237L2.81691 15.5342L2.39136 13.8811L9.77307 17.0237Z" fill="#763D16" stroke="#763D16" stroke-width="1.20278" stroke-linecap="round" stroke-linejoin="round"/>
<path d="M16.3361 5.95911H27.3841L24.9126 12.6861L16.3361 5.95911Z" fill="#F6851B" stroke="#F6851B" stroke-width="1.20278" stroke-linecap="round" stroke-linejoin="round"/>
<path d="M24.9126 12.6861H18.8075L16.3361 5.95911L24.9126 12.6861Z" fill="#F6851B" stroke="#F6851B" stroke-width="1.20278" stroke-linecap="round" stroke-linejoin="round"/>
<path d="M41.346 13.8809L33.9643 17.0235L33.8334 8.57788L41.346 13.8809Z" fill="#763D16" stroke="#763D16" stroke-width="1.20278" stroke-linecap="round" stroke-linejoin="round"/>
<path d="M12.7519 17.8091L9.77307 17.0235L9.88764 8.57788L12.7519 17.8091Z" fill="#763D16" stroke="#763D16" stroke-width="1.20278" stroke-linecap="round" stroke-linejoin="round"/>
<path d="M9.88764 8.57788L9.77307 17.0235L2.39136 13.8809L9.88764 8.57788Z" fill="#763D16" stroke="#763D16" stroke-width="1.20278" stroke-linecap="round" stroke-linejoin="round"/>
<path d="M33.8328 8.57788L33.9637 17.0235L30.9685 17.8091L33.8328 8.57788Z" fill="#763D16" stroke="#763D16" stroke-width="1.20278" stroke-linecap="round" stroke-linejoin="round"/>
<path d="M18.8081 12.6863L3.06262 1L16.3366 5.95933L18.8081 12.6863Z" fill="#E4761B" stroke="#E4761B" stroke-width="1.20278" stroke-linecap="round" stroke-linejoin="round"/>
<path d="M40.6584 1L24.913 12.6863L27.3844 5.95933L40.6584 1Z" fill="#E2761B" stroke="#E2761B" stroke-width="1.20278" stroke-linecap="round" stroke-linejoin="round"/>
<path d="M30.4617 35.6828L34.799 29.1849H42.3935L30.4617 35.6828Z" fill="#E4761B" stroke="#E4761B" stroke-width="1.20278" stroke-linecap="round" stroke-linejoin="round"/>
<path d="M1.34363 29.1849H8.93812L13.2591 35.6828L1.34363 29.1849Z" fill="#E4761B" stroke="#E4761B" stroke-width="1.20278" stroke-linecap="round" stroke-linejoin="round"/>
<path d="M33.5549 21.7209L42.3933 29.1845H34.7989L33.5549 21.7209Z" fill="#F6851B" stroke="#F6851B" stroke-width="1.20278" stroke-linecap="round" stroke-linejoin="round"/>
<path d="M10.1657 21.7214L1.34363 29.185L4.19156 20.3138L10.1657 21.7214Z" fill="#F6851B" stroke="#F6851B" stroke-width="1.20278" stroke-linecap="round" stroke-linejoin="round"/>
<path d="M8.93812 29.1845H1.34363L10.1657 21.7209L8.93812 29.1845Z" fill="#F6851B" stroke="#F6851B" stroke-width="1.20278" stroke-linecap="round" stroke-linejoin="round"/>
<path d="M33.5549 21.7214L39.529 20.3138L42.3933 29.185L33.5549 21.7214Z" fill="#F6851B" stroke="#F6851B" stroke-width="1.20278" stroke-linecap="round" stroke-linejoin="round"/>
<path d="M9.88757 8.57788L18.8078 12.6861L12.7519 17.8091L9.88757 8.57788Z" fill="#763D16" stroke="#763D16" stroke-width="1.20278" stroke-linecap="round" stroke-linejoin="round"/>
<path d="M30.9689 17.8091L24.913 12.6861L33.8332 8.57788L30.9689 17.8091Z" fill="#763D16" stroke="#763D16" stroke-width="1.20278" stroke-linecap="round" stroke-linejoin="round"/>
<path d="M39.5289 20.3136L40.5928 17.5148L41.4112 18.104L39.5289 20.3136Z" fill="#763D16" stroke="#763D16" stroke-width="1.20278" stroke-linecap="round" stroke-linejoin="round"/>
<path d="M4.19195 20.3136L2.30969 18.104L3.12806 17.5148L4.19195 20.3136Z" fill="#763D16" stroke="#763D16" stroke-width="1.20278" stroke-linecap="round" stroke-linejoin="round"/>
<path d="M40.5931 17.5149L40.9041 15.5344L41.9025 16.3201L40.5931 17.5149Z" fill="#763D16" stroke="#763D16" stroke-width="1.20278" stroke-linecap="round" stroke-linejoin="round"/>
<path d="M3.12751 17.5149L1.81812 16.3201L2.81653 15.5344L3.12751 17.5149Z" fill="#763D16" stroke="#763D16" stroke-width="1.20278" stroke-linecap="round" stroke-linejoin="round"/>
<path d="M1.50745 14.5358L2.39129 13.8811L2.81684 15.5342L1.50745 14.5358Z" fill="#763D16" stroke="#763D16" stroke-width="1.20278" stroke-linecap="round" stroke-linejoin="round"/>
<path d="M42.2132 14.5358L40.9038 15.5342L41.3457 13.8811L42.2132 14.5358Z" fill="#763D16" stroke="#763D16" stroke-width="1.20278" stroke-linecap="round" stroke-linejoin="round"/>
<path d="M4.19141 20.3138L12.7516 17.8096L10.1655 21.7214L4.19141 20.3138Z" fill="#F6851B" stroke="#F6851B" stroke-width="1.20278" stroke-linecap="round" stroke-linejoin="round"/>
<path d="M39.5287 20.3138L33.5546 21.7214L30.9685 17.8096L39.5287 20.3138Z" fill="#F6851B" stroke="#F6851B" stroke-width="1.20278" stroke-linecap="round" stroke-linejoin="round"/>
<path d="M2.39123 13.8809L1 7.203L9.88752 8.57787L2.39123 13.8809Z" fill="#763D16" stroke="#763D16" stroke-width="1.20278" stroke-linecap="round" stroke-linejoin="round"/>
<path d="M33.8334 8.57787L42.7209 7.203L41.346 13.8809L33.8334 8.57787Z" fill="#763D16" stroke="#763D16" stroke-width="1.20278" stroke-linecap="round" stroke-linejoin="round"/>
<path d="M12.7518 17.8095L18.8078 12.6865L19.3643 22.1305L12.7518 17.8095Z" fill="#E4761B" stroke="#E4761B" stroke-width="1.20278" stroke-linecap="round" stroke-linejoin="round"/>
<path d="M30.9686 17.8096L33.5547 21.7214L24.3562 22.1306L30.9686 17.8096Z" fill="#E4761B" stroke="#E4761B" stroke-width="1.20278" stroke-linecap="round" stroke-linejoin="round"/>
<path d="M24.3562 22.1305L24.9127 12.6865L30.9686 17.8095L24.3562 22.1305Z" fill="#E4761B" stroke="#E4761B" stroke-width="1.20278" stroke-linecap="round" stroke-linejoin="round"/>
<path d="M19.3644 22.1306L10.1659 21.7214L12.7519 17.8096L19.3644 22.1306Z" fill="#E4761B" stroke="#E4761B" stroke-width="1.20278" stroke-linecap="round" stroke-linejoin="round"/>
<path d="M40.6586 1L42.7209 7.20326L33.8334 8.57812L40.6586 1Z" fill="#763D16" stroke="#763D16" stroke-width="1.20278" stroke-linecap="round" stroke-linejoin="round"/>
<path d="M3.06262 1L18.8081 12.6863L9.88784 8.57812L3.06262 1Z" fill="#763D16" stroke="#763D16" stroke-width="1.20278" stroke-linecap="round" stroke-linejoin="round"/>
<path d="M33.8332 8.57812L24.913 12.6863L40.6584 1L33.8332 8.57812Z" fill="#763D16" stroke="#763D16" stroke-width="1.20278" stroke-linecap="round" stroke-linejoin="round"/>
<path d="M9.88837 8.57825L1.00085 7.20338L3.06315 1.00012L9.88837 8.57825Z" fill="#763D16" stroke="#763D16" stroke-width="1.20278" stroke-linecap="round" stroke-linejoin="round"/>
<path d="M13.2595 35.6828L8.93848 29.1849L14.0287 29.2504L13.2595 35.6828Z" fill="#CD6116" stroke="#CD6116" stroke-width="1.20278" stroke-linecap="round" stroke-linejoin="round"/>
<path d="M30.4617 35.6828L29.6924 29.2504L34.799 29.1849L30.4617 35.6828Z" fill="#CD6116" stroke="#CD6116" stroke-width="1.20278" stroke-linecap="round" stroke-linejoin="round"/>
<path d="M24.3565 22.1305H19.3645L18.808 12.6865L24.3565 22.1305Z" fill="#F6851B" stroke="#F6851B" stroke-width="1.20278" stroke-linecap="round" stroke-linejoin="round"/>
<path d="M18.808 12.6865H24.913L24.3565 22.1305L18.808 12.6865Z" fill="#F6851B" stroke="#F6851B" stroke-width="1.20278" stroke-linecap="round" stroke-linejoin="round"/>
<path d="M15.0596 37.1558L13.2592 35.6827L18.4149 38.1215L15.0596 37.1558Z" fill="#C0AD9E" stroke="#C0AD9E" stroke-width="1.20278" stroke-linecap="round" stroke-linejoin="round"/>
<path d="M25.3058 38.1215L30.4615 35.6827L28.6611 37.1558L25.3058 38.1215Z" fill="#C0AD9E" stroke="#C0AD9E" stroke-width="1.20278" stroke-linecap="round" stroke-linejoin="round"/>
<path d="M18.3822 36.5993L18.4149 38.1215L13.2592 35.6827L18.3822 36.5993Z" fill="#D7C1B3" stroke="#D7C1B3" stroke-width="1.20278" stroke-linecap="round" stroke-linejoin="round"/>
<path d="M25.3549 36.5993L30.4615 35.6827L25.3058 38.1215L25.3549 36.5993Z" fill="#D7C1B3" stroke="#D7C1B3" stroke-width="1.20278" stroke-linecap="round" stroke-linejoin="round"/>
<path d="M10.166 21.7209L14.0287 29.25L8.93848 29.1845L10.166 21.7209Z" fill="#F6851B" stroke="#F6851B" stroke-width="1.20278" stroke-linecap="round" stroke-linejoin="round"/>
<path d="M34.799 29.1845L29.6924 29.25L33.5551 21.7209L34.799 29.1845Z" fill="#F6851B" stroke="#F6851B" stroke-width="1.20278" stroke-linecap="round" stroke-linejoin="round"/>
<path d="M10.1659 21.7209L13.8977 25.5018L14.0286 29.25L10.1659 21.7209Z" fill="#E4751F" stroke="#E4751F" stroke-width="1.20278" stroke-linecap="round" stroke-linejoin="round"/>
<path d="M33.5551 21.7209L29.6924 29.25L29.8397 25.5018L33.5551 21.7209Z" fill="#E4751F" stroke="#E4751F" stroke-width="1.20278" stroke-linecap="round" stroke-linejoin="round"/>
<path d="M13.2592 35.6824L18.8077 32.9818L18.3822 36.599L13.2592 35.6824Z" fill="#D7C1B3" stroke="#D7C1B3" stroke-width="1.20278" stroke-linecap="round" stroke-linejoin="round"/>
<path d="M30.4615 35.6824L25.3549 36.599L24.913 32.9818L30.4615 35.6824Z" fill="#D7C1B3" stroke="#D7C1B3" stroke-width="1.20278" stroke-linecap="round" stroke-linejoin="round"/>
<path d="M18.8077 32.9818L13.2592 35.6824L14.0284 29.25L18.8077 32.9818Z" fill="#E4761B" stroke="#E4761B" stroke-width="1.20278" stroke-linecap="round" stroke-linejoin="round"/>
<path d="M24.913 32.9818L29.6923 29.25L30.4615 35.6824L24.913 32.9818Z" fill="#E4761B" stroke="#E4761B" stroke-width="1.20278" stroke-linecap="round" stroke-linejoin="round"/>
<path d="M24.3562 22.1301L33.5547 21.7209L29.8393 25.5018L24.3562 22.1301Z" fill="#CD6116" stroke="#CD6116" stroke-width="1.20278" stroke-linecap="round" stroke-linejoin="round"/>
<path d="M13.8977 25.5018L10.1659 21.7209L19.3644 22.1301L13.8977 25.5018Z" fill="#CD6116" stroke="#CD6116" stroke-width="1.20278" stroke-linecap="round" stroke-linejoin="round"/>
<path d="M19.3643 22.1302L17.1547 24.0125L13.8976 25.5019L19.3643 22.1302Z" fill="#CD6116" stroke="#CD6116" stroke-width="1.20278" stroke-linecap="round" stroke-linejoin="round"/>
<path d="M29.8393 25.5019L26.5658 24.0125L24.3562 22.1302L29.8393 25.5019Z" fill="#CD6116" stroke="#CD6116" stroke-width="1.20278" stroke-linecap="round" stroke-linejoin="round"/>
<path d="M29.6924 29.2501L25.2078 26.8604L29.8397 25.502L29.6924 29.2501Z" fill="#F6851B" stroke="#F6851B" stroke-width="1.20278" stroke-linecap="round" stroke-linejoin="round"/>
<path d="M14.0285 29.2501L13.8976 25.502L18.5132 26.8604L14.0285 29.2501Z" fill="#F6851B" stroke="#F6851B" stroke-width="1.20278" stroke-linecap="round" stroke-linejoin="round"/>
<path d="M18.5132 26.8605L13.8976 25.502L17.1547 24.0126L18.5132 26.8605Z" fill="#233447" stroke="#233447" stroke-width="1.20278" stroke-linecap="round" stroke-linejoin="round"/>
<path d="M25.2078 26.8605L26.5663 24.0126L29.8397 25.502L25.2078 26.8605Z" fill="#233447" stroke="#233447" stroke-width="1.20278" stroke-linecap="round" stroke-linejoin="round"/>
<path d="M26.5658 24.0125L25.2073 26.8604L24.3562 22.1302L26.5658 24.0125Z" fill="#CD6116" stroke="#CD6116" stroke-width="1.20278" stroke-linecap="round" stroke-linejoin="round"/>
<path d="M17.1548 24.0125L19.3644 22.1302L18.5133 26.8604L17.1548 24.0125Z" fill="#CD6116" stroke="#CD6116" stroke-width="1.20278" stroke-linecap="round" stroke-linejoin="round"/>
<path d="M28.6609 37.1556L24.9946 39.6926L25.3056 38.1213L28.6609 37.1556Z" fill="#C0AD9E" stroke="#C0AD9E" stroke-width="1.20278" stroke-linecap="round" stroke-linejoin="round"/>
<path d="M18.4151 38.1213L18.7261 39.6926L15.0598 37.1556L18.4151 38.1213Z" fill="#C0AD9E" stroke="#C0AD9E" stroke-width="1.20278" stroke-linecap="round" stroke-linejoin="round"/>
<path d="M25.2074 26.8604L24.1436 25.1091L24.3563 22.1302L25.2074 26.8604Z" fill="#E2761B" stroke="#E2761B" stroke-width="1.20278" stroke-linecap="round" stroke-linejoin="round"/>
<path d="M18.5132 26.8604L19.3643 22.1302L19.5771 25.1091L18.5132 26.8604Z" fill="#E4751F" stroke="#E4751F" stroke-width="1.20278" stroke-linecap="round" stroke-linejoin="round"/>
<path d="M24.3566 22.1302L24.1438 25.1091H19.5773L24.3566 22.1302Z" fill="#F6851B" stroke="#F6851B" stroke-width="1.20278" stroke-linecap="round" stroke-linejoin="round"/>
<path d="M19.5769 25.1091L19.3641 22.1302H24.3562L19.5769 25.1091Z" fill="#F6851B" stroke="#F6851B" stroke-width="1.20278" stroke-linecap="round" stroke-linejoin="round"/>
<path d="M25.2076 26.8604L29.6923 29.25L24.913 32.9818L25.2076 26.8604Z" fill="#F6851B" stroke="#F6851B" stroke-width="1.20278" stroke-linecap="round" stroke-linejoin="round"/>
<path d="M18.8079 32.9818L14.0286 29.25L18.5132 26.8604L18.8079 32.9818Z" fill="#F6851B" stroke="#F6851B" stroke-width="1.20278" stroke-linecap="round" stroke-linejoin="round"/>
<path d="M18.5132 26.8604L19.5934 32.4416L18.8078 32.9818L18.5132 26.8604Z" fill="#F6851B" stroke="#F6851B" stroke-width="1.20278" stroke-linecap="round" stroke-linejoin="round"/>
<path d="M24.9127 32.9818L24.1271 32.4416L25.2073 26.8604L24.9127 32.9818Z" fill="#F6851B" stroke="#F6851B" stroke-width="1.20278" stroke-linecap="round" stroke-linejoin="round"/>
<path d="M24.1434 25.109L25.2073 26.8603L24.1271 32.4416L24.1434 25.109Z" fill="#E4751F" stroke="#E4751F" stroke-width="1.20278" stroke-linecap="round" stroke-linejoin="round"/>
<path d="M19.5771 25.109L19.5934 32.4416L18.5132 26.8603L19.5771 25.109Z" fill="#E4751F" stroke="#E4751F" stroke-width="1.20278" stroke-linecap="round" stroke-linejoin="round"/>
<path d="M19.5773 25.109H24.1438L24.1274 32.4416L19.5773 25.109Z" fill="#F6851B" stroke="#F6851B" stroke-width="1.20278" stroke-linecap="round" stroke-linejoin="round"/>
<path d="M24.1274 32.4416H19.5936L19.5773 25.109L24.1274 32.4416Z" fill="#F6851B" stroke="#F6851B" stroke-width="1.20278" stroke-linecap="round" stroke-linejoin="round"/>
<path d="M25.3547 36.5989L25.3056 38.121L24.9946 39.6923L25.3547 36.5989Z" fill="#C0AD9E" stroke="#C0AD9E" stroke-width="1.20278" stroke-linecap="round" stroke-linejoin="round"/>
<path d="M18.7259 39.6923L18.4149 38.121L18.3822 36.5989L18.7259 39.6923Z" fill="#C0AD9E" stroke="#C0AD9E" stroke-width="1.20278" stroke-linecap="round" stroke-linejoin="round"/>
<path d="M18.3822 36.599L18.775 36.2389L18.7259 39.6924L18.3822 36.599Z" fill="#C0AD9E" stroke="#C0AD9E" stroke-width="1.20278" stroke-linecap="round" stroke-linejoin="round"/>
<path d="M24.9949 39.6924L24.9458 36.2389L25.355 36.599L24.9949 39.6924Z" fill="#C0AD9E" stroke="#C0AD9E" stroke-width="1.20278" stroke-linecap="round" stroke-linejoin="round"/>
<path d="M18.7257 39.6924L18.7748 36.2389H24.9453L18.7257 39.6924Z" fill="#C0AD9E" stroke="#C0AD9E" stroke-width="1.20278" stroke-linecap="round" stroke-linejoin="round"/>
<path d="M24.9453 36.2389L24.9944 39.6924H18.7257L24.9453 36.2389Z" fill="#C0AD9E" stroke="#C0AD9E" stroke-width="1.20278" stroke-linecap="round" stroke-linejoin="round"/>
<path d="M24.913 32.9818L25.3549 36.599L24.9457 36.2389L24.913 32.9818Z" fill="#161616" stroke="#161616" stroke-width="1.20278" stroke-linecap="round" stroke-linejoin="round"/>
<path d="M18.775 36.2389L18.3822 36.599L18.8078 32.9818L18.775 36.2389Z" fill="#161616" stroke="#161616" stroke-width="1.20278" stroke-linecap="round" stroke-linejoin="round"/>
<path d="M18.8079 32.9818L19.0534 33.7511L18.7751 36.2389L18.8079 32.9818Z" fill="#161616" stroke="#161616" stroke-width="1.20278" stroke-linecap="round" stroke-linejoin="round"/>
<path d="M24.9457 36.2389L24.6675 33.7511L24.913 32.9818L24.9457 36.2389Z" fill="#161616" stroke="#161616" stroke-width="1.20278" stroke-linecap="round" stroke-linejoin="round"/>
<path d="M19.5445 33.1782L19.0535 33.7511L18.808 32.9818L19.5445 33.1782Z" fill="#161616" stroke="#161616" stroke-width="1.20278" stroke-linecap="round" stroke-linejoin="round"/>
<path d="M24.9129 32.9818L24.6674 33.7511L24.1764 33.1782L24.9129 32.9818Z" fill="#161616" stroke="#161616" stroke-width="1.20278" stroke-linecap="round" stroke-linejoin="round"/>
<path d="M24.1762 33.1786L24.1271 32.442L24.9127 32.9821L24.1762 33.1786Z" fill="#161616" stroke="#161616" stroke-width="1.20278" stroke-linecap="round" stroke-linejoin="round"/>
<path d="M18.808 32.9821L19.5936 32.442L19.5445 33.1786L18.808 32.9821Z" fill="#161616" stroke="#161616" stroke-width="1.20278" stroke-linecap="round" stroke-linejoin="round"/>
<path d="M24.1273 32.442L24.1764 33.1786H19.5444L24.1273 32.442Z" fill="#161616" stroke="#161616" stroke-width="1.20278" stroke-linecap="round" stroke-linejoin="round"/>
<path d="M19.5444 33.1786L19.5935 32.442H24.1273L19.5444 33.1786Z" fill="#161616" stroke="#161616" stroke-width="1.20278" stroke-linecap="round" stroke-linejoin="round"/>
<path d="M19.0535 33.7511H24.6675L24.9457 36.2389L19.0535 33.7511Z" fill="#161616" stroke="#161616" stroke-width="1.20278" stroke-linecap="round" stroke-linejoin="round"/>
<path d="M24.9457 36.2389H18.7751L19.0534 33.7511L24.9457 36.2389Z" fill="#161616" stroke="#161616" stroke-width="1.20278" stroke-linecap="round" stroke-linejoin="round"/>
<path d="M19.0535 33.7513L19.5445 33.1785H24.1765L19.0535 33.7513Z" fill="#161616" stroke="#161616" stroke-width="1.20278" stroke-linecap="round" stroke-linejoin="round"/>
<path d="M24.1765 33.1785L24.6675 33.7513H19.0535L24.1765 33.1785Z" fill="#161616" stroke="#161616" stroke-width="1.20278" stroke-linecap="round" stroke-linejoin="round"/>
<path d="M41.4121 18.1041L40.5937 17.5149L41.9031 16.32L40.9047 15.5344L42.2141 14.536L41.3466 13.8813L42.7215 7.20338L40.6592 1.00012L27.3852 5.95946H16.3371L3.06315 1.00012L1.00085 7.20338L2.39209 13.8813L1.50824 14.536L2.81764 15.5344L1.81923 16.32L3.12862 17.5149L2.31025 18.1041L4.1925 20.3137L1.34457 29.1848L3.97973 38.236L13.2601 35.6827L15.0605 37.1558L18.7268 39.6927H24.9955L28.6618 37.1558L30.4622 35.6827L39.7426 38.236L42.3941 29.1848L39.5298 20.3137L41.4121 18.1041Z" fill="#161616" stroke="#161616" stroke-width="1.20278"/>
<path d="M13.2591 35.6828L3.97879 38.2361L1.34363 29.1849L13.2591 35.6828Z" fill="#E4761B" stroke="#E4761B" stroke-width="1.20278" stroke-linecap="round" stroke-linejoin="round"/>
<path d="M42.3935 29.1849L39.742 38.2361L30.4617 35.6828L42.3935 29.1849Z" fill="#E4761B" stroke="#E4761B" stroke-width="1.20278" stroke-linecap="round" stroke-linejoin="round"/>
<path d="M39.5287 20.3137L30.9685 17.8094L33.9637 17.0238L39.5287 20.3137Z" fill="#763D16" stroke="#763D16" stroke-width="1.20278" stroke-linecap="round" stroke-linejoin="round"/>
<path d="M4.19141 20.3137L9.7727 17.0238L12.7516 17.8094L4.19141 20.3137Z" fill="#763D16" stroke="#763D16" stroke-width="1.20278" stroke-linecap="round" stroke-linejoin="round"/>
<path d="M3.12751 17.5149L2.81653 15.5344L9.77269 17.0239L3.12751 17.5149Z" fill="#763D16" stroke="#763D16" stroke-width="1.20278" stroke-linecap="round" stroke-linejoin="round"/>
<path d="M40.5932 17.5149L33.9644 17.0239L40.9041 15.5344L40.5932 17.5149Z" fill="#763D16" stroke="#763D16" stroke-width="1.20278" stroke-linecap="round" stroke-linejoin="round"/>
<path d="M40.5932 17.5148L39.5293 20.3137L33.9644 17.0238L40.5932 17.5148Z" fill="#763D16" stroke="#763D16" stroke-width="1.20278" stroke-linecap="round" stroke-linejoin="round"/>
<path d="M3.12781 17.5148L9.77299 17.0238L4.19169 20.3137L3.12781 17.5148Z" fill="#763D16" stroke="#763D16" stroke-width="1.20278" stroke-linecap="round" stroke-linejoin="round"/>
<path d="M33.9644 17.0237L41.3461 13.8811L40.9041 15.5342L33.9644 17.0237Z" fill="#763D16" stroke="#763D16" stroke-width="1.20278" stroke-linecap="round" stroke-linejoin="round"/>
<path d="M9.77307 17.0237L2.81691 15.5342L2.39136 13.8811L9.77307 17.0237Z" fill="#763D16" stroke="#763D16" stroke-width="1.20278" stroke-linecap="round" stroke-linejoin="round"/>
<path d="M16.3361 5.95911H27.3841L24.9126 12.6861L16.3361 5.95911Z" fill="#F6851B" stroke="#F6851B" stroke-width="1.20278" stroke-linecap="round" stroke-linejoin="round"/>
<path d="M24.9126 12.6861H18.8075L16.3361 5.95911L24.9126 12.6861Z" fill="#F6851B" stroke="#F6851B" stroke-width="1.20278" stroke-linecap="round" stroke-linejoin="round"/>
<path d="M41.346 13.8809L33.9643 17.0235L33.8334 8.57788L41.346 13.8809Z" fill="#763D16" stroke="#763D16" stroke-width="1.20278" stroke-linecap="round" stroke-linejoin="round"/>
<path d="M12.7519 17.8091L9.77307 17.0235L9.88764 8.57788L12.7519 17.8091Z" fill="#763D16" stroke="#763D16" stroke-width="1.20278" stroke-linecap="round" stroke-linejoin="round"/>
<path d="M9.88764 8.57788L9.77307 17.0235L2.39136 13.8809L9.88764 8.57788Z" fill="#763D16" stroke="#763D16" stroke-width="1.20278" stroke-linecap="round" stroke-linejoin="round"/>
<path d="M33.8328 8.57788L33.9637 17.0235L30.9685 17.8091L33.8328 8.57788Z" fill="#763D16" stroke="#763D16" stroke-width="1.20278" stroke-linecap="round" stroke-linejoin="round"/>
<path d="M18.8081 12.6863L3.06262 1L16.3366 5.95933L18.8081 12.6863Z" fill="#E4761B" stroke="#E4761B" stroke-width="1.20278" stroke-linecap="round" stroke-linejoin="round"/>
<path d="M40.6584 1L24.913 12.6863L27.3844 5.95933L40.6584 1Z" fill="#E2761B" stroke="#E2761B" stroke-width="1.20278" stroke-linecap="round" stroke-linejoin="round"/>
<path d="M30.4617 35.6828L34.799 29.1849H42.3935L30.4617 35.6828Z" fill="#E4761B" stroke="#E4761B" stroke-width="1.20278" stroke-linecap="round" stroke-linejoin="round"/>
<path d="M1.34363 29.1849H8.93812L13.2591 35.6828L1.34363 29.1849Z" fill="#E4761B" stroke="#E4761B" stroke-width="1.20278" stroke-linecap="round" stroke-linejoin="round"/>
<path d="M33.5549 21.7209L42.3933 29.1845H34.7989L33.5549 21.7209Z" fill="#F6851B" stroke="#F6851B" stroke-width="1.20278" stroke-linecap="round" stroke-linejoin="round"/>
<path d="M10.1657 21.7214L1.34363 29.185L4.19156 20.3138L10.1657 21.7214Z" fill="#F6851B" stroke="#F6851B" stroke-width="1.20278" stroke-linecap="round" stroke-linejoin="round"/>
<path d="M8.93812 29.1845H1.34363L10.1657 21.7209L8.93812 29.1845Z" fill="#F6851B" stroke="#F6851B" stroke-width="1.20278" stroke-linecap="round" stroke-linejoin="round"/>
<path d="M33.5549 21.7214L39.529 20.3138L42.3933 29.185L33.5549 21.7214Z" fill="#F6851B" stroke="#F6851B" stroke-width="1.20278" stroke-linecap="round" stroke-linejoin="round"/>
<path d="M9.88757 8.57788L18.8078 12.6861L12.7519 17.8091L9.88757 8.57788Z" fill="#763D16" stroke="#763D16" stroke-width="1.20278" stroke-linecap="round" stroke-linejoin="round"/>
<path d="M30.9689 17.8091L24.913 12.6861L33.8332 8.57788L30.9689 17.8091Z" fill="#763D16" stroke="#763D16" stroke-width="1.20278" stroke-linecap="round" stroke-linejoin="round"/>
<path d="M39.5289 20.3136L40.5928 17.5148L41.4112 18.104L39.5289 20.3136Z" fill="#763D16" stroke="#763D16" stroke-width="1.20278" stroke-linecap="round" stroke-linejoin="round"/>
<path d="M4.19195 20.3136L2.30969 18.104L3.12806 17.5148L4.19195 20.3136Z" fill="#763D16" stroke="#763D16" stroke-width="1.20278" stroke-linecap="round" stroke-linejoin="round"/>
<path d="M40.5931 17.5149L40.9041 15.5344L41.9025 16.3201L40.5931 17.5149Z" fill="#763D16" stroke="#763D16" stroke-width="1.20278" stroke-linecap="round" stroke-linejoin="round"/>
<path d="M3.12751 17.5149L1.81812 16.3201L2.81653 15.5344L3.12751 17.5149Z" fill="#763D16" stroke="#763D16" stroke-width="1.20278" stroke-linecap="round" stroke-linejoin="round"/>
<path d="M1.50745 14.5358L2.39129 13.8811L2.81684 15.5342L1.50745 14.5358Z" fill="#763D16" stroke="#763D16" stroke-width="1.20278" stroke-linecap="round" stroke-linejoin="round"/>
<path d="M42.2132 14.5358L40.9038 15.5342L41.3457 13.8811L42.2132 14.5358Z" fill="#763D16" stroke="#763D16" stroke-width="1.20278" stroke-linecap="round" stroke-linejoin="round"/>
<path d="M4.19141 20.3138L12.7516 17.8096L10.1655 21.7214L4.19141 20.3138Z" fill="#F6851B" stroke="#F6851B" stroke-width="1.20278" stroke-linecap="round" stroke-linejoin="round"/>
<path d="M39.5287 20.3138L33.5546 21.7214L30.9685 17.8096L39.5287 20.3138Z" fill="#F6851B" stroke="#F6851B" stroke-width="1.20278" stroke-linecap="round" stroke-linejoin="round"/>
<path d="M2.39123 13.8809L1 7.203L9.88752 8.57787L2.39123 13.8809Z" fill="#763D16" stroke="#763D16" stroke-width="1.20278" stroke-linecap="round" stroke-linejoin="round"/>
<path d="M33.8334 8.57787L42.7209 7.203L41.346 13.8809L33.8334 8.57787Z" fill="#763D16" stroke="#763D16" stroke-width="1.20278" stroke-linecap="round" stroke-linejoin="round"/>
<path d="M12.7518 17.8095L18.8078 12.6865L19.3643 22.1305L12.7518 17.8095Z" fill="#E4761B" stroke="#E4761B" stroke-width="1.20278" stroke-linecap="round" stroke-linejoin="round"/>
<path d="M30.9686 17.8096L33.5547 21.7214L24.3562 22.1306L30.9686 17.8096Z" fill="#E4761B" stroke="#E4761B" stroke-width="1.20278" stroke-linecap="round" stroke-linejoin="round"/>
<path d="M24.3562 22.1305L24.9127 12.6865L30.9686 17.8095L24.3562 22.1305Z" fill="#E4761B" stroke="#E4761B" stroke-width="1.20278" stroke-linecap="round" stroke-linejoin="round"/>
<path d="M19.3644 22.1306L10.1659 21.7214L12.7519 17.8096L19.3644 22.1306Z" fill="#E4761B" stroke="#E4761B" stroke-width="1.20278" stroke-linecap="round" stroke-linejoin="round"/>
<path d="M40.6586 1L42.7209 7.20326L33.8334 8.57812L40.6586 1Z" fill="#763D16" stroke="#763D16" stroke-width="1.20278" stroke-linecap="round" stroke-linejoin="round"/>
<path d="M3.06262 1L18.8081 12.6863L9.88784 8.57812L3.06262 1Z" fill="#763D16" stroke="#763D16" stroke-width="1.20278" stroke-linecap="round" stroke-linejoin="round"/>
<path d="M33.8332 8.57812L24.913 12.6863L40.6584 1L33.8332 8.57812Z" fill="#763D16" stroke="#763D16" stroke-width="1.20278" stroke-linecap="round" stroke-linejoin="round"/>
<path d="M9.88837 8.57825L1.00085 7.20338L3.06315 1.00012L9.88837 8.57825Z" fill="#763D16" stroke="#763D16" stroke-width="1.20278" stroke-linecap="round" stroke-linejoin="round"/>
<path d="M13.2595 35.6828L8.93848 29.1849L14.0287 29.2504L13.2595 35.6828Z" fill="#CD6116" stroke="#CD6116" stroke-width="1.20278" stroke-linecap="round" stroke-linejoin="round"/>
<path d="M30.4617 35.6828L29.6924 29.2504L34.799 29.1849L30.4617 35.6828Z" fill="#CD6116" stroke="#CD6116" stroke-width="1.20278" stroke-linecap="round" stroke-linejoin="round"/>
<path d="M24.3565 22.1305H19.3645L18.808 12.6865L24.3565 22.1305Z" fill="#F6851B" stroke="#F6851B" stroke-width="1.20278" stroke-linecap="round" stroke-linejoin="round"/>
<path d="M18.808 12.6865H24.913L24.3565 22.1305L18.808 12.6865Z" fill="#F6851B" stroke="#F6851B" stroke-width="1.20278" stroke-linecap="round" stroke-linejoin="round"/>
<path d="M15.0596 37.1558L13.2592 35.6827L18.4149 38.1215L15.0596 37.1558Z" fill="#C0AD9E" stroke="#C0AD9E" stroke-width="1.20278" stroke-linecap="round" stroke-linejoin="round"/>
<path d="M25.3058 38.1215L30.4615 35.6827L28.6611 37.1558L25.3058 38.1215Z" fill="#C0AD9E" stroke="#C0AD9E" stroke-width="1.20278" stroke-linecap="round" stroke-linejoin="round"/>
<path d="M18.3822 36.5993L18.4149 38.1215L13.2592 35.6827L18.3822 36.5993Z" fill="#D7C1B3" stroke="#D7C1B3" stroke-width="1.20278" stroke-linecap="round" stroke-linejoin="round"/>
<path d="M25.3549 36.5993L30.4615 35.6827L25.3058 38.1215L25.3549 36.5993Z" fill="#D7C1B3" stroke="#D7C1B3" stroke-width="1.20278" stroke-linecap="round" stroke-linejoin="round"/>
<path d="M10.166 21.7209L14.0287 29.25L8.93848 29.1845L10.166 21.7209Z" fill="#F6851B" stroke="#F6851B" stroke-width="1.20278" stroke-linecap="round" stroke-linejoin="round"/>
<path d="M34.799 29.1845L29.6924 29.25L33.5551 21.7209L34.799 29.1845Z" fill="#F6851B" stroke="#F6851B" stroke-width="1.20278" stroke-linecap="round" stroke-linejoin="round"/>
<path d="M10.1659 21.7209L13.8977 25.5018L14.0286 29.25L10.1659 21.7209Z" fill="#E4751F" stroke="#E4751F" stroke-width="1.20278" stroke-linecap="round" stroke-linejoin="round"/>
<path d="M33.5551 21.7209L29.6924 29.25L29.8397 25.5018L33.5551 21.7209Z" fill="#E4751F" stroke="#E4751F" stroke-width="1.20278" stroke-linecap="round" stroke-linejoin="round"/>
<path d="M13.2592 35.6824L18.8077 32.9818L18.3822 36.599L13.2592 35.6824Z" fill="#D7C1B3" stroke="#D7C1B3" stroke-width="1.20278" stroke-linecap="round" stroke-linejoin="round"/>
<path d="M30.4615 35.6824L25.3549 36.599L24.913 32.9818L30.4615 35.6824Z" fill="#D7C1B3" stroke="#D7C1B3" stroke-width="1.20278" stroke-linecap="round" stroke-linejoin="round"/>
<path d="M18.8077 32.9818L13.2592 35.6824L14.0284 29.25L18.8077 32.9818Z" fill="#E4761B" stroke="#E4761B" stroke-width="1.20278" stroke-linecap="round" stroke-linejoin="round"/>
<path d="M24.913 32.9818L29.6923 29.25L30.4615 35.6824L24.913 32.9818Z" fill="#E4761B" stroke="#E4761B" stroke-width="1.20278" stroke-linecap="round" stroke-linejoin="round"/>
<path d="M24.3562 22.1301L33.5547 21.7209L29.8393 25.5018L24.3562 22.1301Z" fill="#CD6116" stroke="#CD6116" stroke-width="1.20278" stroke-linecap="round" stroke-linejoin="round"/>
<path d="M13.8977 25.5018L10.1659 21.7209L19.3644 22.1301L13.8977 25.5018Z" fill="#CD6116" stroke="#CD6116" stroke-width="1.20278" stroke-linecap="round" stroke-linejoin="round"/>
<path d="M19.3643 22.1302L17.1547 24.0125L13.8976 25.5019L19.3643 22.1302Z" fill="#CD6116" stroke="#CD6116" stroke-width="1.20278" stroke-linecap="round" stroke-linejoin="round"/>
<path d="M29.8393 25.5019L26.5658 24.0125L24.3562 22.1302L29.8393 25.5019Z" fill="#CD6116" stroke="#CD6116" stroke-width="1.20278" stroke-linecap="round" stroke-linejoin="round"/>
<path d="M29.6924 29.2501L25.2078 26.8604L29.8397 25.502L29.6924 29.2501Z" fill="#F6851B" stroke="#F6851B" stroke-width="1.20278" stroke-linecap="round" stroke-linejoin="round"/>
<path d="M14.0285 29.2501L13.8976 25.502L18.5132 26.8604L14.0285 29.2501Z" fill="#F6851B" stroke="#F6851B" stroke-width="1.20278" stroke-linecap="round" stroke-linejoin="round"/>
<path d="M18.5132 26.8605L13.8976 25.502L17.1547 24.0126L18.5132 26.8605Z" fill="#233447" stroke="#233447" stroke-width="1.20278" stroke-linecap="round" stroke-linejoin="round"/>
<path d="M25.2078 26.8605L26.5663 24.0126L29.8397 25.502L25.2078 26.8605Z" fill="#233447" stroke="#233447" stroke-width="1.20278" stroke-linecap="round" stroke-linejoin="round"/>
<path d="M26.5658 24.0125L25.2073 26.8604L24.3562 22.1302L26.5658 24.0125Z" fill="#CD6116" stroke="#CD6116" stroke-width="1.20278" stroke-linecap="round" stroke-linejoin="round"/>
<path d="M17.1548 24.0125L19.3644 22.1302L18.5133 26.8604L17.1548 24.0125Z" fill="#CD6116" stroke="#CD6116" stroke-width="1.20278" stroke-linecap="round" stroke-linejoin="round"/>
<path d="M28.6609 37.1556L24.9946 39.6926L25.3056 38.1213L28.6609 37.1556Z" fill="#C0AD9E" stroke="#C0AD9E" stroke-width="1.20278" stroke-linecap="round" stroke-linejoin="round"/>
<path d="M18.4151 38.1213L18.7261 39.6926L15.0598 37.1556L18.4151 38.1213Z" fill="#C0AD9E" stroke="#C0AD9E" stroke-width="1.20278" stroke-linecap="round" stroke-linejoin="round"/>
<path d="M25.2074 26.8604L24.1436 25.1091L24.3563 22.1302L25.2074 26.8604Z" fill="#E2761B" stroke="#E2761B" stroke-width="1.20278" stroke-linecap="round" stroke-linejoin="round"/>
<path d="M18.5132 26.8604L19.3643 22.1302L19.5771 25.1091L18.5132 26.8604Z" fill="#E4751F" stroke="#E4751F" stroke-width="1.20278" stroke-linecap="round" stroke-linejoin="round"/>
<path d="M24.3566 22.1302L24.1438 25.1091H19.5773L24.3566 22.1302Z" fill="#F6851B" stroke="#F6851B" stroke-width="1.20278" stroke-linecap="round" stroke-linejoin="round"/>
<path d="M19.5769 25.1091L19.3641 22.1302H24.3562L19.5769 25.1091Z" fill="#F6851B" stroke="#F6851B" stroke-width="1.20278" stroke-linecap="round" stroke-linejoin="round"/>
<path d="M25.2076 26.8604L29.6923 29.25L24.913 32.9818L25.2076 26.8604Z" fill="#F6851B" stroke="#F6851B" stroke-width="1.20278" stroke-linecap="round" stroke-linejoin="round"/>
<path d="M18.8079 32.9818L14.0286 29.25L18.5132 26.8604L18.8079 32.9818Z" fill="#F6851B" stroke="#F6851B" stroke-width="1.20278" stroke-linecap="round" stroke-linejoin="round"/>
<path d="M18.5132 26.8604L19.5934 32.4416L18.8078 32.9818L18.5132 26.8604Z" fill="#F6851B" stroke="#F6851B" stroke-width="1.20278" stroke-linecap="round" stroke-linejoin="round"/>
<path d="M24.9127 32.9818L24.1271 32.4416L25.2073 26.8604L24.9127 32.9818Z" fill="#F6851B" stroke="#F6851B" stroke-width="1.20278" stroke-linecap="round" stroke-linejoin="round"/>
<path d="M24.1434 25.109L25.2073 26.8603L24.1271 32.4416L24.1434 25.109Z" fill="#E4751F" stroke="#E4751F" stroke-width="1.20278" stroke-linecap="round" stroke-linejoin="round"/>
<path d="M19.5771 25.109L19.5934 32.4416L18.5132 26.8603L19.5771 25.109Z" fill="#E4751F" stroke="#E4751F" stroke-width="1.20278" stroke-linecap="round" stroke-linejoin="round"/>
<path d="M19.5773 25.109H24.1438L24.1274 32.4416L19.5773 25.109Z" fill="#F6851B" stroke="#F6851B" stroke-width="1.20278" stroke-linecap="round" stroke-linejoin="round"/>
<path d="M24.1274 32.4416H19.5936L19.5773 25.109L24.1274 32.4416Z" fill="#F6851B" stroke="#F6851B" stroke-width="1.20278" stroke-linecap="round" stroke-linejoin="round"/>
<path d="M25.3547 36.5989L25.3056 38.121L24.9946 39.6923L25.3547 36.5989Z" fill="#C0AD9E" stroke="#C0AD9E" stroke-width="1.20278" stroke-linecap="round" stroke-linejoin="round"/>
<path d="M18.7259 39.6923L18.4149 38.121L18.3822 36.5989L18.7259 39.6923Z" fill="#C0AD9E" stroke="#C0AD9E" stroke-width="1.20278" stroke-linecap="round" stroke-linejoin="round"/>
<path d="M18.3822 36.599L18.775 36.2389L18.7259 39.6924L18.3822 36.599Z" fill="#C0AD9E" stroke="#C0AD9E" stroke-width="1.20278" stroke-linecap="round" stroke-linejoin="round"/>
<path d="M24.9949 39.6924L24.9458 36.2389L25.355 36.599L24.9949 39.6924Z" fill="#C0AD9E" stroke="#C0AD9E" stroke-width="1.20278" stroke-linecap="round" stroke-linejoin="round"/>
<path d="M18.7257 39.6924L18.7748 36.2389H24.9453L18.7257 39.6924Z" fill="#C0AD9E" stroke="#C0AD9E" stroke-width="1.20278" stroke-linecap="round" stroke-linejoin="round"/>
<path d="M24.9453 36.2389L24.9944 39.6924H18.7257L24.9453 36.2389Z" fill="#C0AD9E" stroke="#C0AD9E" stroke-width="1.20278" stroke-linecap="round" stroke-linejoin="round"/>
<path d="M24.913 32.9818L25.3549 36.599L24.9457 36.2389L24.913 32.9818Z" fill="#161616" stroke="#161616" stroke-width="1.20278" stroke-linecap="round" stroke-linejoin="round"/>
<path d="M18.775 36.2389L18.3822 36.599L18.8078 32.9818L18.775 36.2389Z" fill="#161616" stroke="#161616" stroke-width="1.20278" stroke-linecap="round" stroke-linejoin="round"/>
<path d="M18.8079 32.9818L19.0534 33.7511L18.7751 36.2389L18.8079 32.9818Z" fill="#161616" stroke="#161616" stroke-width="1.20278" stroke-linecap="round" stroke-linejoin="round"/>
<path d="M24.9457 36.2389L24.6675 33.7511L24.913 32.9818L24.9457 36.2389Z" fill="#161616" stroke="#161616" stroke-width="1.20278" stroke-linecap="round" stroke-linejoin="round"/>
<path d="M19.5445 33.1782L19.0535 33.7511L18.808 32.9818L19.5445 33.1782Z" fill="#161616" stroke="#161616" stroke-width="1.20278" stroke-linecap="round" stroke-linejoin="round"/>
<path d="M24.9129 32.9818L24.6674 33.7511L24.1764 33.1782L24.9129 32.9818Z" fill="#161616" stroke="#161616" stroke-width="1.20278" stroke-linecap="round" stroke-linejoin="round"/>
<path d="M24.1762 33.1786L24.1271 32.442L24.9127 32.9821L24.1762 33.1786Z" fill="#161616" stroke="#161616" stroke-width="1.20278" stroke-linecap="round" stroke-linejoin="round"/>
<path d="M18.808 32.9821L19.5936 32.442L19.5445 33.1786L18.808 32.9821Z" fill="#161616" stroke="#161616" stroke-width="1.20278" stroke-linecap="round" stroke-linejoin="round"/>
<path d="M24.1273 32.442L24.1764 33.1786H19.5444L24.1273 32.442Z" fill="#161616" stroke="#161616" stroke-width="1.20278" stroke-linecap="round" stroke-linejoin="round"/>
<path d="M19.5444 33.1786L19.5935 32.442H24.1273L19.5444 33.1786Z" fill="#161616" stroke="#161616" stroke-width="1.20278" stroke-linecap="round" stroke-linejoin="round"/>
<path d="M19.0535 33.7511H24.6675L24.9457 36.2389L19.0535 33.7511Z" fill="#161616" stroke="#161616" stroke-width="1.20278" stroke-linecap="round" stroke-linejoin="round"/>
<path d="M24.9457 36.2389H18.7751L19.0534 33.7511L24.9457 36.2389Z" fill="#161616" stroke="#161616" stroke-width="1.20278" stroke-linecap="round" stroke-linejoin="round"/>
<path d="M19.0535 33.7513L19.5445 33.1785H24.1765L19.0535 33.7513Z" fill="#161616" stroke="#161616" stroke-width="1.20278" stroke-linecap="round" stroke-linejoin="round"/>
<path d="M24.1765 33.1785L24.6675 33.7513H19.0535L24.1765 33.1785Z" fill="#161616" stroke="#161616" stroke-width="1.20278" stroke-linecap="round" stroke-linejoin="round"/>
</svg>
