<svg width="44" height="40" viewBox="0 0 44 40" fill="none" xmlns="http://www.w3.org/2000/svg">
<path opacity="0.8" d="M43.4917 1.14258V15.9488L0 33.4439L43.4917 1.14258Z" fill="white"/>
<path d="M35.3383 0.5V26.0417C35.3383 29.611 33.9063 33.0342 31.3573 35.5581C28.8083 38.0821 25.3511 39.5 21.7463 39.5C18.1415 39.5 14.6843 38.0821 12.1353 35.5581C9.58631 33.0342 8.1543 29.611 8.1543 26.0417V15.2791L16.3081 10.8359V26.0417C16.2318 26.7053 16.2979 27.3774 16.5021 28.014C16.7064 28.6506 17.0441 29.2372 17.4933 29.7355C17.9425 30.2338 18.4929 30.6325 19.1085 30.9055C19.7242 31.1785 20.3911 31.3197 21.0657 31.3197C21.7402 31.3197 22.4072 31.1785 23.0228 30.9055C23.6384 30.6325 24.1889 30.2338 24.638 29.7355C25.0872 29.2372 25.425 28.6506 25.6292 28.014C25.8335 27.3774 25.8996 26.7053 25.8232 26.0417V5.65439L35.3383 0.5Z" fill="white"/>
</svg>
