<svg width="54" height="34" viewBox="0 0 54 34" fill="none" xmlns="http://www.w3.org/2000/svg">
<path d="M11.055 6.46657C19.8613 -2.15552 34.1391 -2.15552 42.9454 6.46657L44.0053 7.50426C44.4456 7.93536 44.4456 8.63432 44.0053 9.06543L40.3797 12.6151C40.1596 12.8307 39.8026 12.8307 39.5825 12.6151L38.124 11.1872C31.9805 5.17217 22.0199 5.17217 15.8764 11.1872L14.3145 12.7164C14.0944 12.932 13.7374 12.932 13.5173 12.7164L9.89171 9.16669C9.45139 8.73559 9.45139 8.03663 9.89171 7.60553L11.055 6.46657ZM50.4434 13.8077L53.6701 16.967C54.1104 17.3981 54.1104 18.0971 53.6701 18.5282L39.1205 32.7737C38.6802 33.2048 37.9663 33.2048 37.526 32.7737C37.526 32.7737 37.526 32.7737 37.526 32.7737L27.1996 22.6632C27.0895 22.5554 26.911 22.5554 26.801 22.6632C26.801 22.6632 26.801 22.6632 26.801 22.6632L16.4748 32.7737C16.0345 33.2048 15.3206 33.2048 14.8802 32.7737C14.8802 32.7737 14.8802 32.7737 14.8802 32.7737L0.330236 18.528C-0.110079 18.0969 -0.110079 17.3979 0.330236 16.9668L3.55698 13.8076C3.9973 13.3765 4.71119 13.3765 5.1515 13.8076L15.4781 23.9181C15.5881 24.0259 15.7666 24.0259 15.8767 23.9181C15.8767 23.9181 15.8767 23.9181 15.8767 23.9181L26.2027 13.8076C26.6431 13.3764 27.3569 13.3764 27.7973 13.8075C27.7973 13.8075 27.7973 13.8075 27.7973 13.8075L38.1238 23.9181C38.2339 24.0259 38.4124 24.0259 38.5225 23.9181L48.8489 13.8077C49.2892 13.3766 50.0031 13.3766 50.4434 13.8077Z" fill="white"/>
</svg>
