<svg width="14" height="14" viewBox="0 0 14 14" fill="none" xmlns="http://www.w3.org/2000/svg">
<path d="M9.82843 5.11474L8.88562 4.17193L7 6.05755L5.11438 4.17193L4.17157 5.11474L6.05719 7.00036L4.17157 8.88597L5.11438 9.82878L7 7.94317L8.88562 9.82878L9.82843 8.88597L7.94281 7.00036L9.82843 5.11474ZM11.714 2.28631C9.11189 -0.315842 4.88811 -0.315842 2.28595 2.28631C-0.316198 4.88846 -0.316198 9.11225 2.28595 11.7144C4.88811 14.3166 9.11189 14.3166 11.714 11.7144C14.3162 9.11225 14.3162 4.88846 11.714 2.28631ZM3.22876 10.7716C1.14987 8.6927 1.14987 5.30801 3.22876 3.22912C5.30766 1.15023 8.69234 1.15023 10.7712 3.22912C12.8501 5.30801 12.8501 8.6927 10.7712 10.7716C8.69234 12.8505 5.30766 12.8505 3.22876 10.7716Z" fill="#F44336"/>
</svg>
