<svg width="13" height="14" viewBox="0 0 13 14" fill="none" xmlns="http://www.w3.org/2000/svg">
<path fill-rule="evenodd" clip-rule="evenodd" d="M0.650024 3.75L1.75502 4.38806C1.98186 3.99408 2.26043 3.63327 2.58676 3.30694C3.06696 2.82674 3.62543 2.45 4.24758 2.18735C4.89094 1.91541 5.57411 1.77745 6.27982 1.77745C6.98554 1.77745 7.67002 1.91541 8.31207 2.18735C8.93421 2.45 9.49268 2.82674 9.97288 3.30694C10.4531 3.78714 10.8298 4.34561 11.0925 4.96776C11.3657 5.6098 11.5037 6.29429 11.5037 7C11.5037 7.70571 11.3657 8.3902 11.0938 9.03225C10.8311 9.65439 10.4544 10.2129 9.97421 10.6931C9.494 11.1733 8.93554 11.55 8.31339 11.8127C7.67003 12.0846 6.98686 12.2226 6.28115 12.2226C5.82615 12.2226 5.37645 12.1642 4.94135 12.0501C4.52084 11.9387 4.1136 11.7742 3.73288 11.5606C2.98207 11.1401 2.3387 10.5339 1.87574 9.80694C1.83462 9.74194 1.79482 9.67694 1.75635 9.61061L0.650024 10.25C0.69778 10.3336 0.748188 10.4145 0.798596 10.4954C1.954 12.3021 3.97696 13.5 6.27982 13.5C9.86941 13.5 12.7798 10.5896 12.7798 7C12.7798 3.41041 9.86941 0.499999 6.27982 0.499999C3.87482 0.499999 1.7736 1.80663 0.650024 3.75Z" fill="url(#paint0_linear)"/>
<defs>
<linearGradient id="paint0_linear" x1="6.71492" y1="13.5" x2="6.01855" y2="0.504816" gradientUnits="userSpaceOnUse">
<stop stop-color="#C532F9"/>
<stop offset="1" stop-color="#32B2E5"/>
</linearGradient>
</defs>
</svg>
