<svg width="14" height="14" viewBox="0 0 14 14" fill="none" xmlns="http://www.w3.org/2000/svg">
<path d="M7.00004 0.333984C3.32004 0.333984 0.333374 3.32065 0.333374 7.00065C0.333374 10.6807 3.32004 13.6673 7.00004 13.6673C10.68 13.6673 13.6667 10.6807 13.6667 7.00065C13.6667 3.32065 10.68 0.333984 7.00004 0.333984ZM7.00004 12.334C4.06004 12.334 1.66671 9.94065 1.66671 7.00065C1.66671 4.06065 4.06004 1.66732 7.00004 1.66732C9.94004 1.66732 12.3334 4.06065 12.3334 7.00065C12.3334 9.94065 9.94004 12.334 7.00004 12.334ZM10.06 4.05398L5.66671 8.44732L3.94004 6.72732L3.00004 7.66732L5.66671 10.334L11 5.00065L10.06 4.05398Z" fill="#16C784"/>
</svg>
