<svg width="135" height="39" viewBox="0 0 135 39" fill="none" xmlns="http://www.w3.org/2000/svg">
<path d="M30.8499 12.7118L16.4303 14.6344C14.7069 14.864 13.3281 16.471 13.3281 18.2214V25.4241C13.3281 28.2363 15.3963 30.4172 18.1251 30.245C18.24 30.245 18.3549 30.2163 18.4698 30.2163C20.4517 29.958 22.1752 28.5519 23.0369 26.7441C23.1518 26.4858 23.3816 26.3423 23.6114 26.3136C23.8412 26.285 24.071 26.371 24.1859 26.5719C25.0476 28.1502 26.771 29.0971 28.753 28.8102C31.5967 28.4371 33.9234 25.7684 33.9234 22.8414L33.9521 15.4379C33.9234 13.7449 32.5446 12.4822 30.8499 12.7118ZM20.5092 24.4771C20.5092 25.4241 19.8198 26.1989 18.9006 26.371C17.7229 26.5719 16.6601 25.6536 16.6601 24.4771V19.8571C16.6601 18.8814 17.407 18.0492 18.3836 17.9632C19.5325 17.8484 20.5092 18.7379 20.5092 19.8858V24.4771ZM30.735 22.7267C30.735 23.6162 30.0743 24.391 29.2126 24.5345C28.0923 24.7354 27.0583 23.8458 27.0583 22.7267V18.4223C27.0583 17.504 27.7477 16.7292 28.6668 16.5857C29.7871 16.4423 30.7637 17.3031 30.7637 18.4223L30.735 22.7267Z" fill="white"/>
<path d="M36.1349 9.4123C36.0775 9.35491 35.9913 9.29752 35.9339 9.24013C35.9051 9.21143 35.3307 8.80969 35.3019 8.781C34.8711 8.52273 30.3327 6.05489 28.6954 5.16532C28.1209 4.84966 27.5177 4.70618 26.857 4.70618C26.7996 4.70618 25.9379 4.73488 25.5644 4.73488C24.5304 4.73488 23.6399 4.67749 22.8357 4.53401C22.5197 4.47661 22.2899 4.44792 22.1463 4.36183C20.9399 3.70183 19.7047 3.04182 18.4983 2.38182L17.9525 2.09486C17.7515 1.98007 17.4068 1.83659 17.0046 1.75051C16.8036 1.72181 16.6312 1.69312 16.4302 1.69312C15.7121 1.69312 14.6493 1.92268 13.7301 3.07052C13.7301 3.07052 13.2992 3.61574 13.1556 3.75922C12.4088 4.5627 11.4609 5.2801 10.2832 5.91141C9.04805 6.57141 7.64057 7.08794 5.83094 7.57577C5.83094 7.57577 4.76815 7.83403 4.30856 8.09229C2.67129 8.98187 1.78084 10.5027 1.75211 12.368C1.72339 13.9176 1.75211 15.4958 1.75211 16.988C1.75211 17.1315 1.75211 17.275 1.75211 17.4185L1.72339 18.968V20.575C1.72339 22.2681 1.72339 23.9324 1.72339 25.6255C1.72339 26.0846 1.78084 26.515 1.83829 26.9168C2.2117 28.6098 3.13087 29.9872 4.50963 30.9342C5.17029 31.3933 12.9833 35.5829 13.4141 35.7264C13.4428 35.7551 13.5003 35.7551 13.529 35.7838C13.7014 35.8412 13.8737 35.8986 14.0461 35.9273C14.161 35.956 14.2758 36.0134 14.4195 36.0421C14.4769 36.0421 14.5056 36.0708 14.5631 36.0708C15.7695 36.3577 17.1195 36.5299 18.6132 36.5299C19.8771 36.5299 21.2845 36.4151 22.7495 36.2142L23.2378 36.1569C28.9252 35.3534 32.9753 33.5168 35.3019 30.6472C37.1116 28.4377 37.2552 26.3429 37.2552 25.7689L37.2839 12.4254C37.3126 11.2201 36.8818 10.1584 36.1349 9.4123ZM35.6754 25.7116C35.6754 26.0559 35.6754 32.742 23.0367 34.5212C22.9505 34.5212 22.6059 34.5786 22.5484 34.5786C9.9385 36.3577 9.9385 29.6716 9.9385 29.3272L9.96723 15.9837C9.96723 14.5489 10.9726 13.2002 12.2939 12.8845C17.6653 11.6219 20.3079 9.49839 21.6005 7.71925L21.6867 7.60446C22.0027 7.23142 22.4048 6.97316 22.8644 6.91576C23.324 6.85837 23.7261 7.00185 24.0421 7.28881L24.0995 7.3749C25.3921 8.781 28.006 10.1871 33.3774 9.92883C34.6987 9.87144 35.7041 10.9332 35.7041 12.368L35.6754 25.7116Z" fill="white"/>
<g clip-path="url(#clip0)">
<path d="M63.7928 20.6244C63.0535 20.1781 62.2134 19.9261 61.3505 19.8917V19.6746C62.1076 19.5119 62.8263 19.2048 63.4672 18.77C64.0869 18.3387 64.5904 17.7607 64.9326 17.0876C65.2982 16.3616 65.4813 15.5574 65.4663 14.7447C65.4792 13.6866 65.1872 12.6472 64.625 11.7506C64.0041 10.8307 63.1265 10.1135 62.1013 9.68823C60.7705 9.15767 59.3452 8.90524 57.9132 8.94649H48.7952V31.7053H58.5192C59.9948 31.7531 61.4625 31.4719 62.8159 30.8821C63.895 30.4103 64.8129 29.6338 65.4572 28.6479C66.0625 27.6806 66.3765 26.5595 66.3618 25.4186C66.3901 24.4079 66.1464 23.4082 65.6562 22.524C65.208 21.7417 64.5664 21.0876 63.7928 20.6244ZM53.6074 12.8361H57.2257C58.1168 12.7797 58.9979 13.0498 59.7042 13.5959C59.9958 13.8355 60.2289 14.1385 60.3857 14.4818C60.5425 14.8251 60.6188 15.1997 60.6088 15.5769C60.6165 16.1149 60.4586 16.6423 60.1565 17.0876C59.8521 17.5284 59.4286 17.8735 58.9353 18.0826C58.3658 18.3325 57.7479 18.453 57.1262 18.4354H53.6074V12.8361ZM60.464 27.0377C59.6046 27.6234 58.5695 27.8949 57.5332 27.8066H53.6074V21.728H57.6418C58.3305 21.7096 59.0142 21.8489 59.6409 22.135C60.1689 22.3884 60.6166 22.7828 60.9344 23.2748C61.2408 23.7751 61.3978 24.3526 61.3867 24.9392C61.4073 25.3367 61.3346 25.7335 61.1744 26.0979C61.0142 26.4623 60.7709 26.7842 60.464 27.0377Z" fill="white"/>
<path d="M80.5726 15.7849C79.8652 15.3034 79.0781 14.9512 78.2478 14.7446C77.3603 14.5231 76.449 14.4107 75.5341 14.4099C74.299 14.3818 73.0702 14.5938 71.9159 15.0341C70.939 15.3995 70.0685 16.0027 69.3831 16.7889C68.723 17.5678 68.2717 18.5015 68.0715 19.5026L72.4496 19.8554C72.616 19.2879 72.97 18.7937 73.4537 18.4533C74.0521 18.0481 74.7673 17.851 75.4889 17.8925C76.1613 17.8506 76.8263 18.053 77.3614 18.4624C77.5842 18.6706 77.7589 18.925 77.8729 19.2079C77.987 19.4907 78.0378 19.7951 78.0217 20.0996V20.172C78.0309 20.3324 77.9972 20.4924 77.9241 20.6355C77.8509 20.7786 77.741 20.8996 77.6056 20.9861C77.2006 21.2187 76.7501 21.3606 76.2849 21.4022C75.6789 21.5017 74.8738 21.5922 73.8878 21.7007C73.0727 21.7774 72.265 21.9196 71.4727 22.1259C70.7436 22.3137 70.05 22.6192 69.4193 23.0304C68.8213 23.4199 68.3326 23.9554 67.9991 24.5863C67.6258 25.3253 67.4453 26.1468 67.4745 26.9743C67.4485 27.9534 67.7095 28.9187 68.2253 29.7513C68.717 30.5032 69.4183 31.0944 70.2425 31.4519C71.1591 31.8452 72.1488 32.0395 73.1461 32.0218C73.9049 32.0345 74.6604 31.9183 75.3804 31.678C75.9869 31.4898 76.5497 31.1823 77.0357 30.7735C77.4876 30.3789 77.8619 29.9034 78.1393 29.3714H78.275V31.7323H82.7978V20.1901C82.8207 19.2835 82.6187 18.3854 82.2098 17.5759C81.8193 16.8536 81.257 16.2385 80.5726 15.7849ZM78.0669 25.6084C78.0741 26.1787 77.9137 26.7386 77.6056 27.2186C77.2914 27.6979 76.8582 28.0875 76.3483 28.3493C75.786 28.6273 75.1664 28.7698 74.5391 28.7654C73.8975 28.7937 73.2636 28.6162 72.73 28.2588C72.498 28.0921 72.3118 27.8696 72.1885 27.6119C72.0651 27.3542 72.0087 27.0696 72.0244 26.7844C71.9954 26.3889 72.0971 25.9948 72.3139 25.6627C72.5694 25.3449 72.9029 25.0987 73.2818 24.9481C73.7492 24.7585 74.2384 24.6279 74.7381 24.5591L75.6427 24.4325C75.9623 24.3903 76.2789 24.336 76.5925 24.2697C76.8979 24.2146 77.1999 24.1421 77.497 24.0526C77.7109 23.9954 77.9151 23.907 78.1031 23.7903L78.0669 25.6084Z" fill="white"/>
<path d="M91.1831 18.6981C91.7462 18.2937 92.4258 18.0841 93.1189 18.1011C93.505 18.0844 93.8905 18.1455 94.2525 18.2807C94.6146 18.4159 94.9458 18.6224 95.2265 18.8881C95.7812 19.4437 96.1318 20.1705 96.2215 20.9505H100.69C100.655 19.7245 100.283 18.532 99.6136 17.5041C98.9506 16.5169 98.0312 15.7289 96.9542 15.2246C95.7278 14.6448 94.3848 14.3539 93.0284 14.3743C91.4735 14.3525 89.9417 14.7526 88.5961 15.5321C87.3523 16.2657 86.3471 17.3432 85.7014 18.6348C84.9967 20.0654 84.6461 21.6445 84.6793 23.239C84.6452 24.8239 84.9926 26.3937 85.6924 27.8161C86.329 29.111 87.3326 30.19 88.578 30.9187C89.9542 31.7003 91.5188 32.0883 93.1008 32.0404C94.4623 32.0738 95.8127 31.7888 97.0447 31.2082C98.1134 30.6893 99.0204 29.8887 99.6679 28.8925C100.315 27.8558 100.68 26.6676 100.726 25.4461H96.2034C96.1413 26.0129 95.9494 26.5577 95.6426 27.0382C95.3679 27.4276 94.9971 27.7392 94.5662 27.9427C94.1123 28.172 93.6092 28.2869 93.1008 28.2774C92.4136 28.2925 91.7403 28.0829 91.1831 27.6804C90.5978 27.2343 90.1548 26.6278 89.9077 25.9346C89.5868 25.0448 89.4334 24.1032 89.4554 23.1576C89.4361 22.232 89.5927 21.3111 89.9167 20.4439C90.1632 19.7528 90.6027 19.1469 91.1831 18.6981Z" fill="white"/>
<path d="M118.501 14.6362H113.073L107.601 21.1129H107.348V8.94653H102.608V31.7053H107.348V26.287L108.632 24.8216L113.282 31.7053H118.826L112.169 22.0265L118.501 14.6362Z" fill="white"/>
<path d="M130.278 8.94653V17.5037H130.133C129.896 16.9977 129.592 16.5261 129.229 16.1016C128.799 15.5976 128.269 15.188 127.673 14.8986C126.927 14.5373 126.105 14.3575 125.276 14.3739C124.058 14.3656 122.862 14.7045 121.83 15.3508C120.737 16.0784 119.876 17.1053 119.351 18.3088C118.69 19.8495 118.381 21.5182 118.447 23.1934C118.396 24.847 118.704 26.492 119.351 28.0147C119.883 29.222 120.749 30.2516 121.848 30.9817C122.894 31.6537 124.114 32.0029 125.357 31.9857C126.136 32.0086 126.91 31.8636 127.628 31.5606C128.225 31.2932 128.759 30.9016 129.193 30.4118C129.56 29.99 129.864 29.5178 130.097 29.0097H130.296V31.7234H135V8.94653H130.278ZM129.953 25.8257C129.713 26.5137 129.291 27.1235 128.731 27.5896C128.162 27.9989 127.479 28.2191 126.778 28.2191C126.076 28.2191 125.393 27.9989 124.824 27.5896C124.261 27.1111 123.844 26.4842 123.621 25.7804C123.328 24.9376 123.187 24.0494 123.205 23.1572C123.188 22.2718 123.326 21.3903 123.612 20.5521C123.842 19.8647 124.263 19.2565 124.824 18.7972C125.384 18.3638 126.078 18.1398 126.787 18.164C127.484 18.1456 128.168 18.3587 128.731 18.7701C129.294 19.2222 129.717 19.8243 129.953 20.5068C130.256 21.3566 130.4 22.2551 130.378 23.1572C130.397 24.065 130.253 24.9689 129.953 25.8257Z" fill="white"/>
</g>
<defs>
<clipPath id="clip0">
<rect width="86.2048" height="23.0935" fill="white" transform="translate(48.7952 8.9458)"/>
</clipPath>
</defs>
</svg>
